<?xml version="1.0" encoding="utf-8"?>
<!-- Generator: Adobe Illustrator 23.1.0, SVG Export Plug-In . SVG Version: 6.00 Build 0)  -->
<svg version="1.1" id="Layer_1" xmlns="http://www.w3.org/2000/svg" xmlns:xlink="http://www.w3.org/1999/xlink" x="0px" y="0px"
	 viewBox="0 0 300 300" style="enable-background:new 0 0 300 300;" xml:space="preserve">
<style type="text/css">
	.st0{fill:#231F20;}
	.st1{fill:#417793;}
	.st2{fill:#7DC5CF;}
	.st3{fill:#FFFFFF;}
	.st4{fill:#244F6A;}
	.st5{fill:#62A49F;}
</style>
<polygon class="st0" points="31.2,259.2 8.4,251.9 22.3,169.7 46.3,170.4 "/>
<polygon class="st0" points="20.9,245.1 4.8,242.4 15.8,177.6 32.4,177 "/>
<polygon class="st1" points="19.7,243.4 6.9,238.8 17,179.3 30.2,181.5 "/>
<polygon class="st1" points="30.3,256.1 10.2,249.7 23.5,171.2 44.5,171.8 "/>
<polygon class="st2" points="11.7,249.9 28.9,255.4 43,171.8 24.8,172.7 "/>
<g>
	<g>
		<line class="st1" x1="35.6" y1="209.9" x2="27.9" y2="255.2"/>
		<polygon class="st1" points="27,255 35.6,209.9 35.6,209.9 28.9,255.5 		"/>
	</g>
	<g>
		<line class="st1" x1="33.1" y1="209.2" x2="25.4" y2="254.5"/>
		<polygon class="st1" points="24.5,254.2 33.1,209.2 33.1,209.2 26.3,254.8 		"/>
	</g>
	<g>
		<line class="st1" x1="30.5" y1="208.5" x2="22.9" y2="253.8"/>
		<polygon class="st1" points="21.9,253.5 30.5,208.5 30.5,208.5 23.8,254 		"/>
	</g>
	<g>
		<line class="st1" x1="28" y1="207.7" x2="20.3" y2="253"/>
		<polygon class="st1" points="19.4,252.8 28,207.7 28,207.7 21.3,253.3 		"/>
	</g>
	<g>
		<line class="st1" x1="25.5" y1="207" x2="17.8" y2="252.3"/>
		<polygon class="st1" points="16.8,252 25.5,207 25.5,207 18.7,252.6 		"/>
	</g>
	<g>
		<line class="st1" x1="22.9" y1="206.3" x2="15.2" y2="251.6"/>
		<polygon class="st1" points="14.3,251.3 22.9,206.3 22.9,206.3 16.2,251.8 		"/>
	</g>
	<g>
		<line class="st1" x1="20.4" y1="205.5" x2="12.7" y2="250.8"/>
		<polygon class="st1" points="11.8,250.6 20.4,205.5 20.4,205.5 13.6,251.1 		"/>
	</g>
</g>
<g>
	<path class="st0" d="M34.7,267.7c-4-0.7-6.7-4.5-6-8.5l15.2-89.6c0.7-4,4.5-6.7,8.5-6c4,0.7,6.7,4.5,6,8.5l-15.2,89.6
		C42.5,265.6,38.7,268.3,34.7,267.7z"/>
</g>
<polygon class="st2" points="11.1,222.8 14.8,223.4 22.4,181.7 17,179.3 "/>
<polygon class="st0" points="236.1,202.5 258.9,209.8 245,292 221,291.3 "/>
<polygon class="st0" points="247.1,212.6 262.5,219.4 251.5,284.2 235,284 "/>
<path class="st0" d="M119.4,3c-14.9,2.8-28.1,8.7-39.2,17.5C51.3,43.4,35.3,86.7,31.1,153.1l2.9,0.2c0,0.1,0,0.2,0,0.3l2.9,0.2
	c2.3-36.1,7.9-64.6,17.2-87.2l-0.9-5.1c7.5-16.5,17-29.4,28.8-38.7c22-17.4,51.3-22.7,89.7-16.2l0.5-2.9
	C152.5,0.3,134.7,0.1,119.4,3z"/>
<g>
	<line class="st3" x1="27" y1="212.8" x2="33.7" y2="159.1"/>
	<path class="st0" d="M25.8,220.1c-3.9-0.7-6.6-4.2-6.1-8.2l6.7-53.7c0.5-4,4.2-6.9,8.2-6.4c4,0.5,6.9,4.2,6.4,8.2l-6.7,53.7
		c-0.5,4-4.2,6.9-8.2,6.4C26,220.1,25.9,220.1,25.8,220.1z"/>
</g>
<g>
	<path class="st1" d="M42.2,204.6c-0.8-0.1-1.3-0.9-1.2-1.7l5.8-34.4c0.1-0.8,0.9-1.3,1.7-1.2c0.8,0.1,1.3,0.9,1.2,1.7l-5.8,34.4
		C43.8,204.2,43,204.7,42.2,204.6z"/>
</g>
<g>
	<path class="st4" d="M32.4,262.2c-0.8-0.1-1.3-0.9-1.2-1.7l5.5-32.5c0.1-0.8,0.9-1.3,1.7-1.2c0.8,0.1,1.3,0.9,1.2,1.7L34.1,261
		C34,261.8,33.3,262.4,32.4,262.2z"/>
</g>
<path class="st0" d="M222.2,20.4c13.2,7.6,23.7,17.5,31.3,29.4c19.7,31.1,20.6,77.3,2.7,141.4l-2.8-0.8c0,0.1-0.1,0.2-0.1,0.3
	l-2.8-0.8c9.7-34.8,13.8-63.6,12.5-88l2.5-4.5c-1.6-18.1-6.4-33.3-14.4-46c-15-23.7-41-38.3-79.3-44.8l0.5-2.9
	C191.8,7,208.6,12.6,222.2,20.4z"/>
<polygon class="st1" points="237.2,280.2 250.5,281 260.8,220.6 247.6,218.3 "/>
<polygon class="st2" points="260.8,220.6 248.8,220 241.8,261.8 252,263.6 "/>
<polygon class="st1" points="223.1,287.7 244.1,288.8 257.3,210.8 237.2,204.5 "/>
<polygon class="st2" points="255.6,211.8 238.7,204.9 224.8,287.6 242.7,288.7 "/>
<g>
	<path class="st0" d="M215,298.2c4,0.7,7.8-2,8.5-6l15.2-89.6c0.7-4-2-7.8-6-8.5c-4-0.7-7.8,2-8.5,6L209,289.7
		C208.3,293.7,211,297.5,215,298.2z"/>
</g>
<g>
	<g>
		<line class="st1" x1="233.4" y1="243.2" x2="225.8" y2="287.6"/>
		<polygon class="st1" points="226.8,287.7 233.4,243.2 233.4,243.2 224.9,287.6 		"/>
	</g>
	<g>
		<line class="st1" x1="236" y1="243.3" x2="228.5" y2="287.8"/>
		<polygon class="st1" points="229.4,287.8 236,243.3 236,243.3 227.5,287.7 		"/>
	</g>
	<g>
		<line class="st1" x1="238.6" y1="243.5" x2="231.1" y2="287.9"/>
		<polygon class="st1" points="232.1,288 238.6,243.5 238.6,243.5 230.1,287.9 		"/>
	</g>
	<g>
		<line class="st1" x1="241.3" y1="243.6" x2="233.7" y2="288.1"/>
		<polygon class="st1" points="234.7,288.1 241.3,243.6 241.3,243.6 232.8,288 		"/>
	</g>
	<g>
		<line class="st1" x1="243.9" y1="243.8" x2="236.4" y2="288.2"/>
		<polygon class="st1" points="237.3,288.3 243.9,243.8 243.9,243.8 235.4,288.2 		"/>
	</g>
	<g>
		<line class="st1" x1="246.5" y1="243.9" x2="239" y2="288.4"/>
		<polygon class="st1" points="240,288.4 246.5,243.9 246.5,243.9 238,288.3 		"/>
	</g>
	<g>
		<line class="st1" x1="249.2" y1="244.1" x2="241.6" y2="288.5"/>
		<polygon class="st1" points="242.6,288.6 249.2,244.1 249.2,244.1 240.7,288.5 		"/>
	</g>
</g>
<g>
	<line class="st3" x1="240.3" y1="248.9" x2="251.6" y2="196"/>
	<path class="st0" d="M239,256.2c3.9,0.7,7.6-1.8,8.4-5.7l11.4-53c0.9-4-1.7-7.9-5.6-8.7c-4-0.9-7.9,1.7-8.7,5.6l-11.4,53
		c-0.9,4,1.7,7.9,5.6,8.7C238.8,256.1,238.9,256.2,239,256.2z"/>
</g>
<g>
	<path class="st2" d="M228.6,236.2c-0.8-0.1-1.3-0.9-1.2-1.7l5.8-34.4c0.1-0.8,0.9-1.3,1.7-1.2c0.8,0.1,1.3,0.9,1.2,1.7l-5.8,34.4
		C230.2,235.8,229.4,236.3,228.6,236.2z"/>
</g>
<g>
	<path class="st1" d="M220.6,246.3c-0.8-0.1-1.3-0.9-1.2-1.7l7.7-45.6c0.1-0.8,0.9-1.3,1.7-1.2c0.8,0.1,1.3,0.9,1.2,1.7l-7.7,45.6
		C222.1,245.9,221.4,246.5,220.6,246.3z"/>
</g>
<g>
	<path class="st4" d="M212.7,292.7c-0.8-0.1-1.3-0.9-1.2-1.7l4.2-24.5c0.1-0.8,0.9-1.3,1.7-1.2c0.8,0.1,1.3,0.9,1.2,1.7l-4.2,24.5
		C214.3,292.3,213.5,292.9,212.7,292.7z"/>
</g>
<g>
	<path class="st4" d="M218.9,293.8c-0.8-0.1-1.3-0.9-1.2-1.7l5.5-32.5c0.1-0.8,0.9-1.3,1.7-1.2c0.8,0.1,1.3,0.9,1.2,1.7l-5.5,32.5
		C220.4,293.4,219.7,293.9,218.9,293.8z"/>
</g>
<path class="st2" d="M245.8,194.9L245.8,194.9c0-0.1,0.1-0.2,0.1-0.3c0.8-3.2,4.1-5.1,7.3-4.3c3.2,0.8,5.1,4.1,4.3,7.2l-10.7,52.1
	l9-49.2c0,0,0,0,0,0l0.6-3.4l0,0c0.2-2.5-1.5-4.7-4-5.2c-2.3-0.4-4.6,0.9-5.4,3l0,0l0,0l0,0l-0.5,2.1l-0.3,1.1c0,0,0,0,0,0
	l-2.9,11.3L245.8,194.9z"/>
<path class="st5" d="M251.7,188.6c0.5,0,1,0.1,1.5,0.2c0.1,0,0.2,0.1,0.3,0.1c9.6-34.8,13.5-63.6,12.1-87.9l0,0l-1.6,2.4
	C265,127.1,261,155,251.7,188.6z"/>
<path class="st2" d="M27.8,158.9L27.8,158.9c0-0.1,0-0.2,0.1-0.3c0.5-3.2,3.6-5.4,6.9-4.9c3.2,0.5,5.4,3.6,4.9,6.9l-6.4,52.8
	l4.9-49.8c0,0,0,0,0,0l0.4-3.4l0,0c0-2.5-1.9-4.6-4.4-4.9c-2.4-0.2-4.5,1.2-5.2,3.4l0,0l0,0l0,0l-0.4,2.1l-0.2,1.2c0,0,0,0,0,0
	l-2,11.5L27.8,158.9z"/>
<path class="st5" d="M36.2,152.1c-0.5-0.2-0.9-0.3-1.4-0.3c-0.1,0-0.2,0-0.3,0c2.4-36,8.1-64.5,17.5-87l0,0l0.7,2.8
	C43.9,89.6,38.5,117.3,36.2,152.1z"/>
<g>
	<path class="st2" d="M46.5,216.8c-0.8-0.1-1.3-0.9-1.2-1.7l7.7-45.6c0.1-0.8,0.9-1.3,1.7-1.2c0.8,0.1,1.3,0.9,1.2,1.7l-7.7,45.6
		C48.1,216.4,47.3,217,46.5,216.8z"/>
</g>
<g>
	<path class="st4" d="M38.6,263.3c-0.8-0.1-1.3-0.9-1.2-1.7l4.2-24.5c0.1-0.8,0.9-1.3,1.7-1.2c0.8,0.1,1.3,0.9,1.2,1.7l-4.2,24.5
		C40.2,262.9,39.4,263.4,38.6,263.3z"/>
</g>
</svg>
