<?xml version="1.0" encoding="utf-8"?>
<!-- Generator: Adobe Illustrator 23.1.0, SVG Export Plug-In . SVG Version: 6.00 Build 0)  -->
<svg version="1.1" xmlns="http://www.w3.org/2000/svg" xmlns:xlink="http://www.w3.org/1999/xlink" x="0px" y="0px"
	 viewBox="0 0 300 300" style="enable-background:new 0 0 300 300;" xml:space="preserve">
<style type="text/css">
	.st0{fill:url(#SVGID_1_);}
	.st1{fill:url(#SVGID_2_);}
	.st2{fill:url(#SVGID_3_);}
	.st3{fill:url(#SVGID_4_);}
	.st4{fill:url(#SVGID_5_);}
	.st5{fill:url(#SVGID_6_);}
	.st6{fill:#DA6556;}
	.st7{fill:url(#SVGID_7_);}
	.st8{fill:url(#SVGID_8_);}
	.st9{fill:url(#SVGID_9_);}
	.st10{fill:#DA6556;stroke:#000000;stroke-width:2;stroke-miterlimit:10;}
	.st11{stroke:#000000;stroke-miterlimit:10;}
	.st12{fill:url(#SVGID_10_);}
	.st13{fill:url(#SVGID_11_);}
</style>
<g id="Layer_1">
	<g>
		<path d="M150,298c-15.5,0-30.8-2.4-45.7-7.3c-37.6-12.2-68.2-38.3-86.1-73.5s-21.1-75.3-8.9-112.9C19.1,74,38,48.2,63.8,29.7
			C89.2,11.6,119,2,150,2c15.5,0,30.8,2.4,45.7,7.3c77.6,25.2,120.3,108.8,95.1,186.4c-9.8,30.3-28.7,56.1-54.6,74.6
			C210.8,288.4,181,298,150,298z"/>
		<path d="M150,1.5v1c15.4,0,30.7,2.4,45.5,7.2c37.5,12.2,68,38.2,85.9,73.3c17.9,35.1,21.1,75,8.9,112.5
			c-9.8,30.2-28.6,55.9-54.4,74.4c-25.3,18.1-55,27.6-85.9,27.6c-15.4,0-30.7-2.4-45.5-7.2c-37.5-12.2-68-38.2-85.9-73.3
			s-21.1-75-8.9-112.5c9.8-30.2,28.6-55.9,54.4-74.4C89.4,12,119.1,2.5,150,2.5L150,1.5 M150,1.5C87.4,1.5,29.1,41.4,8.8,104.2
			c-25.3,78,17.4,161.7,95.4,187c15.2,4.9,30.7,7.3,45.9,7.3c62.6,0,120.8-39.9,141.2-102.7c25.3-78-17.4-161.7-95.4-187
			C180.6,3.8,165.2,1.5,150,1.5L150,1.5z"/>
	</g>
</g>
<g id="Rings">
	<g>
		<linearGradient id="SVGID_1_" gradientUnits="userSpaceOnUse" x1="19.889" y1="150" x2="280.1111" y2="150">
			<stop  offset="0" style="stop-color:#999999"/>
			<stop  offset="1" style="stop-color:#333333"/>
		</linearGradient>
		<path class="st0" d="M150,20.4c34.6,0,67.2,13.5,91.6,38s38,57,38,91.6s-13.5,67.2-38,91.6s-57,38-91.6,38s-67.2-13.5-91.6-38
			s-38-57-38-91.6s13.5-67.2,38-91.6S115.4,20.4,150,20.4 M150,19.9C78.1,19.9,19.9,78.1,19.9,150S78.1,280.1,150,280.1
			S280.1,221.9,280.1,150S221.9,19.9,150,19.9L150,19.9z"/>
	</g>
	<g id="Layer_2">
	</g>
	<g id="Layer_4">
		<g>
			<linearGradient id="SVGID_2_" gradientUnits="userSpaceOnUse" x1="29.6663" y1="149.0201" x2="270.3337" y2="150.9798">
				<stop  offset="0" style="stop-color:#999999"/>
				<stop  offset="9.632999e-02" style="stop-color:#818181"/>
				<stop  offset="0.2345" style="stop-color:#646464"/>
				<stop  offset="0.3834" style="stop-color:#4F4F4F"/>
				<stop  offset="0.5463" style="stop-color:#3F3F3F"/>
				<stop  offset="0.7335" style="stop-color:#363636"/>
				<stop  offset="1" style="stop-color:#333333"/>
			</linearGradient>
			<path class="st1" d="M149.9,32.2c43.1,0,82.7,23.5,103.4,61.2c15.1,27.6,18.6,59.4,9.7,89.6s-28.9,55.2-56.5,70.3
				c-17.3,9.5-36.9,14.5-56.5,14.5c-43.1,0-82.8-23.5-103.4-61.2c-15.1-27.6-18.6-59.4-9.7-89.6s28.9-55.2,56.5-70.3
				C110.7,37.2,130.3,32.2,149.9,32.2L149.9,32.2 M149.9,29.7c-19.5,0-39.3,4.8-57.7,14.8c-58.3,31.9-79.7,105-47.7,163.3
				c21.9,39.9,63.1,62.5,105.6,62.5c19.5,0,39.3-4.8,57.7-14.8c58.3-31.9,79.7-105,47.7-163.3C233.7,52.3,192.4,29.7,149.9,29.7
				L149.9,29.7z"/>
		</g>
		<g>
			<linearGradient id="SVGID_3_" gradientUnits="userSpaceOnUse" x1="120.2141" y1="15.1761" x2="179.7859" y2="284.8239">
				<stop  offset="0" style="stop-color:#999999"/>
				<stop  offset="9.632999e-02" style="stop-color:#818181"/>
				<stop  offset="0.2345" style="stop-color:#646464"/>
				<stop  offset="0.3834" style="stop-color:#4F4F4F"/>
				<stop  offset="0.5463" style="stop-color:#3F3F3F"/>
				<stop  offset="0.7335" style="stop-color:#363636"/>
				<stop  offset="1" style="stop-color:#333333"/>
			</linearGradient>
			<path class="st2" d="M150.2,14.4c30.7,0,60.9,10.7,85,30.1c24.4,19.6,41.3,47.4,47.7,78.1c7.3,35.5,0.4,71.7-19.5,101.9
				c-19.9,30.3-50.4,51-85.8,58.3c-9.1,1.9-18.4,2.8-27.6,2.8c-30.7,0-60.9-10.7-85-30.1c-24.4-19.6-41.3-47.4-47.7-78.1
				C9.9,142,16.8,105.8,36.7,75.5c19.9-30.3,50.4-51,85.8-58.3C131.7,15.4,140.9,14.4,150.2,14.4L150.2,14.4 M150.1,11.9
				c-9.3,0-18.7,0.9-28.1,2.9C47.4,30.2-0.6,103.3,14.8,177.9c13.5,65.3,71,110.2,135.1,110.2c9.3,0,18.7-0.9,28.1-2.9
				c74.7-15.4,122.7-88.5,107.3-163.2C271.7,56.8,214.3,11.9,150.1,11.9L150.1,11.9z"/>
		</g>
		<g>
			<linearGradient id="SVGID_4_" gradientUnits="userSpaceOnUse" x1="241.0208" y1="172.0934" x2="58.9794" y2="127.9061">
				<stop  offset="0" style="stop-color:#999999"/>
				<stop  offset="9.632999e-02" style="stop-color:#818181"/>
				<stop  offset="0.2345" style="stop-color:#646464"/>
				<stop  offset="0.3834" style="stop-color:#4F4F4F"/>
				<stop  offset="0.5463" style="stop-color:#3F3F3F"/>
				<stop  offset="0.7335" style="stop-color:#363636"/>
				<stop  offset="1" style="stop-color:#333333"/>
			</linearGradient>
			<path class="st3" d="M150.1,58.8c19.5,0,38.9,6.5,54.6,18.3c16.2,12.2,27.7,28.9,33.1,48.5c13.5,48.4-15,98.8-63.4,112.2
				c-8,2.2-16.2,3.4-24.5,3.4c-19.5,0-38.9-6.5-54.7-18.3c-16.2-12.2-27.7-28.9-33.1-48.5c-13.5-48.4,15-98.8,63.4-112.2
				C133.6,60,141.8,58.8,150.1,58.8L150.1,58.8 M150.1,56.3c-8.3,0-16.7,1.1-25.1,3.4c-49.8,13.8-79,65.5-65.2,115.3
				c11.5,41.4,49.2,68.6,90.2,68.6c8.3,0,16.7-1.1,25.1-3.4c49.8-13.8,79-65.5,65.2-115.3C228.7,83.5,191.1,56.3,150.1,56.3
				L150.1,56.3z"/>
		</g>
		<g>
			<linearGradient id="SVGID_5_" gradientUnits="userSpaceOnUse" x1="41.5851" y1="169.5728" x2="258.4149" y2="130.4272">
				<stop  offset="0" style="stop-color:#999999"/>
				<stop  offset="9.632999e-02" style="stop-color:#818181"/>
				<stop  offset="0.2345" style="stop-color:#646464"/>
				<stop  offset="0.3834" style="stop-color:#4F4F4F"/>
				<stop  offset="0.5463" style="stop-color:#3F3F3F"/>
				<stop  offset="0.7335" style="stop-color:#363636"/>
				<stop  offset="1" style="stop-color:#333333"/>
			</linearGradient>
			<path class="st4" d="M150.1,42.3c25.2,0,49.7,9,69.1,25.3C238.9,84,252,107,256.2,132.3c4.7,28.4-1.9,56.9-18.6,80.3
				c-16.7,23.4-41.6,38.9-69.9,43.6c-5.9,1-11.9,1.5-17.8,1.5c-25.2,0-49.7-9-69.1-25.3C61.1,216,48,193,43.8,167.7
				c-4.7-28.4,1.9-56.9,18.6-80.3s41.6-38.9,69.9-43.6C138.2,42.8,144.2,42.3,150.1,42.3L150.1,42.3 M150.1,39.8
				c-6,0-12.1,0.5-18.2,1.5c-60,10-100.6,66.7-90.6,126.8c9,53.9,55.6,92.1,108.5,92.1c6,0,12.1-0.5,18.2-1.5
				c60-10,100.6-66.7,90.6-126.8C249.7,78,203,39.8,150.1,39.8L150.1,39.8z"/>
		</g>
		<g>
			<linearGradient id="SVGID_6_" gradientUnits="userSpaceOnUse" x1="248.6667" y1="173.9493" x2="51.3334" y2="126.0501">
				<stop  offset="0" style="stop-color:#999999"/>
				<stop  offset="9.632999e-02" style="stop-color:#818181"/>
				<stop  offset="0.2345" style="stop-color:#646464"/>
				<stop  offset="0.3834" style="stop-color:#4F4F4F"/>
				<stop  offset="0.5463" style="stop-color:#3F3F3F"/>
				<stop  offset="0.7335" style="stop-color:#363636"/>
				<stop  offset="1" style="stop-color:#333333"/>
			</linearGradient>
			<path class="st5" d="M150.1,51c21.2,0,42.3,7,59.4,19.8c17.6,13.2,30.1,31.4,36,52.7c14.6,52.6-16.3,107.3-68.9,121.9
				c-8.7,2.4-17.6,3.6-26.6,3.6c-21.2,0-42.3-7-59.4-19.8c-17.6-13.2-30.1-31.4-36-52.7C40,123.9,70.9,69.2,123.5,54.6
				C132.2,52.2,141.1,51,150.1,51L150.1,51 M150.1,48.5c-9,0-18.1,1.2-27.2,3.7c-54,15-85.6,71-70.6,125
				c12.5,44.9,53.3,74.4,97.8,74.4c9,0,18.1-1.2,27.2-3.7c54-15,85.6-71,70.6-125C235.3,77.9,194.5,48.5,150.1,48.5L150.1,48.5z"/>
		</g>
		<g>
			<circle class="st6" cx="150" cy="150" r="62.9"/>
		</g>
		<g>
			<linearGradient id="SVGID_7_" gradientUnits="userSpaceOnUse" x1="234.7356" y1="170.5678" x2="65.2645" y2="129.4318">
				<stop  offset="0" style="stop-color:#999999"/>
				<stop  offset="9.632999e-02" style="stop-color:#818181"/>
				<stop  offset="0.2345" style="stop-color:#646464"/>
				<stop  offset="0.3834" style="stop-color:#4F4F4F"/>
				<stop  offset="0.5463" style="stop-color:#3F3F3F"/>
				<stop  offset="0.7335" style="stop-color:#363636"/>
				<stop  offset="1" style="stop-color:#333333"/>
			</linearGradient>
			<path class="st7" d="M148.8,66.5c38.1,0,71.9,25.4,82.4,61.8c6.2,21.5,3.6,44-7.3,63.3c-10.9,19.4-28.9,33.3-50.6,39.1
				c-7.2,1.9-14.6,2.9-22,2.9c-38.1,0-71.9-25.4-82.4-61.8c-6.2-21.5-3.6-44,7.3-63.3c10.9-19.4,28.9-33.3,50.6-39.1
				C134,67.5,141.4,66.5,148.8,66.5L148.8,66.5 M148.8,64c-7.5,0-15.1,1-22.7,3C80,79.4,53.2,126.6,66.4,172.4
				c11,38.3,46.5,63.6,84.8,63.6c7.5,0,15.1-1,22.7-3c46.2-12.4,72.9-59.6,59.7-105.5C222.6,89.2,187.1,64,148.8,64L148.8,64z"/>
		</g>
		<g>
			<linearGradient id="SVGID_8_" gradientUnits="userSpaceOnUse" x1="226.9781" y1="168.6848" x2="73.0221" y2="131.3147">
				<stop  offset="0" style="stop-color:#999999"/>
				<stop  offset="9.632999e-02" style="stop-color:#818181"/>
				<stop  offset="0.2345" style="stop-color:#646464"/>
				<stop  offset="0.3834" style="stop-color:#4F4F4F"/>
				<stop  offset="0.5463" style="stop-color:#3F3F3F"/>
				<stop  offset="0.7335" style="stop-color:#363636"/>
				<stop  offset="1" style="stop-color:#333333"/>
			</linearGradient>
			<path class="st8" d="M150,73.3c34.3,0,64.7,23.1,73.9,56.2c11.3,40.7-12.6,83.1-53.4,94.4c-6.7,1.9-13.7,2.8-20.6,2.8
				c-34.3,0-64.7-23.1-73.9-56.2c-5.5-19.7-3-40.4,7.1-58.3c10.1-17.8,26.5-30.7,46.2-36.2C136.2,74.2,143.1,73.3,150,73.3L150,73.3
				 M150,70.8c-7,0-14.2,0.9-21.2,2.9C86.7,85.4,62,129.1,73.7,171.2c9.7,35.1,41.6,58,76.3,58c7,0,14.2-0.9,21.2-2.9
				c42.1-11.7,66.8-55.4,55.1-97.5C216.6,93.7,184.7,70.8,150,70.8L150,70.8z"/>
		</g>
		<g>
			<linearGradient id="SVGID_9_" gradientUnits="userSpaceOnUse" x1="221.6626" y1="167.3946" x2="78.3375" y2="132.605">
				<stop  offset="0" style="stop-color:#999999"/>
				<stop  offset="9.632999e-02" style="stop-color:#818181"/>
				<stop  offset="0.2345" style="stop-color:#646464"/>
				<stop  offset="0.3834" style="stop-color:#4F4F4F"/>
				<stop  offset="0.5463" style="stop-color:#3F3F3F"/>
				<stop  offset="0.7335" style="stop-color:#363636"/>
				<stop  offset="1" style="stop-color:#333333"/>
			</linearGradient>
			<path class="st9" d="M149,79.7c32,0,60.5,21.4,69.3,52c5.2,18.1,3,37-6.2,53.2c-9.2,16.3-24.3,28-42.6,32.9
				c-6.1,1.6-12.3,2.5-18.5,2.5c-32,0-60.5-21.4-69.3-52c-5.2-18.1-3-37,6.2-53.2c9.2-16.3,24.3-28,42.6-32.9
				C136.5,80.6,142.8,79.7,149,79.7L149,79.7 M149,77.2c-6.3,0-12.8,0.8-19.2,2.5C90.8,90.3,68.1,130.2,79.3,169
				c9.3,32.4,39.3,53.8,71.7,53.8c6.3,0,12.8-0.8,19.2-2.5c39.1-10.5,61.7-50.4,50.5-89.2C211.4,98.6,181.4,77.2,149,77.2L149,77.2z
				"/>
		</g>
		<circle class="st10" cx="150" cy="150" r="51.6"/>
		<circle class="st11" cx="150" cy="150" r="4.1"/>
	</g>
	<g>
		<linearGradient id="SVGID_10_" gradientUnits="userSpaceOnUse" x1="121.9596" y1="23.0769" x2="178.0406" y2="276.924">
			<stop  offset="0" style="stop-color:#999999"/>
			<stop  offset="9.632999e-02" style="stop-color:#818181"/>
			<stop  offset="0.2345" style="stop-color:#646464"/>
			<stop  offset="0.3834" style="stop-color:#4F4F4F"/>
			<stop  offset="0.5463" style="stop-color:#3F3F3F"/>
			<stop  offset="0.7335" style="stop-color:#363636"/>
			<stop  offset="1" style="stop-color:#333333"/>
		</linearGradient>
		<path class="st12" d="M150,22.5c36.4,0,71.1,15.6,95.3,42.8c22.6,25.4,34,58.2,32,92.2c-2,34-17.1,65.2-42.6,87.8
			c-23.4,20.8-53.4,32.2-84.6,32.2c-36.4,0-71.1-15.6-95.3-42.8c-22.6-25.4-34-58.2-32-92.2c2-34,17.1-65.2,42.6-87.8
			C88.7,34,118.7,22.5,150,22.5L150,22.5 M150,20c-30.7,0-61.5,10.8-86.3,32.8C10,100.5,5.2,182.7,52.9,236.3
			C78.5,265.2,114.2,280,150,280c30.7,0,61.5-10.8,86.3-32.8c53.6-47.7,58.5-129.8,10.8-183.5C221.5,34.8,185.8,20,150,20L150,20z"
			/>
	</g>
	<g>
		<linearGradient id="SVGID_11_" gradientUnits="userSpaceOnUse" x1="5.6493" y1="130.373" x2="294.3507" y2="169.627">
			<stop  offset="0" style="stop-color:#999999"/>
			<stop  offset="9.632999e-02" style="stop-color:#818181"/>
			<stop  offset="0.2345" style="stop-color:#646464"/>
			<stop  offset="0.3834" style="stop-color:#4F4F4F"/>
			<stop  offset="0.5463" style="stop-color:#3F3F3F"/>
			<stop  offset="0.7335" style="stop-color:#363636"/>
			<stop  offset="1" style="stop-color:#333333"/>
		</linearGradient>
		<path class="st13" d="M149.8,4.3v2.5c7.1,0,14.3,0.5,21.4,1.6c37.8,5.7,71.2,25.7,93.9,56.5s32.1,68.5,26.5,106.3
			c-5.1,34.1-22.4,65.2-48.6,87.6c-25.9,22.2-58.9,34.4-92.8,34.4c-7.1,0-14.3-0.5-21.4-1.6c-37.8-5.7-71.2-25.7-93.9-56.5
			S2.7,166.6,8.4,128.8C13.5,94.7,30.8,63.5,57,41.2C82.9,19,115.9,6.8,149.8,6.8L149.8,4.3 M149.8,4.3
			C78.9,4.3,16.8,56.2,5.9,128.4C-6,208,48.8,282.1,128.4,294.1c7.3,1.1,14.6,1.6,21.8,1.6c70.9,0,133.1-51.9,143.9-124.1
			C306,92,251.2,17.9,171.6,5.9C164.3,4.8,157,4.3,149.8,4.3L149.8,4.3z"/>
	</g>
</g>
</svg>
