<?xml version="1.0" encoding="utf-8"?>
<!-- Generator: Adobe Illustrator 23.1.0, SVG Export Plug-In . SVG Version: 6.00 Build 0)  -->
<svg version="1.1" xmlns="http://www.w3.org/2000/svg" xmlns:xlink="http://www.w3.org/1999/xlink" x="0px" y="0px"
	 viewBox="0 0 280 280" style="enable-background:new 0 0 280 280;" xml:space="preserve">
<style type="text/css">
	.st0{fill:url(#SVGID_1_);}
	.st1{fill:url(#SVGID_2_);}
	.st2{fill:url(#SVGID_3_);}
	.st3{fill:url(#SVGID_4_);}
	.st4{fill:url(#SVGID_5_);}
	.st5{fill:url(#SVGID_6_);}
	.st6{fill:#427693;}
	.st7{fill:url(#SVGID_7_);}
	.st8{fill:url(#SVGID_8_);}
	.st9{fill:url(#SVGID_9_);}
	.st10{fill:#427693;stroke:#000000;stroke-width:2;stroke-miterlimit:10;}
	.st11{stroke:#000000;stroke-miterlimit:10;}
	.st12{fill:url(#SVGID_10_);}
	.st13{fill:url(#SVGID_11_);}
</style>
<g id="Layer_1">
	<g>
		<path d="M140,278.6c-14.5,0-28.9-2.3-42.8-6.8C62,260.4,33.4,235.9,16.5,203C-0.3,170-3.2,132.4,8.2,97.2
			c9.2-28.4,26.9-52.6,51.1-69.9c23.7-17,51.6-26,80.7-26c14.5,0,28.9,2.3,42.8,6.8C218,19.6,246.6,44.1,263.5,77
			c16.8,33,19.8,70.5,8.4,105.7c-9.2,28.4-26.9,52.6-51.1,69.9C197,269.7,169.1,278.6,140,278.6z"/>
		<path d="M140,0.9v1c14.4,0,28.8,2.3,42.6,6.8C217.7,20,246.3,44.4,263,77.3c16.8,32.9,19.7,70.3,8.3,105.4
			c-9.2,28.3-26.8,52.4-50.9,69.6c-23.7,16.9-51.5,25.9-80.4,25.9c-14.4,0-28.8-2.3-42.6-6.8C62.3,260,33.7,235.6,17,202.7
			S-2.7,132.5,8.7,97.4C17.8,69.1,35.4,45,59.6,27.7C83.2,10.8,111,1.9,140,1.9L140,0.9 M140,0.9C81.3,0.9,26.8,38.3,7.7,97.1
			C-16,170.1,24,248.6,97.1,272.3c14.3,4.6,28.7,6.8,43,6.8c58.6,0,113.2-37.4,132.3-96.2C296,109.9,256,31.4,182.9,7.7
			C168.7,3.1,154.2,0.9,140,0.9L140,0.9z"/>
	</g>
</g>
<g id="Rings">
	<g>
		<linearGradient id="SVGID_1_" gradientUnits="userSpaceOnUse" x1="18.1089" y1="140" x2="261.8911" y2="140">
			<stop  offset="0" style="stop-color:#999999"/>
			<stop  offset="1" style="stop-color:#333333"/>
		</linearGradient>
		<path class="st0" d="M140,18.6c32.4,0,62.9,12.6,85.8,35.6c22.9,22.9,35.6,53.4,35.6,85.8s-12.6,62.9-35.6,85.8
			c-22.9,22.9-53.4,35.6-85.8,35.6s-62.9-12.6-85.8-35.6c-22.9-22.9-35.6-53.4-35.6-85.8s12.6-62.9,35.6-85.8
			C77.1,31.2,107.6,18.6,140,18.6 M140,18.1C72.7,18.1,18.1,72.7,18.1,140S72.7,261.9,140,261.9S261.9,207.3,261.9,140
			S207.3,18.1,140,18.1L140,18.1z"/>
	</g>
	<g id="Layer_2">
	</g>
	<g id="Layer_4">
		<g>
			<linearGradient id="SVGID_2_" gradientUnits="userSpaceOnUse" x1="27.2685" y1="139.082" x2="252.7314" y2="140.9179">
				<stop  offset="0" style="stop-color:#999999"/>
				<stop  offset="9.632999e-02" style="stop-color:#818181"/>
				<stop  offset="0.2345" style="stop-color:#646464"/>
				<stop  offset="0.3834" style="stop-color:#4F4F4F"/>
				<stop  offset="0.5463" style="stop-color:#3F3F3F"/>
				<stop  offset="0.7335" style="stop-color:#363636"/>
				<stop  offset="1" style="stop-color:#333333"/>
			</linearGradient>
			<path class="st1" d="M139.9,29.8c40.3,0,77.4,22,96.8,57.3c14.1,25.8,17.4,55.6,9.1,83.9c-8.3,28.3-27,51.6-52.9,65.7
				c-16.2,8.9-34.5,13.6-52.8,13.6c-40.3,0-77.4-22-96.8-57.3c-14.1-25.8-17.4-55.6-9.1-83.9c8.3-28.3,27-51.6,52.9-65.7
				C103.3,34.5,121.5,29.8,139.9,29.8L139.9,29.8 M139.9,27.3c-18.3,0-36.9,4.5-54,13.9c-54.6,29.9-74.6,98.4-44.7,153
				c20.5,37.4,59.1,58.6,99,58.6c18.3,0,36.9-4.5,54-13.9c54.6-29.9,74.6-98.4,44.7-153C218.4,48.4,179.8,27.3,139.9,27.3
				L139.9,27.3z"/>
		</g>
		<g>
			<linearGradient id="SVGID_3_" gradientUnits="userSpaceOnUse" x1="112.0958" y1="13.6938" x2="167.9041" y2="266.3062">
				<stop  offset="0" style="stop-color:#999999"/>
				<stop  offset="9.632999e-02" style="stop-color:#818181"/>
				<stop  offset="0.2345" style="stop-color:#646464"/>
				<stop  offset="0.3834" style="stop-color:#4F4F4F"/>
				<stop  offset="0.5463" style="stop-color:#3F3F3F"/>
				<stop  offset="0.7335" style="stop-color:#363636"/>
				<stop  offset="1" style="stop-color:#333333"/>
			</linearGradient>
			<path class="st2" d="M140.1,13.1c28.7,0,57,10,79.5,28.1c22.8,18.4,38.7,44.3,44.6,73.1c6.9,33.2,0.4,67-18.2,95.4
				c-18.6,28.3-47.1,47.7-80.3,54.5c-8.5,1.8-17.2,2.7-25.8,2.7c-28.7,0-57-10-79.5-28.1c-22.8-18.4-38.7-44.3-44.6-73.1
				c-6.9-33.2-0.4-67,18.2-95.4C52.6,42,81.1,22.6,114.3,15.8C122.8,14,131.5,13.1,140.1,13.1L140.1,13.1 M140.1,10.6
				c-8.7,0-17.5,0.9-26.3,2.7c-70,14.5-115,82.9-100.5,152.9C26,227.3,79.8,269.4,139.9,269.4c8.7,0,17.5-0.9,26.3-2.7
				c70-14.5,115-82.9,100.5-152.9C254,52.7,200.2,10.6,140.1,10.6L140.1,10.6z"/>
		</g>
		<g>
			<linearGradient id="SVGID_4_" gradientUnits="userSpaceOnUse" x1="225.2704" y1="160.6976" x2="54.7297" y2="119.3019">
				<stop  offset="0" style="stop-color:#999999"/>
				<stop  offset="9.632999e-02" style="stop-color:#818181"/>
				<stop  offset="0.2345" style="stop-color:#646464"/>
				<stop  offset="0.3834" style="stop-color:#4F4F4F"/>
				<stop  offset="0.5463" style="stop-color:#3F3F3F"/>
				<stop  offset="0.7335" style="stop-color:#363636"/>
				<stop  offset="1" style="stop-color:#333333"/>
			</linearGradient>
			<path class="st3" d="M140.1,54.7c38.1,0,71.9,25.7,82.1,62.4c6.1,21.9,3.3,44.9-7.9,64.8s-29.4,34.1-51.4,40.2
				c-7.5,2.1-15.2,3.1-22.9,3.1c-18.3,0-36.4-6.1-51.1-17.1c-15.2-11.4-25.9-27.1-31-45.4c-12.6-45.3,14-92.4,59.3-104.9
				C124.7,55.8,132.4,54.7,140.1,54.7L140.1,54.7 M140,52.2c-7.8,0-15.7,1-23.5,3.2c-46.7,13-74,61.3-61,108
				c10.8,38.8,46.1,64.3,84.5,64.3c7.8,0,15.7-1,23.5-3.2c46.7-13,74-61.3,61-108C213.7,77.7,178.5,52.2,140,52.2L140,52.2z"/>
		</g>
		<g>
			<linearGradient id="SVGID_5_" gradientUnits="userSpaceOnUse" x1="38.4344" y1="158.3362" x2="241.5656" y2="121.6638">
				<stop  offset="0" style="stop-color:#999999"/>
				<stop  offset="9.632999e-02" style="stop-color:#818181"/>
				<stop  offset="0.2345" style="stop-color:#646464"/>
				<stop  offset="0.3834" style="stop-color:#4F4F4F"/>
				<stop  offset="0.5463" style="stop-color:#3F3F3F"/>
				<stop  offset="0.7335" style="stop-color:#363636"/>
				<stop  offset="1" style="stop-color:#333333"/>
			</linearGradient>
			<path class="st4" d="M140.1,39.3c23.6,0,46.5,8.4,64.7,23.6c18.3,15.4,30.6,36.9,34.6,60.6c4.4,26.5-1.8,53.2-17.4,75.1
				s-38.9,36.4-65.4,40.8c-5.5,0.9-11.1,1.4-16.7,1.4c-23.6,0-46.5-8.4-64.7-23.6c-18.3-15.4-30.6-36.9-34.6-60.6
				c-4.4-26.5,1.8-53.2,17.4-75.1c15.6-21.9,38.9-36.4,65.4-40.8C129,39.7,134.6,39.3,140.1,39.3L140.1,39.3 M140.1,36.8
				c-5.6,0-11.3,0.5-17.1,1.4c-56.2,9.4-94.2,62.5-84.9,118.8c8.4,50.5,52.1,86.3,101.7,86.3c5.6,0,11.3-0.5,17.1-1.4
				c56.2-9.4,94.2-62.5,84.9-118.8C233.4,72.6,189.7,36.8,140.1,36.8L140.1,36.8z"/>
		</g>
		<g>
			<linearGradient id="SVGID_6_" gradientUnits="userSpaceOnUse" x1="232.4333" y1="162.4362" x2="47.5668" y2="117.5632">
				<stop  offset="0" style="stop-color:#999999"/>
				<stop  offset="9.632999e-02" style="stop-color:#818181"/>
				<stop  offset="0.2345" style="stop-color:#646464"/>
				<stop  offset="0.3834" style="stop-color:#4F4F4F"/>
				<stop  offset="0.5463" style="stop-color:#3F3F3F"/>
				<stop  offset="0.7335" style="stop-color:#363636"/>
				<stop  offset="1" style="stop-color:#333333"/>
			</linearGradient>
			<path class="st5" d="M140.1,47.4c19.8,0,39.6,6.6,55.5,18.6c16.5,12.3,28.1,29.4,33.6,49.3c13.7,49.2-15.2,100.3-64.4,114
				c-8.1,2.3-16.5,3.4-24.8,3.4c-19.8,0-39.6-6.6-55.5-18.5c-16.5-12.3-28.1-29.4-33.6-49.3C37.1,115.6,66,64.5,115.2,50.8
				C123.3,48.5,131.7,47.4,140.1,47.4L140.1,47.4 M140.1,44.9c-8.4,0-17,1.1-25.5,3.5c-50.6,14.1-80.2,66.5-66.2,117.1
				c11.7,42.1,49.9,69.7,91.6,69.7c8.4,0,17-1.1,25.5-3.5c50.6-14.1,80.2-66.5,66.2-117.1C219.9,72.4,181.7,44.9,140.1,44.9
				L140.1,44.9z"/>
		</g>
		<g>
			<circle class="st6" cx="140" cy="140" r="58.9"/>
		</g>
		<g>
			<linearGradient id="SVGID_7_" gradientUnits="userSpaceOnUse" x1="219.3823" y1="159.2684" x2="60.6178" y2="120.7312">
				<stop  offset="0" style="stop-color:#999999"/>
				<stop  offset="9.632999e-02" style="stop-color:#818181"/>
				<stop  offset="0.2345" style="stop-color:#646464"/>
				<stop  offset="0.3834" style="stop-color:#4F4F4F"/>
				<stop  offset="0.5463" style="stop-color:#3F3F3F"/>
				<stop  offset="0.7335" style="stop-color:#363636"/>
				<stop  offset="1" style="stop-color:#333333"/>
			</linearGradient>
			<path class="st7" d="M138.9,61.9c35.6,0,67.3,23.8,77,57.8c5.8,20.1,3.3,41.1-6.9,59.2c-10.2,18.1-27.1,31.1-47.4,36.5
				c-6.7,1.8-13.7,2.7-20.6,2.7c-35.6,0-67.3-23.8-77-57.8c-5.8-20.1-3.3-41.1,6.9-59.2C81.2,83.1,98,70.1,118.3,64.6
				C125,62.8,132,61.9,138.9,61.9L138.9,61.9 M138.9,59.4c-7,0-14.2,0.9-21.3,2.8c-43.3,11.6-68.3,55.8-56,98.8
				c10.3,35.9,43.5,59.6,79.4,59.6c7,0,14.2-0.9,21.3-2.8c43.3-11.6,68.3-55.8,56-98.8C208,83.1,174.8,59.4,138.9,59.4L138.9,59.4z"
				/>
		</g>
		<g>
			<linearGradient id="SVGID_8_" gradientUnits="userSpaceOnUse" x1="212.1149" y1="157.5044" x2="67.8852" y2="122.4952">
				<stop  offset="0" style="stop-color:#999999"/>
				<stop  offset="9.632999e-02" style="stop-color:#818181"/>
				<stop  offset="0.2345" style="stop-color:#646464"/>
				<stop  offset="0.3834" style="stop-color:#4F4F4F"/>
				<stop  offset="0.5463" style="stop-color:#3F3F3F"/>
				<stop  offset="0.7335" style="stop-color:#363636"/>
				<stop  offset="1" style="stop-color:#333333"/>
			</linearGradient>
			<path class="st8" d="M140,68.3c32.1,0,60.4,21.6,69,52.5c10.6,38.1-11.8,77.7-49.9,88.3c-6.3,1.7-12.8,2.6-19.2,2.6
				c-32.1,0-60.4-21.6-69-52.5c-10.6-38.1,11.8-77.7,49.9-88.3C127.1,69.2,133.6,68.3,140,68.3L140,68.3 M140,65.8
				c-6.6,0-13.3,0.9-19.9,2.7c-39.5,11-62.6,51.9-51.6,91.4c9.1,32.8,38.9,54.4,71.4,54.4c6.6,0,13.3-0.9,19.9-2.7
				c39.5-11,62.6-51.9,51.6-91.4C202.4,87.3,172.5,65.8,140,65.8L140,65.8z"/>
		</g>
		<g>
			<linearGradient id="SVGID_9_" gradientUnits="userSpaceOnUse" x1="207.1352" y1="156.2957" x2="72.8649" y2="123.704">
				<stop  offset="0" style="stop-color:#999999"/>
				<stop  offset="9.632999e-02" style="stop-color:#818181"/>
				<stop  offset="0.2345" style="stop-color:#646464"/>
				<stop  offset="0.3834" style="stop-color:#4F4F4F"/>
				<stop  offset="0.5463" style="stop-color:#3F3F3F"/>
				<stop  offset="0.7335" style="stop-color:#363636"/>
				<stop  offset="1" style="stop-color:#333333"/>
			</linearGradient>
			<path class="st9" d="M139.1,74.3c29.9,0,56.6,20,64.8,48.6c4.9,16.9,2.8,34.6-5.8,49.7c-8.6,15.2-22.7,26.1-39.8,30.7
				c-5.7,1.5-11.5,2.3-17.3,2.3c-29.9,0-56.6-20-64.8-48.6c-4.9-16.9-2.8-34.6,5.8-49.7c8.6-15.2,22.7-26.1,39.8-30.7
				C127.4,75.1,133.2,74.3,139.1,74.3L139.1,74.3 M139.1,71.8c-5.9,0-12,0.8-18,2.4c-36.6,9.8-57.8,47.2-47.3,83.6
				c8.7,30.4,36.8,50.4,67.2,50.4c5.9,0,12-0.8,18-2.4c36.6-9.8,57.8-47.2,47.3-83.6C197.5,91.8,169.4,71.8,139.1,71.8L139.1,71.8z"
				/>
		</g>
		<circle class="st10" cx="140" cy="140" r="48.3"/>
		<circle class="st11" cx="140" cy="140" r="3.9"/>
	</g>
	<g>
		<linearGradient id="SVGID_10_" gradientUnits="userSpaceOnUse" x1="113.731" y1="21.0954" x2="166.2691" y2="258.9054">
			<stop  offset="0" style="stop-color:#999999"/>
			<stop  offset="9.632999e-02" style="stop-color:#818181"/>
			<stop  offset="0.2345" style="stop-color:#646464"/>
			<stop  offset="0.3834" style="stop-color:#4F4F4F"/>
			<stop  offset="0.5463" style="stop-color:#3F3F3F"/>
			<stop  offset="0.7335" style="stop-color:#363636"/>
			<stop  offset="1" style="stop-color:#333333"/>
		</linearGradient>
		<path class="st12" d="M140,20.7c34.1,0,66.6,14.6,89.2,40c21.2,23.8,31.8,54.4,29.9,86.2c-1.9,31.8-16,61-39.8,82.1
			c-21.9,19.4-50,30.1-79.2,30.1c-34.1,0-66.6-14.6-89.2-40C29.7,195.4,19.1,164.8,21,133c1.9-31.8,16-61,39.8-82.1
			C82.6,31.4,110.7,20.7,140,20.7L140,20.7 M140,18.2c-28.8,0-57.6,10.1-80.8,30.8C8.9,93.7,4.3,170.6,49,220.9
			c24.1,27.1,57.5,40.9,91,40.9c28.8,0,57.6-10.1,80.8-30.8c50.3-44.7,54.8-121.6,10.1-171.9C206.9,32,173.5,18.2,140,18.2L140,18.2
			z"/>
	</g>
	<g>
		<linearGradient id="SVGID_11_" gradientUnits="userSpaceOnUse" x1="4.7689" y1="121.6129" x2="275.2311" y2="158.387">
			<stop  offset="0" style="stop-color:#999999"/>
			<stop  offset="9.632999e-02" style="stop-color:#818181"/>
			<stop  offset="0.2345" style="stop-color:#646464"/>
			<stop  offset="0.3834" style="stop-color:#4F4F4F"/>
			<stop  offset="0.5463" style="stop-color:#3F3F3F"/>
			<stop  offset="0.7335" style="stop-color:#363636"/>
			<stop  offset="1" style="stop-color:#333333"/>
		</linearGradient>
		<path class="st13" d="M139.8,3.5V6c6.7,0,13.4,0.5,20,1.5c35.4,5.3,66.6,24.1,87.9,52.9c21.3,28.8,30.1,64.1,24.8,99.5
			c-4.8,31.9-20.9,61-45.4,82c-24.3,20.7-55.1,32.2-86.9,32.2c-6.7,0-13.4-0.5-20-1.5c-35.4-5.3-66.6-24.1-87.9-52.9
			S2.2,155.5,7.5,120.1c4.8-31.9,20.9-61,45.4-82C77.2,17.4,108.1,6,139.8,6L139.8,3.5 M139.8,3.5C73.4,3.5,15.2,52.1,5,119.8
			c-11.2,74.5,40.2,144,114.7,155.2c6.9,1,13.7,1.5,20.4,1.5c66.4,0,124.7-48.6,134.8-116.3C286.1,85.7,234.8,16.2,160.2,5
			C153.4,4,146.6,3.5,139.8,3.5L139.8,3.5z"/>
	</g>
</g>
</svg>
