<?xml version="1.0" encoding="utf-8"?>
<!-- Generator: Adobe Illustrator 23.1.0, SVG Export Plug-In . SVG Version: 6.00 Build 0)  -->
<svg version="1.1" id="Layer_1" xmlns="http://www.w3.org/2000/svg" xmlns:xlink="http://www.w3.org/1999/xlink" x="0px" y="0px"
	 viewBox="0 0 300 300" style="enable-background:new 0 0 300 300;" xml:space="preserve">
<style type="text/css">
	.st0{fill:#F19B60;}
	.st1{fill:#FDD07C;}
	.st2{fill:none;stroke:#FDD07C;stroke-width:2;}
	.st3{clip-path:url(#SVGID_2_);fill:#244F6A;}
	.st4{clip-path:url(#SVGID_4_);fill:#244F6A;}
	.st5{clip-path:url(#SVGID_6_);fill:#244F6A;}
	.st6{clip-path:url(#SVGID_8_);fill:#244F6A;}
	.st7{clip-path:url(#SVGID_10_);fill:#244F6A;}
	.st8{clip-path:url(#SVGID_12_);fill:#244F6A;}
	.st9{clip-path:url(#SVGID_14_);fill:#244F6A;}
	.st10{clip-path:url(#SVGID_16_);fill:#244F6A;}
	.st11{clip-path:url(#SVGID_18_);fill:#244F6A;}
	.st12{clip-path:url(#SVGID_20_);fill:#244F6A;}
	.st13{clip-path:url(#SVGID_22_);fill:#244F6A;}
	.st14{clip-path:url(#SVGID_24_);fill:#7EC6D0;}
	.st15{clip-path:url(#SVGID_26_);fill:#244F6A;}
	.st16{clip-path:url(#SVGID_28_);fill:#244F6A;}
	.st17{clip-path:url(#SVGID_30_);fill:#FDD07C;}
	.st18{clip-path:url(#SVGID_32_);fill:#F6B250;}
	.st19{clip-path:url(#SVGID_34_);fill:#F6B250;}
	.st20{clip-path:url(#SVGID_36_);fill:#244F6A;}
	.st21{clip-path:url(#SVGID_38_);fill:#244F6A;}
	.st22{clip-path:url(#SVGID_40_);fill:#244F6A;}
	.st23{clip-path:url(#SVGID_42_);fill:#244F6A;}
	.st24{clip-path:url(#SVGID_44_);fill:#244F6A;}
	.st25{clip-path:url(#SVGID_46_);fill:#7EC6D0;}
	.st26{clip-path:url(#SVGID_48_);fill:#244F6A;}
	.st27{clip-path:url(#SVGID_50_);fill:#FDD07C;}
	.st28{clip-path:url(#SVGID_52_);fill:#244F6A;}
	.st29{clip-path:url(#SVGID_54_);fill:#7EC6D0;}
	.st30{clip-path:url(#SVGID_56_);fill:#7EC6D0;}
	.st31{clip-path:url(#SVGID_58_);fill:#F6B250;}
	.st32{clip-path:url(#SVGID_60_);fill:#244F6A;}
	.st33{clip-path:url(#SVGID_62_);fill:#7EC6D0;}
	.st34{clip-path:url(#SVGID_64_);fill:#F6B250;}
	.st35{clip-path:url(#SVGID_66_);fill:#7EC6D0;}
	.st36{clip-path:url(#SVGID_68_);fill:#7EC6D0;}
	.st37{clip-path:url(#SVGID_70_);fill:#244F6A;}
	.st38{clip-path:url(#SVGID_72_);fill:#F6B250;}
	.st39{clip-path:url(#SVGID_74_);fill:#7EC6D0;}
	.st40{clip-path:url(#SVGID_76_);fill:#7EC6D0;}
	.st41{clip-path:url(#SVGID_78_);fill:#244F6A;}
	.st42{clip-path:url(#SVGID_80_);fill:#7EC6D0;}
	.st43{clip-path:url(#SVGID_82_);fill:#F6B250;}
	.st44{clip-path:url(#SVGID_84_);fill:#244F6A;}
	.st45{clip-path:url(#SVGID_86_);fill:#F6B250;}
	.st46{clip-path:url(#SVGID_88_);fill:#FFFFFF;}
	.st47{clip-path:url(#SVGID_90_);fill:#7EC6D0;}
	.st48{clip-path:url(#SVGID_92_);fill:#7EC6D0;}
	.st49{clip-path:url(#SVGID_94_);fill:#7EC6D0;}
	.st50{clip-path:url(#SVGID_96_);fill:#7EC6D0;}
	.st51{clip-path:url(#SVGID_98_);fill:#244F6A;}
	.st52{clip-path:url(#SVGID_100_);fill:#7EC6D0;}
	.st53{clip-path:url(#SVGID_102_);fill:#7EC6D0;}
	.st54{clip-path:url(#SVGID_104_);fill:#7EC6D0;}
	.st55{clip-path:url(#SVGID_106_);fill:#F6B250;}
	.st56{clip-path:url(#SVGID_108_);fill:#F6B250;}
	.st57{clip-path:url(#SVGID_110_);fill:#7EC6D0;}
	.st58{clip-path:url(#SVGID_112_);fill:#7EC6D0;}
	.st59{clip-path:url(#SVGID_114_);fill:#7EC6D0;}
	.st60{clip-path:url(#SVGID_116_);fill:#7EC6D0;}
	.st61{clip-path:url(#SVGID_118_);fill:#7EC6D0;}
	.st62{clip-path:url(#SVGID_120_);fill:#7EC6D0;}
	.st63{clip-path:url(#SVGID_122_);fill:#7EC6D0;}
	.st64{clip-path:url(#SVGID_124_);fill:#7EC6D0;}
	.st65{clip-path:url(#SVGID_126_);fill:#7EC6D0;}
	.st66{clip-path:url(#SVGID_128_);fill:#7EC6D0;}
	.st67{clip-path:url(#SVGID_130_);fill:#7EC6D0;}
	.st68{clip-path:url(#SVGID_132_);fill:#7EC6D0;}
	.st69{clip-path:url(#SVGID_134_);fill:#7EC6D0;}
	.st70{clip-path:url(#SVGID_136_);fill:#7EC6D0;}
	.st71{clip-path:url(#SVGID_138_);fill:#7EC6D0;}
	.st72{clip-path:url(#SVGID_140_);fill:#7EC6D0;}
	.st73{clip-path:url(#SVGID_142_);fill:#7EC6D0;}
	.st74{clip-path:url(#SVGID_144_);fill:#7EC6D0;}
	.st75{clip-path:url(#SVGID_146_);fill:#7EC6D0;}
	.st76{clip-path:url(#SVGID_148_);fill:#7EC6D0;}
	.st77{clip-path:url(#SVGID_150_);fill:#7EC6D0;}
	.st78{clip-path:url(#SVGID_152_);fill:#7EC6D0;}
	.st79{clip-path:url(#SVGID_154_);fill:#7EC6D0;}
	.st80{clip-path:url(#SVGID_156_);fill:#7EC6D0;}
	.st81{clip-path:url(#SVGID_158_);fill:#7EC6D0;}
	.st82{clip-path:url(#SVGID_160_);fill:#7EC6D0;}
	.st83{clip-path:url(#SVGID_162_);fill:#7EC6D0;}
	.st84{clip-path:url(#SVGID_164_);fill:#7EC6D0;}
	.st85{clip-path:url(#SVGID_166_);fill:#7EC6D0;}
	.st86{clip-path:url(#SVGID_168_);fill:#7EC6D0;}
	.st87{clip-path:url(#SVGID_170_);fill:#7EC6D0;}
	.st88{clip-path:url(#SVGID_172_);fill:#7EC6D0;}
	.st89{clip-path:url(#SVGID_174_);fill:#7EC6D0;}
	.st90{clip-path:url(#SVGID_176_);fill:#7EC6D0;}
	.st91{clip-path:url(#SVGID_178_);fill:#7EC6D0;}
	.st92{clip-path:url(#SVGID_180_);fill:#7EC6D0;}
	.st93{clip-path:url(#SVGID_182_);fill:#7EC6D0;}
	.st94{clip-path:url(#SVGID_184_);fill:#7EC6D0;}
	.st95{clip-path:url(#SVGID_186_);fill:#7EC6D0;}
	.st96{clip-path:url(#SVGID_188_);fill:#7EC6D0;}
	.st97{clip-path:url(#SVGID_190_);fill:#7EC6D0;}
	.st98{clip-path:url(#SVGID_192_);fill:#7EC6D0;}
	.st99{clip-path:url(#SVGID_194_);fill:#7EC6D0;}
	.st100{clip-path:url(#SVGID_196_);fill:#244F6A;}
	.st101{clip-path:url(#SVGID_198_);fill:#244F6A;}
	.st102{clip-path:url(#SVGID_200_);fill:#F6B250;}
	.st103{clip-path:url(#SVGID_202_);fill:#7EC6D0;}
	.st104{clip-path:url(#SVGID_204_);fill:#FDD07C;}
	.st105{clip-path:url(#SVGID_206_);fill:#7EC6D0;}
	.st106{clip-path:url(#SVGID_208_);fill:#7EC6D0;}
	.st107{clip-path:url(#SVGID_210_);fill:#7EC6D0;}
	.st108{clip-path:url(#SVGID_212_);fill:#7EC6D0;}
	.st109{clip-path:url(#SVGID_214_);fill:#7EC6D0;}
	.st110{clip-path:url(#SVGID_216_);fill:#7EC6D0;}
	.st111{clip-path:url(#SVGID_218_);fill:#7EC6D0;}
	.st112{clip-path:url(#SVGID_220_);fill:#7EC6D0;}
	.st113{clip-path:url(#SVGID_222_);fill:#F6B250;}
	.st114{clip-path:url(#SVGID_224_);fill:#7EC6D0;}
	.st115{clip-path:url(#SVGID_226_);fill:#7EC6D0;}
	.st116{clip-path:url(#SVGID_228_);fill:#7EC6D0;}
	.st117{clip-path:url(#SVGID_230_);fill:#7EC6D0;}
	.st118{clip-path:url(#SVGID_232_);fill:#7EC6D0;}
	.st119{clip-path:url(#SVGID_234_);fill:#7EC6D0;}
	.st120{clip-path:url(#SVGID_236_);fill:#7EC6D0;}
	.st121{clip-path:url(#SVGID_238_);fill:#7EC6D0;}
	.st122{clip-path:url(#SVGID_240_);fill:#7EC6D0;}
	.st123{clip-path:url(#SVGID_242_);fill:#7EC6D0;}
	.st124{clip-path:url(#SVGID_244_);fill:#7EC6D0;}
	.st125{clip-path:url(#SVGID_246_);fill:#7EC6D0;}
	.st126{clip-path:url(#SVGID_248_);fill:#7EC6D0;}
	.st127{clip-path:url(#SVGID_250_);fill:#7EC6D0;}
	.st128{clip-path:url(#SVGID_252_);fill:#7EC6D0;}
	.st129{clip-path:url(#SVGID_254_);fill:#7EC6D0;}
	.st130{clip-path:url(#SVGID_256_);fill:#7EC6D0;}
	.st131{clip-path:url(#SVGID_258_);fill:#7EC6D0;}
	.st132{clip-path:url(#SVGID_260_);fill:#7EC6D0;}
	.st133{clip-path:url(#SVGID_262_);fill:#7EC6D0;}
	.st134{clip-path:url(#SVGID_264_);fill:#7EC6D0;}
	.st135{clip-path:url(#SVGID_266_);fill:#7EC6D0;}
	.st136{clip-path:url(#SVGID_268_);fill:#7EC6D0;}
	.st137{clip-path:url(#SVGID_270_);fill:#7EC6D0;}
	.st138{clip-path:url(#SVGID_272_);fill:#7EC6D0;}
	.st139{clip-path:url(#SVGID_274_);fill:#7EC6D0;}
	.st140{clip-path:url(#SVGID_276_);fill:#7EC6D0;}
	.st141{clip-path:url(#SVGID_278_);fill:#7EC6D0;}
	.st142{clip-path:url(#SVGID_280_);fill:#7EC6D0;}
	.st143{clip-path:url(#SVGID_282_);fill:#244F6A;}
	.st144{clip-path:url(#SVGID_284_);fill:#244F6A;}
	.st145{clip-path:url(#SVGID_286_);fill:#244F6A;}
	.st146{clip-path:url(#SVGID_288_);fill:#244F6A;}
	.st147{clip-path:url(#SVGID_290_);fill:#244F6A;}
	.st148{clip-path:url(#SVGID_292_);fill:#244F6A;}
	.st149{clip-path:url(#SVGID_294_);fill:#244F6A;}
	.st150{clip-path:url(#SVGID_296_);fill:#244F6A;}
	.st151{clip-path:url(#SVGID_298_);fill:#244F6A;}
	.st152{clip-path:url(#SVGID_300_);fill:#244F6A;}
	.st153{clip-path:url(#SVGID_302_);fill:#244F6A;}
	.st154{clip-path:url(#SVGID_304_);fill:#244F6A;}
	.st155{clip-path:url(#SVGID_306_);fill:#244F6A;}
	.st156{clip-path:url(#SVGID_308_);fill:#244F6A;}
	.st157{clip-path:url(#SVGID_310_);fill:#244F6A;}
	.st158{clip-path:url(#SVGID_312_);fill:#244F6A;}
	.st159{clip-path:url(#SVGID_314_);fill:#244F6A;}
	.st160{clip-path:url(#SVGID_316_);fill:#244F6A;}
	.st161{clip-path:url(#SVGID_318_);fill:#7EC6D0;}
	.st162{clip-path:url(#SVGID_320_);fill:#7EC6D0;}
	.st163{clip-path:url(#SVGID_322_);fill:#244F6A;}
	.st164{fill:none;stroke:#231F20;stroke-linecap:round;stroke-linejoin:round;}
</style>
<ellipse class="st0" cx="151.1" cy="161.7" rx="120.1" ry="120.1"/>
<path class="st1" d="M184.8,107.6c1,4,0.2,4.6,3.1,5c2.9,0.4,6.9,1.2,6.5,2.5s-0.8,1.4-3.5,3.5s-5.2,3-6.1,5.6
	c-1,2.5-3.3,5.9,4.8,9.2c2.7,1.1,6.3,2.4,9.9,3.8c0.8-1.4,1.1-1.9,1.2-2.1c0.2-0.3,0.6-0.8,2.1-0.4c1.4,0.4,2.2,0.5,2.8,0.8
	c0.7,0.3,1.8,0.3,1.3,1.4c-0.3,0.5-0.7,1.7-1.1,2.7c5.1,1.9,10,3.6,12.9,4.6c6.2,2.2,21.2,6.4,26.1,8.8c4.9,2.4,9.1,3.7,10.5,4.7
	c1.4,1,2.2,1,1,5.7c-1.1,4.7-2.2,8.6-2.2,8.6H145.4v-66.3L184.8,107.6z"/>
<path class="st2" d="M31,161.8"/>
<path class="st2" d="M271.1,161.8"/>
<path class="st2" d="M151.1,41.7"/>
<g>
	<g>
		<defs>
			<rect id="SVGID_1_" x="-35.1" y="8.3" width="376.6" height="308.9"/>
		</defs>
		<clipPath id="SVGID_2_">
			<use xlink:href="#SVGID_1_"  style="overflow:visible;"/>
		</clipPath>
		<path class="st3" d="M147.9,389.2c-0.1-10.5-0.6-20.9-0.9-31.3c-0.2-5.2-0.4-10.4-0.7-15.6c-0.1-1.1-0.2-2.2-1.1-3.1
			c-0.7-0.7-0.7-1.7,0-2.4c0.9-1,0.8-2,0.6-3.2c-0.3-1.8-0.3-3.6-0.2-5.5c0-1.5-0.1-3-0.7-4.4c-0.2-0.5-0.4-1-0.3-1.5
			c0.1-0.2,0.1-0.5,0.2-0.7c-2.7-0.3-5.3-0.6-8-0.9c0,0.7,0,1.5,0,2.2c0,9.9,0.1,19.9-0.1,29.8c-0.1,3.3-0.1,6.6-0.2,9.9
			c0,0.6,0,1.2-0.6,1.5c-0.4,0.2-0.7,0.1-1-0.2c-0.4-0.5-0.5-1-0.2-1.6c1-2.3-0.4-4.9,0.6-7.2c0.2-0.5-0.3-1.4-1-1.3
			c-0.8,0.1-0.8,0.9-0.7,1.5c0.3,1.2,0.6,2.3,0,3.5c0,0.2,0,0.3-0.1,0.5l0.1,0.1l-0.1,0.1c0,0.2,0.1,0.3,0.1,0.5
			c0.2,1.1,0.5,2.1,0.6,3.2c0.1,0.8,0,1.7-1.2,1.6c-0.6,0.1-1.3,0.2-1.9,0.3c-1.3,0.2-1.4,0.1-1.1-1.3v-1.1c-0.4-0.5-0.4-1,0-1.5
			c-0.2-1.1-0.3-2.2-0.5-3.3c-0.6-0.5-0.6-1-0.1-1.6c-0.8-7.4-1.8-14.7-2.5-22.1c-0.5-4.9-1.1-9.7-1.7-14.5
			c-0.6-0.1-1.2-0.1-1.7-0.1c0.3,3,0.6,6,0.9,9c0.3,3.8,1,7.5,0.9,11.3c0,0.6,0.3,1.5-0.5,1.6s-0.9-0.8-1.2-1.5
			c-1-2.3-0.5-4.7-0.9-7.1c-0.8-4.4-1.4-8.8-2.1-13.6c-0.1,0-0.2,0-0.4,0c-0.7,2,0.2,3.8-0.7,5.3c0,0.2,0.1,0.5,0.1,0.7
			c1.3,1.4,1.4,3,0.7,4.8c0,0.2,0,0.4,0,0.6c0.6,0.1,0.7,0.3,0.2,0.8c0,0.2,0.1,0.4,0.1,0.7c0.7,0.3,0.8,0.7,0.3,1.2
			c0,0.2,0.1,0.4,0.1,0.6c0.6,0.2,0.7,0.4,0.2,0.9c0.6,2.5,0.2,5,0.4,7.5c0.9,1.5,0.7,3.2,0.8,4.7c0.1,3.7,1.1,7.3,1.6,10.9
			c0.8,6.8,2,13.7,2.6,20.5c0.4,4,1.1,7.9,1.3,12c0.1,2.2,0.4,4.5,0.5,6.8c0.2,8.2,1.1,16.3,1.2,24.5c0,1-0.1,1.8-0.7,2.6
			c-0.8,1-1,2.3-0.5,3.6c0.6,1.8,0.7,3.7,0.1,5.6H147c0-1.1,0-2.1,0.1-3.2c0.2-2.2-0.5-4.5,1.2-6.5c0.7-0.9,0.3-2.3,0.3-3.5
			C148.4,409.7,148,399.5,147.9,389.2z M136.7,423.6c0,0.8-0.1,1.6-1.1,1.6c-0.9,0-1.7-0.5-1.6-1.4c0.2-2.3-0.5-4.7,0.5-6.9
			c0.1-0.2,0.2-0.5,0.1-0.7c-1.4-4.8-0.2-9.7-0.7-14.6c-0.2-2.2-1.3-4.2-1.4-6.5c0-1.6-0.5-3.1,0-4.7c0-0.5-0.1-0.9-0.1-1.4
			c-0.4-0.2-0.4-0.4-0.2-0.7c0-0.9,0-1.8,0-2.7c-0.1-0.4-0.2-0.8-0.3-1.2c-0.1-2.1-0.2-4.2-0.3-6.3c-1.1-2.7-0.6-3.6,2.2-3.2
			c2.7,0.3,2.7,0.3,2.7,3c0,8.6,0.2,17.3-0.1,25.9C136.3,410.3,136.6,416.9,136.7,423.6z M144.8,382.1c1.1-0.1,1,1,1.1,1.7
			c0.1,0.6-0.1,1.4-0.8,1.4c-0.9,0-0.9-0.9-0.9-1.6C144.2,383,144,382.1,144.8,382.1z M146,398.6c-0.1,0.7,0,1.8-0.8,1.8
			c-1.1,0.1-0.8-1.1-1-1.6c0-0.9,0.1-1.7,1-1.6C145.9,397.2,146,397.9,146,398.6z"/>
	</g>
	<g>
		<defs>
			<rect id="SVGID_3_" x="-35.1" y="8.3" width="376.6" height="308.9"/>
		</defs>
		<clipPath id="SVGID_4_">
			<use xlink:href="#SVGID_3_"  style="overflow:visible;"/>
		</clipPath>
		<path class="st4" d="M154.8,325.2c0-0.9,0-1.7,0-2.6c-0.8-0.1-1.5-0.1-2.3-0.2c0.2,3.1,0.5,6.3,0.6,9.4c0.2,0.4,0.6,0.7,0.2,1.2
			c0,0.2,0.1,0.4,0.1,0.7c0.7,0.4,0.7,1,0.3,1.6c0,0.5,0.1,0.9,0.1,1.4c1.4,0.3,1.2-0.7,1.2-1.5C155,331.9,154.9,328.6,154.8,325.2z
			"/>
	</g>
	<g>
		<defs>
			<rect id="SVGID_5_" x="-35.1" y="8.3" width="376.6" height="308.9"/>
		</defs>
		<clipPath id="SVGID_6_">
			<use xlink:href="#SVGID_5_"  style="overflow:visible;"/>
		</clipPath>
		<path class="st5" d="M276.6,178.7c-0.2-1-1-1-1.7-1.2c-6.2-2.1-12.5-2.9-19-3.5c-5.9-0.6-11.8-0.7-17.6-1.7
			c-3.1-0.5-6.4-0.5-9.5-0.5c-1.7,0-3.1-0.9-4.8-0.9c-1.5,0-2.9,0.4-4.5,0.1c-6.4-0.9-12.9-1-19.4-1c-1.1,0-2.3,0-3.2-0.7
			c-0.2-0.2-0.6-0.3-0.9-0.3c-2.9,0.6-5.8,0.3-8.6,0.2c-2.1-0.1-4.3,0.9-6.3-0.6c-0.7-0.6-1.7,0.3-2.6,0.2c-3.7,0-7.3,0-11,0
			c-0.6,0-1.3-0.1-1.8-0.5c-1-0.7-1.8-1.9-3.2-0.4c-0.5,0.6-1.5-0.7-2.6-0.6c-2.6,0.2-5.2,0-7.7,0c-1.1,0-2.1,0-3.2-0.4
			c-0.3-0.1-0.8-0.4-1.1-0.2c-2.3,1.4-5,0.3-7.4,0.9c-2,0.4-3.9-0.4-6,0c-1.1,0.2-0.8-1.2-1.2-1.9c-2.1,2.6-4.9,1.8-7.6,1.8
			c-0.6,0-1.1,0-1.7,0.1c-1.9,0.4-3.6,0.2-5.5-0.2s-4-0.1-5.9,0.2c-1.2,0.2-1.8,0-1.8-1.3c0-0.1,0-0.3-0.1-0.4
			c-0.7-2.4-0.8-2.6,1.7-2.8c3.6-0.3,7.1-0.2,10.7-0.3c8.3-0.2,16.7-0.3,25-0.4c0.4,0,0.9,0.1,1.3,0.1c3.7,0.1,7.5,0.1,11.2,0.2
			c1-0.3,2.1-0.7,3.2-0.3c6.9,0,13.8,0,20.7,0c0.9-0.8,1.9-0.4,2.9-0.4c0.7,0,1.1,0,1-1c-0.2-1.4,0.4-2,1.8-1.2
			c0.8,0.5,1.3,0.1,1.9-0.3c1.2-0.8,1.6-0.4,1.5,0.9c0,0.3-0.2,0.6-0.1,0.9c0.1,0.4,0.4,0.8,0.9,0.8c0.6,0,0.7-0.5,0.6-1
			c-0.5-1.8,0.6-1.9,1.9-1.8c0.3,0,0.7,0.1,0.9,0c1.5-0.5,1.8,0.2,1.7,1.4c0,0.6-0.3,1.4,0.6,1.5c0.9,0.1,0.9-0.6,1.1-1.2
			c0.3-1,0.8-2.3,1.9-2.3c1.3-0.1,2.4,0.7,2.8,2.1c0.1,0.4,0.2,0.9,0.7,1c0.7,0.1,0.6-0.5,0.6-0.9c0.3-1.4,1.8-0.5,2.5-1.2
			c0.1-0.6,0.1-1.3,0.2-1.9c-0.1-0.3,0-0.5,0.3-0.5c0.3-0.1,0.6,0,0.6,0.4c1.2,0.9,0.8,2.1,0.6,3.2c0.3,0.3,0.2,1,0.7,1
			s0.6-0.6,0.7-1c0.1-1,0.5-1.3,1.5-1.5c1.5-0.3,1.7-1.7,1.7-3c0-1,0-2,1-2.7c0.5-0.3,1.1-0.5,1.6-0.1c0.6,0.3,0.4,0.9,0.2,1.3
			c-0.4,1.1-0.6,2.2-1.3,3.1c-0.4,0.4-0.4,0.9-0.1,1.4c0.4,0.6,0.9,0.2,1.3,0c2.4-1,4.6-0.1,6.8,0.8c1,0.5,0.5,1.9,1.5,2.5
			c-0.2-2.2,1.4-4.1,0.7-6.4c-0.2-0.7,0.1-1.5,0.3-2.2c0.3-1.1-0.1-1.8-1.3-1.5c-0.9,0.3-1.3-0.1-2-0.5c-1.4-0.8-3-0.5-4.5-0.6
			c-2.1-0.1-4.2-0.4-6.3-0.7c-1-0.2-1.9-0.1-2.4,1c-0.5,0.9-1.4,1.2-2,0.4c-1.7-2.3-4.3-2.1-6.6-2.2c-10.9-0.3-21.8-1.2-32.8-1.8
			c-3.8-0.2-7.5-0.4-11.3-0.4c-4.5,0.1-9-0.6-13.6-0.4c-10.6,0.4-21.1,0.1-31.7,0.3c-1.8,0-3.6,0.7-5.2,0.3
			c-3.1-0.8-5.8,0.5-8.8,0.5s-6,0.3-9,0.5c-3.2,0.2-6.3,0.4-9.5,0.6c-2.4,0.1-4.7,0.7-7,0.8c-3.3,0.1-6.3,1.6-9.5,1.9
			c-2.7,0.3-3.2,1.3-2,3.6c1.8,1.2,2.4,2.9,2.3,5c0.6,0.7,0,1.1-0.3,1.6c-0.6,1.3,0.1,2.7,1.6,2.6c3-0.1,6,0.1,9-0.4
			c1.9-0.3,3.8,0,5.8-0.2c8.1-0.7,16.2-1.4,24.3-1.2c0.4,0,0.9-0.1,1.3,0c0.8,0.2,2.1-0.6,2.2,1s-0.7,2.7-2.2,3s-3,0.3-4.5,0.3
			c-1.3,0-2.5-0.1-3.2-1.5c-0.2-0.5-0.8-1-1.4-0.8c-1.6,0.6-4.2-0.6-4.6,2.4c-0.1,0.4-0.4,0.6-0.9,0.6c-1.8-0.1-3.5,0.4-5.2,0.7
			c-0.3,0-0.8,0.2-1-0.3c-0.2-0.6,0.4-0.7,0.8-0.9c0.6-0.3,1.7-0.2,1.4-1.2c-0.3-1-1.4-1-2.1-0.7c-1.8,0.9-4,0.3-5.7,1.7
			c-0.4,0.3-0.9,0.4-1.2,0.1c-2-1.6-4.2-0.9-6.3-0.5c-1.2,0.3-2.5,0.8-3.7-0.4c-0.2-0.2-0.8-0.2-1.1-0.1c-3.9,1.4-7.9,1-11.9,1.5
			c-2.6,0.4-4.8,1.8-7.1,2.8c-3.4,1.3-7,2.4-10.7,2.6c-0.4,0.1-0.7,0.1-1.1,0.2c-1.5,0.9-3.2,1.2-4.8,1.5c-1.2,0.2-2,1-3.1,1.4
			c-0.5,0.2-0.7,0.7-0.6,1.3c0.1,0.8,0.8,1,1.4,1.3c3.4,1.6,7.2,1.8,10.8,2.5c4.6,0.9,9.3,1.6,14,2c2,0.2,3.8,1,5.7,1.3
			c1.5,0.2,1.8,1.7,1.8,3.2c0.8,3.6,1.5,7.3,2.3,10.9c0.3,1.4,0,1.9-1.4,2.2c-2.3,0.5-4.5,1.2-6.7,1.9c-1.2,0.4-3,0.4-3.1,2
			c-0.2,1.7,1.6,2.1,2.8,2.7c5.7,2.8,11.8,4.6,18,6c0.1-0.2,0.2-0.2,0.3,0.1c0.4,0.1,0.8,0.2,1.1,0.3c0.8-0.4,1.4-0.2,2,0.4
			c0.9,0.2,1.8,0.3,2.7,0.5c0.4-0.4,0.6-0.2,0.8,0.2c0.4,0.1,0.7,0.1,1.1,0.2c0.5-0.4,0.9-0.3,1.2,0.2c0.4,0.1,0.7,0.1,1.1,0.2
			c0.3-0.4,0.5-0.3,0.7,0.1c0.5,0.1,1,0.2,1.5,0.2c0.3-0.4,0.5-0.3,0.7,0.1c0.2,0,0.5,0,0.7,0.1c0.2-0.2,0.3-0.1,0.5,0
			c0.7,0.1,1.5,0.2,2.2,0.3c0.3-0.2,0.6-0.2,0.8,0.1c0.4,0,0.7,0.1,1.1,0.1c1.2-0.2,2.3-0.6,3.4,0.3c0.4,0,0.8,0,1.1,0.1
			c1.1-0.1,1.3,0.3,1.1,1.8c0.1,0.4,0.1,0.7,0.2,1.1c0.5,0.2,0.6,0.4,0.2,0.8c0.1,0.7,0.1,1.5,0.2,2.2c0.5,0.2,0.6,0.4,0.2,0.8
			c0.1,1.2,0.2,2.5,0.3,3.7c0.5,0.4,0.6,0.8,0.1,1.2c0.4,2.7,0.9,5.5,1.3,8.2c0.7,0.3,0.9,0.7,0.2,1.2c0.2,1.6,0.4,3.2,0.6,4.8
			c0.7,0.3,0.8,0.7,0.2,1.2c0,0.6,0.1,1.2,0.1,1.8c0.9,0.3,1.1-0.1,1-0.9c-0.3-2.4-0.5-4.9-0.9-7.3c-0.1-0.9-0.2-1.7-0.3-2.6
			c-0.1-2,0.2-4.1-1-6c-0.4-0.7-0.3-1.6-0.4-2.4c-0.1-2.3,0.2-4.6-0.3-6.9c-0.2-1,0.2-1.7,1.2-2c1.2-0.2,1,0.7,1.2,1.4
			c0.4,1.1,1.2,2.1,1.2,3.4c0,0.3,0.3,0.9,0.7,0.7c0.3-0.1,0.5-0.6,0.8-0.9c0-0.4-0.1-0.7-0.1-1.1c-0.7-0.3-0.8-0.7-0.3-1.2
			c-0.1-0.5-0.1-0.9-0.2-1.4c-0.9-1-0.2-1.7,0.6-2.1c0.9-0.5,1,0.2,1,0.9l0.6,1.4c0.8,1.9,0.6,3.8,0.6,5.8c0,0.2,0.1,0.5,0.1,0.7
			c0.7,1.6,0.7,3.3,0.6,4.9c0,0.4,0.1,0.7,0.1,1.1c0.7,0.4,0.8,1,0.3,1.6c0.1,0.5,0.1,1,0.2,1.5c1.1,0.5,0.2,1.8,1.1,2.7
			c1-2.4,2.4-4.6,2-7.3c-0.1-0.4-0.2-0.9-0.2-1.3c0-0.5,0.2-1.1,0.8-1.1c0.6,0,0.5,0.6,0.6,1c0.9,6.8,2,13.6,2.7,20.5
			c0.7,6.7,1.7,13.4,2.5,20.2c0.3,2.5,0.5,5,0.7,7.5c0.2,0,0.3,0.1,0.5,0.1c0.3,0,0.6,0.1,0.9,0.1c-0.3-2.9-0.6-5.8-0.8-8.8
			c-0.4-0.3-0.4-0.7-0.1-1.1c-1.4-13.1-3.1-26.1-4.2-39.2c-0.8-1.8-1-3.6-0.7-5.5c0-0.2-0.1-0.4-0.1-0.6c-0.4-0.5-0.5-1-0.2-1.5
			c0-0.4,0-0.8-0.1-1.2c-0.5-1.5,0.5-1.5,1.5-1.5c2.8-0.1,5.5,0.6,8.3,0c1.5-0.4,2.9-0.3,4.3,0.4c0.8,0.4,1.7,0.4,2.6,0.1
			c0.9-0.3,1.7-0.2,2.5,0.4c0.4,0.4,0.9,0.6,1.5,0.2c1-0.6,1.5-0.4,1.5,0.9c0,4.1,0.3,8.2,0.1,12.3c-0.1,2.4,0.1,4.9,0.1,7.3
			c0,13.6,0,27.2,0,40.8c1,0.1,1.9,0.2,2.9,0.3c0.2,0,0.4,0,0.6,0c0.6,0,1.2,0.1,1.7,0.3l0,0c0.6-0.1,1.1-0.1,1.6-0.1
			c-0.1-3.8-0.3-7.6-0.5-11.4c-0.4-5.9-0.4-11.8-0.8-17.7c-0.9-11.8-1.1-23.6-1-35.5c0-0.6-0.4-1.7,0.4-1.9c0.8-0.2,1.1,0.8,1.5,1.4
			c0.8,1.3,0.2,2.8,0.5,4.2c0.9,3.9,1.4,8,1.5,11.9c0.1,4.2,0.6,8.5,0.2,12.8c-0.1,1.3,0.3,1.9,1.6,1.9c-0.2-5.7-0.4-11.3-0.6-17
			c-1.1-1.2-0.9-2.6-0.2-3.9c-0.1-0.6-0.1-1.2-0.2-1.8c-1.1-1.4-0.8-3.2-0.9-4.8c-0.1-2.2,0.2-4.4,0.3-6.6c0-0.5,0.2-1.1,0.8-1.1
			s0.8,0.6,0.8,1.1c0,1.6,0.3,3.1-0.2,4.7c1.1,3.3,0.7,6.7,1,10c0.3,2.7,0,5.5,0.5,8.3c0.5,0.2,1,0.5,1.6,0.3c0.5-0.2,1,0,1.2,0.6
			c0.1,0.4,0.1,0.8-0.2,1c-0.5,0.4-0.8,0.1-1.1-0.2c-0.4-0.4-0.9-0.4-1.4-0.4c0.1,4.1,0.2,8.3,0.4,12.4c0.4,0.7,0.4,1.5,0.1,2.3
			c0.1,1.4-0.2,2.8,0.2,4.2c1.5,1.2-0.1,2.6,0.2,3.9c0,3.4,0.4,6.7,0.4,10.1c0,3.8,0.3,7.7,0.5,11.5c1.4,0,2.9,0,4.4,0
			c0-1.2,0-2.4,0-3.6c0-6.2,0.1-12.4,0-18.6c0-5.4,0-10.9,0.3-16.3c0.1-2.5-0.3-5.1-0.2-7.7c0-0.6-0.2-1.3,0.3-1.9
			c0.8,0.3,0.8,1,0.8,1.6c0,1.4,0.2,2.8,0,4.1c-0.3,2.1,0.7,4.1,0.5,6c-0.2,2-0.3,4-0.4,6c-0.1,1.8,0.1,3.6-0.2,5.4
			c-0.4,1.7,0.5,2.6,2,2.7c2.1,0.1,2.7-0.4,2.6-2.4c-0.1-3.6,0.3-7.2-0.4-10.7c0-0.1-0.1-0.3,0-0.4c1.3-3.6,0.1-7.4,0.4-11
			c0-0.5,0.1-1,0.6-1.3c0.3,0,0.5,0.2,0.5,0.5c-0.3,2.8,0.5,5.5,0.3,8.2c-0.3,3.8,0,7.7-0.2,11.5c0,0.9-0.1,1.9,0.4,2.8
			c0.2,0.4,0.3,0.8,0.2,1.3c-1.3,4.4-0.5,8.9-0.4,13.3c0,1.3,0.4,2.4-0.4,3.6c-0.5,0.8-0.1,1.7,0.6,2.4c0.5,0.4,0.9,0.9,0.5,1.6
			c-0.5,0.8-0.8,1.7-0.9,2.5c0.8-0.1,1.6-0.1,2.4-0.2c1.4-0.1,2.7-0.4,4-0.8c0-1.9,0.3-3.8,1-5.6c0-0.1,0.3-0.1,0.5-0.2
			c0.3-0.9,0.2-1.8-0.2-2.7c-1.1,0.1-1.6-0.5-1.5-1.4c0.1-1-0.3-2.4,1.4-2.6c0.4-1,0.5-2-0.1-3c-1.2-0.3-0.9-1.4-1-2.1
			c-0.1-0.6,0.5-0.7,1.1-0.6c0.3-0.6,0.4-1.2,0.2-1.8c-0.3,0-0.6-0.2-0.5-0.5c0-0.2,0.3-0.3,0.5-0.4c0.1-1.7,0.1-3.5-0.3-5.2
			c-0.8,0-1.1-0.5-1.1-1.2s0.3-1.2,1.1-1.1c0-0.5,0.1-1,0.1-1.4c-1.8-0.7-1.4-2.3-1.2-3.7c0.1-0.7,0.7-0.6,1.2-0.4
			c0.4-1.4,0.2-2.9,0.3-4.3c-1.6-0.5-1.8-1.4-1.7-3.1c0.3-2.9,0-5.8-0.1-8.8c-0.1-1.4,0.3-2.2,1.8-2.1c0-0.6,0-1.3,0-1.9
			c-1.6,0.6-2-0.1-1.8-1.6c0.1-0.9,0.3-1.7,0.1-2.6c-0.4-2.4,1.1-3.6,3.5-2.7c1.2,0.4,1.9-0.6,2.9-0.5c4.5,0.3,8.9-0.4,13.4-0.3
			c1,0,2-0.1,3-0.1c1.4-0.1,2,0.5,1.9,2c-0.1,2.1,0,4.2,0,6.6c1.1-0.5,0.9-1.3,0.9-1.9c0.3-2,0.5-4.1,0.8-6.1c0.1-0.5,0.4-0.8,0.7-1
			c0-0.1,0-0.2,0-0.4c-0.1-0.1-0.2-0.2-0.2-0.3c0.1,0,0.2,0,0.3-0.1c0.2-1,0.4-1.9,0.6-2.9c-0.3-1.5,0.8-1.2,1.6-1.3
			c3-0.2,6.1,0.3,9.1,0.2c4.1-0.2,7.6,2.3,11.7,1.8c0.1,0,0.3,0.3,0.5,0.5c0.5-0.1,1-0.1,1.4-0.2c0.5-0.8,1.1-0.6,1.7-0.2
			c0.8-0.1,1.6-0.1,2.5-0.2c0.2-0.5,0.6-0.5,0.9-0.2c0.3,0,0.6-0.1,1-0.1c0.4-0.8,1-0.6,1.6-0.4c1.6-0.3,3.2-0.7,4.8-1
			c-0.1-0.9,1.5-1,0.9-1.8s-1.8-0.5-2.7-0.2c-3.3,0.9-6.5,0.7-9.8,0.3c-0.7-0.1-1.4,0.6-2.1,0.1c-0.1-0.5,0.2-0.6,0.5-0.7
			c0.4-0.2,0.8-0.5,0.6-1s-0.6-0.6-1.1-0.6c-0.9-0.2-2.3,0.6-2.7-0.5s1.3-1.1,1.8-1.8c0.8-1.3,2.4-1.5,3.4-2.5
			c0.7-0.7,1.1-1.2,0.7-2.2c-0.5-0.1-0.9-0.2-1.4-0.3c-0.6,0.3-1,0.7-1.4,1.2c-2.2,2.3-4.8,3.8-7.9,4.5c-0.6,0.1-1.4,0.4-1.6-0.4
			c-0.2-0.7,0.4-1.3,1-1.5c3.1-1.2,3.8-3.9,4.3-6.7c0.2-0.9-0.1-1.4-0.9-1.5c-0.8-0.1-1.6-0.2-2.2-0.8c-0.4-0.3-1-0.5-1.3,0.1
			c-0.2,0.5,0.2,0.8,0.6,0.9c0.7,0.2,1.2,0.5,0.9,1.3c0.1,1,0.3,2.1-1,2.5c-2.1,1.4-4.1,2.8-6.2,4.1c-0.6,0.4-1.4,0.8-1.9,0.2
			c-0.5-0.7,0.4-1.1,0.8-1.5c2.5-2.7,2.3-5.9,1.5-9c-0.4-1.5,0-1.8,1.3-1.8c6.7-0.1,13.3,0.6,20,1c3.8,0.2,7.4,1.2,11.2,1.7
			c0.2,0,0.6,0,0.7,0.2c1.2,1.4,2.2,1.3,3.1-0.4c0.5-3.1,1.8-6.1,2.2-9.3c0.1-0.5,0.2-1.1,1-1.1c2,0,3.7-1,5.7-1.2
			c0.2-0.4,0.5-0.4,0.9-0.2c0.2-0.1,0.4-0.1,0.6-0.2c0.2-0.4,0.4-0.5,0.7-0.2c2.4-0.2,4.8-0.5,7.2-0.7c0.3-0.3,0.6-0.3,0.9-0.1
			c0.5-0.1,0.9-0.1,1.4-0.2c0.2-0.4,0.5-0.4,0.9-0.2c0.2,0,0.4-0.1,0.5-0.1c0.6-0.2,1.1-0.6,1.7-0.3c0.5-0.1,0.9-0.2,1.4-0.2
			c0.5-0.5,1-0.4,1.6-0.2c1.9,0,3.7-0.8,5.5-1.1c0-0.6,0.3-0.7,0.8-0.6c0.3-0.1,0.7-0.3,1-0.4C275.8,179.7,276.9,179.8,276.6,178.7z
			 M185.8,159.1c0.9-0.1,1.4,0.5,1.6,1.1c0,0.8-0.5,1.2-1.1,1.1c-0.9-0.1-2.1-0.1-2.2-1.3C184,159.1,185.1,159.2,185.8,159.1z
			 M171.4,157.7c0.7-0.1,1.4,0.3,1.4,1c0,0.9-0.8,0.7-1.4,0.8c-0.6-0.1-1.5,0.1-1.5-0.7C169.9,157.9,170.8,157.8,171.4,157.7z
			 M126.5,157.9c0.7,0.1,0.8,0.7,0.8,1.2c-0.1,0.7-0.3,1.2-1,1.2s-0.9-0.6-0.9-1.2C125.5,158.5,125.7,157.8,126.5,157.9z
			 M42.5,178.4c-0.7,0-1.4-0.3-1.5-1.1c-0.1-0.6,0.5-0.7,1-0.8c0.7,0,1.4,0,1.6,0.9C43.6,178.1,43.1,178.4,42.5,178.4z M84.2,203.7
			c-0.8,0.7-1.3-0.2-1.9-0.7c-0.7-0.6-1.5-0.8-2.4-0.9c-0.4,0-0.7-0.2-0.8-0.7c0-0.4,0.2-0.6,0.5-0.7c1.6-0.6,3.3-1.1,4.5-1.5
			c1.7,0,2.2,0.5,2.3,1.7C86.5,202.6,85.1,203,84.2,203.7z M94.1,200.9c-0.9,0.3-1.3,0.7-1.2,1.6c0,0.2,0,0.4-0.2,0.5
			c-1.5,1.1-2-0.7-2.9-1.2c-0.8-0.4-1-1.4-0.2-1.9c1.2-0.7,2.6-1,3.6-1.4c0.8,0,1.4-0.1,1.5,0.6C94.8,199.8,94.9,200.6,94.1,200.9z
			 M103.5,200.5c-0.6,0.5,0,1,0.3,1.4c0.3,0.3,0.6,0.7,0.3,1.1c-0.4,0.4-0.9,0.1-1.2-0.1c-1.2-0.7-2.4-1.4-3.4-2.3
			c-0.5-0.5-1.1-1.4,0.3-1.8c0.5-0.7,1.3-0.6,2-0.5c0.7-0.3,1.7-0.9,2.2-0.3C104.7,198.8,104.3,199.8,103.5,200.5z M128.1,212
			c-0.3,0.8-1.1,0.6-1.6,0.5c-1.8-0.5-3.4-1.5-5.1-2.4c-2.9-1.6-5.1-4-7.5-6.2c-1.1-1.1-2.5-2.2-2.8-4c-0.6-2,1.3-1.9,2.2-2.7
			c0.4-0.7,1.1-0.9,1.8-0.7c0.6,0.2,0.3,1,0.3,1.5c0.2,1.2,0.3,2.4,0.1,3.7c-0.2,0.9,0.6,1.6,1.2,2.2c2.5,2.4,5.2,4.5,8.5,5.7
			c0.6,0.2,1.3,0.5,1.9,0.8C127.6,210.9,128.3,211.3,128.1,212z M135.6,211.7c-0.6,1.2-1.9,0.5-2.7,0.1c-2.1-1.1-3.4-3.1-5.1-4.7
			c-2-2-2.8-4.7-4.6-6.9c-0.4-0.5-0.6-1.3,0.3-1.7c0.4-0.9,1-1.5,1.9-1.9c0.2-0.6,0.4-1.1,1.2-0.9c0.5,0.2,0.6,0.7,0.4,1.1
			c-2.1,6.7,2.5,9.9,6.9,13.1C134.7,210.4,136.1,210.7,135.6,211.7z M138.2,197.6c-0.1,0.9-0.3,1.7-0.5,2.6c0,0.2-0.2,0.4-0.3,0.7
			c-2-1.5-2.2-2.8-0.6-3.9c0.3-0.2,0.6-0.4,1-0.3C138.3,196.8,138.3,197.2,138.2,197.6z M150.7,197.1c-0.3,1.2-0.6,2.4-1.5,3.8
			c-0.6-1.8-1.3-3.2,0-4.5c0.3-0.3,0.6-0.5,1-0.4C150.7,196.2,150.8,196.6,150.7,197.1z M155.9,230.5c-0.6,0.1-0.6-0.5-0.6-0.9
			c-0.1-1.5-0.3-3-0.3-4.5c0-0.5-0.1-1.2,0.6-1.1c0.6,0,0.5,0.6,0.5,1.1c0,0.4,0,0.9,0,1.3c-0.1,1,0.2,2,0.4,3
			C156.5,229.8,156.6,230.4,155.9,230.5z M163.2,198.3c-0.1,0.9-0.1,2.4-1,2.2c-1.2-0.3-0.5-2-0.9-2.7c0-0.8,0-1.6,0.7-1.5
			C163.1,196.4,163.3,197.4,163.2,198.3z M169.4,176.1c-1.7,0.2-3.3-0.5-5,0c-0.4,0.1-0.9,0-1-0.6c0-0.6,0.5-0.8,0.9-0.7
			c3.2,0.5,6.4,0,10.1,0.5C172.6,176.5,170.9,176,169.4,176.1z M174.9,200.8c-1.2,0.1-1.2-0.9-1.3-1.7c0-0.1,0-0.2,0-0.4
			c0-0.8-0.9-1.9,0.5-2.3c0.9-0.3,2.1,1.2,2.1,2.6C176.1,199.8,176.1,200.8,174.9,200.8z M203.3,195.5c-0.1,1.2-0.6,1.9-1.8,1.1
			c-0.9-0.6-1.9-0.4-2.8-0.2c-0.2,0.9,1,0.9,0.9,1.6c1.3,0.5,1,1.6,0.8,2.6c0.2,0.3,0.2,0.7-0.1,0.8c-2.5,0.9-3.9,3.3-6.3,4.4
			c-0.5,0.2-1,0.9-1.5,0.3c-0.4-0.5,0.3-0.9,0.6-1.2c2-1.9,2.3-4.2,2.2-6.7c-0.1-1.9-1.1-2.4-2.8-1.7c-1.1,0.5-2.3,1.4-3.3-0.4
			c-0.3-0.6-1.5-0.6-1.9-0.1c-0.7,0.9,0.5,0.8,0.9,1.2c0.5,0.4,0.7,0.8,0.4,1.5c0.1,0.8,0.1,1.6-0.9,2c-0.8,1.7-2.2,2.9-3.2,4.3
			c-0.2,0.3-0.6,0.8-1.1,0.4c-0.3-0.2-0.2-0.7,0-1.1c1.3-2.4,1.1-5,1-7.6c-0.1-2.3,0.4-3,2.7-2.7c4.8,0.6,9.5-0.3,14.2,0
			C202.5,193.9,203.5,194,203.3,195.5z M251.9,181.9c-0.2,0.9-1.1,0.9-1.7,0.6c-3.2-1.1-6.4-1.6-9.7-2.1c-4.5-0.7-9-1.5-13.6-1.7
			c-9.5-0.5-18.9-1.1-28.4-1.6c-3.3-0.2-6.6-0.3-9.9-0.7c-2.9-0.3-5.9,0-8.8-0.1c-0.9,0-1.9-0.2-2.8-0.3c-0.4,0-0.8-0.2-0.8-0.7
			c0-0.6,0.4-0.7,0.9-0.8c1.4,0,2.8,0,4.2,0c5.3,0.9,10.7-0.3,16,0.4c2.4,0.3,4.8,0.3,7.1,0.3c4.1-0.1,8.1,0.7,12.2,0.5
			c4-0.2,8.1,0.5,12,0.8c3.8,0.4,7.7,0.9,11.5,1.4c3.7,0.4,7.2,1.2,10.7,2.2C251.5,180.6,252.2,181,251.9,181.9z M257.2,179.9
			c-0.5,0-0.9-0.2-0.9-0.8c0.1-0.8,0.7-0.8,1.3-0.8c0.5,0,0.9,0.2,0.9,0.8C258.3,179.8,257.8,180,257.2,179.9z M261.9,179.4
			c-0.6-0.1-1.1-0.4-1.1-1.1c0.1-0.8,0.8-1,1.6-1c0.6,0,1,0.2,0.9,1C263.2,179,262.8,179.5,261.9,179.4z"/>
	</g>
	<g>
		<defs>
			<rect id="SVGID_7_" x="-35.1" y="8.3" width="376.6" height="308.9"/>
		</defs>
		<clipPath id="SVGID_8_">
			<use xlink:href="#SVGID_7_"  style="overflow:visible;"/>
		</clipPath>
		<path class="st6" d="M169.7,334.9c-0.1-0.5-0.1-1-0.2-1.4c-0.6-0.4-1.8-0.3-1.7-1.4c0-1.5-0.3-3,0.3-4.4c0.2-0.5,1-0.3,1.5-0.3
			c0-0.4,0-0.7,0-1.1c-1.8,0.1-1.5-1.4-1.7-2.3c0-0.3-0.1-0.5-0.1-0.8c-2,0.1-4.1,0.1-6.1,0c0,2.5-0.2,5.1,0.2,7.5
			c0.3,2,0.6,3.7,0,5.9c-0.8,3.3,0,7,0.1,10.5c0,0.5,0.4,0.9,0.7,1.3c0.3,0.3,0.6,0.7,0.2,1.2c-1.8,2.6-1.2,5.6-1,8.3
			c0.1,1.7-0.6,3-1.1,4.4c0.6,0.4,1.3,0.9,1.9,1.3c0.5-0.2,0.8,0,0.9,0.5c0.3-0.1,0.7-0.2,1-0.2c-0.1-0.2,0-0.3,0.2-0.1
			c1.7-0.6,3-1.7,3.7-3.4c0.4-1.8-1.1-3.6,0.2-5.4c0.1-0.1-0.1-0.6-0.2-0.8c-0.8-1.2-1.1-2.2,0.4-3.1c0.7-0.4,0.1-1.5,0.5-2.1
			c-0.1-0.3-0.1-0.7-0.2-1c-1.6-0.2-2.2-2.3-1-3.7c0.9-1,1.5-1.6-0.1-2.7c-0.9-0.6-0.7-3-0.2-3.2
			C169.6,337.4,168.8,335.7,169.7,334.9z"/>
	</g>
	<g>
		<defs>
			<rect id="SVGID_9_" x="-35.1" y="8.3" width="376.6" height="308.9"/>
		</defs>
		<clipPath id="SVGID_10_">
			<use xlink:href="#SVGID_9_"  style="overflow:visible;"/>
		</clipPath>
		<path class="st7" d="M118.7,318.9c0,0.3,0.1,0.6,0.1,0.9c0.2,1.5-0.5,3.1,0.5,4.6c0.9-1.5,0-3.3,0.7-5.3
			C119.6,319,119.1,319,118.7,318.9z"/>
	</g>
	<g>
		<defs>
			<rect id="SVGID_11_" x="-35.1" y="8.3" width="376.6" height="308.9"/>
		</defs>
		<clipPath id="SVGID_12_">
			<use xlink:href="#SVGID_11_"  style="overflow:visible;"/>
		</clipPath>
		<path class="st8" d="M122.5,332.7c0.4,2.3,0,4.8,0.9,7.1c0.3,0.6,0.4,1.6,1.2,1.5c0.8-0.1,0.5-1,0.5-1.6c0.1-3.8-0.6-7.5-0.9-11.3
			c-0.3-3-0.6-6-0.9-9c-1-0.1-2-0.2-3-0.2C121.1,323.9,121.7,328.3,122.5,332.7z"/>
	</g>
	<g>
		<defs>
			<rect id="SVGID_13_" x="-35.1" y="8.3" width="376.6" height="308.9"/>
		</defs>
		<clipPath id="SVGID_14_">
			<use xlink:href="#SVGID_13_"  style="overflow:visible;"/>
		</clipPath>
		<path class="st9" d="M112.8,275.6c0.4,0.1,0.7,0.2,1.1,0.4c0.5,0.1,1,0.2,1.4,0.5c0.9,0,1.6,0.2,2.2,0.6c0.5,0.1,0.9,0.3,1.3,0.5
			c0.1,0,0.3,0,0.4,0.1c-0.2-2.5-0.4-5-0.7-7.5c-0.8-6.7-1.7-13.4-2.5-20.2c-0.7-6.9-1.8-13.7-2.7-20.5c-0.1-0.4,0-1-0.6-1
			s-0.8,0.6-0.8,1.1c0,0.4,0.1,0.9,0.2,1.3c0.4,2.7-1,4.8-2,7.3c-1-0.9-0.1-2.1-1.1-2.7c-0.5,3,0.1,6,0.5,8.9
			c0.4,2.8,0.8,5.6,1.1,8.4C111.3,260.4,112,268,112.8,275.6z"/>
	</g>
	<g>
		<defs>
			<rect id="SVGID_15_" x="-35.1" y="8.3" width="376.6" height="308.9"/>
		</defs>
		<clipPath id="SVGID_16_">
			<use xlink:href="#SVGID_15_"  style="overflow:visible;"/>
		</clipPath>
		<path class="st10" d="M110.7,274.6c-0.5-4.4-0.8-8.9-1.2-13.3c-0.4-5.1-1.2-10.1-1.5-15.1c-0.4-5.7-1.3-11.2-1.7-16.9
			c-0.1-2-0.4-4-1-5.9c-0.3,0.3-0.5,0.8-0.8,0.9c-0.4,0.1-0.7-0.4-0.7-0.7c0-1.3-0.8-2.3-1.2-3.4c-0.3-0.7-0.1-1.6-1.2-1.4
			c-1,0.2-1.5,0.9-1.2,2c0.5,2.3,0.2,4.6,0.3,6.9c0,0.8-0.1,1.7,0.4,2.4c1.3,1.9,0.9,4,1,6c0,0.9,0.1,1.7,0.3,2.6
			c0.4,2.4,0.6,4.8,0.9,7.3c0.1,0.8-0.1,1.2-1,0.9c1.1,8.7,2.1,17.4,3.2,26.1c0.4,0.1,0.7,0.2,1,0.4c0.3,0.1,0.5,0.2,0.8,0.3
			c0.7,0.1,1.3,0.4,1.8,0.7c0.4,0.1,0.7,0.2,1.1,0.4c0.3,0.1,0.6,0.2,0.9,0.4C110.8,274.9,110.8,274.8,110.7,274.6z"/>
	</g>
	<g>
		<defs>
			<rect id="SVGID_17_" x="-35.1" y="8.3" width="376.6" height="308.9"/>
		</defs>
		<clipPath id="SVGID_18_">
			<use xlink:href="#SVGID_17_"  style="overflow:visible;"/>
		</clipPath>
		<path class="st11" d="M127.9,390.2c-0.2-4-1-8-1.3-12c-0.7-6.9-1.8-13.7-2.6-20.5c-0.4-3.6-1.5-7.2-1.6-10.9
			c0-1.5,0.2-3.3-0.8-4.7c-0.6,1.5-0.4,3.1-0.7,4.6c-0.1,0.5,0,1.2-0.7,1.4c-0.4,0.1-0.9,0.1-1.2-0.3c-0.5-0.5-0.4-1-0.1-1.5
			c0.7-1,0.5-2,0.3-3.1c-0.3-1.3-0.4-2.6,0.4-3.8c0.5-0.9-0.2-1.8-1.1-1.6c-2,0.5-2.3-1-2.3-2c0-3.5-0.6-7-0.2-10.5
			c0.2-1.2-0.6-2.1-0.7-3.2c-0.2-1.1-0.3-2.2-0.4-3.4c-1.1-0.1-2.3-0.1-3.4-0.2c0.8,6.1,1.6,12.2,2.5,18.3c1.8,12.4,3.1,25,4.9,37.4
			c1.1,7.6,1.9,15.2,2.6,22.9c0.9,10.8,1.2,21.8,1,32.7c0,1.2-0.1,2.4,0.4,3.5h5.7c0.6-1.9,0.5-3.7-0.1-5.6
			c-0.4-1.3-0.3-2.6,0.5-3.6c0.7-0.8,0.7-1.7,0.7-2.6c-0.1-8.2-1-16.3-1.2-24.5C128.3,394.7,128,392.4,127.9,390.2z M120,358.8
			c-0.3,0.6-0.9,0.2-1.1-0.3c-0.2-0.4-0.2-1-0.2-1.6c0.1-0.4,0.1-0.9,0.3-1.4c0.2-0.4,0.6-0.6,1.1-0.5c0.4,0,0.8,0.3,0.7,0.7
			C120.6,356.7,120.4,357.8,120,358.8z M120.4,352.8c-0.7,0-1-0.7-1-1.4c0-0.7,0.2-1.5,1-1.6c1-0.1,0.8,0.9,0.9,1.5
			C121.2,352,121.4,352.9,120.4,352.8z"/>
	</g>
	<g>
		<defs>
			<rect id="SVGID_19_" x="-35.1" y="8.3" width="376.6" height="308.9"/>
		</defs>
		<clipPath id="SVGID_20_">
			<use xlink:href="#SVGID_19_"  style="overflow:visible;"/>
		</clipPath>
		<path class="st12" d="M151.8,342.4c-0.3-6.7-0.7-13.5-1-20.2c-0.4,0-0.8-0.1-1.2-0.1c-1.6-0.2-3.2-0.4-4.8-0.6
			c-0.1,0.2-0.1,0.5-0.2,0.7c-0.1,0.4,0.1,1,0.3,1.5c0.6,1.4,0.7,2.9,0.7,4.4c0,1.8-0.1,3.7,0.2,5.5c0.2,1.2,0.2,2.2-0.6,3.2
			c-0.6,0.7-0.7,1.7,0,2.4c0.9,0.9,1,2,1.1,3.1c0.3,5.2,0.5,10.4,0.7,15.6c0.3,10.4,0.9,20.9,0.9,31.3c0.1,10.3,0.4,20.5,0.7,30.8
			c0,1.2,0.4,2.6-0.3,3.5c-1.7,2-1,4.3-1.2,6.5c-0.1,1.1-0.1,2.1-0.1,3.2h6.8c0-0.3,0-0.5,0.1-0.8c0.2-24.9-0.4-49.7-1.5-74.6
			C152.2,352.7,152.1,347.6,151.8,342.4z"/>
	</g>
	<g>
		<defs>
			<rect id="SVGID_21_" x="-35.1" y="8.3" width="376.6" height="308.9"/>
		</defs>
		<clipPath id="SVGID_22_">
			<use xlink:href="#SVGID_21_"  style="overflow:visible;"/>
		</clipPath>
		<path class="st13" d="M142.3,252.4c0.5,5.9,0.5,11.8,0.8,17.7c0.2,3.8,0.4,7.6,0.5,11.4c1.6,0,3.2,0.3,4.9,0.2c0.1,0,0.3,0,0.4,0
			c-0.5-10.9-1-21.9-1.5-32.8c0-0.6,0.1-1.1-0.4-1.6c-1.3,0-1.7-0.6-1.6-1.9c0.4-4.3-0.2-8.5-0.2-12.8c-0.1-3.9-0.6-8-1.5-11.9
			c-0.3-1.4,0.3-2.9-0.5-4.2c-0.4-0.6-0.7-1.7-1.5-1.4c-0.7,0.2-0.4,1.2-0.4,1.9C141.2,228.7,141.4,240.6,142.3,252.4z"/>
	</g>
	<g>
		<defs>
			<rect id="SVGID_23_" x="-35.1" y="8.3" width="376.6" height="308.9"/>
		</defs>
		<clipPath id="SVGID_24_">
			<use xlink:href="#SVGID_23_"  style="overflow:visible;"/>
		</clipPath>
		<path class="st14" d="M184.7,162.5c0.9-0.8,1.9-0.4,2.9-0.4c0.7,0,1.1,0,1-1c-0.2-1.4,0.4-2,1.8-1.2c0.8,0.5,1.3,0.1,1.9-0.3
			c1.2-0.8,1.6-0.4,1.5,0.9c0,0.3-0.2,0.6-0.1,0.9c0.1,0.4,0.4,0.8,0.9,0.8c0.6,0,0.7-0.5,0.6-1c-0.5-1.8,0.6-1.9,1.9-1.8
			c0.3,0,0.7,0.1,0.9,0c1.5-0.5,1.8,0.2,1.7,1.4c0,0.6-0.3,1.4,0.6,1.5c0.9,0.1,0.9-0.6,1.1-1.2c0.3-1,0.8-2.3,1.9-2.3
			c1.3-0.1,2.4,0.7,2.8,2.1c0.1,0.4,0.2,0.9,0.7,1c0.7,0.1,0.6-0.5,0.6-0.9c0.3-1.4,1.8-0.5,2.5-1.2c0.3,0.7,0.7,1.4,1.6,1.1
			c0.3,0.3,0.2,1,0.7,1s0.6-0.6,0.7-1c0.1-1,0.5-1.3,1.5-1.5c1.5-0.3,1.7-1.7,1.7-3c0-1,0-2,1-2.7c0.5-0.3,1.1-0.5,1.6-0.1
			c0.6,0.3,0.4,0.9,0.2,1.3c-0.4,1.1-0.6,2.2-1.3,3.1c-0.4,0.4-0.4,0.9-0.1,1.4c0.4,0.6,0.9,0.2,1.3,0c2.4-1,4.6-0.1,6.8,0.8
			c1,0.5,0.5,1.9,1.5,2.5c-0.2-2.2,1.4-4.1,0.7-6.4c-0.2-0.7,0.1-1.5,0.3-2.2c0.3-1.1-0.1-1.8-1.3-1.5c-0.9,0.3-1.3-0.1-2-0.5
			c-1.4-0.8-3-0.5-4.5-0.6c-2.1-0.1-4.2-0.4-6.3-0.7c-1-0.2-1.9-0.1-2.4,1c-0.5,0.9-1.4,1.2-2,0.4c-1.7-2.3-4.3-2.1-6.6-2.2
			c-10.9-0.3-21.8-1.2-32.8-1.8c-3.8-0.2-7.5-0.4-11.3-0.4c-4.5,0.1-9-0.6-13.6-0.4c-10.6,0.4-21.1,0.1-31.7,0.3
			c-1.8,0-3.6,0.7-5.2,0.3c-3.1-0.8-5.8,0.5-8.8,0.5s-6,0.3-9,0.5c-3.2,0.2-6.3,0.4-9.5,0.6c-2.4,0.1-4.7,0.7-7,0.8
			c-3.3,0.1-6.3,1.6-9.5,1.9c-2.7,0.3-3.2,1.3-2,3.6c-1.1-0.1-2.3-0.8-3.4-0.1c-2,1.3-4.4,1.7-6.4,3.1c-1.3,0.9-2.2,3.3-1.3,4.7
			c0.3,0.5,0.9,0.8,1.4,0.6c1.9-0.8,3.9-0.7,5.8-0.7c0.1,0.9-0.4,1.2-1.3,1.1c-0.6,0-0.9,0.4-0.9,0.9s0.3,0.8,0.8,0.9
			c1.3,0.4,2.8-0.6,3-1.9c0.7-0.1,1.1-0.5,1-1.3c0-0.4,0.1-1,0.5-0.8c1.7,0.6,2-1.1,2.9-1.6c0.6,0.7,0,1.1-0.3,1.6
			c-0.6,1.3,0.1,2.7,1.6,2.6c3-0.1,6,0.1,9-0.4c1.9-0.3,3.8,0,5.8-0.2c8.1-0.7,16.2-1.4,24.3-1.2c0.4,0,0.9-0.1,1.3,0
			c0.8,0.2,2.1-0.6,2.2,1s-0.7,2.7-2.2,3s-3,0.3-4.5,0.3c-1.3,0-2.5-0.1-3.2-1.5c-0.2-0.5-0.8-1-1.4-0.8c-1.6,0.6-4.2-0.6-4.6,2.4
			c-0.1,0.4-0.4,0.6-0.9,0.6c-1.8-0.1-3.5,0.4-5.2,0.7c-0.3,0-0.8,0.2-1-0.3c-0.2-0.6,0.4-0.7,0.8-0.9c0.6-0.3,1.7-0.2,1.4-1.2
			c-0.3-1-1.4-1-2.1-0.7c-1.8,0.9-4,0.3-5.7,1.7c-0.4,0.3-0.9,0.4-1.2,0.1c-2-1.6-4.2-0.9-6.3-0.5c-1.2,0.3-2.5,0.8-3.7-0.4
			c-0.2-0.2-0.8-0.2-1.1-0.1c-3.9,1.4-7.9,1-11.9,1.5c-2.6,0.4-4.8,1.8-7.1,2.8c-3.4,1.3-7,2.4-10.7,2.6c0.8-0.8,1.9-0.9,3-1
			c3.1-0.4,5.9-2,8.9-3c1.1-0.4,0.8-1.2,0.6-2.1c-0.6-2.4-1.2-4.9-1.8-7.3c-0.4-1.5-0.1-2.4,1.6-3.2c3.9-1.7,8.1-3.1,11.7-5.5
			c1.2-0.8,1.8-1.9,2.7-2.9c0.7-0.8,1.3-1.1,2.2-0.2c1.1,1.3,2.6,1.3,3.3-0.1c1.3-2.6,3.5-1.9,5.5-1.9c1.3,0.1,2.5,0,3.7-0.4
			c5-1.7,10.1-3.5,15.1-5.3c1.4-0.5,2.9-0.6,4.3-1.4c1-0.6,1.5-1.1,0.6-2.1c-1.1-1.2-0.3-2,0.8-2.4c1.1-0.4,2.3-0.7,3.4-0.9
			c1-0.2,1.5,0.1,1.6,1.2c0.1,1.4,1,1.6,2.2,1.2c3.4-1.3,7-2,9.9-4.3c0.8-0.6,1.8-0.3,2.6-1c2.8-2.4,3-5.7,0.1-8.7
			c-2.1-2.2-4.6-3.9-7-5.7c-0.7-0.5-1.9-0.7-1.6-2c0.3-1.2,1.4-1.6,2.4-1.8c1.1-0.2,2.2-0.4,3.4-0.5c1.7-0.2,3-1,4-2.5
			c0.4,0.6,0.9,1,1.7,0.6c1.1-0.6,2.3-0.5,3.5-0.6c1.4,0,2.9,0.1,4.3-0.1c7.4-1,14.9-1.4,22.3-1.3c2.1,0,2.4-0.3,2.3-2.4
			c-0.1-3.8,0.1-7.6,0.5-11.4c1.1,1.2,0.9,2.6,0.9,4c0,0.4-0.2,1,0.4,1.1c0.6,0.1,0.6-0.5,0.7-0.9c0.7-2-0.1-3.8-0.3-5.7
			c-0.1-0.7-0.3-1.3,0.7-1.4c0.9-0.1,1.4,0.4,1.2,1.2c-0.4,2.2,1,4.1,0.8,6.3c-0.1,1.5,1.2,1.9,2.3,2.3c0.4,0.1,1-0.2,1.4,0.3
			c-1.7,0.6-3.4,0.5-5.2,0.2c-2.3-0.3-3,0.5-2.3,2.7c0.1,0.5,0.2,1,0.2,1.5c0,1.3,0.7,1.8,1.9,1.8c3.4,0,6.8,0.1,10.1,0.5
			c0.9,0.1,1.7-0.3,1.5-1.2c-0.3-2.1-0.1-4.3-1-6.5c-1.2,0.9-2.2,2.3-3.8,0.9c0.1-0.3,0.3-0.7,0.4-1c0.6,0.2,1.1-0.1,1.7-0.4
			c1.4,0,2.2-1.5,3.5-1.5c0,0.1,0.1,0.2,0.1,0.4c0.1,1,0.7,1.7,1.7,1.8c0.4,0,0.7-0.3,0.7-0.7c0-1.1-0.6-1.7-1.6-1.9
			c-0.1,0-0.1-0.1-0.2-0.1c0.2-0.8,0.9-0.9,1.5-0.8c0.8,0.2,0.9,0.9,1,1.6c0.4,2.7,0.4,2.7,3.2,2.9c1.1,0.1,2.2,0.3,3.4,0.4
			c0.7,0.1,1.2,0.5,1.6,1c1.3,1.9,1.5,4.2,1.8,6.4c0.1,0.7-0.6,1.1-1.2,0.7c-2.3-1.2-4.8-0.5-7.2-1c-4.1-0.9-8.1,0.3-12.2,0
			c-1.7-0.1-3.5,0.1-5.3-0.4c-1.9-0.6-3.2,0.9-4.8,1.4c-0.4,0.1-0.5,0.7-0.4,1.2c0.2,0.6,0.7,0.7,1.2,0.7c1.3,0,2.6,0,4,0
			c2.5,0.1,3.5,1.9,1.9,3.9s-3.3,3.9-6,4.4c-0.4,0.1-0.9,0.1-0.9,0.5c-0.1,2.4-3.1,3.5-2.6,6.2c0.3,1.5-1.3,1.6-2.4,1.6
			c-1.4-0.1-2.1,0.4-2.1,1.9c0.1,1.5,0.4,2.2,2,1.5c1.3-0.6,2.3,0.2,2.5,1.5c0.3,1.9,0.5,3.9-0.3,5.7c-0.7,1.6,0.2,2.4,1.6,2.6
			c1.6,0.3,3,0.7,3.3,2.5c0.1,0.7,0.6,0.9,1.3,0.5c2.7-1.6,5.4-0.5,8,0.3c2.7,0.8,5.3,1.2,8.1,1.2c3.6-0.1,7.2,0.2,10.7,0.7
			c3.7,0.5,7.4,0.9,11.1,1c7.5,0.1,15,1.1,22.6,1.4c3.7,0.1,7.4,0.5,11.1,0.9c4.9,0.6,9.7,1.6,14.5,2.1c4.6,0.5,8.3,3,12.4,4.8
			c1.3,0.6,1.3,1.8,1.1,2.9c-0.4,2.2-0.8,4.4-1.4,6.6c-0.4,1.8,0.2,2.7,1.9,3.2c1.2,0.3,2.4,0.9,3.1,2c0.5,0.7,1.2,0.9,2,0.9
			c4.8,0.3,9.4,1.6,13.9,3.2c1.1,0.4,1.4,1.2,1.3,2.2c-0.1,1.1-0.9,1.4-1.9,1.2c0.4-0.6,1.5-0.6,1.3-1.6s-1-1-1.7-1.2
			c-6.2-2.1-12.5-2.9-19-3.5c-5.9-0.6-11.8-0.7-17.6-1.7c-3.1-0.5-6.4-0.5-9.5-0.5c-1.7,0-3.1-0.9-4.8-0.9c-1.5,0-2.9,0.4-4.5,0.1
			c-6.4-0.9-12.9-1-19.4-1c-1.1,0-2.3,0-3.2-0.7c-0.2-0.2-0.6-0.3-0.9-0.3c-2.9,0.6-5.8,0.3-8.6,0.2c-2.1-0.1-4.3,0.9-6.3-0.6
			c-0.7-0.6-1.7,0.3-2.6,0.2c-3.7,0-7.3,0-11,0c-0.6,0-1.3-0.1-1.8-0.5c-1-0.7-1.8-1.9-3.2-0.4c-0.5,0.6-1.5-0.7-2.6-0.6
			c-2.6,0.2-5.2,0-7.7,0c-1.1,0-2.1,0-3.2-0.4c-0.3-0.1-0.8-0.4-1.1-0.2c-2.3,1.4-5,0.3-7.4,0.9c-2,0.4-3.9-0.4-6,0
			c-1.1,0.2-0.8-1.2-1.2-1.9c-2.1,2.6-4.9,1.8-7.6,1.8c-0.6,0-1.1,0-1.7,0.1c-1.9,0.4-3.6,0.2-5.5-0.2s-4-0.1-5.9,0.2
			c-1.2,0.2-1.8,0-1.8-1.3c0-0.1,0-0.3-0.1-0.4c-0.7-2.4-0.8-2.6,1.7-2.8c3.6-0.3,7.1-0.2,10.7-0.3c8.3-0.2,16.7-0.3,25-0.4
			c0.4,0,0.9,0.1,1.3,0.1c-0.6,1.8-0.2,2.1,1.6,2c2.8-0.1,5.6-0.6,8.4-0.1c1.4,0.2,1.7-0.3,1.2-1.8c1-0.3,2.1-0.7,3.2-0.3
			c-1.6,1-0.7,2,0,3c0.8,1.1,1.7,1.7,3,0.9c0.7-0.4,1.3-1.2,2.3-1.1c1.5,0.1,2.9-0.3,4.3-0.6c1.8-0.4,3.6-0.5,4.8,1.2
			c1.2,1.6,2.7,1.4,4.3,1c0.7-0.2,1.3-0.7,2.1-0.9c1.9-0.5,3.6-2.1,5.7-0.8c2.1,1.4,4.1,3.2,6.9,2.6c0.1,0,0.2,0.1,0.3,0.1
			c1.5,0.9,3.3,0.8,4.9,0.9c0.4,0,0.8,0.1,1-0.2c0.3-0.5-0.1-0.8-0.3-1.2c-0.2-0.5-1.2-0.7-0.7-1.3c0.5-0.7,1.3-0.1,1.9,0.1
			c0.4,0.2,0.8,0.4,1.2,0.6c1.3,0.9,2.5,0.9,4-0.1c1.7-1.2,3.7-1.9,5.8-0.5c1,0.7,2.4,0.5,3.4,1.5c0.5,0.5,1.3,0.3,1.8-0.1
			c1.9-1.6,3.9-1.1,6-0.6c1.8,0.5,3.5,2,5.6,0.3c0.5-0.4,1.4,0,0.8,1.1c-0.2,0.4-0.5,0.8-0.1,1.2c0.5,0.4,1,0,1.3-0.4
			c0.4-0.6,0.9-0.9,1.5-0.9c3.4,0.3,6.9,0.5,10.2,1.2c-0.1,0.6-1.5,0.1-1.1,1.1c0.3,0.7,1.1,1.2,1.8,0.9c1.2-0.4,2.3,0.1,3.5,0
			c0.8,0,2.1,0.7,2.5-0.8c0.2-0.6,1.4-0.6,1-1.5c-0.3-0.7-1-0.8-1.7-0.9c-0.4-0.1-0.9-0.2-0.9-0.7c0.7-0.3,1.5,0.2,2.1-0.4
			c-0.1-0.4-0.5-0.4-0.7-0.6c-1.2-1.2-3-1.3-4.2-2.6c-0.8-0.9-1.1-0.8-1.7,0.2c-0.7,1.1-0.7,1.8,0.5,2.4c-0.6,0.3-1.1,0.1-1.7,0
			c-3.3-0.6-6.5-1.2-9.8-1.4c-1.2,0-2.5,0.1-3.5-0.4c-2.3-1-4.7-0.5-7-1.1c-1.5-0.4-3.1-1-4.7-0.9c-3.2,0.3-6.5-1-9.7,0.5
			c-0.3,0.1-0.6,0.1-0.9,0.1c-3.7-0.4-7.4-0.4-11-0.2c-4.1,0.1-8.2-0.7-12.4-0.3C185.9,163,185.2,163.1,184.7,162.5z M240.7,159.1
			c0,0.7-0.1,1.4-0.1,2.1c0,0.7-0.4,1.7,0.5,2c0.8,0.3,1.3-0.6,1.8-1.2c0.3-0.4,0.5-0.9,1.2-0.7c0.5,0.2,0.7,0.6,0.9,1.2
			c0.1,0.5,0.1,1.6,0.8,0.9c1.5-1.6,2.6-1.4,3.9,0.1c0.1,0.1,0.4,0.1,0.5,0.1c1.1,0,2.2,0,3.1,0.9c0.5,0.5,1,0,1.2-0.7
			c0.2-0.6,0.3-1.2,0.4-1.8c0.2-1.3,0-2.3-1.7-2.2c-0.6,0-1-0.3-1.3-0.8c-0.8-1.1-3-1.3-4-0.4c-0.2,0.2-0.3,0.4-0.6,0.3
			c-0.3-0.2-0.3-0.5-0.2-0.8c0.4-1.2,0-2.2-1.3-2c-1.6,0.3-3.3,0.4-4.5,1.5c-0.1-1.3-0.1-1.3,1.2-1.9c0.3-0.2,0.8-0.2,0.8-0.7
			s-0.5-0.7-0.9-0.8c-2.3-0.7-3.3-0.1-3.5,2.3c0,0.3-0.1,0.6-0.2,0.9c-0.2,0.9-0.6,1.8,0.3,2.4C239.8,160.6,239.9,159.1,240.7,159.1
			z M238,164.7c0.8,0,1.4-0.1,1.7-0.8c0.2-0.6,0.1-1.2-0.4-1.6c-0.5-0.4-1.1-0.2-1.5,0.3c-0.9,0.9-1.2,0.2-1.5-0.5
			c-0.4-0.9-1-1.6-1.9-0.4c-0.4,0.5-0.5,1.5-1.5,1.1c-0.9-0.4-1-1.2-0.9-2.1c0.1-0.7,0.1-1.6,0.5-2.2c1-1.3,0.8-2.6,0.6-4.1
			c-0.1-0.6-0.2-1.1-0.9-1.3c-0.5-0.1-0.9,0-1.2,0.4c-0.3,0.5-0.3,0.9,0.1,1.4c0.8,1,0.3,1.7-0.5,2.2c-1.3,0.7-1.3,1.7-0.7,2.8
			c0.4,0.8,0.9,1.5,1.2,2.3c0.5,1.7,1.7,2.2,3.3,2.2C235.7,164.4,236.9,164.3,238,164.7z M51.9,165.8c-0.4,0-0.7,0.1-0.7,0.5
			c-0.1,0.6,0.1,1.2,0.4,1.8c0.2,0.4,0.6,0.5,0.9,0.2c0.4-0.3,0.9-0.4,1.4-0.5c0.6-0.1,1.6,0.5,1.7-0.5c0-0.9-1-1-1.8-0.9
			C53,166.4,52.4,166,51.9,165.8z M235,157.7c0.1,0.5-0.1,1.4,0.7,1.6c0.8,0.2,0.7-0.8,1-1.3c0.1-0.1,0.1-0.2,0.2-0.3
			c0.3-0.8,0.7-1.5,0.2-2.3c-0.2-0.3-0.7-0.5-1-0.3c-0.7,0.5-0.9,1.3-1.1,2.1C235,157.3,235,157.4,235,157.7z M224.3,169.7
			c0.5-0.5,2,0.4,2.2-0.8c0.2-1-1.3-0.8-2-1.2c-0.1,0-0.1,0-0.2-0.1c-0.7-0.3-1.3-0.5-1.9,0.1c-0.3,0.3-0.4,0.6-0.2,1
			C222.6,169.6,223.4,169.6,224.3,169.7z M213.9,169.1c0.5-0.2,1.5,0.3,1.5-0.8c0-1-0.9-1.1-1.7-1c-0.8,0-1.9-0.1-1.9,0.9
			C211.8,169.3,213,168.9,213.9,169.1z M221.7,160.4c-0.2-0.6-0.7-0.8-1.3-0.7s-1.5,0.2-1.3,0.9s1.1,0.5,1.8,0.6
			C221.4,161.3,221.7,161,221.7,160.4z M190,167.4c-0.2-0.7-0.8-0.7-1.4-0.6c-0.4,0-0.9,0.1-0.8,0.5c0.2,0.8,0.9,0.9,1.6,0.9
			C189.8,168.1,190,167.9,190,167.4z M216.9,160.1c-0.1-0.3-0.2-0.7-0.7-0.6c-0.5,0.1-0.8,0.4-0.8,0.9c0,0.4,0.2,0.7,0.7,0.7
			C216.6,161,216.8,160.6,216.9,160.1z"/>
	</g>
	<g>
		<defs>
			<rect id="SVGID_25_" x="-35.1" y="8.3" width="376.6" height="308.9"/>
		</defs>
		<clipPath id="SVGID_26_">
			<use xlink:href="#SVGID_25_"  style="overflow:visible;"/>
		</clipPath>
		<path class="st15" d="M195,218.1c-0.4,0.2-0.7,0.5-0.7,1c-0.2,2-0.5,4.1-0.8,6.1c-0.1,0.6,0.2,1.4-0.9,1.9c0-2.4-0.1-4.5,0-6.6
			c0.1-1.5-0.5-2.1-1.9-2c-1,0.1-2,0.1-3,0.1c-4.5-0.1-8.9,0.7-13.4,0.3c-1-0.1-1.7,0.9-2.9,0.5c-2.4-0.9-3.9,0.3-3.5,2.7
			c0.1,0.9,0,1.7-0.1,2.6c-0.2,1.5,0.2,2.2,1.8,1.6c0.3-1.6,0-3.2-0.2-4.8c-0.1-0.8,0-1.7,0.9-1.8c1.1-0.1,1.2,0.8,1.2,1.7
			c0,2.4-0.4,4.8,0,7.2c2-1.3,0.6,1,1.3,1.2c0.5-0.3,0.5-0.9,0.4-1.4c-0.5-2-0.3-4-0.3-6c0-2.8,0.2-2.9,3-2.9c4.3,0,8.7-0.1,13-0.2
			c1.8-0.1,2.1,0.1,1.9,1.9c-0.7,5.4-1.4,10.7-1.9,16.1c-0.7,6.7-1.8,13.3-2.5,20c-0.7,6.6-1.6,13.2-2.6,19.8c1.3-0.5,2.6-1,3.9-1.5
			c1.1-8.2,2-16.3,3.1-24.5c1.4-10.4,2.5-20.9,4.3-31.2C195.2,219.4,195.4,218.7,195,218.1z"/>
	</g>
	<g>
		<defs>
			<rect id="SVGID_27_" x="-35.1" y="8.3" width="376.6" height="308.9"/>
		</defs>
		<clipPath id="SVGID_28_">
			<use xlink:href="#SVGID_27_"  style="overflow:visible;"/>
		</clipPath>
		<path class="st16" d="M177.8,321.9c-1.1,7.5-2.3,15-2.7,22.6c-0.1,2.2,0.1,4.3-0.2,6.5c-0.2,1.4-1.1,2.4-1.3,3.6
			c-0.5,4.4-1.9,8.7-1.9,13.2c0,0.9-0.1,1.9-0.2,2.8c-0.4,3.2-0.8,6.3-1.4,9.4c-0.4,2.2-0.1,4.4-0.4,6.6c-1.1,7.5-1.4,15-1.7,22.5
			c-0.2,6.8-0.5,13.7,0.4,20.5c0.1,0.7-0.5,1.8,0.6,2.1c1,0.2,1.5-0.7,2.1-1.3c0.5-0.5,0.4-1.2,0.4-1.8c0.1-5.3,0.1-10.6,0.2-15.9
			c0.2-9.1,0.8-18.1,1.7-27.1c0.7-7.3,1.3-14.6,2.4-21.8c1-6.3,2-12.6,2.8-18.9c1-8.1,2.1-16.1,3.1-24.2
			C180.5,321.2,179.2,321.6,177.8,321.9z"/>
	</g>
	<g>
		<defs>
			<rect id="SVGID_29_" x="-35.1" y="8.3" width="376.6" height="308.9"/>
		</defs>
		<clipPath id="SVGID_30_">
			<use xlink:href="#SVGID_29_"  style="overflow:visible;"/>
		</clipPath>
		<path class="st17" d="M232.3,213.5c-0.1-0.9,1.5-1,0.9-1.8s-1.8-0.5-2.7-0.2c-3.3,0.9-6.5,0.7-9.8,0.3c-0.7-0.1-1.4,0.6-2.1,0.1
			c-0.1-0.5,0.2-0.6,0.5-0.7c0.4-0.2,0.8-0.5,0.6-1s-0.6-0.6-1.1-0.6c-0.9-0.2-2.3,0.6-2.7-0.5s1.3-1.1,1.8-1.8
			c0.8-1.3,2.4-1.5,3.4-2.5c0.7-0.7,1.1-1.2,0.7-2.2c0.3-0.8,0.4-1.6,0-2.4c1.6-0.2,0.9-1.2,0.6-1.9c-0.3-0.7-0.8-1.7-1.7-1.3
			c-1.1,0.4-0.6,1.3-0.1,2c0.1,0.2,0.1,0.5,0.2,0.7c-1.2,0.7-0.4,1.7-0.3,2.6c-0.6,0.3-1,0.7-1.4,1.2c-2.2,2.3-4.8,3.8-7.9,4.5
			c-0.6,0.1-1.4,0.4-1.6-0.4c-0.2-0.7,0.4-1.3,1-1.5c3.1-1.2,3.8-3.9,4.3-6.7c0.2-0.9-0.1-1.4-0.9-1.5c-0.8-0.1-1.6-0.2-2.2-0.8
			c-0.4-0.3-1-0.5-1.3,0.1c-0.2,0.5,0.2,0.8,0.6,0.9c0.7,0.2,1.2,0.5,0.9,1.3c-0.5-0.2-1.1-0.6-1.6,0.1c-0.5,1-0.2,1.7,0.6,2.4
			c-2.1,1.4-4.1,2.8-6.2,4.1c-0.6,0.4-1.4,0.8-1.9,0.2c-0.5-0.7,0.4-1.1,0.8-1.5c2.5-2.7,2.3-5.9,1.5-9c-0.4-1.5,0-1.8,1.3-1.8
			c6.7-0.1,13.3,0.6,20,1c3.8,0.2,7.4,1.2,11.2,1.7c0.2,0,0.6,0,0.7,0.2c1.2,1.4,2.2,1.3,3.1-0.4c0.3,0.8-0.1,1.6-0.2,2.4
			c-0.1,1.1-0.1,2.2,1.1,2.7c0.2,0.1,0.4,0.2,0.4,0.4c0.5,1.6,1.2,2.1,2.8,0.9c0.9-0.7,1.7,0,2.5,1.7c1.6-1.1,2.7-0.9,3.4,0.6
			c0.4,0.8,0.4,1.5-0.6,2c-5.2,2.6-10.7,4.6-16.4,6C233.8,213.4,233.1,213.8,232.3,213.5z M230.2,202.8c0.7-0.1,1-0.6,0.8-1.2
			c-0.1-0.5-0.3-1.3-0.9-1.2c-0.8,0.1-1,0.9-1,1.6C229.2,202.5,229.6,202.8,230.2,202.8z"/>
	</g>
	<g>
		<defs>
			<rect id="SVGID_31_" x="-35.1" y="8.3" width="376.6" height="308.9"/>
		</defs>
		<clipPath id="SVGID_32_">
			<use xlink:href="#SVGID_31_"  style="overflow:visible;"/>
		</clipPath>
		<path class="st18" d="M161.9,347c-0.1-3.5-0.9-7.2-0.1-10.5c0.6-2.2,0.3-3.9,0-5.9c-0.3-2.5-0.2-5-0.2-7.5
			c-2.3-0.1-4.6-0.2-6.9-0.5c0,0.9,0,1.7,0,2.6c0,3.3,0.1,6.7,0.2,10c0,0.8,0.2,1.8-1.2,1.5c0.1,3.9,1.1,7.7,1.8,11.5
			c0.6-2.5,0-5.1,0.2-7.7c0.1-1.5,0.6-2.3,2.2-2.4c1.5-0.1,2.1,0.5,2.2,1.9c0.1,2.9,0.1,5.8,0.1,8.7c0,1.4-2.1,2.4-4.3,2.1
			c-0.1,1.1,0,2.1,0.6,3.1c0.4-0.6,0.9-1.2,1.8-0.9c0.9,0.3,1.5,0.8,1.7,1.8c0.2,1.7,0,3.3,0.4,5c0.2,0.9-0.6,0.9-1.2,1
			c0.1,0.8,0.7,1.3,1.4,1.5c0.5-1.4,1.2-2.7,1.1-4.4c-0.2-2.8-0.8-5.7,1-8.3c0.3-0.5,0.1-0.8-0.2-1.2
			C162.3,347.9,162,347.6,161.9,347z M158.5,335.1c-1.3,0-2.2-0.4-2.2-1.8c0.2-3-0.1-5.9-0.1-8.8c0-1,0.5-1.5,1.5-1.5
			s2.2-0.2,2.3,1.2c0.2,1.7,0.2,3.4,0.2,5.1c0,1.3,0,2.5,0,3.8C160.4,334.4,159.9,335.1,158.5,335.1z"/>
	</g>
	<g>
		<defs>
			<rect id="SVGID_33_" x="-35.1" y="8.3" width="376.6" height="308.9"/>
		</defs>
		<clipPath id="SVGID_34_">
			<use xlink:href="#SVGID_33_"  style="overflow:visible;"/>
		</clipPath>
		<path class="st19" d="M154.8,281.9c0.4,0,0.9,0,1.3,0c0.1,0,0.1,0,0.2,0c0-1.1,0-2.3,0-3.4c0-1.5,1.5-1.5,2.6-1.6
			c1.2,0,1.4,0.8,1.4,1.8c0,0.9,0,1.9,0,2.8c0.5-0.1,0.9-0.1,1.4-0.1c0.1-0.8,0.4-1.7,0.9-2.5c0.5-0.7,0-1.2-0.5-1.6
			c-0.7-0.7-1.1-1.5-0.6-2.4c0.8-1.2,0.4-2.3,0.4-3.6c-0.1-4.4-0.9-8.9,0.4-13.3c0.1-0.5,0.1-0.9-0.2-1.3c-0.5-0.9-0.5-1.8-0.4-2.8
			c0.2-3.8-0.1-7.7,0.2-11.5c0.2-2.7-0.6-5.5-0.3-8.2c0-0.3-0.1-0.5-0.5-0.5c-0.5,0.3-0.5,0.8-0.6,1.3c-0.3,3.7,0.9,7.4-0.4,11
			c0,0.1,0,0.3,0,0.4c0.6,3.6,0.2,7.2,0.4,10.7c0.1,2-0.6,2.5-2.6,2.4c-1.5-0.1-2.3-1-2-2.7c0.4-1.8,0.1-3.6,0.2-5.4
			c0.1-2,0.2-4,0.4-6c0.2-1.9-0.9-3.9-0.5-6c0.2-1.3,0-2.8,0-4.1c0-0.7,0-1.4-0.8-1.6c-0.5,0.6-0.3,1.3-0.3,1.9
			c-0.1,2.6,0.4,5.2,0.2,7.7c-0.3,5.4-0.3,10.9-0.3,16.3c0,6.2,0,12.4,0,18.6C154.8,279.5,154.8,280.7,154.8,281.9z M156.3,263.4
			c0.1-1.4,1.5-1.4,2.5-1.5c1.1-0.1,1.4,0.7,1.5,1.5c0.1,1.6,0,3.1,0,4.7h0.1c0,1.4,0,2.9,0,4.3c0,0.8-0.1,1.8-1.1,1.6
			c-1-0.2-2.7,0.4-2.8-1.4C156.2,269.5,156.2,266.4,156.3,263.4z"/>
	</g>
	<g>
		<defs>
			<rect id="SVGID_35_" x="-35.1" y="8.3" width="376.6" height="308.9"/>
		</defs>
		<clipPath id="SVGID_36_">
			<use xlink:href="#SVGID_35_"  style="overflow:visible;"/>
		</clipPath>
		<path class="st20" d="M156.2,95.2c-0.4,3.8-0.6,7.6-0.5,11.4c0.1,2.1-0.2,2.4-2.3,2.4c-7.5-0.1-14.9,0.4-22.3,1.3
			c-1.4,0.2-2.9,0.1-4.3,0.1c-1.2,0-2.4-0.1-3.5,0.6c-0.8,0.5-1.3,0-1.7-0.6c-0.1-1.9,0.7-3.6,0.9-5.4c0.1-1.1,0.9-1.5,1.8-1.6
			c2.9-0.3,5-1.3,5.5-4.5c0.3-1.5,1.8-0.6,2.8-0.8c0.9-0.2,0.8,0.5,0.9,1c0.4,1.7,2.5,2.9,5.1,2.7c1.5-0.1,3-0.3,4.5,0
			c1,0.2,1.5-0.3,1.7-1.3c0.1-1.1,0.3-2.2,0.4-3.4c0.4-0.3,0.4-0.7,0.2-1.1c0-0.6,0-1.2,0-1.9c0-0.1,0-0.3,0-0.4
			c0-0.4,0.1-0.8,0.1-1.1c1.5-0.7,3.1-1.2,4.8-1.2c0.7,0.1,1.3-0.1,1.8-0.6c0.3,0,0.6,0,0.9-0.1c0.5,0.5,1.2,0.5,1.8,0.7
			c0,0.3,0.2,0.5,0.5,0.5C155.5,93,155.6,94.1,156.2,95.2z"/>
	</g>
	<g>
		<defs>
			<rect id="SVGID_37_" x="-35.1" y="8.3" width="376.6" height="308.9"/>
		</defs>
		<clipPath id="SVGID_38_">
			<use xlink:href="#SVGID_37_"  style="overflow:visible;"/>
		</clipPath>
		<path class="st21" d="M172.7,346.6c0-5.2,0.4-10.4,0.3-15.6c0-2.7,0-5.5,0-8.2c-0.1,0-0.2,0-0.3,0c-0.4,0-0.8,0.1-1.1,0.1
			c0,2.5,0.1,5-0.1,7.5c-0.3,3.9,0.1,7.8-0.1,11.6c-0.2,2.7,0.4,5.4-0.1,8.2c-0.1,0.7,0,1.8,1,1.7c0.9,0,1-1.1,0.9-1.8
			C172.9,349,172.7,347.8,172.7,346.6z"/>
	</g>
	<g>
		<defs>
			<rect id="SVGID_39_" x="-35.1" y="8.3" width="376.6" height="308.9"/>
		</defs>
		<clipPath id="SVGID_40_">
			<use xlink:href="#SVGID_39_"  style="overflow:visible;"/>
		</clipPath>
		<path class="st22" d="M171.5,279.5c0,0.1,0,0.2-0.1,0.3c0.5-0.1,1-0.1,1.5,0c0.1-3.1,0.1-6.2-0.1-9.3c-0.2-4.7,0.1-9.4,0-14.1
			c-0.2-7.8,0-15.6,0-23.4c0-0.7,0.3-1.5-0.2-2.2c-0.3,0-0.7,0-1,0c-0.6,1,0,2,0,3.1c-0.2,5.7-0.6,11.4-0.3,17.1
			c0.4,5.9-0.3,11.7,0.2,17.6c0.2,2,0.2,4-0.3,6C170.8,276.3,171.9,278,171.5,279.5z"/>
	</g>
	<g>
		<defs>
			<rect id="SVGID_41_" x="-35.1" y="8.3" width="376.6" height="308.9"/>
		</defs>
		<clipPath id="SVGID_42_">
			<use xlink:href="#SVGID_41_"  style="overflow:visible;"/>
		</clipPath>
		<path class="st23" d="M204,215.7c-0.2-0.6-0.7-1-1.4-1c-1.3-0.1-2.8-0.8-3.8,0.9c0,0.5,0,1,0,1.4c0.4,0.2,0.5,0.5,0.5,0.9
			c0.2,0.2,0.4,0.4,0.6,0.6c0.7,0.2,0.7,0.7,0.5,1.3c-1,7-2.1,13.9-3.1,20.9c-1.7,11.3-3.4,22.6-5.1,33.9c0.2-0.2,0.4-0.4,0.7-0.5
			s0.7-0.3,1-0.4c2.2-15.2,4.5-30.4,7.1-45.5c-0.2-0.4-0.2-0.7,0.2-0.9c0.1-0.6,0.2-1.2,0.3-1.8c-0.3-0.4-0.3-0.7,0.2-0.9
			c0.1-0.5,0.1-0.9,0.2-1.4c-0.4-0.4-0.3-0.7,0.2-0.9c0.1-0.3,0.1-0.7,0.2-1c-0.4-0.4-0.3-0.6,0.2-0.9c0-0.2,0.1-0.4,0.1-0.7
			c-0.5-1.1,0.1-1.8,0.9-2.4C203.9,216.9,204.3,216.4,204,215.7z"/>
	</g>
	<g>
		<defs>
			<rect id="SVGID_43_" x="-35.1" y="8.3" width="376.6" height="308.9"/>
		</defs>
		<clipPath id="SVGID_44_">
			<use xlink:href="#SVGID_43_"  style="overflow:visible;"/>
		</clipPath>
		<path class="st24" d="M165.8,102.3c1.6,1.4,2.6-0.1,3.8-0.9c0.9,2.1,0.7,4.4,1,6.5c0.1,0.9-0.6,1.3-1.5,1.2
			c-3.4-0.4-6.7-0.6-10.1-0.5c-1.2,0-1.9-0.6-1.9-1.8c0-0.5,0-1-0.2-1.5c-0.7-2.2,0-3,2.3-2.7c1.7,0.2,3.5,0.4,5.2-0.2
			C164.9,102.5,165.4,102.5,165.8,102.3z"/>
	</g>
	<g>
		<defs>
			<rect id="SVGID_45_" x="-35.1" y="8.3" width="376.6" height="308.9"/>
		</defs>
		<clipPath id="SVGID_46_">
			<use xlink:href="#SVGID_45_"  style="overflow:visible;"/>
		</clipPath>
		<path class="st25" d="M153.7,20.5c1.2,0.2,1,1.1,0.7,1.9c-1,2.3-0.5,4.7-0.5,7c0,3.9,0.9,7.9-0.5,11.7c-0.3,0.9-0.4,1.9-0.4,2.8
			c-0.1,3.8,0,7.7-0.1,11.5c0,1.1,0.1,2,1.5,2.2c0.5,0.1,0.8,0.4,0.8,0.9c0,0.7-0.5,0.7-1,0.8c-0.4,0-0.7,0.1-1.1,0.3
			c-0.5,0.3-1.1,0.4-1.6,0c-0.6-0.5-0.4-1.1-0.1-1.7c0.5-0.9,0.5-1.8,0.2-2.7c-0.8-3.2-0.3-6.4-0.4-9.6c0-2.6,0-5.3,0.3-7.9
			c0.4-3.8,0.2-7.6,0.4-11.4c0.1-1.2,0.3-2.3-0.1-3.5C153.2,22.6,153.9,21.8,153.7,20.5z"/>
	</g>
	<g>
		<defs>
			<rect id="SVGID_47_" x="-35.1" y="8.3" width="376.6" height="308.9"/>
		</defs>
		<clipPath id="SVGID_48_">
			<use xlink:href="#SVGID_47_"  style="overflow:visible;"/>
		</clipPath>
		<path class="st26" d="M185.3,319.6c0,0.1,0,0.2-0.1,0.3c-1.1,5.5-1.5,11.1-2.2,16.6c-0.1,0.8-0.4,1.7,0.4,2.6
			c0.2-0.8,0.4-1.4,0.6-2c1.3-6,2.2-12.1,3.1-18.2C186.5,319.1,185.9,319.3,185.3,319.6z"/>
	</g>
	<g>
		<defs>
			<rect id="SVGID_49_" x="-35.1" y="8.3" width="376.6" height="308.9"/>
		</defs>
		<clipPath id="SVGID_50_">
			<use xlink:href="#SVGID_49_"  style="overflow:visible;"/>
		</clipPath>
		<path class="st27" d="M202.5,219.6c-0.5-1.1,0.1-1.8,0.9-2.4c0.6-0.4,1-0.8,0.7-1.5c-0.2-0.6-0.7-1-1.4-1
			c-1.3-0.1-2.8-0.8-3.8,0.9c-1.2-0.2-1.7-2.2-3.3-1c-0.3-1.5,0.8-1.2,1.6-1.3c3-0.2,6.1,0.3,9.1,0.2c4.1-0.2,7.6,2.3,11.7,1.8
			c0.1,0,0.3,0.3,0.5,0.5c-0.1,0.5-0.5,0.5-0.9,0.6c-3.8,0.5-7.7,1-11.2,2.8c-0.5,0.2-1,0.4-1.4,0
			C203.8,218.1,203.2,218.9,202.5,219.6z"/>
	</g>
	<g>
		<defs>
			<rect id="SVGID_51_" x="-35.1" y="8.3" width="376.6" height="308.9"/>
		</defs>
		<clipPath id="SVGID_52_">
			<use xlink:href="#SVGID_51_"  style="overflow:visible;"/>
		</clipPath>
		<path class="st28" d="M155.7,348.2c0.6-2.5,0-5.1,0.2-7.7c0.1-1.5,0.6-2.3,2.2-2.4c1.5-0.1,2.1,0.5,2.2,1.9
			c0.1,2.9,0.1,5.8,0.1,8.7c0,1.4-2.1,2.4-4.3,2.1c0-0.2-0.1-0.5-0.1-0.7c0.4-0.4,0.3-0.6-0.1-0.9
			C155.8,348.9,155.7,348.5,155.7,348.2z"/>
	</g>
	<g>
		<defs>
			<rect id="SVGID_53_" x="-35.1" y="8.3" width="376.6" height="308.9"/>
		</defs>
		<clipPath id="SVGID_54_">
			<use xlink:href="#SVGID_53_"  style="overflow:visible;"/>
		</clipPath>
		<path class="st29" d="M37.3,174.3c-1.5,0.9-3.2,1.2-4.8,1.5c-1.2,0.2-2,1-3.1,1.4c-0.5,0.2-0.7,0.7-0.6,1.3c0.1,0.8,0.8,1,1.4,1.3
			c3.4,1.6,7.2,1.8,10.8,2.5c4.6,0.9,9.3,1.6,14,2c2,0.2,3.8,1,5.7,1.3c1.5,0.2,1.8,1.7,1.8,3.2c-0.5-0.1-0.5-0.4-0.6-0.8
			c-0.3-1.4-1.1-2-2.7-2c-2,0-3.8-1.2-5.9-1.3c-5.8-0.3-11.5-1.8-17.2-2.5c-2.3-0.3-4.4-1.1-6.5-1.9c-1.1-0.4-1.5-1.3-1.6-2.4
			c-0.1-1.1,0.8-1.3,1.6-1.6C32.1,175.3,34.6,174.5,37.3,174.3z"/>
	</g>
	<g>
		<defs>
			<rect id="SVGID_55_" x="-35.1" y="8.3" width="376.6" height="308.9"/>
		</defs>
		<clipPath id="SVGID_56_">
			<use xlink:href="#SVGID_55_"  style="overflow:visible;"/>
		</clipPath>
		<path class="st30" d="M150.2,61.3c1.1,0.9,0.5,1.7,0.5,2.5c0.3,7.3-0.2,14.6-0.8,21.9c0,0.2,0,0.4,0,0.6c-0.1,0.5,0.1,1.2-0.6,1.1
			c-0.6-0.1-0.3-0.7-0.3-1.1c0.1-5.6,0.4-11.2,0.9-16.8C150,66.8,150,64.2,150.2,61.3z"/>
	</g>
	<g>
		<defs>
			<rect id="SVGID_57_" x="-35.1" y="8.3" width="376.6" height="308.9"/>
		</defs>
		<clipPath id="SVGID_58_">
			<use xlink:href="#SVGID_57_"  style="overflow:visible;"/>
		</clipPath>
		<path class="st31" d="M169.6,242.3c-1.6-0.5-1.8-1.4-1.7-3.1c0.3-2.9,0-5.8-0.1-8.8c-0.1-1.4,0.3-2.2,1.8-2.1
			c0.7,1.8-0.3,3.5-0.3,5.3C169.5,236.5,169.5,239.4,169.6,242.3z"/>
	</g>
	<g>
		<defs>
			<rect id="SVGID_59_" x="-35.1" y="8.3" width="376.6" height="308.9"/>
		</defs>
		<clipPath id="SVGID_60_">
			<use xlink:href="#SVGID_59_"  style="overflow:visible;"/>
		</clipPath>
		<path class="st32" d="M156.7,353.9c0.4-0.6,0.9-1.2,1.8-0.9c0.9,0.3,1.5,0.8,1.7,1.8c0.2,1.7,0,3.3,0.4,5c0.2,0.9-0.6,0.9-1.2,1
			c-1.1-1.7-1.6-3.6-2.3-5.5l0.1-0.1h-0.1C156.9,354.7,156.8,354.3,156.7,353.9z"/>
	</g>
	<g>
		<defs>
			<rect id="SVGID_61_" x="-35.1" y="8.3" width="376.6" height="308.9"/>
		</defs>
		<clipPath id="SVGID_62_">
			<use xlink:href="#SVGID_61_"  style="overflow:visible;"/>
		</clipPath>
		<path class="st33" d="M169.3,347.8c-1.6-0.2-2.2-2.3-1-3.7c0.9-1,1.5-1.6-0.1-2.7c-0.9-0.6-0.7-3-0.2-3.2c1.6-0.7,0.8-2.4,1.8-3.2
			c0.4,0.8,0.3,1.8,0.2,2.6c-0.3,1.6-0.2,3-0.1,4.6C170,343.8,169.8,345.9,169.3,347.8z"/>
	</g>
	<g>
		<defs>
			<rect id="SVGID_63_" x="-35.1" y="8.3" width="376.6" height="308.9"/>
		</defs>
		<clipPath id="SVGID_64_">
			<use xlink:href="#SVGID_63_"  style="overflow:visible;"/>
		</clipPath>
		<path class="st34" d="M146.1,224.6c-1.1-1.4-0.8-3.2-0.9-4.8c-0.1-2.2,0.2-4.4,0.3-6.6c0-0.5,0.2-1.1,0.8-1.1s0.8,0.6,0.8,1.1
			c0,1.6,0.3,3.1-0.2,4.7c-1.4,0.6-0.9,1.8-0.9,2.8C146.1,222,146.5,223.3,146.1,224.6z"/>
	</g>
	<g>
		<defs>
			<rect id="SVGID_65_" x="-35.1" y="8.3" width="376.6" height="308.9"/>
		</defs>
		<clipPath id="SVGID_66_">
			<use xlink:href="#SVGID_65_"  style="overflow:visible;"/>
		</clipPath>
		<path class="st35" d="M168.5,360.3c0.4-1.8-1.1-3.6,0.2-5.4c0.1-0.1-0.1-0.6-0.2-0.8c-0.8-1.2-1.1-2.2,0.4-3.1
			c0.7-0.4,0.1-1.5,0.5-2.1c0.7,0.3,0.7,1,0.6,1.4c-0.8,2.6,0,5.2,0,7.8C169.9,359,169.8,360,168.5,360.3z"/>
	</g>
	<g>
		<defs>
			<rect id="SVGID_67_" x="-35.1" y="8.3" width="376.6" height="308.9"/>
		</defs>
		<clipPath id="SVGID_68_">
			<use xlink:href="#SVGID_67_"  style="overflow:visible;"/>
		</clipPath>
		<path class="st36" d="M153,90.7c-0.3,0-0.6,0-0.9,0.1c-0.4-3.7-0.1-10.8,0.7-12.3C153.2,82.6,153,86.6,153,90.7z"/>
	</g>
	<g>
		<defs>
			<rect id="SVGID_69_" x="-35.1" y="8.3" width="376.6" height="308.9"/>
		</defs>
		<clipPath id="SVGID_70_">
			<use xlink:href="#SVGID_69_"  style="overflow:visible;"/>
		</clipPath>
		<path class="st37" d="M153.7,20.5c0.1,1.4-0.5,2.1-1.9,2.2c-0.5-0.3-0.9-0.6-1.1-1.2c0.1-1.2,1.3-2,1.2-3.2
			c0.1-0.2,0.1-0.5,0.2-0.7c0.3,0,0.6,0,0.9,0C153.3,18.5,153.5,19.5,153.7,20.5z"/>
	</g>
	<g>
		<defs>
			<rect id="SVGID_71_" x="-35.1" y="8.3" width="376.6" height="308.9"/>
		</defs>
		<clipPath id="SVGID_72_">
			<use xlink:href="#SVGID_71_"  style="overflow:visible;"/>
		</clipPath>
		<path class="st38" d="M169.6,280.2c-0.1-1.6-0.2-3.2,0.2-4.7c0-0.2-0.1-0.5-0.2-0.7c-0.2,0.1-0.5,0.1-0.5,0.2
			c-0.7,1.8-0.9,3.7-1,5.6C168.6,280.4,169.1,280.3,169.6,280.2z"/>
	</g>
	<g>
		<defs>
			<rect id="SVGID_73_" x="-35.1" y="8.3" width="376.6" height="308.9"/>
		</defs>
		<clipPath id="SVGID_74_">
			<use xlink:href="#SVGID_73_"  style="overflow:visible;"/>
		</clipPath>
		<path class="st39" d="M169.5,333.5c-0.6-0.4-1.8-0.3-1.7-1.4c0-1.5-0.3-3,0.3-4.4c0.2-0.5,1-0.3,1.5-0.3
			C169.6,329.4,169.6,331.4,169.5,333.5z"/>
	</g>
	<g>
		<defs>
			<rect id="SVGID_75_" x="-35.1" y="8.3" width="376.6" height="308.9"/>
		</defs>
		<clipPath id="SVGID_76_">
			<use xlink:href="#SVGID_75_"  style="overflow:visible;"/>
		</clipPath>
		<path class="st40" d="M169.6,323c-0.6,0-1.2,0.1-1.9,0.1c0,0.3,0.1,0.5,0.1,0.8c0.2,0.9-0.1,2.5,1.7,2.3
			C169.3,325.2,169.5,324.1,169.6,323z"/>
	</g>
	<g>
		<defs>
			<rect id="SVGID_77_" x="-35.1" y="8.3" width="376.6" height="308.9"/>
		</defs>
		<clipPath id="SVGID_78_">
			<use xlink:href="#SVGID_77_"  style="overflow:visible;"/>
		</clipPath>
		<path class="st41" d="M167.9,100.9c-0.5,0.2-1,0.6-1.7,0.4c-0.6-1.5,0.3-3-0.3-4.6c-0.2-0.5,0.5-0.6,0.9-0.6
			c0.6-0.1,1.2,0.2,1.2,0.9c0.1,0.5-0.1,1.1-0.1,1.7c-0.5,0.2-0.6,0.5-0.1,0.8C167.9,99.9,167.9,100.4,167.9,100.9z"/>
	</g>
	<g>
		<defs>
			<rect id="SVGID_79_" x="-35.1" y="8.3" width="376.6" height="308.9"/>
		</defs>
		<clipPath id="SVGID_80_">
			<use xlink:href="#SVGID_79_"  style="overflow:visible;"/>
		</clipPath>
		<path class="st42" d="M155.3,91.8c-0.3,0-0.5-0.1-0.5-0.5c0.6-0.8,0.4-1.7,0.4-2.5c0-0.6,0.3-1.1,1-1.2c0.8-0.1,0.8,0.6,0.8,1.2
			C156.8,90.1,157.2,91.6,155.3,91.8z"/>
	</g>
	<g>
		<defs>
			<rect id="SVGID_81_" x="-35.1" y="8.3" width="376.6" height="308.9"/>
		</defs>
		<clipPath id="SVGID_82_">
			<use xlink:href="#SVGID_81_"  style="overflow:visible;"/>
		</clipPath>
		<path class="st43" d="M169.4,272.1c-1.1,0.1-1.6-0.5-1.5-1.4c0.1-1-0.3-2.4,1.4-2.6C169.6,269.4,169.4,270.7,169.4,272.1z"/>
	</g>
	<g>
		<defs>
			<rect id="SVGID_83_" x="-35.1" y="8.3" width="376.6" height="308.9"/>
		</defs>
		<clipPath id="SVGID_84_">
			<use xlink:href="#SVGID_83_"  style="overflow:visible;"/>
		</clipPath>
		<path class="st44" d="M172.2,98.8c0.1,0,0.1,0.1,0.2,0.1c1,0.2,1.6,0.8,1.6,1.9c0,0.4-0.3,0.7-0.7,0.7c-1.1-0.1-1.6-0.8-1.7-1.8
			c0-0.1-0.1-0.2-0.1-0.4C171.7,99.2,172,99,172.2,98.8z"/>
	</g>
	<g>
		<defs>
			<rect id="SVGID_85_" x="-35.1" y="8.3" width="376.6" height="308.9"/>
		</defs>
		<clipPath id="SVGID_86_">
			<use xlink:href="#SVGID_85_"  style="overflow:visible;"/>
		</clipPath>
		<path class="st45" d="M169.4,250.7c-1.8-0.7-1.4-2.3-1.2-3.7c0.1-0.7,0.7-0.6,1.2-0.4C169.4,248,169.4,249.3,169.4,250.7z"/>
	</g>
	<g>
		<defs>
			<rect id="SVGID_87_" x="-35.1" y="8.3" width="376.6" height="308.9"/>
		</defs>
		<clipPath id="SVGID_88_">
			<use xlink:href="#SVGID_87_"  style="overflow:visible;"/>
		</clipPath>
		<path class="st46" d="M148.6,236.2c0.5,0.2,1,0.5,1.6,0.3c0.5-0.2,1,0,1.2,0.6c0.1,0.4,0.1,0.8-0.2,1c-0.5,0.4-0.8,0.1-1.1-0.2
			c-0.4-0.4-0.9-0.4-1.4-0.4C148.3,237,148.3,236.6,148.6,236.2z"/>
	</g>
	<g>
		<defs>
			<rect id="SVGID_89_" x="-35.1" y="8.3" width="376.6" height="308.9"/>
		</defs>
		<clipPath id="SVGID_90_">
			<use xlink:href="#SVGID_89_"  style="overflow:visible;"/>
		</clipPath>
		<path class="st47" d="M150.3,91.4c-1.7,0-3.3,0.5-4.8,1.2l-0.1-0.1C146.1,90.9,149.2,90.3,150.3,91.4z"/>
	</g>
	<g>
		<defs>
			<rect id="SVGID_91_" x="-35.1" y="8.3" width="376.6" height="308.9"/>
		</defs>
		<clipPath id="SVGID_92_">
			<use xlink:href="#SVGID_91_"  style="overflow:visible;"/>
		</clipPath>
		<path class="st48" d="M265.7,428.7c-0.1,0.5-0.4,0.7-0.8,0.8c-0.3,0.1-0.6,0-0.6-0.4c0-0.5,0.3-0.7,0.8-0.8
			C265.4,428.3,265.7,428.3,265.7,428.7z"/>
	</g>
	<g>
		<defs>
			<rect id="SVGID_93_" x="-35.1" y="8.3" width="376.6" height="308.9"/>
		</defs>
		<clipPath id="SVGID_94_">
			<use xlink:href="#SVGID_93_"  style="overflow:visible;"/>
		</clipPath>
		<path class="st49" d="M152.6,63.9c-0.7-0.1-1-0.7-1-1.3c0-0.5,0.2-0.9,0.7-0.9c0.7,0.1,1,0.6,1.1,1.3
			C153.4,63.5,153.1,63.8,152.6,63.9z"/>
	</g>
	<g>
		<defs>
			<rect id="SVGID_95_" x="-35.1" y="8.3" width="376.6" height="308.9"/>
		</defs>
		<clipPath id="SVGID_96_">
			<use xlink:href="#SVGID_95_"  style="overflow:visible;"/>
		</clipPath>
		<path class="st50" d="M149.3,256.3c1.5,1.2-0.1,2.6,0.2,3.9C148.7,258.9,149.2,257.6,149.3,256.3z"/>
	</g>
	<g>
		<defs>
			<rect id="SVGID_97_" x="-35.1" y="8.3" width="376.6" height="308.9"/>
		</defs>
		<clipPath id="SVGID_98_">
			<use xlink:href="#SVGID_97_"  style="overflow:visible;"/>
		</clipPath>
		<path class="st51" d="M172.6,230.9c-0.3,0-0.7,0-1,0c-0.2-0.7-0.2-1.5-0.1-2.3c2-1.3,0.6,1,1.3,1.2
			C172.8,230.2,172.7,230.6,172.6,230.9z"/>
	</g>
	<g>
		<defs>
			<rect id="SVGID_99_" x="-35.1" y="8.3" width="376.6" height="308.9"/>
		</defs>
		<clipPath id="SVGID_100_">
			<use xlink:href="#SVGID_99_"  style="overflow:visible;"/>
		</clipPath>
		<path class="st52" d="M146.4,230.3c-1.1-1.2-0.9-2.6-0.2-3.9C146.9,227.7,146.7,229,146.4,230.3z"/>
	</g>
	<g>
		<defs>
			<rect id="SVGID_101_" x="-35.1" y="8.3" width="376.6" height="308.9"/>
		</defs>
		<clipPath id="SVGID_102_">
			<use xlink:href="#SVGID_101_"  style="overflow:visible;"/>
		</clipPath>
		<path class="st53" d="M151.9,18.2c0.1,1.3-1.1,2-1.2,3.2c-0.6,0-0.8-0.4-0.6-0.8C150.7,19.8,150.7,18.5,151.9,18.2z"/>
	</g>
	<g>
		<defs>
			<rect id="SVGID_103_" x="-35.1" y="8.3" width="376.6" height="308.9"/>
		</defs>
		<clipPath id="SVGID_104_">
			<use xlink:href="#SVGID_103_"  style="overflow:visible;"/>
		</clipPath>
		<path class="st54" d="M92.9,217.4c1.2-0.2,2.3-0.6,3.4,0.3C95.2,217.9,94,218,92.9,217.4z"/>
	</g>
	<g>
		<defs>
			<rect id="SVGID_105_" x="-35.1" y="8.3" width="376.6" height="308.9"/>
		</defs>
		<clipPath id="SVGID_106_">
			<use xlink:href="#SVGID_105_"  style="overflow:visible;"/>
		</clipPath>
		<path class="st55" d="M169.2,265c-1.2-0.3-0.9-1.4-1-2.1c-0.1-0.6,0.5-0.7,1.1-0.6C169.6,263.2,169.5,264.1,169.2,265z"/>
	</g>
	<g>
		<defs>
			<rect id="SVGID_107_" x="-35.1" y="8.3" width="376.6" height="308.9"/>
		</defs>
		<clipPath id="SVGID_108_">
			<use xlink:href="#SVGID_107_"  style="overflow:visible;"/>
		</clipPath>
		<path class="st56" d="M169.2,254.4c-0.8,0-1.1-0.5-1.1-1.2s0.3-1.2,1.1-1.1C169.5,252.9,169.5,253.7,169.2,254.4z"/>
	</g>
	<g>
		<defs>
			<rect id="SVGID_109_" x="-35.1" y="8.3" width="376.6" height="308.9"/>
		</defs>
		<clipPath id="SVGID_110_">
			<use xlink:href="#SVGID_109_"  style="overflow:visible;"/>
		</clipPath>
		<path class="st57" d="M148.9,249.8c0.4,0.7,0.4,1.5,0.1,2.3C148.6,251.4,148.6,250.6,148.9,249.8z"/>
	</g>
	<g>
		<defs>
			<rect id="SVGID_111_" x="-35.1" y="8.3" width="376.6" height="308.9"/>
		</defs>
		<clipPath id="SVGID_112_">
			<use xlink:href="#SVGID_111_"  style="overflow:visible;"/>
		</clipPath>
		<path class="st58" d="M97.4,217.8c1.1-0.1,1.3,0.3,1.1,1.8C98.2,219,97.8,218.4,97.4,217.8z"/>
	</g>
	<g>
		<defs>
			<rect id="SVGID_113_" x="-35.1" y="8.3" width="376.6" height="308.9"/>
		</defs>
		<clipPath id="SVGID_114_">
			<use xlink:href="#SVGID_113_"  style="overflow:visible;"/>
		</clipPath>
		<path class="st59" d="M153,17.5c-0.3,0-0.6,0-0.9,0c-0.3-0.5-0.3-1.1,0.3-1.1C153.2,16.4,153.5,16.8,153,17.5z"/>
	</g>
	<g>
		<defs>
			<rect id="SVGID_115_" x="-35.1" y="8.3" width="376.6" height="308.9"/>
		</defs>
		<clipPath id="SVGID_116_">
			<use xlink:href="#SVGID_115_"  style="overflow:visible;"/>
		</clipPath>
		<path class="st60" d="M153.5,333.7c0.7,0.4,0.7,1,0.3,1.6C153.3,334.8,153.3,334.3,153.5,333.7z"/>
	</g>
	<g>
		<defs>
			<rect id="SVGID_117_" x="-35.1" y="8.3" width="376.6" height="308.9"/>
		</defs>
		<clipPath id="SVGID_118_">
			<use xlink:href="#SVGID_117_"  style="overflow:visible;"/>
		</clipPath>
		<path class="st61" d="M266.4,182.6c0.5-0.5,1-0.4,1.6-0.2C267.6,183,267,183,266.4,182.6z"/>
	</g>
	<g>
		<defs>
			<rect id="SVGID_119_" x="-35.1" y="8.3" width="376.6" height="308.9"/>
		</defs>
		<clipPath id="SVGID_120_">
			<use xlink:href="#SVGID_119_"  style="overflow:visible;"/>
		</clipPath>
		<path class="st62" d="M219.9,215.5c0.5-0.8,1.1-0.6,1.7-0.2C221.1,216.1,220.5,216.1,219.9,215.5z"/>
	</g>
	<g>
		<defs>
			<rect id="SVGID_121_" x="-35.1" y="8.3" width="376.6" height="308.9"/>
		</defs>
		<clipPath id="SVGID_122_">
			<use xlink:href="#SVGID_121_"  style="overflow:visible;"/>
		</clipPath>
		<path class="st63" d="M75.8,214.7c0.8-0.4,1.4-0.2,2,0.4C77,215.2,76.3,215.3,75.8,214.7z"/>
	</g>
	<g>
		<defs>
			<rect id="SVGID_123_" x="-35.1" y="8.3" width="376.6" height="308.9"/>
		</defs>
		<clipPath id="SVGID_124_">
			<use xlink:href="#SVGID_123_"  style="overflow:visible;"/>
		</clipPath>
		<path class="st64" d="M263.3,183.1c0.6-0.2,1.1-0.6,1.7-0.3C264.5,183.3,264,183.4,263.3,183.1z"/>
	</g>
	<g>
		<defs>
			<rect id="SVGID_125_" x="-35.1" y="8.3" width="376.6" height="308.9"/>
		</defs>
		<clipPath id="SVGID_126_">
			<use xlink:href="#SVGID_125_"  style="overflow:visible;"/>
		</clipPath>
		<path class="st65" d="M99.5,228.2c0.5,0.4,0.6,0.8,0.1,1.2C99.3,229.1,99.3,228.6,99.5,228.2z"/>
	</g>
	<g>
		<defs>
			<rect id="SVGID_127_" x="-35.1" y="8.3" width="376.6" height="308.9"/>
		</defs>
		<clipPath id="SVGID_128_">
			<use xlink:href="#SVGID_127_"  style="overflow:visible;"/>
		</clipPath>
		<path class="st66" d="M101,237.7c0.7,0.3,0.9,0.7,0.2,1.2C100.7,238.5,100.7,238.1,101,237.7z"/>
	</g>
	<g>
		<defs>
			<rect id="SVGID_129_" x="-35.1" y="8.3" width="376.6" height="308.9"/>
		</defs>
		<clipPath id="SVGID_130_">
			<use xlink:href="#SVGID_129_"  style="overflow:visible;"/>
		</clipPath>
		<path class="st67" d="M101.8,243.7c0.7,0.3,0.8,0.7,0.2,1.2C101.5,244.6,101.5,244.2,101.8,243.7z"/>
	</g>
	<g>
		<defs>
			<rect id="SVGID_131_" x="-35.1" y="8.3" width="376.6" height="308.9"/>
		</defs>
		<clipPath id="SVGID_132_">
			<use xlink:href="#SVGID_131_"  style="overflow:visible;"/>
		</clipPath>
		<path class="st68" d="M199.9,218.4c0.7,0.2,0.7,0.7,0.5,1.3C199.8,219.5,199.9,218.9,199.9,218.4z"/>
	</g>
	<g>
		<defs>
			<rect id="SVGID_133_" x="-35.1" y="8.3" width="376.6" height="308.9"/>
		</defs>
		<clipPath id="SVGID_134_">
			<use xlink:href="#SVGID_133_"  style="overflow:visible;"/>
		</clipPath>
		<path class="st69" d="M226,214.8c0.4-0.8,1-0.6,1.6-0.4C227.1,214.9,226.6,215.3,226,214.8z"/>
	</g>
	<g>
		<defs>
			<rect id="SVGID_135_" x="-35.1" y="8.3" width="376.6" height="308.9"/>
		</defs>
		<clipPath id="SVGID_136_">
			<use xlink:href="#SVGID_135_"  style="overflow:visible;"/>
		</clipPath>
		<path class="st70" d="M82.3,215.9c0.5-0.4,0.9-0.3,1.2,0.2C83.1,216.3,82.7,216.3,82.3,215.9z"/>
	</g>
	<g>
		<defs>
			<rect id="SVGID_137_" x="-35.1" y="8.3" width="376.6" height="308.9"/>
		</defs>
		<clipPath id="SVGID_138_">
			<use xlink:href="#SVGID_137_"  style="overflow:visible;"/>
		</clipPath>
		<path class="st71" d="M153.2,331.8c0.2,0.4,0.6,0.7,0.2,1.2C153,332.7,152.9,332.3,153.2,331.8z"/>
	</g>
	<g>
		<defs>
			<rect id="SVGID_139_" x="-35.1" y="8.3" width="376.6" height="308.9"/>
		</defs>
		<clipPath id="SVGID_140_">
			<use xlink:href="#SVGID_139_"  style="overflow:visible;"/>
		</clipPath>
		<path class="st72" d="M98.7,220.7c0.5,0.2,0.6,0.4,0.2,0.8C98.6,221.3,98.5,221,98.7,220.7z"/>
	</g>
	<g>
		<defs>
			<rect id="SVGID_141_" x="-35.1" y="8.3" width="376.6" height="308.9"/>
		</defs>
		<clipPath id="SVGID_142_">
			<use xlink:href="#SVGID_141_"  style="overflow:visible;"/>
		</clipPath>
		<path class="st73" d="M273.6,181.3c0-0.6,0.3-0.7,0.8-0.6C274.3,181.2,274.1,181.4,273.6,181.3z"/>
	</g>
	<g>
		<defs>
			<rect id="SVGID_143_" x="-35.1" y="8.3" width="376.6" height="308.9"/>
		</defs>
		<clipPath id="SVGID_144_">
			<use xlink:href="#SVGID_143_"  style="overflow:visible;"/>
		</clipPath>
		<path class="st74" d="M167.9,99.4c-0.5-0.4-0.4-0.6,0.1-0.8C168.2,98.9,168.2,99.2,167.9,99.4z"/>
	</g>
	<g>
		<defs>
			<rect id="SVGID_145_" x="-35.1" y="8.3" width="376.6" height="308.9"/>
		</defs>
		<clipPath id="SVGID_146_">
			<use xlink:href="#SVGID_145_"  style="overflow:visible;"/>
		</clipPath>
		<path class="st75" d="M155.8,349.2c0.4,0.2,0.5,0.5,0.1,0.9C155.6,349.8,155.6,349.5,155.8,349.2z"/>
	</g>
	<g>
		<defs>
			<rect id="SVGID_147_" x="-35.1" y="8.3" width="376.6" height="308.9"/>
		</defs>
		<clipPath id="SVGID_148_">
			<use xlink:href="#SVGID_147_"  style="overflow:visible;"/>
		</clipPath>
		<path class="st76" d="M202.2,221.2c-0.4-0.4-0.3-0.6,0.2-0.9C202.6,220.6,202.5,220.9,202.2,221.2z"/>
	</g>
	<g>
		<defs>
			<rect id="SVGID_149_" x="-35.1" y="8.3" width="376.6" height="308.9"/>
		</defs>
		<clipPath id="SVGID_150_">
			<use xlink:href="#SVGID_149_"  style="overflow:visible;"/>
		</clipPath>
		<path class="st77" d="M162.7,363.5c0.5-0.2,0.8,0,0.9,0.5C163.1,364.2,162.8,364,162.7,363.5z"/>
	</g>
	<g>
		<defs>
			<rect id="SVGID_151_" x="-35.1" y="8.3" width="376.6" height="308.9"/>
		</defs>
		<clipPath id="SVGID_152_">
			<use xlink:href="#SVGID_151_"  style="overflow:visible;"/>
		</clipPath>
		<path class="st78" d="M201,228.1c-0.2-0.4-0.2-0.7,0.2-0.9C201.6,227.6,201.4,227.8,201,228.1z"/>
	</g>
	<g>
		<defs>
			<rect id="SVGID_153_" x="-35.1" y="8.3" width="376.6" height="308.9"/>
		</defs>
		<clipPath id="SVGID_154_">
			<use xlink:href="#SVGID_153_"  style="overflow:visible;"/>
		</clipPath>
		<path class="st79" d="M198.9,217c0.4,0.2,0.5,0.5,0.5,0.9C198.8,217.8,198.5,217.6,198.9,217z"/>
	</g>
	<g>
		<defs>
			<rect id="SVGID_155_" x="-35.1" y="8.3" width="376.6" height="308.9"/>
		</defs>
		<clipPath id="SVGID_156_">
			<use xlink:href="#SVGID_155_"  style="overflow:visible;"/>
		</clipPath>
		<path class="st80" d="M169.5,260.5c-0.3,0-0.6-0.2-0.5-0.5c0-0.2,0.3-0.3,0.5-0.4C169.7,259.9,169.7,260.2,169.5,260.5z"/>
	</g>
	<g>
		<defs>
			<rect id="SVGID_157_" x="-35.1" y="8.3" width="376.6" height="308.9"/>
		</defs>
		<clipPath id="SVGID_158_">
			<use xlink:href="#SVGID_157_"  style="overflow:visible;"/>
		</clipPath>
		<path class="st81" d="M86.9,216.7c0.3-0.4,0.5-0.3,0.7,0.1C87.3,217.1,87.1,217,86.9,216.7z"/>
	</g>
	<g>
		<defs>
			<rect id="SVGID_159_" x="-35.1" y="8.3" width="376.6" height="308.9"/>
		</defs>
		<clipPath id="SVGID_160_">
			<use xlink:href="#SVGID_159_"  style="overflow:visible;"/>
		</clipPath>
		<path class="st82" d="M84.6,216.3c0.3-0.4,0.5-0.3,0.7,0.1C85,216.7,84.8,216.7,84.6,216.3z"/>
	</g>
	<g>
		<defs>
			<rect id="SVGID_161_" x="-35.1" y="8.3" width="376.6" height="308.9"/>
		</defs>
		<clipPath id="SVGID_162_">
			<use xlink:href="#SVGID_161_"  style="overflow:visible;"/>
		</clipPath>
		<path class="st83" d="M201.5,225.3c-0.3-0.4-0.3-0.7,0.2-0.9C201.8,224.8,201.8,225.1,201.5,225.3z"/>
	</g>
	<g>
		<defs>
			<rect id="SVGID_163_" x="-35.1" y="8.3" width="376.6" height="308.9"/>
		</defs>
		<clipPath id="SVGID_164_">
			<use xlink:href="#SVGID_163_"  style="overflow:visible;"/>
		</clipPath>
		<path class="st84" d="M80.4,215.6c0.4-0.4,0.6-0.2,0.8,0.2C80.9,215.9,80.6,215.9,80.4,215.6z"/>
	</g>
	<g>
		<defs>
			<rect id="SVGID_165_" x="-35.1" y="8.3" width="376.6" height="308.9"/>
		</defs>
		<clipPath id="SVGID_166_">
			<use xlink:href="#SVGID_165_"  style="overflow:visible;"/>
		</clipPath>
		<path class="st85" d="M224.1,215.1c0.2-0.5,0.6-0.5,0.9-0.2C224.8,215.5,224.5,215.6,224.1,215.1z"/>
	</g>
	<g>
		<defs>
			<rect id="SVGID_167_" x="-35.1" y="8.3" width="376.6" height="308.9"/>
		</defs>
		<clipPath id="SVGID_168_">
			<use xlink:href="#SVGID_167_"  style="overflow:visible;"/>
		</clipPath>
		<path class="st86" d="M261.9,183.4c0.2-0.4,0.5-0.4,0.9-0.2C262.5,183.6,262.3,183.7,261.9,183.4z"/>
	</g>
	<g>
		<defs>
			<rect id="SVGID_169_" x="-35.1" y="8.3" width="376.6" height="308.9"/>
		</defs>
		<clipPath id="SVGID_170_">
			<use xlink:href="#SVGID_169_"  style="overflow:visible;"/>
		</clipPath>
		<path class="st87" d="M259.6,183.7c0.3-0.3,0.6-0.3,0.9-0.1C260.3,184,260,184,259.6,183.7z"/>
	</g>
	<g>
		<defs>
			<rect id="SVGID_171_" x="-35.1" y="8.3" width="376.6" height="308.9"/>
		</defs>
		<clipPath id="SVGID_172_">
			<use xlink:href="#SVGID_171_"  style="overflow:visible;"/>
		</clipPath>
		<path class="st88" d="M201.8,223.1c-0.4-0.4-0.3-0.7,0.2-0.9C202.2,222.5,202.2,222.8,201.8,223.1z"/>
	</g>
	<g>
		<defs>
			<rect id="SVGID_173_" x="-35.1" y="8.3" width="376.6" height="308.9"/>
		</defs>
		<clipPath id="SVGID_174_">
			<use xlink:href="#SVGID_173_"  style="overflow:visible;"/>
		</clipPath>
		<path class="st89" d="M251.7,184.5c0.2-0.4,0.4-0.5,0.7-0.2C252.2,184.7,252,184.8,251.7,184.5z"/>
	</g>
	<g>
		<defs>
			<rect id="SVGID_175_" x="-35.1" y="8.3" width="376.6" height="308.9"/>
		</defs>
		<clipPath id="SVGID_176_">
			<use xlink:href="#SVGID_175_"  style="overflow:visible;"/>
		</clipPath>
		<path class="st90" d="M250.2,184.9c0.2-0.4,0.5-0.4,0.9-0.2C250.8,185.1,250.5,185.3,250.2,184.9z"/>
	</g>
	<g>
		<defs>
			<rect id="SVGID_177_" x="-35.1" y="8.3" width="376.6" height="308.9"/>
		</defs>
		<clipPath id="SVGID_178_">
			<use xlink:href="#SVGID_177_"  style="overflow:visible;"/>
		</clipPath>
		<path class="st91" d="M99.1,223.7c0.5,0.2,0.6,0.4,0.2,0.8C98.9,224.3,98.9,224,99.1,223.7z"/>
	</g>
	<g>
		<defs>
			<rect id="SVGID_179_" x="-35.1" y="8.3" width="376.6" height="308.9"/>
		</defs>
		<clipPath id="SVGID_180_">
			<use xlink:href="#SVGID_179_"  style="overflow:visible;"/>
		</clipPath>
		<path class="st92" d="M145.3,96c0.2,0.4,0.3,0.8-0.2,1.1C145,96.7,145,96.3,145.3,96z"/>
	</g>
	<g>
		<defs>
			<rect id="SVGID_181_" x="-35.1" y="8.3" width="376.6" height="308.9"/>
		</defs>
		<clipPath id="SVGID_182_">
			<use xlink:href="#SVGID_181_"  style="overflow:visible;"/>
		</clipPath>
		<path class="st93" d="M91,217.2c0.3-0.2,0.6-0.2,0.8,0.1C91.5,217.5,91.2,217.4,91,217.2z"/>
	</g>
	<g>
		<defs>
			<rect id="SVGID_183_" x="-35.1" y="8.3" width="376.6" height="308.9"/>
		</defs>
		<clipPath id="SVGID_184_">
			<use xlink:href="#SVGID_183_"  style="overflow:visible;"/>
		</clipPath>
		<path class="st94" d="M164.6,363.8c-0.1-0.2,0-0.3,0.2-0.1C164.8,363.8,164.7,363.8,164.6,363.8z"/>
	</g>
	<g>
		<defs>
			<rect id="SVGID_185_" x="-35.1" y="8.3" width="376.6" height="308.9"/>
		</defs>
		<clipPath id="SVGID_186_">
			<use xlink:href="#SVGID_185_"  style="overflow:visible;"/>
		</clipPath>
		<path class="st95" d="M74.4,214.3c0.1-0.2,0.2-0.2,0.3,0.1l-0.2,0.1L74.4,214.3z"/>
	</g>
	<g>
		<defs>
			<rect id="SVGID_187_" x="-35.1" y="8.3" width="376.6" height="308.9"/>
		</defs>
		<clipPath id="SVGID_188_">
			<use xlink:href="#SVGID_187_"  style="overflow:visible;"/>
		</clipPath>
		<path class="st96" d="M195,217.7c-0.1-0.1-0.2-0.2-0.2-0.3c0.1,0,0.2,0,0.3-0.1C195,217.5,195,217.6,195,217.7z"/>
	</g>
	<g>
		<defs>
			<rect id="SVGID_189_" x="-35.1" y="8.3" width="376.6" height="308.9"/>
		</defs>
		<clipPath id="SVGID_190_">
			<use xlink:href="#SVGID_189_"  style="overflow:visible;"/>
		</clipPath>
		<path class="st97" d="M88.3,216.9c0.2-0.2,0.3-0.1,0.5,0C88.6,217.1,88.4,217,88.3,216.9z"/>
	</g>
	<g>
		<defs>
			<rect id="SVGID_191_" x="-35.1" y="8.3" width="376.6" height="308.9"/>
		</defs>
		<clipPath id="SVGID_192_">
			<use xlink:href="#SVGID_191_"  style="overflow:visible;"/>
		</clipPath>
		<path class="st98" d="M145.4,93.7c0,0.1,0,0.3,0,0.4c0-0.1-0.1-0.2-0.1-0.3C145.2,93.8,145.3,93.8,145.4,93.7z"/>
	</g>
	<g>
		<defs>
			<rect id="SVGID_193_" x="-35.1" y="8.3" width="376.6" height="308.9"/>
		</defs>
		<clipPath id="SVGID_194_">
			<use xlink:href="#SVGID_193_"  style="overflow:visible;"/>
		</clipPath>
		<path class="st99" d="M157,355.1h0.1l-0.1,0.1C157.1,355.2,157,355.1,157,355.1z"/>
	</g>
	<g>
		<defs>
			<rect id="SVGID_195_" x="-35.1" y="8.3" width="376.6" height="308.9"/>
		</defs>
		<clipPath id="SVGID_196_">
			<use xlink:href="#SVGID_195_"  style="overflow:visible;"/>
		</clipPath>
		<path class="st100" d="M136.8,320.6c-1.1-0.1-2.3-0.2-3.4-0.3c0,0.6-0.1,1.1-0.1,1.7c-0.2,2.9,0.1,5.8,0.1,8.7
			c-0.1,2.8,0.4,5.6-0.3,8.4c0.6,0,0.8-0.8,1.3-0.9c0.9,2.2,0.8,2.6-0.9,2.8c-0.1,1.4-0.2,2.9-0.2,4.3c0,2.6,0.4,5.3-0.2,7.8
			c-0.5,2.1,0.2,3.8,0.5,5.7c0.5-1.2,0.2-2.3,0-3.5c-0.1-0.6-0.1-1.4,0.7-1.5c0.7-0.1,1.2,0.7,1,1.3c-0.9,2.4,0.5,4.9-0.6,7.2
			c-0.2,0.5-0.2,1.1,0.2,1.6c0.3,0.3,0.7,0.4,1,0.2c0.6-0.3,0.6-0.9,0.6-1.5c0.1-3.3,0.2-6.6,0.2-9.9c0.2-9.9,0.1-19.9,0.1-29.8
			C136.8,322.1,136.8,321.3,136.8,320.6z M134.2,325.4c-0.6-0.1-0.7-0.7-0.7-1.2c0.1-0.5,0.2-0.9,0.8-0.8s0.7,0.7,0.7,1.2
			C134.9,325,134.8,325.5,134.2,325.4z M134.3,351.7c0-0.8-0.3-1.7,0.2-2.7C135.1,350.1,134.5,350.9,134.3,351.7z M134.4,345.2
			c-0.8,0-0.6-0.8-0.7-1.3c0-0.4,0-1,0.6-1c0.7,0.1,0.5,0.7,0.6,1.2C134.8,344.5,135,345.2,134.4,345.2z"/>
	</g>
	<g>
		<defs>
			<rect id="SVGID_197_" x="-35.1" y="8.3" width="376.6" height="308.9"/>
		</defs>
		<clipPath id="SVGID_198_">
			<use xlink:href="#SVGID_197_"  style="overflow:visible;"/>
		</clipPath>
		<path class="st101" d="M133.4,221.9c-0.1,3.8-0.3,7.7-0.2,11.4c0.1,4-0.2,8,0.3,12c0.1,1.1-0.9,2-0.4,3.1c0.7,1.8,0.6,3.7,0.5,5.6
			c-0.1,2.7-0.2,5.4,0.2,8.1c1.6,1.1,1.6,1.5,0,2.3c-0.5,4.3-0.4,8.6,0,12.8c1.6,1.4,1.5,1.8,0,2.7c0,0.3,0,0.5,0,0.8
			c1,0.1,2.1,0.2,3.1,0.3c0-13.6,0-27.2,0-40.8c0-2.4-0.2-4.9-0.1-7.3c0.2-4.1-0.2-8.2-0.1-12.3c0-1.3-0.5-1.5-1.5-0.9
			c-0.6,0.4-1.1,0.2-1.5-0.2c-0.8-0.6-1.5-0.7-2.5-0.4c-0.9,0.3-1.8,0.3-2.6-0.1c-1.4-0.7-2.8-0.8-4.3-0.4c-2.7,0.6-5.5-0.1-8.3,0
			c-1,0-2,0-1.5,1.5c1.5-1.5,3.3-0.7,5-0.6c3.9,0.1,7.9,0.4,11.8,0.5C133.2,219.8,133.4,219.8,133.4,221.9z M134.2,232.1
			c0.6-0.1,0.9,0.4,1,0.9s-0.2,0.8-0.7,0.9c-0.6,0-0.7-0.3-0.8-0.8C133.7,232.7,133.7,232.2,134.2,232.1z"/>
	</g>
	<g>
		<defs>
			<rect id="SVGID_199_" x="-35.1" y="8.3" width="376.6" height="308.9"/>
		</defs>
		<clipPath id="SVGID_200_">
			<use xlink:href="#SVGID_199_"  style="overflow:visible;"/>
		</clipPath>
		<path class="st102" d="M181.2,174.7c5.3,0.9,10.7-0.3,16,0.4c2.4,0.3,4.8,0.3,7.1,0.3c4.1-0.1,8.1,0.7,12.2,0.5
			c4-0.2,8.1,0.5,12,0.8c3.8,0.4,7.7,0.9,11.5,1.4c3.7,0.4,7.2,1.2,10.7,2.2c0.8,0.2,1.4,0.7,1.2,1.6c-0.2,0.9-1.1,0.9-1.7,0.6
			c-3.2-1.1-6.4-1.6-9.7-2.1c-4.5-0.7-9-1.5-13.6-1.7c-9.5-0.5-18.9-1.1-28.4-1.6c-3.3-0.2-6.6-0.3-9.9-0.7c-2.9-0.3-5.9,0-8.8-0.1
			c-0.9,0-1.9-0.2-2.8-0.3c-0.4,0-0.8-0.2-0.8-0.7c0-0.6,0.4-0.7,0.9-0.8C178.4,174.7,179.8,174.7,181.2,174.7z"/>
	</g>
	<g>
		<defs>
			<rect id="SVGID_201_" x="-35.1" y="8.3" width="376.6" height="308.9"/>
		</defs>
		<clipPath id="SVGID_202_">
			<use xlink:href="#SVGID_201_"  style="overflow:visible;"/>
		</clipPath>
		<path class="st103" d="M132.2,385.6c-0.1-0.4-0.2-0.8-0.3-1.2c1.7,0.8,1.4-0.8,1.5-1.4c0.1-1.6,0-3.2-0.1-4.8
			c-0.1-1,0.8-2.7-0.9-2.7c-1.5,0-0.5,1.7-0.8,2.6c-1.1-2.7-0.6-3.6,2.2-3.2c2.7,0.3,2.7,0.3,2.7,3c0,8.6,0.2,17.3-0.1,25.9
			c-0.2,6.6,0.1,13.3,0.1,19.9c0,0.8-0.1,1.6-1.1,1.6c-0.9,0-1.7-0.5-1.6-1.4c0.2-2.3-0.5-4.7,0.5-6.9c0.1-0.2,0.2-0.5,0.1-0.7
			c-1.4-4.8-0.2-9.7-0.7-14.6c-0.2-2.2-1.3-4.2-1.4-6.5c0-1.6-0.5-3.1,0-4.7c0.5,0.2,0.1,1.1,0.7,1.3c1.2-1.3-0.2-2.8,0.6-4.1
			c1.2-0.1,1.5-0.8,1.3-1.8c-0.1-0.6-0.2-1.3-0.8-1.3c-0.9-0.2-0.7,0.9-1,1.3C132.9,385.6,132.6,385.6,132.2,385.6z"/>
	</g>
	<g>
		<defs>
			<rect id="SVGID_203_" x="-35.1" y="8.3" width="376.6" height="308.9"/>
		</defs>
		<clipPath id="SVGID_204_">
			<use xlink:href="#SVGID_203_"  style="overflow:visible;"/>
		</clipPath>
		<path class="st104" d="M187.8,200.5c-0.8,1.7-2.2,2.9-3.2,4.3c-0.2,0.3-0.6,0.8-1.1,0.4c-0.3-0.2-0.2-0.7,0-1.1
			c1.3-2.4,1.1-5,1-7.6c-0.1-2.3,0.4-3,2.7-2.7c4.8,0.6,9.5-0.3,14.2,0c1.1,0.1,2.1,0.1,1.9,1.6c-0.1,1.2-0.6,1.9-1.8,1.1
			c-0.9-0.6-1.9-0.4-2.8-0.2c-0.2,0.9,1,0.9,0.9,1.6c-1.1,0.5-1.4,1.4-0.9,2.5c0.4,0.9,1.1,0.4,1.7,0.1c0.2,0.3,0.2,0.7-0.1,0.8
			c-2.5,0.9-3.9,3.3-6.3,4.4c-0.5,0.2-1,0.9-1.5,0.3c-0.4-0.5,0.3-0.9,0.6-1.2c2-1.9,2.3-4.2,2.2-6.7c-0.1-1.9-1.1-2.4-2.8-1.7
			c-1.1,0.5-2.3,1.4-3.3-0.4c-0.3-0.6-1.5-0.6-1.9-0.1c-0.7,0.9,0.5,0.8,0.9,1.2c0.5,0.4,0.7,0.8,0.4,1.5c-0.5-0.1-1.1-0.9-1.6-0.1
			C186.7,199.3,187,200,187.8,200.5z"/>
	</g>
	<g>
		<defs>
			<rect id="SVGID_205_" x="-35.1" y="8.3" width="376.6" height="308.9"/>
		</defs>
		<clipPath id="SVGID_206_">
			<use xlink:href="#SVGID_205_"  style="overflow:visible;"/>
		</clipPath>
		<path class="st105" d="M113.3,197.3c0.4-0.7,1.1-0.9,1.8-0.7c0.6,0.2,0.3,1,0.3,1.5c0.2,1.2,0.3,2.4,0.1,3.7
			c-0.2,0.9,0.6,1.6,1.2,2.2c2.5,2.4,5.2,4.5,8.5,5.7c0.6,0.2,1.3,0.5,1.9,0.8c0.5,0.3,1.2,0.7,0.9,1.4c-0.3,0.8-1.1,0.6-1.6,0.5
			c-1.8-0.5-3.4-1.5-5.1-2.4c-2.9-1.6-5.1-4-7.5-6.2c-1.1-1.1-2.5-2.2-2.8-4c0.3,0.1,0.6,0.2,0.9,0.2c1.2-0.1,2.1-0.8,2.4-1.9
			C114.7,197.3,113.9,197.4,113.3,197.3z"/>
	</g>
	<g>
		<defs>
			<rect id="SVGID_207_" x="-35.1" y="8.3" width="376.6" height="308.9"/>
		</defs>
		<clipPath id="SVGID_208_">
			<use xlink:href="#SVGID_207_"  style="overflow:visible;"/>
		</clipPath>
		<path class="st106" d="M125.5,196.6c0.2-0.6,0.4-1.1,1.2-0.9c0.5,0.2,0.6,0.7,0.4,1.1c-2.1,6.7,2.5,9.9,6.9,13.1
			c0.7,0.5,2.1,0.7,1.6,1.7c-0.6,1.2-1.9,0.5-2.7,0.1c-2.1-1.1-3.4-3.1-5.1-4.7c-2-2-2.8-4.7-4.6-6.9c-0.4-0.5-0.6-1.3,0.3-1.7
			c0.1,0.7,0,1.7,0.9,1.8c1.1,0.1,1.2-1.1,1.5-1.9C126.3,197.7,126.8,196.9,125.5,196.6z"/>
	</g>
	<g>
		<defs>
			<rect id="SVGID_209_" x="-35.1" y="8.3" width="376.6" height="308.9"/>
		</defs>
		<clipPath id="SVGID_210_">
			<use xlink:href="#SVGID_209_"  style="overflow:visible;"/>
		</clipPath>
		<path class="st107" d="M84.1,199.3c1.7,0,2.2,0.5,2.3,1.7c0.2,1.7-1.3,2-2.2,2.7c-0.8,0.7-1.3-0.2-1.9-0.7
			c-0.7-0.6-1.5-0.8-2.4-0.9c-0.4,0-0.7-0.2-0.8-0.7c0-0.4,0.2-0.6,0.5-0.7C81.2,200.2,82.9,199.7,84.1,199.3z"/>
	</g>
	<g>
		<defs>
			<rect id="SVGID_211_" x="-35.1" y="8.3" width="376.6" height="308.9"/>
		</defs>
		<clipPath id="SVGID_212_">
			<use xlink:href="#SVGID_211_"  style="overflow:visible;"/>
		</clipPath>
		<path class="st108" d="M93.2,198.5c0.8,0,1.4-0.1,1.5,0.6c0.1,0.7,0.2,1.5-0.6,1.8c-0.9,0.3-1.3,0.7-1.2,1.6c0,0.2,0,0.4-0.2,0.5
			c-1.5,1.1-2-0.7-2.9-1.2c-0.8-0.4-1-1.4-0.2-1.9C90.7,199.2,92.1,198.9,93.2,198.5z"/>
	</g>
	<g>
		<defs>
			<rect id="SVGID_213_" x="-35.1" y="8.3" width="376.6" height="308.9"/>
		</defs>
		<clipPath id="SVGID_214_">
			<use xlink:href="#SVGID_213_"  style="overflow:visible;"/>
		</clipPath>
		<path class="st109" d="M101.8,198.4c0.7-0.3,1.7-0.9,2.2-0.3c0.7,0.8,0.3,1.7-0.6,2.4c-0.6,0.5,0,1,0.3,1.4
			c0.3,0.3,0.6,0.7,0.3,1.1c-0.4,0.4-0.9,0.1-1.2-0.1c-1.2-0.7-2.4-1.4-3.4-2.3c-0.5-0.5-1.1-1.4,0.3-1.8c0.2,0.7,0,1.9,1.3,1.6
			C102.1,200.2,102.3,199.4,101.8,198.4z"/>
	</g>
	<g>
		<defs>
			<rect id="SVGID_215_" x="-35.1" y="8.3" width="376.6" height="308.9"/>
		</defs>
		<clipPath id="SVGID_216_">
			<use xlink:href="#SVGID_215_"  style="overflow:visible;"/>
		</clipPath>
		<path class="st110" d="M174.4,175.2c-1.9,1.3-3.5,0.8-5,0.9c-1.7,0.2-3.3-0.5-5,0c-0.4,0.1-0.9,0-1-0.6c0-0.6,0.5-0.8,0.9-0.7
			C167.5,175.2,170.7,174.7,174.4,175.2z"/>
	</g>
	<g>
		<defs>
			<rect id="SVGID_217_" x="-35.1" y="8.3" width="376.6" height="308.9"/>
		</defs>
		<clipPath id="SVGID_218_">
			<use xlink:href="#SVGID_217_"  style="overflow:visible;"/>
		</clipPath>
		<path class="st111" d="M176.2,199c-0.1,0.7-0.1,1.7-1.3,1.8s-1.2-0.9-1.3-1.7c0-0.1,0-0.2,0-0.4c0-0.8-0.9-1.9,0.5-2.3
			C175.1,196.1,176.2,197.6,176.2,199z"/>
	</g>
	<g>
		<defs>
			<rect id="SVGID_219_" x="-35.1" y="8.3" width="376.6" height="308.9"/>
		</defs>
		<clipPath id="SVGID_220_">
			<use xlink:href="#SVGID_219_"  style="overflow:visible;"/>
		</clipPath>
		<path class="st112" d="M149.2,200.9c-0.6-1.8-1.3-3.2,0-4.5c0.3-0.3,0.6-0.5,1-0.4c0.5,0.2,0.6,0.7,0.5,1.1
			C150.4,198.3,150.1,199.5,149.2,200.9z"/>
	</g>
	<g>
		<defs>
			<rect id="SVGID_221_" x="-35.1" y="8.3" width="376.6" height="308.9"/>
		</defs>
		<clipPath id="SVGID_222_">
			<use xlink:href="#SVGID_221_"  style="overflow:visible;"/>
		</clipPath>
		<path class="st113" d="M156,226.3c-0.1,1,0.2,2,0.4,3c0.1,0.5,0.2,1.1-0.5,1.2c-0.6,0.1-0.6-0.5-0.6-0.9c-0.1-1.5-0.3-3-0.3-4.5
			c0-0.5-0.1-1.2,0.6-1.1c0.6,0,0.5,0.6,0.5,1.1C156.1,225.5,156,225.9,156,226.3z"/>
	</g>
	<g>
		<defs>
			<rect id="SVGID_223_" x="-35.1" y="8.3" width="376.6" height="308.9"/>
		</defs>
		<clipPath id="SVGID_224_">
			<use xlink:href="#SVGID_223_"  style="overflow:visible;"/>
		</clipPath>
		<path class="st114" d="M144.1,398.8c0-0.9,0.1-1.7,1-1.6c0.8,0.1,0.9,0.8,0.8,1.4c-0.1,0.7,0,1.8-0.8,1.8
			C144,400.5,144.3,399.3,144.1,398.8z"/>
	</g>
	<g>
		<defs>
			<rect id="SVGID_225_" x="-35.1" y="8.3" width="376.6" height="308.9"/>
		</defs>
		<clipPath id="SVGID_226_">
			<use xlink:href="#SVGID_225_"  style="overflow:visible;"/>
		</clipPath>
		<path class="st115" d="M144.1,383.6c0.1-0.6-0.1-1.5,0.7-1.5c1.1-0.1,1,1,1.1,1.7c0.1,0.6-0.1,1.4-0.8,1.4
			C144.1,385.2,144.1,384.3,144.1,383.6z"/>
	</g>
	<g>
		<defs>
			<rect id="SVGID_227_" x="-35.1" y="8.3" width="376.6" height="308.9"/>
		</defs>
		<clipPath id="SVGID_228_">
			<use xlink:href="#SVGID_227_"  style="overflow:visible;"/>
		</clipPath>
		<path class="st116" d="M161.3,197.8c0-0.8,0-1.6,0.7-1.5c1.1,0.1,1.3,1.1,1.2,2s-0.1,2.4-1,2.2C161,200.2,161.7,198.6,161.3,197.8
			z"/>
	</g>
	<g>
		<defs>
			<rect id="SVGID_229_" x="-35.1" y="8.3" width="376.6" height="308.9"/>
		</defs>
		<clipPath id="SVGID_230_">
			<use xlink:href="#SVGID_229_"  style="overflow:visible;"/>
		</clipPath>
		<path class="st117" d="M245,419.7c0.6,0.1,0.7,0.5,0.7,0.9c0.1,0.4-0.1,0.9-0.6,0.9s-0.6-0.5-0.6-0.9
			C244.5,420.3,244.4,419.9,245,419.7z"/>
	</g>
	<g>
		<defs>
			<rect id="SVGID_231_" x="-35.1" y="8.3" width="376.6" height="308.9"/>
		</defs>
		<clipPath id="SVGID_232_">
			<use xlink:href="#SVGID_231_"  style="overflow:visible;"/>
		</clipPath>
		<path class="st118" d="M187.4,160.3c0,0.8-0.5,1.2-1.1,1.1c-0.9-0.1-2.1-0.1-2.2-1.3c-0.1-1,1-0.9,1.7-1
			C186.7,159,187.2,159.6,187.4,160.3z"/>
	</g>
	<g>
		<defs>
			<rect id="SVGID_233_" x="-35.1" y="8.3" width="376.6" height="308.9"/>
		</defs>
		<clipPath id="SVGID_234_">
			<use xlink:href="#SVGID_233_"  style="overflow:visible;"/>
		</clipPath>
		<path class="st119" d="M171.4,159.5c-0.6-0.1-1.5,0.1-1.5-0.7c0-0.9,0.9-1,1.5-1.1c0.7-0.1,1.4,0.3,1.4,1
			C172.8,159.6,172,159.4,171.4,159.5z"/>
	</g>
	<g>
		<defs>
			<rect id="SVGID_235_" x="-35.1" y="8.3" width="376.6" height="308.9"/>
		</defs>
		<clipPath id="SVGID_236_">
			<use xlink:href="#SVGID_235_"  style="overflow:visible;"/>
		</clipPath>
		<path class="st120" d="M43.6,177.4c-0.1,0.7-0.5,0.9-1.1,0.9c-0.7,0-1.4-0.3-1.5-1.1c-0.1-0.6,0.5-0.7,1-0.8
			C42.8,176.5,43.4,176.6,43.6,177.4z"/>
	</g>
	<g>
		<defs>
			<rect id="SVGID_237_" x="-35.1" y="8.3" width="376.6" height="308.9"/>
		</defs>
		<clipPath id="SVGID_238_">
			<use xlink:href="#SVGID_237_"  style="overflow:visible;"/>
		</clipPath>
		<path class="st121" d="M263.4,178.3c-0.2,0.7-0.6,1.2-1.4,1.1c-0.6-0.1-1.1-0.4-1.1-1.1c0.1-0.8,0.8-1,1.6-1
			C263.1,177.3,263.4,177.6,263.4,178.3z"/>
	</g>
	<g>
		<defs>
			<rect id="SVGID_239_" x="-35.1" y="8.3" width="376.6" height="308.9"/>
		</defs>
		<clipPath id="SVGID_240_">
			<use xlink:href="#SVGID_239_"  style="overflow:visible;"/>
		</clipPath>
		<path class="st122" d="M114.7,223.3c0.8,1.8,0.9,3.6,0.7,5.5C114.6,227,114.4,225.2,114.7,223.3z"/>
	</g>
	<g>
		<defs>
			<rect id="SVGID_241_" x="-35.1" y="8.3" width="376.6" height="308.9"/>
		</defs>
		<clipPath id="SVGID_242_">
			<use xlink:href="#SVGID_241_"  style="overflow:visible;"/>
		</clipPath>
		<path class="st123" d="M127.3,159.1c-0.1,0.7-0.3,1.2-1,1.2s-0.9-0.6-0.9-1.2c0-0.7,0.3-1.3,1.1-1.2
			C127.2,158,127.3,158.6,127.3,159.1z"/>
	</g>
	<g>
		<defs>
			<rect id="SVGID_243_" x="-35.1" y="8.3" width="376.6" height="308.9"/>
		</defs>
		<clipPath id="SVGID_244_">
			<use xlink:href="#SVGID_243_"  style="overflow:visible;"/>
		</clipPath>
		<path class="st124" d="M132.9,364.7c0.3-0.9,0.4-1.7,0.1-2.7c-0.2-0.7-0.3-1.6,0.4-2.2c0.2,1.1,0.5,2.1,0.6,3.2
			C134.2,363.8,134.1,364.7,132.9,364.7z"/>
	</g>
	<g>
		<defs>
			<rect id="SVGID_245_" x="-35.1" y="8.3" width="376.6" height="308.9"/>
		</defs>
		<clipPath id="SVGID_246_">
			<use xlink:href="#SVGID_245_"  style="overflow:visible;"/>
		</clipPath>
		<path class="st125" d="M108.4,231.3c-1.1-0.2-0.7-1.2-0.7-1.8c0-1,0.1-2.1,0.1-3.1C108.5,228,108.6,229.6,108.4,231.3z"/>
	</g>
	<g>
		<defs>
			<rect id="SVGID_247_" x="-35.1" y="8.3" width="376.6" height="308.9"/>
		</defs>
		<clipPath id="SVGID_248_">
			<use xlink:href="#SVGID_247_"  style="overflow:visible;"/>
		</clipPath>
		<path class="st126" d="M120.1,329.8c-0.9-1.5-0.8-3.1-0.7-4.8C120.7,326.5,120.8,328.1,120.1,329.8z"/>
	</g>
	<g>
		<defs>
			<rect id="SVGID_249_" x="-35.1" y="8.3" width="376.6" height="308.9"/>
		</defs>
		<clipPath id="SVGID_250_">
			<use xlink:href="#SVGID_249_"  style="overflow:visible;"/>
		</clipPath>
		<path class="st127" d="M107.7,225.7c-0.6-1.9-0.8-3.8-0.6-5.8C107.9,221.8,107.7,223.7,107.7,225.7z"/>
	</g>
	<g>
		<defs>
			<rect id="SVGID_251_" x="-35.1" y="8.3" width="376.6" height="308.9"/>
		</defs>
		<clipPath id="SVGID_252_">
			<use xlink:href="#SVGID_251_"  style="overflow:visible;"/>
		</clipPath>
		<path class="st128" d="M258.5,179.1c-0.1,0.7-0.6,0.9-1.3,0.8c-0.5,0-0.9-0.2-0.9-0.8c0.1-0.8,0.7-0.8,1.3-0.8
			C258.1,178.4,258.5,178.5,258.5,179.1z"/>
	</g>
	<g>
		<defs>
			<rect id="SVGID_253_" x="-35.1" y="8.3" width="376.6" height="308.9"/>
		</defs>
		<clipPath id="SVGID_254_">
			<use xlink:href="#SVGID_253_"  style="overflow:visible;"/>
		</clipPath>
		<path class="st129" d="M106.5,218.5c-0.9-0.1-1.4,0.4-1.7,1.2c-0.9-1-0.2-1.7,0.6-2.1C106.4,217.1,106.5,217.8,106.5,218.5z"/>
	</g>
	<g>
		<defs>
			<rect id="SVGID_255_" x="-35.1" y="8.3" width="376.6" height="308.9"/>
		</defs>
		<clipPath id="SVGID_256_">
			<use xlink:href="#SVGID_255_"  style="overflow:visible;"/>
		</clipPath>
		<path class="st130" d="M130,363.6c0.4,0.4,1,0.6,1.1,1.3C129.7,365.1,129.7,365.1,130,363.6z"/>
	</g>
	<g>
		<defs>
			<rect id="SVGID_257_" x="-35.1" y="8.3" width="376.6" height="308.9"/>
		</defs>
		<clipPath id="SVGID_258_">
			<use xlink:href="#SVGID_257_"  style="overflow:visible;"/>
		</clipPath>
		<path class="st131" d="M108.8,234c-0.5-0.5-0.5-1-0.3-1.6C109.3,232.8,109.3,233.3,108.8,234z"/>
	</g>
	<g>
		<defs>
			<rect id="SVGID_259_" x="-35.1" y="8.3" width="376.6" height="308.9"/>
		</defs>
		<clipPath id="SVGID_260_">
			<use xlink:href="#SVGID_259_"  style="overflow:visible;"/>
		</clipPath>
		<path class="st132" d="M114.4,221.1c0.3,0.5,0.5,1,0.2,1.5C114.2,222.2,114.1,221.7,114.4,221.1z"/>
	</g>
	<g>
		<defs>
			<rect id="SVGID_261_" x="-35.1" y="8.3" width="376.6" height="308.9"/>
		</defs>
		<clipPath id="SVGID_262_">
			<use xlink:href="#SVGID_261_"  style="overflow:visible;"/>
		</clipPath>
		<path class="st133" d="M130,361c0.5,0.5,0.4,1,0,1.5C129.6,362,129.6,361.5,130,361z"/>
	</g>
	<g>
		<defs>
			<rect id="SVGID_263_" x="-35.1" y="8.3" width="376.6" height="308.9"/>
		</defs>
		<clipPath id="SVGID_264_">
			<use xlink:href="#SVGID_263_"  style="overflow:visible;"/>
		</clipPath>
		<path class="st134" d="M129.3,356.1c0.4,0.5,0.4,1,0.1,1.6C128.8,357.2,128.8,356.6,129.3,356.1z"/>
	</g>
	<g>
		<defs>
			<rect id="SVGID_265_" x="-35.1" y="8.3" width="376.6" height="308.9"/>
		</defs>
		<clipPath id="SVGID_266_">
			<use xlink:href="#SVGID_265_"  style="overflow:visible;"/>
		</clipPath>
		<path class="st135" d="M120.8,333.1c-0.5-0.3-0.5-0.7-0.3-1.2C121.3,332.1,121.4,332.5,120.8,333.1z"/>
	</g>
	<g>
		<defs>
			<rect id="SVGID_267_" x="-35.1" y="8.3" width="376.6" height="308.9"/>
		</defs>
		<clipPath id="SVGID_268_">
			<use xlink:href="#SVGID_267_"  style="overflow:visible;"/>
		</clipPath>
		<path class="st136" d="M105.1,221.1c0.4,0.3,0.4,0.7,0.3,1.2C104.6,222,104.5,221.6,105.1,221.1z"/>
	</g>
	<g>
		<defs>
			<rect id="SVGID_269_" x="-35.1" y="8.3" width="376.6" height="308.9"/>
		</defs>
		<clipPath id="SVGID_270_">
			<use xlink:href="#SVGID_269_"  style="overflow:visible;"/>
		</clipPath>
		<path class="st137" d="M119.6,268c0.4,0.3,0.4,0.7,0.1,1.1C119.4,268.8,119.3,268.4,119.6,268z"/>
	</g>
	<g>
		<defs>
			<rect id="SVGID_271_" x="-35.1" y="8.3" width="376.6" height="308.9"/>
		</defs>
		<clipPath id="SVGID_272_">
			<use xlink:href="#SVGID_271_"  style="overflow:visible;"/>
		</clipPath>
		<path class="st138" d="M211,157.8c-0.3,0.2-0.6,0.3-0.9,0.2c-0.1-0.3,0-0.5,0.3-0.5C210.6,157.3,210.9,157.4,211,157.8z"/>
	</g>
	<g>
		<defs>
			<rect id="SVGID_273_" x="-35.1" y="8.3" width="376.6" height="308.9"/>
		</defs>
		<clipPath id="SVGID_274_">
			<use xlink:href="#SVGID_273_"  style="overflow:visible;"/>
		</clipPath>
		<path class="st139" d="M132.3,388.2c0.3,0.2,0.5,0.4,0.2,0.7C132,388.8,132,388.5,132.3,388.2z"/>
	</g>
	<g>
		<defs>
			<rect id="SVGID_275_" x="-35.1" y="8.3" width="376.6" height="308.9"/>
		</defs>
		<clipPath id="SVGID_276_">
			<use xlink:href="#SVGID_275_"  style="overflow:visible;"/>
		</clipPath>
		<path class="st140" d="M121.2,334.6c-0.4-0.2-0.5-0.5-0.2-0.9C121.5,333.9,121.7,334.1,121.2,334.6z"/>
	</g>
	<g>
		<defs>
			<rect id="SVGID_277_" x="-35.1" y="8.3" width="376.6" height="308.9"/>
		</defs>
		<clipPath id="SVGID_278_">
			<use xlink:href="#SVGID_277_"  style="overflow:visible;"/>
		</clipPath>
		<path class="st141" d="M120.4,331.2c-0.4-0.2-0.6-0.4-0.2-0.8C120.8,330.5,120.9,330.7,120.4,331.2z"/>
	</g>
	<g>
		<defs>
			<rect id="SVGID_279_" x="-35.1" y="8.3" width="376.6" height="308.9"/>
		</defs>
		<clipPath id="SVGID_280_">
			<use xlink:href="#SVGID_279_"  style="overflow:visible;"/>
		</clipPath>
		<path class="st142" d="M133.4,359.4c-0.1,0-0.2-0.1-0.3-0.1c0.1,0,0.2-0.1,0.3-0.1l0.1,0.1L133.4,359.4z"/>
	</g>
	<g>
		<defs>
			<rect id="SVGID_281_" x="-35.1" y="8.3" width="376.6" height="308.9"/>
		</defs>
		<clipPath id="SVGID_282_">
			<use xlink:href="#SVGID_281_"  style="overflow:visible;"/>
		</clipPath>
		<path class="st143" d="M238,164.7c-1.1-0.4-2.3-0.3-3.6-0.3c-1.6,0-2.8-0.5-3.3-2.2c-0.2-0.8-0.8-1.5-1.2-2.3
			c-0.6-1.1-0.6-2.1,0.7-2.8c0.8-0.4,1.3-1.2,0.5-2.2c-0.4-0.4-0.4-0.9-0.1-1.4c0.3-0.4,0.7-0.5,1.2-0.4c0.7,0.1,0.8,0.7,0.9,1.3
			c0.3,1.4,0.4,2.8-0.6,4.1c-0.4,0.5-0.4,1.4-0.5,2.2c-0.1,0.9,0,1.7,0.9,2.1c1,0.4,1.1-0.6,1.5-1.1c0.9-1.1,1.5-0.5,1.9,0.4
			c0.3,0.8,0.6,1.5,1.5,0.5c0.4-0.4,1-0.7,1.5-0.3s0.6,1,0.4,1.6C239.4,164.6,238.8,164.7,238,164.7z"/>
	</g>
	<g>
		<defs>
			<rect id="SVGID_283_" x="-35.1" y="8.3" width="376.6" height="308.9"/>
		</defs>
		<clipPath id="SVGID_284_">
			<use xlink:href="#SVGID_283_"  style="overflow:visible;"/>
		</clipPath>
		<path class="st144" d="M241.2,157.6c-0.4,0.4-0.5,0.9-0.5,1.5c-0.8,0-0.9,1.5-1.8,0.9c-0.9-0.6-0.5-1.6-0.3-2.4
			c0.1-0.3,0.1-0.6,0.2-0.9c0.2-2.4,1.2-3.1,3.5-2.3c0.4,0.1,0.9,0.2,0.9,0.8c0,0.4-0.4,0.5-0.8,0.7
			C241.1,156.3,241.1,156.3,241.2,157.6z"/>
	</g>
	<g>
		<defs>
			<rect id="SVGID_285_" x="-35.1" y="8.3" width="376.6" height="308.9"/>
		</defs>
		<clipPath id="SVGID_286_">
			<use xlink:href="#SVGID_285_"  style="overflow:visible;"/>
		</clipPath>
		<path class="st145" d="M247.9,166.7c-0.2,0-0.4-0.1-0.7-0.1c-1.2-0.6-1.2-1.3-0.5-2.4c0.6-1,0.9-1.2,1.7-0.2
			c1.1,1.2,3,1.4,4.2,2.6c0.2,0.2,0.6,0.2,0.7,0.6c-0.6,0.6-1.4,0.1-2.1,0.4c-0.8-0.2-1.6-0.4-2.5-0.6
			C248.5,166.4,248.3,166.2,247.9,166.7z"/>
	</g>
	<g>
		<defs>
			<rect id="SVGID_287_" x="-35.1" y="8.3" width="376.6" height="308.9"/>
		</defs>
		<clipPath id="SVGID_288_">
			<use xlink:href="#SVGID_287_"  style="overflow:visible;"/>
		</clipPath>
		<path class="st146" d="M251.7,170.6c0.4,0,0.7,0,1.1,0c-0.4,1.5-1.6,0.7-2.5,0.8c-1.1,0-2.3-0.5-3.5,0c-0.8,0.3-1.5-0.2-1.8-0.9
			c-0.4-1,1-0.4,1.1-1.1c1.6,0,3.2,0.6,4.7,1C251,171,251.3,171.1,251.7,170.6z"/>
	</g>
	<g>
		<defs>
			<rect id="SVGID_289_" x="-35.1" y="8.3" width="376.6" height="308.9"/>
		</defs>
		<clipPath id="SVGID_290_">
			<use xlink:href="#SVGID_289_"  style="overflow:visible;"/>
		</clipPath>
		<path class="st147" d="M51.9,165.8c0.6,0.3,1.2,0.6,1.9,0.6c0.8,0,1.8,0.1,1.8,0.9c0,1-1.1,0.4-1.7,0.5c-0.5,0.1-1,0.2-1.4,0.5
			s-0.7,0.2-0.9-0.2c-0.3-0.6-0.5-1.1-0.4-1.8C51.2,165.9,51.5,165.7,51.9,165.8z"/>
	</g>
	<g>
		<defs>
			<rect id="SVGID_291_" x="-35.1" y="8.3" width="376.6" height="308.9"/>
		</defs>
		<clipPath id="SVGID_292_">
			<use xlink:href="#SVGID_291_"  style="overflow:visible;"/>
		</clipPath>
		<path class="st148" d="M58.9,163.7c0.9-0.2,1.1,0.6,1.7,1.1c-0.2,1.4-1.8,2.3-3,1.9c-0.5-0.1-0.8-0.4-0.8-0.9c0-0.6,0.3-1,0.9-0.9
			C58.4,164.8,58.9,164.6,58.9,163.7z"/>
	</g>
	<g>
		<defs>
			<rect id="SVGID_293_" x="-35.1" y="8.3" width="376.6" height="308.9"/>
		</defs>
		<clipPath id="SVGID_294_">
			<use xlink:href="#SVGID_293_"  style="overflow:visible;"/>
		</clipPath>
		<path class="st149" d="M235,157.7c0-0.3,0-0.4,0-0.5c0.2-0.8,0.4-1.6,1.1-2.1c0.3-0.2,0.7-0.1,1,0.3c0.5,0.8,0.2,1.6-0.2,2.3
			c-0.1,0.1-0.1,0.2-0.2,0.3c-0.3,0.5-0.2,1.5-1,1.3C235,159.1,235.1,158.2,235,157.7z"/>
	</g>
	<g>
		<defs>
			<rect id="SVGID_295_" x="-35.1" y="8.3" width="376.6" height="308.9"/>
		</defs>
		<clipPath id="SVGID_296_">
			<use xlink:href="#SVGID_295_"  style="overflow:visible;"/>
		</clipPath>
		<path class="st150" d="M221.8,200c-0.3-0.2-0.7-0.3-1-0.5c-0.1-0.2-0.1-0.5-0.2-0.7c-0.4-0.7-1-1.6,0.1-2c0.9-0.4,1.4,0.6,1.7,1.3
			C222.7,198.8,223.3,199.8,221.8,200z"/>
	</g>
	<g>
		<defs>
			<rect id="SVGID_297_" x="-35.1" y="8.3" width="376.6" height="308.9"/>
		</defs>
		<clipPath id="SVGID_298_">
			<use xlink:href="#SVGID_297_"  style="overflow:visible;"/>
		</clipPath>
		<path class="st151" d="M159.1,281.8c0.4-0.1,0.8-0.1,1.3-0.2c0-0.9,0-1.9,0-2.8c0-1-0.2-1.8-1.4-1.8c-1.1,0-2.5,0-2.6,1.6
			c0,1.1,0,2.3,0,3.4c0.3,0,0.7,0,1,0C157.9,281.9,158.5,281.8,159.1,281.8z"/>
	</g>
	<g>
		<defs>
			<rect id="SVGID_299_" x="-35.1" y="8.3" width="376.6" height="308.9"/>
		</defs>
		<clipPath id="SVGID_300_">
			<use xlink:href="#SVGID_299_"  style="overflow:visible;"/>
		</clipPath>
		<path class="st152" d="M160.3,268.1c0,1.4,0,2.9,0,4.3c0,0.8-0.1,1.8-1.1,1.6c-1-0.2-2.7,0.4-2.8-1.4c-0.1-3.1-0.2-6.1-0.1-9.2
			c0.1-1.4,1.5-1.4,2.5-1.5c1.1-0.1,1.4,0.7,1.5,1.5C160.3,265,160.3,266.6,160.3,268.1L160.3,268.1z"/>
	</g>
	<g>
		<defs>
			<rect id="SVGID_301_" x="-35.1" y="8.3" width="376.6" height="308.9"/>
		</defs>
		<clipPath id="SVGID_302_">
			<use xlink:href="#SVGID_301_"  style="overflow:visible;"/>
		</clipPath>
		<path class="st153" d="M160.4,329.3c0,1.3,0,2.5,0,3.8s-0.5,2-1.9,2c-1.3,0-2.2-0.4-2.2-1.8c0.2-3-0.1-5.9-0.1-8.8
			c0-1,0.5-1.5,1.5-1.5s2.2-0.2,2.3,1.2C160.3,325.9,160.3,327.6,160.4,329.3z"/>
	</g>
	<g>
		<defs>
			<rect id="SVGID_303_" x="-35.1" y="8.3" width="376.6" height="308.9"/>
		</defs>
		<clipPath id="SVGID_304_">
			<use xlink:href="#SVGID_303_"  style="overflow:visible;"/>
		</clipPath>
		<path class="st154" d="M133,339.1c0.6,0,0.8-0.8,1.3-0.9c0.9,2.2,0.8,2.6-0.9,2.8C133,340.4,132.9,339.7,133,339.1z"/>
	</g>
	<g>
		<defs>
			<rect id="SVGID_305_" x="-35.1" y="8.3" width="376.6" height="308.9"/>
		</defs>
		<clipPath id="SVGID_306_">
			<use xlink:href="#SVGID_305_"  style="overflow:visible;"/>
		</clipPath>
		<path class="st155" d="M133.7,277.2c1.6,1.4,1.5,1.8,0,2.7C133.2,279,132.9,278.1,133.7,277.2z"/>
	</g>
	<g>
		<defs>
			<rect id="SVGID_307_" x="-35.1" y="8.3" width="376.6" height="308.9"/>
		</defs>
		<clipPath id="SVGID_308_">
			<use xlink:href="#SVGID_307_"  style="overflow:visible;"/>
		</clipPath>
		<path class="st156" d="M133.7,262.1c1.6,1.1,1.6,1.5,0,2.3C132.9,263.6,133.2,262.9,133.7,262.1z"/>
	</g>
	<g>
		<defs>
			<rect id="SVGID_309_" x="-35.1" y="8.3" width="376.6" height="308.9"/>
		</defs>
		<clipPath id="SVGID_310_">
			<use xlink:href="#SVGID_309_"  style="overflow:visible;"/>
		</clipPath>
		<path class="st157" d="M134.9,344.1c-0.1,0.4,0.1,1.1-0.5,1.1c-0.8,0-0.6-0.8-0.7-1.3c0-0.4,0-1,0.6-1
			C135,343,134.8,343.7,134.9,344.1z"/>
	</g>
	<g>
		<defs>
			<rect id="SVGID_311_" x="-35.1" y="8.3" width="376.6" height="308.9"/>
		</defs>
		<clipPath id="SVGID_312_">
			<use xlink:href="#SVGID_311_"  style="overflow:visible;"/>
		</clipPath>
		<path class="st158" d="M133.4,324.2c0.1-0.5,0.2-0.9,0.8-0.8s0.7,0.7,0.7,1.2c0,0.4-0.1,1-0.7,0.8S133.5,324.7,133.4,324.2z"/>
	</g>
	<g>
		<defs>
			<rect id="SVGID_313_" x="-35.1" y="8.3" width="376.6" height="308.9"/>
		</defs>
		<clipPath id="SVGID_314_">
			<use xlink:href="#SVGID_313_"  style="overflow:visible;"/>
		</clipPath>
		<path class="st159" d="M134.5,234c-0.6,0-0.7-0.3-0.8-0.8c0-0.4,0-1,0.5-1c0.6-0.1,0.9,0.4,1,0.9C135.2,233.5,135,233.8,134.5,234
			z"/>
	</g>
	<g>
		<defs>
			<rect id="SVGID_315_" x="-35.1" y="8.3" width="376.6" height="308.9"/>
		</defs>
		<clipPath id="SVGID_316_">
			<use xlink:href="#SVGID_315_"  style="overflow:visible;"/>
		</clipPath>
		<path class="st160" d="M134.5,349c0.6,1.1,0,1.9-0.2,2.7C134.3,350.8,134,350,134.5,349z"/>
	</g>
	<g>
		<defs>
			<rect id="SVGID_317_" x="-35.1" y="8.3" width="376.6" height="308.9"/>
		</defs>
		<clipPath id="SVGID_318_">
			<use xlink:href="#SVGID_317_"  style="overflow:visible;"/>
		</clipPath>
		<path class="st161" d="M251.7,170.6c-0.4,0.5-0.7,0.4-0.9-0.2C251.2,170.1,251.5,170.2,251.7,170.6z"/>
	</g>
	<g>
		<defs>
			<rect id="SVGID_319_" x="-35.1" y="8.3" width="376.6" height="308.9"/>
		</defs>
		<clipPath id="SVGID_320_">
			<use xlink:href="#SVGID_319_"  style="overflow:visible;"/>
		</clipPath>
		<path class="st162" d="M247.9,166.7c0.4-0.5,0.7-0.3,0.9,0.2C248.4,167.1,248.1,167.1,247.9,166.7z"/>
	</g>
	<g>
		<defs>
			<rect id="SVGID_321_" x="-35.1" y="8.3" width="376.6" height="308.9"/>
		</defs>
		<clipPath id="SVGID_322_">
			<use xlink:href="#SVGID_321_"  style="overflow:visible;"/>
		</clipPath>
		<path class="st163" d="M133.8,387.5c-0.2-0.6-0.3-1.2-0.5-1.9c0.3-0.5,0-1.5,1-1.3c0.6,0.1,0.8,0.8,0.8,1.3
			C135.2,386.6,134.9,387.4,133.8,387.5z"/>
	</g>
</g>
<path class="st164" d="M289.5,249.3"/>
<path class="st164" d="M456,448.7"/>
</svg>
