<?xml version="1.0" encoding="utf-8"?>
<!-- Generator: Adobe Illustrator 23.1.0, SVG Export Plug-In . SVG Version: 6.00 Build 0)  -->
<svg version="1.1" id="Layer_1" xmlns="http://www.w3.org/2000/svg" xmlns:xlink="http://www.w3.org/1999/xlink" x="0px" y="0px"
	 viewBox="0 0 300 300" style="enable-background:new 0 0 300 300;" xml:space="preserve">
<style type="text/css">
	.st0{fill:#F19B60;}
	.st1{fill:#FDD07C;}
	.st2{fill:none;stroke:#FDD07C;stroke-width:2;}
	.st3{clip-path:url(#SVGID_2_);fill:#244F6A;}
	.st4{clip-path:url(#SVGID_2_);fill:#7EC6D0;}
	.st5{clip-path:url(#SVGID_2_);fill:#FDD07C;}
	.st6{clip-path:url(#SVGID_2_);fill:#F6B250;}
	.st7{clip-path:url(#SVGID_2_);fill:#FFFFFF;}
	.st8{fill:none;stroke:#231F20;stroke-linecap:round;stroke-linejoin:round;}
</style>
<ellipse transform="matrix(0.1786 -0.9839 0.9839 0.1786 -35.0761 281.5022)" class="st0" cx="151.1" cy="161.8" rx="120.1" ry="120.1"/>
<path class="st1" d="M184.8,107.6c1,4,0.2,4.6,3.1,5c2.9,0.4,6.9,1.2,6.5,2.5c-0.4,1.3-0.8,1.4-3.5,3.5c-2.7,2.1-5.2,3-6.1,5.6
	c-1,2.5-3.3,5.9,4.8,9.2c2.7,1.1,6.3,2.4,9.9,3.8c0.8-1.4,1.1-1.9,1.2-2.1c0.2-0.3,0.6-0.8,2.1-0.4c1.4,0.4,2.2,0.5,2.8,0.8
	c0.7,0.3,1.8,0.3,1.3,1.4c-0.3,0.5-0.7,1.7-1.1,2.7c5.1,1.9,10,3.6,12.9,4.6c6.2,2.2,21.2,6.4,26.1,8.8c4.9,2.4,9.1,3.7,10.5,4.7
	c1.4,1,2.2,1,1,5.7c-1.1,4.7-2.2,8.6-2.2,8.6H145.4v-66.3L184.8,107.6z"/>
<path class="st2" d="M31,161.8"/>
<path class="st2" d="M271.1,161.8"/>
<path class="st2" d="M151.1,41.7"/>
<g>
	<defs>
		<rect id="SVGID_1_" x="-35.1" y="8.3" width="376.6" height="308.9"/>
	</defs>
	<clipPath id="SVGID_2_">
		<use xlink:href="#SVGID_1_"  style="overflow:visible;"/>
	</clipPath>
	<path class="st3" d="M147.9,389.2c-0.1-10.5-0.6-20.9-0.9-31.3c-0.2-5.2-0.4-10.4-0.7-15.6c-0.1-1.1-0.2-2.2-1.1-3.1
		c-0.7-0.7-0.7-1.7,0-2.4c0.9-1,0.8-2,0.6-3.2c-0.3-1.8-0.3-3.6-0.2-5.5c0-1.5-0.1-3-0.7-4.4c-0.2-0.5-0.4-1-0.3-1.5
		c0.1-0.2,0.1-0.5,0.2-0.7c-2.7-0.3-5.3-0.6-8-0.9c0,0.7,0,1.5,0,2.2c0,9.9,0.1,19.9-0.1,29.8c-0.1,3.3-0.1,6.6-0.2,9.9
		c0,0.6,0,1.2-0.6,1.5c-0.4,0.2-0.7,0.1-1-0.2c-0.4-0.5-0.5-1-0.2-1.6c1-2.3-0.4-4.9,0.6-7.2c0.2-0.5-0.3-1.4-1-1.3
		c-0.8,0.1-0.8,0.9-0.7,1.5c0.3,1.2,0.6,2.3,0,3.5c0,0.2,0,0.3-0.1,0.5l0.1,0.1l-0.1,0.1c0,0.2,0.1,0.3,0.1,0.5
		c0.2,1.1,0.5,2.1,0.6,3.2c0.1,0.8,0,1.7-1.2,1.6c-0.6,0.1-1.3,0.2-1.9,0.3c-1.3,0.2-1.4,0.1-1.1-1.3v-1.1c-0.4-0.5-0.4-1,0-1.5
		c-0.2-1.1-0.3-2.2-0.5-3.3c-0.6-0.5-0.6-1-0.1-1.6c-0.8-7.4-1.8-14.7-2.5-22.1c-0.5-4.9-1.1-9.7-1.7-14.5c-0.6-0.1-1.2-0.1-1.7-0.1
		c0.3,3,0.6,6,0.9,9c0.3,3.8,1,7.5,0.9,11.3c0,0.6,0.3,1.5-0.5,1.6c-0.8,0.1-0.9-0.8-1.2-1.5c-1-2.3-0.5-4.7-0.9-7.1
		c-0.8-4.4-1.4-8.8-2.1-13.6c-0.1,0-0.2,0-0.4,0c-0.7,2,0.2,3.8-0.7,5.3c0,0.2,0.1,0.5,0.1,0.7c1.3,1.4,1.4,3,0.7,4.8
		c0,0.2,0,0.4,0,0.6c0.6,0.1,0.7,0.3,0.2,0.8c0,0.2,0.1,0.4,0.1,0.7c0.7,0.3,0.8,0.7,0.3,1.2c0,0.2,0.1,0.4,0.1,0.6
		c0.6,0.2,0.7,0.4,0.2,0.9c0.6,2.5,0.2,5,0.4,7.5c0.9,1.5,0.7,3.2,0.8,4.7c0.1,3.7,1.1,7.3,1.6,10.9c0.8,6.8,2,13.7,2.6,20.5
		c0.4,4,1.1,7.9,1.3,12c0.1,2.2,0.4,4.5,0.5,6.8c0.2,8.2,1.1,16.3,1.2,24.5c0,1-0.1,1.8-0.7,2.6c-0.8,1-1,2.3-0.5,3.6
		c0.6,1.8,0.7,3.7,0.1,5.6H147c0-1.1,0-2.1,0.1-3.2c0.2-2.2-0.5-4.5,1.2-6.5c0.7-0.9,0.3-2.3,0.3-3.5
		C148.4,409.7,148,399.5,147.9,389.2z M136.7,423.6c0,0.8-0.1,1.6-1.1,1.6c-0.9,0-1.7-0.5-1.6-1.4c0.2-2.3-0.5-4.7,0.5-6.9
		c0.1-0.2,0.2-0.5,0.1-0.7c-1.4-4.8-0.2-9.7-0.7-14.6c-0.2-2.2-1.3-4.2-1.4-6.5c0-1.6-0.5-3.1,0-4.7c0-0.5-0.1-0.9-0.1-1.4
		c-0.4-0.2-0.4-0.4-0.2-0.7c0-0.9,0-1.8,0-2.7c-0.1-0.4-0.2-0.8-0.3-1.2c-0.1-2.1-0.2-4.2-0.3-6.3c-1.1-2.7-0.6-3.6,2.2-3.2
		c2.7,0.3,2.7,0.3,2.7,3c0,8.6,0.2,17.3-0.1,25.9C136.3,410.3,136.6,416.9,136.7,423.6z M144.8,382.1c1.1-0.1,1,1,1.1,1.7
		c0.1,0.6-0.1,1.4-0.8,1.4c-0.9,0-0.9-0.9-0.9-1.6C144.2,383,144,382.1,144.8,382.1z M146,398.6c-0.1,0.7,0,1.8-0.8,1.8
		c-1.1,0.1-0.8-1.1-1-1.6c0-0.9,0.1-1.7,1-1.6C145.9,397.2,146,397.9,146,398.6z"/>
	<path class="st3" d="M154.8,325.2c0-0.9,0-1.7,0-2.6c-0.8-0.1-1.5-0.1-2.3-0.2c0.2,3.1,0.5,6.3,0.6,9.4c0.2,0.4,0.6,0.7,0.2,1.2
		c0,0.2,0.1,0.4,0.1,0.7c0.7,0.4,0.7,1,0.3,1.6c0,0.5,0.1,0.9,0.1,1.4c1.4,0.3,1.2-0.7,1.2-1.5C155,331.9,154.9,328.6,154.8,325.2z"
		/>
	<path class="st3" d="M276.6,178.7c-0.2-1-1-1-1.7-1.2c-6.2-2.1-12.5-2.9-19-3.5c-5.9-0.6-11.8-0.7-17.6-1.7
		c-3.1-0.5-6.4-0.5-9.5-0.5c-1.7,0-3.1-0.9-4.8-0.9c-1.5,0-2.9,0.4-4.5,0.1c-6.4-0.9-12.9-1-19.4-1c-1.1,0-2.3,0-3.2-0.7
		c-0.2-0.2-0.6-0.3-0.9-0.3c-2.9,0.6-5.8,0.3-8.6,0.2c-2.1-0.1-4.3,0.9-6.3-0.6c-0.7-0.6-1.7,0.3-2.6,0.2c-3.7,0-7.3,0-11,0
		c-0.6,0-1.3-0.1-1.8-0.5c-1-0.7-1.8-1.9-3.2-0.4c-0.5,0.6-1.5-0.7-2.6-0.6c-2.6,0.2-5.2,0-7.7,0c-1.1,0-2.1,0-3.2-0.4
		c-0.3-0.1-0.8-0.4-1.1-0.2c-2.3,1.4-5,0.3-7.4,0.9c-2,0.4-3.9-0.4-6,0c-1.1,0.2-0.8-1.2-1.2-1.9c-2.1,2.6-4.9,1.8-7.6,1.8
		c-0.6,0-1.1,0-1.7,0.1c-1.9,0.4-3.6,0.2-5.5-0.2c-1.9-0.4-4-0.1-5.9,0.2c-1.2,0.2-1.8,0-1.8-1.3c0-0.1,0-0.3-0.1-0.4
		c-0.7-2.4-0.8-2.6,1.7-2.8c3.6-0.3,7.1-0.2,10.7-0.3c8.3-0.2,16.7-0.3,25-0.4c0.4,0,0.9,0.1,1.3,0.1c3.7,0.1,7.5,0.1,11.2,0.2
		c1-0.3,2.1-0.7,3.2-0.3c6.9,0,13.8,0,20.7,0c0.9-0.8,1.9-0.4,2.9-0.4c0.7,0,1.1,0,1-1c-0.2-1.4,0.4-2,1.8-1.2
		c0.8,0.5,1.3,0.1,1.9-0.3c1.2-0.8,1.6-0.4,1.5,0.9c0,0.3-0.2,0.6-0.1,0.9c0.1,0.4,0.4,0.8,0.9,0.8c0.6,0,0.7-0.5,0.6-1
		c-0.5-1.8,0.6-1.9,1.9-1.8c0.3,0,0.7,0.1,0.9,0c1.5-0.5,1.8,0.2,1.7,1.4c0,0.6-0.3,1.4,0.6,1.5c0.9,0.1,0.9-0.6,1.1-1.2
		c0.3-1,0.8-2.3,1.9-2.3c1.3-0.1,2.4,0.7,2.8,2.1c0.1,0.4,0.2,0.9,0.7,1c0.7,0.1,0.6-0.5,0.6-0.9c0.3-1.4,1.8-0.5,2.5-1.2
		c0.1-0.6,0.1-1.3,0.2-1.9c-0.1-0.3,0-0.5,0.3-0.5c0.3-0.1,0.6,0,0.6,0.4c1.2,0.9,0.8,2.1,0.6,3.2c0.3,0.3,0.2,1,0.7,1
		c0.5,0,0.6-0.6,0.7-1c0.1-1,0.5-1.3,1.5-1.5c1.5-0.3,1.7-1.7,1.7-3c0-1,0-2,1-2.7c0.5-0.3,1.1-0.5,1.6-0.1c0.6,0.3,0.4,0.9,0.2,1.3
		c-0.4,1.1-0.6,2.2-1.3,3.1c-0.4,0.4-0.4,0.9-0.1,1.4c0.4,0.6,0.9,0.2,1.3,0c2.4-1,4.6-0.1,6.8,0.8c1,0.5,0.5,1.9,1.5,2.5
		c-0.2-2.2,1.4-4.1,0.7-6.4c-0.2-0.7,0.1-1.5,0.3-2.2c0.3-1.1-0.1-1.8-1.3-1.5c-0.9,0.3-1.3-0.1-2-0.5c-1.4-0.8-3-0.5-4.5-0.6
		c-2.1-0.1-4.2-0.4-6.3-0.7c-1-0.2-1.9-0.1-2.4,1c-0.5,0.9-1.4,1.2-2,0.4c-1.7-2.3-4.3-2.1-6.6-2.2c-10.9-0.3-21.8-1.2-32.8-1.8
		c-3.8-0.2-7.5-0.4-11.3-0.4c-4.5,0.1-9-0.6-13.6-0.4c-10.6,0.4-21.1,0.1-31.7,0.3c-1.8,0-3.6,0.7-5.2,0.3c-3.1-0.8-5.8,0.5-8.8,0.5
		c-3,0-6,0.3-9,0.5c-3.2,0.2-6.3,0.4-9.5,0.6c-2.4,0.1-4.7,0.7-7,0.8c-3.3,0.1-6.3,1.6-9.5,1.9c-2.7,0.3-3.2,1.3-2,3.6
		c1.8,1.2,2.4,2.9,2.3,5c0.6,0.7,0,1.1-0.3,1.6c-0.6,1.3,0.1,2.7,1.6,2.6c3-0.1,6,0.1,9-0.4c1.9-0.3,3.8,0,5.8-0.2
		c8.1-0.7,16.2-1.4,24.3-1.2c0.4,0,0.9-0.1,1.3,0c0.8,0.2,2.1-0.6,2.2,1c0.1,1.6-0.7,2.7-2.2,3c-1.5,0.3-3,0.3-4.5,0.3
		c-1.3,0-2.5-0.1-3.2-1.5c-0.2-0.5-0.8-1-1.4-0.8c-1.6,0.6-4.2-0.6-4.6,2.4c-0.1,0.4-0.4,0.6-0.9,0.6c-1.8-0.1-3.5,0.4-5.2,0.7
		c-0.3,0-0.8,0.2-1-0.3c-0.2-0.6,0.4-0.7,0.8-0.9c0.6-0.3,1.7-0.2,1.4-1.2c-0.3-1-1.4-1-2.1-0.7c-1.8,0.9-4,0.3-5.7,1.7
		c-0.4,0.3-0.9,0.4-1.2,0.1c-2-1.6-4.2-0.9-6.3-0.5c-1.2,0.3-2.5,0.8-3.7-0.4c-0.2-0.2-0.8-0.2-1.1-0.1c-3.9,1.4-7.9,1-11.9,1.5
		c-2.6,0.4-4.8,1.8-7.1,2.8c-3.4,1.3-7,2.4-10.7,2.6c-0.4,0.1-0.7,0.1-1.1,0.2c-1.5,0.9-3.2,1.2-4.8,1.5c-1.2,0.2-2,1-3.1,1.4
		c-0.5,0.2-0.7,0.7-0.6,1.3c0.1,0.8,0.8,1,1.4,1.3c3.4,1.6,7.2,1.8,10.8,2.5c4.6,0.9,9.3,1.6,14,2c2,0.2,3.8,1,5.7,1.3
		c1.5,0.2,1.8,1.7,1.8,3.2c0.8,3.6,1.5,7.3,2.3,10.9c0.3,1.4,0,1.9-1.4,2.2c-2.3,0.5-4.5,1.2-6.7,1.9c-1.2,0.4-3,0.4-3.1,2
		c-0.2,1.7,1.6,2.1,2.8,2.7c5.7,2.8,11.8,4.6,18,6c0.1-0.2,0.2-0.2,0.3,0.1c0.4,0.1,0.8,0.2,1.1,0.3c0.8-0.4,1.4-0.2,2,0.4
		c0.9,0.2,1.8,0.3,2.7,0.5c0.4-0.4,0.6-0.2,0.8,0.2c0.4,0.1,0.7,0.1,1.1,0.2c0.5-0.4,0.9-0.3,1.2,0.2c0.4,0.1,0.7,0.1,1.1,0.2
		c0.3-0.4,0.5-0.3,0.7,0.1c0.5,0.1,1,0.2,1.5,0.2c0.3-0.4,0.5-0.3,0.7,0.1c0.2,0,0.5,0,0.7,0.1c0.2-0.2,0.3-0.1,0.5,0
		c0.7,0.1,1.5,0.2,2.2,0.3c0.3-0.2,0.6-0.2,0.8,0.1c0.4,0,0.7,0.1,1.1,0.1c1.2-0.2,2.3-0.6,3.4,0.3c0.4,0,0.8,0,1.1,0.1
		c1.1-0.1,1.3,0.3,1.1,1.8c0.1,0.4,0.1,0.7,0.2,1.1c0.5,0.2,0.6,0.4,0.2,0.8c0.1,0.7,0.1,1.5,0.2,2.2c0.5,0.2,0.6,0.4,0.2,0.8
		c0.1,1.2,0.2,2.5,0.3,3.7c0.5,0.4,0.6,0.8,0.1,1.2c0.4,2.7,0.9,5.5,1.3,8.2c0.7,0.3,0.9,0.7,0.2,1.2c0.2,1.6,0.4,3.2,0.6,4.8
		c0.7,0.3,0.8,0.7,0.2,1.2c0,0.6,0.1,1.2,0.1,1.8c0.9,0.3,1.1-0.1,1-0.9c-0.3-2.4-0.5-4.9-0.9-7.3c-0.1-0.9-0.2-1.7-0.3-2.6
		c-0.1-2,0.2-4.1-1-6c-0.4-0.7-0.3-1.6-0.4-2.4c-0.1-2.3,0.2-4.6-0.3-6.9c-0.2-1,0.2-1.7,1.2-2c1.2-0.2,1,0.7,1.2,1.4
		c0.4,1.1,1.2,2.1,1.2,3.4c0,0.3,0.3,0.9,0.7,0.7c0.3-0.1,0.5-0.6,0.8-0.9c0-0.4-0.1-0.7-0.1-1.1c-0.7-0.3-0.8-0.7-0.3-1.2
		c-0.1-0.5-0.1-0.9-0.2-1.4c-0.9-1-0.2-1.7,0.6-2.1c0.9-0.5,1,0.2,1,0.9l0.6,1.4c0.8,1.9,0.6,3.8,0.6,5.8c0,0.2,0.1,0.5,0.1,0.7
		c0.7,1.6,0.7,3.3,0.6,4.9c0,0.4,0.1,0.7,0.1,1.1c0.7,0.4,0.8,1,0.3,1.6c0.1,0.5,0.1,1,0.2,1.5c1.1,0.5,0.2,1.8,1.1,2.7
		c1-2.4,2.4-4.6,2-7.3c-0.1-0.4-0.2-0.9-0.2-1.3c0-0.5,0.2-1.1,0.8-1.1c0.6,0,0.5,0.6,0.6,1c0.9,6.8,2,13.6,2.7,20.5
		c0.7,6.7,1.7,13.4,2.5,20.2c0.3,2.5,0.5,5,0.7,7.5c0.2,0,0.3,0.1,0.5,0.1c0.3,0,0.6,0.1,0.9,0.1c-0.3-2.9-0.6-5.8-0.8-8.8
		c-0.4-0.3-0.4-0.7-0.1-1.1c-1.4-13.1-3.1-26.1-4.2-39.2c-0.8-1.8-1-3.6-0.7-5.5c0-0.2-0.1-0.4-0.1-0.6c-0.4-0.5-0.5-1-0.2-1.5
		c0-0.4,0-0.8-0.1-1.2c-0.5-1.5,0.5-1.5,1.5-1.5c2.8-0.1,5.5,0.6,8.3,0c1.5-0.4,2.9-0.3,4.3,0.4c0.8,0.4,1.7,0.4,2.6,0.1
		c0.9-0.3,1.7-0.2,2.5,0.4c0.4,0.4,0.9,0.6,1.5,0.2c1-0.6,1.5-0.4,1.5,0.9c0,4.1,0.3,8.2,0.1,12.3c-0.1,2.4,0.1,4.9,0.1,7.3
		c0,13.6,0,27.2,0,40.8c1,0.1,1.9,0.2,2.9,0.3c0.2,0,0.4,0,0.6,0c0.6,0,1.2,0.1,1.7,0.3c0,0,0,0,0,0c0.6-0.1,1.1-0.1,1.6-0.1
		c-0.1-3.8-0.3-7.6-0.5-11.4c-0.4-5.9-0.4-11.8-0.8-17.7c-0.9-11.8-1.1-23.6-1-35.5c0-0.6-0.4-1.7,0.4-1.9c0.8-0.2,1.1,0.8,1.5,1.4
		c0.8,1.3,0.2,2.8,0.5,4.2c0.9,3.9,1.4,8,1.5,11.9c0.1,4.2,0.6,8.5,0.2,12.8c-0.1,1.3,0.3,1.9,1.6,1.9c-0.2-5.7-0.4-11.3-0.6-17
		c-1.1-1.2-0.9-2.6-0.2-3.9c-0.1-0.6-0.1-1.2-0.2-1.8c-1.1-1.4-0.8-3.2-0.9-4.8c-0.1-2.2,0.2-4.4,0.3-6.6c0-0.5,0.2-1.1,0.8-1.1
		c0.6,0,0.8,0.6,0.8,1.1c0,1.6,0.3,3.1-0.2,4.7c1.1,3.3,0.7,6.7,1,10c0.3,2.7,0,5.5,0.5,8.3c0.5,0.2,1,0.5,1.6,0.3
		c0.5-0.2,1,0,1.2,0.6c0.1,0.4,0.1,0.8-0.2,1c-0.5,0.4-0.8,0.1-1.1-0.2c-0.4-0.4-0.9-0.4-1.4-0.4c0.1,4.1,0.2,8.3,0.4,12.4
		c0.4,0.7,0.4,1.5,0.1,2.3c0.1,1.4-0.2,2.8,0.2,4.2c1.5,1.2-0.1,2.6,0.2,3.9c0,3.4,0.4,6.7,0.4,10.1c0,3.8,0.3,7.7,0.5,11.5
		c1.4,0,2.9,0,4.4,0c0-1.2,0-2.4,0-3.6c0-6.2,0.1-12.4,0-18.6c0-5.4,0-10.9,0.3-16.3c0.1-2.5-0.3-5.1-0.2-7.7c0-0.6-0.2-1.3,0.3-1.9
		c0.8,0.3,0.8,1,0.8,1.6c0,1.4,0.2,2.8,0,4.1c-0.3,2.1,0.7,4.1,0.5,6c-0.2,2-0.3,4-0.4,6c-0.1,1.8,0.1,3.6-0.2,5.4
		c-0.4,1.7,0.5,2.6,2,2.7c2.1,0.1,2.7-0.4,2.6-2.4c-0.1-3.6,0.3-7.2-0.4-10.7c0-0.1-0.1-0.3,0-0.4c1.3-3.6,0.1-7.4,0.4-11
		c0-0.5,0.1-1,0.6-1.3c0.3,0,0.5,0.2,0.5,0.5c-0.3,2.8,0.5,5.5,0.3,8.2c-0.3,3.8,0,7.7-0.2,11.5c0,0.9-0.1,1.9,0.4,2.8
		c0.2,0.4,0.3,0.8,0.2,1.3c-1.3,4.4-0.5,8.9-0.4,13.3c0,1.3,0.4,2.4-0.4,3.6c-0.5,0.8-0.1,1.7,0.6,2.4c0.5,0.4,0.9,0.9,0.5,1.6
		c-0.5,0.8-0.8,1.7-0.9,2.5c0.8-0.1,1.6-0.1,2.4-0.2c1.4-0.1,2.7-0.4,4-0.8c0-1.9,0.3-3.8,1-5.6c0-0.1,0.3-0.1,0.5-0.2
		c0.3-0.9,0.2-1.8-0.2-2.7c-1.1,0.1-1.6-0.5-1.5-1.4c0.1-1-0.3-2.4,1.4-2.6c0.4-1,0.5-2-0.1-3c-1.2-0.3-0.9-1.4-1-2.1
		c-0.1-0.6,0.5-0.7,1.1-0.6c0.3-0.6,0.4-1.2,0.2-1.8c-0.3,0-0.6-0.2-0.5-0.5c0-0.2,0.3-0.3,0.5-0.4c0.1-1.7,0.1-3.5-0.3-5.2
		c-0.8,0-1.1-0.5-1.1-1.2c0-0.7,0.3-1.2,1.1-1.1c0-0.5,0.1-1,0.1-1.4c-1.8-0.7-1.4-2.3-1.2-3.7c0.1-0.7,0.7-0.6,1.2-0.4
		c0.4-1.4,0.2-2.9,0.3-4.3c-1.6-0.5-1.8-1.4-1.7-3.1c0.3-2.9,0-5.8-0.1-8.8c-0.1-1.4,0.3-2.2,1.8-2.1c0-0.6,0-1.3,0-1.9
		c-1.6,0.6-2-0.1-1.8-1.6c0.1-0.9,0.3-1.7,0.1-2.6c-0.4-2.4,1.1-3.6,3.5-2.7c1.2,0.4,1.9-0.6,2.9-0.5c4.5,0.3,8.9-0.4,13.4-0.3
		c1,0,2-0.1,3-0.1c1.4-0.1,2,0.5,1.9,2c-0.1,2.1,0,4.2,0,6.6c1.1-0.5,0.9-1.3,0.9-1.9c0.3-2,0.5-4.1,0.8-6.1c0.1-0.5,0.4-0.8,0.7-1
		c0-0.1,0-0.2,0-0.4c-0.1-0.1-0.2-0.2-0.2-0.3c0.1,0,0.2,0,0.3-0.1c0.2-1,0.4-1.9,0.6-2.9c-0.3-1.5,0.8-1.2,1.6-1.3
		c3-0.2,6.1,0.3,9.1,0.2c4.1-0.2,7.6,2.3,11.7,1.8c0.1,0,0.3,0.3,0.5,0.5c0.5-0.1,1-0.1,1.4-0.2c0.5-0.8,1.1-0.6,1.7-0.2
		c0.8-0.1,1.6-0.1,2.5-0.2c0.2-0.5,0.6-0.5,0.9-0.2c0.3,0,0.6-0.1,1-0.1c0.4-0.8,1-0.6,1.6-0.4c1.6-0.3,3.2-0.7,4.8-1
		c-0.1-0.9,1.5-1,0.9-1.8c-0.6-0.8-1.8-0.5-2.7-0.2c-3.3,0.9-6.5,0.7-9.8,0.3c-0.7-0.1-1.4,0.6-2.1,0.1c-0.1-0.5,0.2-0.6,0.5-0.7
		c0.4-0.2,0.8-0.5,0.6-1c-0.2-0.5-0.6-0.6-1.1-0.6c-0.9-0.2-2.3,0.6-2.7-0.5c-0.4-1.1,1.3-1.1,1.8-1.8c0.8-1.3,2.4-1.5,3.4-2.5
		c0.7-0.7,1.1-1.2,0.7-2.2c-0.5-0.1-0.9-0.2-1.4-0.3c-0.6,0.3-1,0.7-1.4,1.2c-2.2,2.3-4.8,3.8-7.9,4.5c-0.6,0.1-1.4,0.4-1.6-0.4
		c-0.2-0.7,0.4-1.3,1-1.5c3.1-1.2,3.8-3.9,4.3-6.7c0.2-0.9-0.1-1.4-0.9-1.5c-0.8-0.1-1.6-0.2-2.2-0.8c-0.4-0.3-1-0.5-1.3,0.1
		c-0.2,0.5,0.2,0.8,0.6,0.9c0.7,0.2,1.2,0.5,0.9,1.3c0.1,1,0.3,2.1-1,2.5c-2.1,1.4-4.1,2.8-6.2,4.1c-0.6,0.4-1.4,0.8-1.9,0.2
		c-0.5-0.7,0.4-1.1,0.8-1.5c2.5-2.7,2.3-5.9,1.5-9c-0.4-1.5,0-1.8,1.3-1.8c6.7-0.1,13.3,0.6,20,1c3.8,0.2,7.4,1.2,11.2,1.7
		c0.2,0,0.6,0,0.7,0.2c1.2,1.4,2.2,1.3,3.1-0.4c0.5-3.1,1.8-6.1,2.2-9.3c0.1-0.5,0.2-1.1,1-1.1c2,0,3.7-1,5.7-1.2
		c0.2-0.4,0.5-0.4,0.9-0.2c0.2-0.1,0.4-0.1,0.6-0.2c0.2-0.4,0.4-0.5,0.7-0.2c2.4-0.2,4.8-0.5,7.2-0.7c0.3-0.3,0.6-0.3,0.9-0.1
		c0.5-0.1,0.9-0.1,1.4-0.2c0.2-0.4,0.5-0.4,0.9-0.2c0.2,0,0.4-0.1,0.5-0.1c0.6-0.2,1.1-0.6,1.7-0.3c0.5-0.1,0.9-0.2,1.4-0.2
		c0.5-0.5,1-0.4,1.6-0.2c1.9,0,3.7-0.8,5.5-1.1c0-0.6,0.3-0.7,0.8-0.6c0.3-0.1,0.7-0.3,1-0.4C275.8,179.7,276.9,179.8,276.6,178.7z
		 M185.8,159.1c0.9-0.1,1.4,0.5,1.6,1.1c0,0.8-0.5,1.2-1.1,1.1c-0.9-0.1-2.1-0.1-2.2-1.3C184,159.1,185.1,159.2,185.8,159.1z
		 M171.4,157.7c0.7-0.1,1.4,0.3,1.4,1c0,0.9-0.8,0.7-1.4,0.8c-0.6-0.1-1.5,0.1-1.5-0.7C169.9,157.9,170.8,157.8,171.4,157.7z
		 M126.5,157.9c0.7,0.1,0.8,0.7,0.8,1.2c-0.1,0.7-0.3,1.2-1,1.2c-0.7,0-0.9-0.6-0.9-1.2C125.5,158.5,125.7,157.8,126.5,157.9z
		 M42.5,178.4c-0.7,0-1.4-0.3-1.5-1.1c-0.1-0.6,0.5-0.7,1-0.8c0.7,0,1.4,0,1.6,0.9C43.6,178.1,43.1,178.4,42.5,178.4z M84.2,203.7
		c-0.8,0.7-1.3-0.2-1.9-0.7c-0.7-0.6-1.5-0.8-2.4-0.9c-0.4,0-0.7-0.2-0.8-0.7c0-0.4,0.2-0.6,0.5-0.7c1.6-0.6,3.3-1.1,4.5-1.5
		c1.7,0,2.2,0.5,2.3,1.7C86.5,202.6,85.1,203,84.2,203.7z M94.1,200.9c-0.9,0.3-1.3,0.7-1.2,1.6c0,0.2,0,0.4-0.2,0.5
		c-1.5,1.1-2-0.7-2.9-1.2c-0.8-0.4-1-1.4-0.2-1.9c1.2-0.7,2.6-1,3.6-1.4c0.8,0,1.4-0.1,1.5,0.6C94.8,199.8,94.9,200.6,94.1,200.9z
		 M103.5,200.5c-0.6,0.5,0,1,0.3,1.4c0.3,0.3,0.6,0.7,0.3,1.1c-0.4,0.4-0.9,0.1-1.2-0.1c-1.2-0.7-2.4-1.4-3.4-2.3
		c-0.5-0.5-1.1-1.4,0.3-1.8c0.5-0.7,1.3-0.6,2-0.5c0.7-0.3,1.7-0.9,2.2-0.3C104.7,198.8,104.3,199.8,103.5,200.5z M128.1,212
		c-0.3,0.8-1.1,0.6-1.6,0.5c-1.8-0.5-3.4-1.5-5.1-2.4c-2.9-1.6-5.1-4-7.5-6.2c-1.1-1.1-2.5-2.2-2.8-4c-0.6-2,1.3-1.9,2.2-2.7
		c0.4-0.7,1.1-0.9,1.8-0.7c0.6,0.2,0.3,1,0.3,1.5c0.2,1.2,0.3,2.4,0.1,3.7c-0.2,0.9,0.6,1.6,1.2,2.2c2.5,2.4,5.2,4.5,8.5,5.7
		c0.6,0.2,1.3,0.5,1.9,0.8C127.6,210.9,128.3,211.3,128.1,212z M135.6,211.7c-0.6,1.2-1.9,0.5-2.7,0.1c-2.1-1.1-3.4-3.1-5.1-4.7
		c-2-2-2.8-4.7-4.6-6.9c-0.4-0.5-0.6-1.3,0.3-1.7c0.4-0.9,1-1.5,1.9-1.9c0.2-0.6,0.4-1.1,1.2-0.9c0.5,0.2,0.6,0.7,0.4,1.1
		c-2.1,6.7,2.5,9.9,6.9,13.1C134.7,210.4,136.1,210.7,135.6,211.7z M138.2,197.6c-0.1,0.9-0.3,1.7-0.5,2.6c0,0.2-0.2,0.4-0.3,0.7
		c-2-1.5-2.2-2.8-0.6-3.9c0.3-0.2,0.6-0.4,1-0.3C138.3,196.8,138.3,197.2,138.2,197.6z M150.7,197.1c-0.3,1.2-0.6,2.4-1.5,3.8
		c-0.6-1.8-1.3-3.2,0-4.5c0.3-0.3,0.6-0.5,1-0.4C150.7,196.2,150.8,196.6,150.7,197.1z M155.9,230.5c-0.6,0.1-0.6-0.5-0.6-0.9
		c-0.1-1.5-0.3-3-0.3-4.5c0-0.5-0.1-1.2,0.6-1.1c0.6,0,0.5,0.6,0.5,1.1c0,0.4,0,0.9,0,1.3c-0.1,1,0.2,2,0.4,3
		C156.5,229.8,156.6,230.4,155.9,230.5z M163.2,198.3c-0.1,0.9-0.1,2.4-1,2.2c-1.2-0.3-0.5-2-0.9-2.7c0-0.8,0-1.6,0.7-1.5
		C163.1,196.4,163.3,197.4,163.2,198.3z M169.4,176.1c-1.7,0.2-3.3-0.5-5,0c-0.4,0.1-0.9,0-1-0.6c0-0.6,0.5-0.8,0.9-0.7
		c3.2,0.5,6.4,0,10.1,0.5C172.6,176.5,170.9,176,169.4,176.1z M174.9,200.8c-1.2,0.1-1.2-0.9-1.3-1.7c0-0.1,0-0.2,0-0.4
		c0-0.8-0.9-1.9,0.5-2.3c0.9-0.3,2.1,1.2,2.1,2.6C176.1,199.8,176.1,200.8,174.9,200.8z M203.3,195.5c-0.1,1.2-0.6,1.9-1.8,1.1
		c-0.9-0.6-1.9-0.4-2.8-0.2c-0.2,0.9,1,0.9,0.9,1.6c1.3,0.5,1,1.6,0.8,2.6c0.2,0.3,0.2,0.7-0.1,0.8c-2.5,0.9-3.9,3.3-6.3,4.4
		c-0.5,0.2-1,0.9-1.5,0.3c-0.4-0.5,0.3-0.9,0.6-1.2c2-1.9,2.3-4.2,2.2-6.7c-0.1-1.9-1.1-2.4-2.8-1.7c-1.1,0.5-2.3,1.4-3.3-0.4
		c-0.3-0.6-1.5-0.6-1.9-0.1c-0.7,0.9,0.5,0.8,0.9,1.2c0.5,0.4,0.7,0.8,0.4,1.5c0.1,0.8,0.1,1.6-0.9,2c-0.8,1.7-2.2,2.9-3.2,4.3
		c-0.2,0.3-0.6,0.8-1.1,0.4c-0.3-0.2-0.2-0.7,0-1.1c1.3-2.4,1.1-5,1-7.6c-0.1-2.3,0.4-3,2.7-2.7c4.8,0.6,9.5-0.3,14.2,0
		C202.5,193.9,203.5,194,203.3,195.5z M251.9,181.9c-0.2,0.9-1.1,0.9-1.7,0.6c-3.2-1.1-6.4-1.6-9.7-2.1c-4.5-0.7-9-1.5-13.6-1.7
		c-9.5-0.5-18.9-1.1-28.4-1.6c-3.3-0.2-6.6-0.3-9.9-0.7c-2.9-0.3-5.9,0-8.8-0.1c-0.9,0-1.9-0.2-2.8-0.3c-0.4,0-0.8-0.2-0.8-0.7
		c0-0.6,0.4-0.7,0.9-0.8c1.4,0,2.8,0,4.2,0c5.3,0.9,10.7-0.3,16,0.4c2.4,0.3,4.8,0.3,7.1,0.3c4.1-0.1,8.1,0.7,12.2,0.5
		c4-0.2,8.1,0.5,12,0.8c3.8,0.4,7.7,0.9,11.5,1.4c3.7,0.4,7.2,1.2,10.7,2.2C251.5,180.6,252.2,181,251.9,181.9z M257.2,179.9
		c-0.5,0-0.9-0.2-0.9-0.8c0.1-0.8,0.7-0.8,1.3-0.8c0.5,0,0.9,0.2,0.9,0.8C258.3,179.8,257.8,180,257.2,179.9z M261.9,179.4
		c-0.6-0.1-1.1-0.4-1.1-1.1c0.1-0.8,0.8-1,1.6-1c0.6,0,1,0.2,0.9,1C263.2,179,262.8,179.5,261.9,179.4z"/>
	<path class="st3" d="M169.7,334.9c-0.1-0.5-0.1-1-0.2-1.4c-0.6-0.4-1.8-0.3-1.7-1.4c0-1.5-0.3-3,0.3-4.4c0.2-0.5,1-0.3,1.5-0.3
		c0-0.4,0-0.7,0-1.1c-1.8,0.1-1.5-1.4-1.7-2.3c0-0.3-0.1-0.5-0.1-0.8c-2,0.1-4.1,0.1-6.1,0c0,2.5-0.2,5.1,0.2,7.5
		c0.3,2,0.6,3.7,0,5.9c-0.8,3.3,0,7,0.1,10.5c0,0.5,0.4,0.9,0.7,1.3c0.3,0.3,0.6,0.7,0.2,1.2c-1.8,2.6-1.2,5.6-1,8.3
		c0.1,1.7-0.6,3-1.1,4.4c0.6,0.4,1.3,0.9,1.9,1.3c0.5-0.2,0.8,0,0.9,0.5c0.3-0.1,0.7-0.2,1-0.2c-0.1-0.2,0-0.3,0.2-0.1
		c1.7-0.6,3-1.7,3.7-3.4c0.4-1.8-1.1-3.6,0.2-5.4c0.1-0.1-0.1-0.6-0.2-0.8c-0.8-1.2-1.1-2.2,0.4-3.1c0.7-0.4,0.1-1.5,0.5-2.1
		c-0.1-0.3-0.1-0.7-0.2-1c-1.6-0.2-2.2-2.3-1-3.7c0.9-1,1.5-1.6-0.1-2.7c-0.9-0.6-0.7-3-0.2-3.2
		C169.6,337.4,168.8,335.7,169.7,334.9z"/>
	<path class="st3" d="M118.7,318.9c0,0.3,0.1,0.6,0.1,0.9c0.2,1.5-0.5,3.1,0.5,4.6c0.9-1.5,0-3.3,0.7-5.3
		C119.6,319,119.1,319,118.7,318.9z"/>
	<path class="st3" d="M122.5,332.7c0.4,2.3,0,4.8,0.9,7.1c0.3,0.6,0.4,1.6,1.2,1.5c0.8-0.1,0.5-1,0.5-1.6c0.1-3.8-0.6-7.5-0.9-11.3
		c-0.3-3-0.6-6-0.9-9c-1-0.1-2-0.2-3-0.2C121.1,323.9,121.7,328.3,122.5,332.7z"/>
	<path class="st3" d="M112.8,275.6c0.4,0.1,0.7,0.2,1.1,0.4c0.5,0.1,1,0.2,1.4,0.5c0.9,0,1.6,0.2,2.2,0.6c0.5,0.1,0.9,0.3,1.3,0.5
		c0.1,0,0.3,0,0.4,0.1c-0.2-2.5-0.4-5-0.7-7.5c-0.8-6.7-1.7-13.4-2.5-20.2c-0.7-6.9-1.8-13.7-2.7-20.5c-0.1-0.4,0-1-0.6-1
		c-0.6,0-0.8,0.6-0.8,1.1c0,0.4,0.1,0.9,0.2,1.3c0.4,2.7-1,4.8-2,7.3c-1-0.9-0.1-2.1-1.1-2.7c-0.5,3,0.1,6,0.5,8.9
		c0.4,2.8,0.8,5.6,1.1,8.4C111.3,260.4,112,268,112.8,275.6z"/>
	<path class="st3" d="M110.7,274.6c-0.5-4.4-0.8-8.9-1.2-13.3c-0.4-5.1-1.2-10.1-1.5-15.1c-0.4-5.7-1.3-11.2-1.7-16.9
		c-0.1-2-0.4-4-1-5.9c-0.3,0.3-0.5,0.8-0.8,0.9c-0.4,0.1-0.7-0.4-0.7-0.7c0-1.3-0.8-2.3-1.2-3.4c-0.3-0.7-0.1-1.6-1.2-1.4
		c-1,0.2-1.5,0.9-1.2,2c0.5,2.3,0.2,4.6,0.3,6.9c0,0.8-0.1,1.7,0.4,2.4c1.3,1.9,0.9,4,1,6c0,0.9,0.1,1.7,0.3,2.6
		c0.4,2.4,0.6,4.8,0.9,7.3c0.1,0.8-0.1,1.2-1,0.9c1.1,8.7,2.1,17.4,3.2,26.1c0.4,0.1,0.7,0.2,1,0.4c0.3,0.1,0.5,0.2,0.8,0.3
		c0.7,0.1,1.3,0.4,1.8,0.7c0.4,0.1,0.7,0.2,1.1,0.4c0.3,0.1,0.6,0.2,0.9,0.4C110.8,274.9,110.8,274.8,110.7,274.6z"/>
	<path class="st3" d="M127.9,390.2c-0.2-4-1-8-1.3-12c-0.7-6.9-1.8-13.7-2.6-20.5c-0.4-3.6-1.5-7.2-1.6-10.9c0-1.5,0.2-3.3-0.8-4.7
		c-0.6,1.5-0.4,3.1-0.7,4.6c-0.1,0.5,0,1.2-0.7,1.4c-0.4,0.1-0.9,0.1-1.2-0.3c-0.5-0.5-0.4-1-0.1-1.5c0.7-1,0.5-2,0.3-3.1
		c-0.3-1.3-0.4-2.6,0.4-3.8c0.5-0.9-0.2-1.8-1.1-1.6c-2,0.5-2.3-1-2.3-2c0-3.5-0.6-7-0.2-10.5c0.2-1.2-0.6-2.1-0.7-3.2
		c-0.2-1.1-0.3-2.2-0.4-3.4c-1.1-0.1-2.3-0.1-3.4-0.2c0.8,6.1,1.6,12.2,2.5,18.3c1.8,12.4,3.1,25,4.9,37.4
		c1.1,7.6,1.9,15.2,2.6,22.9c0.9,10.8,1.2,21.8,1,32.7c0,1.2-0.1,2.4,0.4,3.5h5.7c0.6-1.9,0.5-3.7-0.1-5.6c-0.4-1.3-0.3-2.6,0.5-3.6
		c0.7-0.8,0.7-1.7,0.7-2.6c-0.1-8.2-1-16.3-1.2-24.5C128.3,394.7,128,392.4,127.9,390.2z M120,358.8c-0.3,0.6-0.9,0.2-1.1-0.3
		c-0.2-0.4-0.2-1-0.2-1.6c0.1-0.4,0.1-0.9,0.3-1.4c0.2-0.4,0.6-0.6,1.1-0.5c0.4,0,0.8,0.3,0.7,0.7
		C120.6,356.7,120.4,357.8,120,358.8z M120.4,352.8c-0.7,0-1-0.7-1-1.4c0-0.7,0.2-1.5,1-1.6c1-0.1,0.8,0.9,0.9,1.5
		C121.2,352,121.4,352.9,120.4,352.8z"/>
	<path class="st3" d="M151.8,342.4c-0.3-6.7-0.7-13.5-1-20.2c-0.4,0-0.8-0.1-1.2-0.1c-1.6-0.2-3.2-0.4-4.8-0.6
		c-0.1,0.2-0.1,0.5-0.2,0.7c-0.1,0.4,0.1,1,0.3,1.5c0.6,1.4,0.7,2.9,0.7,4.4c0,1.8-0.1,3.7,0.2,5.5c0.2,1.2,0.2,2.2-0.6,3.2
		c-0.6,0.7-0.7,1.7,0,2.4c0.9,0.9,1,2,1.1,3.1c0.3,5.2,0.5,10.4,0.7,15.6c0.3,10.4,0.9,20.9,0.9,31.3c0.1,10.3,0.4,20.5,0.7,30.8
		c0,1.2,0.4,2.6-0.3,3.5c-1.7,2-1,4.3-1.2,6.5c-0.1,1.1-0.1,2.1-0.1,3.2h6.8c0-0.3,0-0.5,0.1-0.8c0.2-24.9-0.4-49.7-1.5-74.6
		C152.2,352.7,152.1,347.6,151.8,342.4z"/>
	<path class="st3" d="M142.3,252.4c0.5,5.9,0.5,11.8,0.8,17.7c0.2,3.8,0.4,7.6,0.5,11.4c1.6,0,3.2,0.3,4.9,0.2c0.1,0,0.3,0,0.4,0
		c-0.5-10.9-1-21.9-1.5-32.8c0-0.6,0.1-1.1-0.4-1.6c-1.3,0-1.7-0.6-1.6-1.9c0.4-4.3-0.2-8.5-0.2-12.8c-0.1-3.9-0.6-8-1.5-11.9
		c-0.3-1.4,0.3-2.9-0.5-4.2c-0.4-0.6-0.7-1.7-1.5-1.4c-0.7,0.2-0.4,1.2-0.4,1.9C141.2,228.7,141.4,240.6,142.3,252.4z"/>
	<path class="st4" d="M184.7,162.5c0.9-0.8,1.9-0.4,2.9-0.4c0.7,0,1.1,0,1-1c-0.2-1.4,0.4-2,1.8-1.2c0.8,0.5,1.3,0.1,1.9-0.3
		c1.2-0.8,1.6-0.4,1.5,0.9c0,0.3-0.2,0.6-0.1,0.9c0.1,0.4,0.4,0.8,0.9,0.8c0.6,0,0.7-0.5,0.6-1c-0.5-1.8,0.6-1.9,1.9-1.8
		c0.3,0,0.7,0.1,0.9,0c1.5-0.5,1.8,0.2,1.7,1.4c0,0.6-0.3,1.4,0.6,1.5c0.9,0.1,0.9-0.6,1.1-1.2c0.3-1,0.8-2.3,1.9-2.3
		c1.3-0.1,2.4,0.7,2.8,2.1c0.1,0.4,0.2,0.9,0.7,1c0.7,0.1,0.6-0.5,0.6-0.9c0.3-1.4,1.8-0.5,2.5-1.2c0.3,0.7,0.7,1.4,1.6,1.1
		c0.3,0.3,0.2,1,0.7,1c0.5,0,0.6-0.6,0.7-1c0.1-1,0.5-1.3,1.5-1.5c1.5-0.3,1.7-1.7,1.7-3c0-1,0-2,1-2.7c0.5-0.3,1.1-0.5,1.6-0.1
		c0.6,0.3,0.4,0.9,0.2,1.3c-0.4,1.1-0.6,2.2-1.3,3.1c-0.4,0.4-0.4,0.9-0.1,1.4c0.4,0.6,0.9,0.2,1.3,0c2.4-1,4.6-0.1,6.8,0.8
		c1,0.5,0.5,1.9,1.5,2.5c-0.2-2.2,1.4-4.1,0.7-6.4c-0.2-0.7,0.1-1.5,0.3-2.2c0.3-1.1-0.1-1.8-1.3-1.5c-0.9,0.3-1.3-0.1-2-0.5
		c-1.4-0.8-3-0.5-4.5-0.6c-2.1-0.1-4.2-0.4-6.3-0.7c-1-0.2-1.9-0.1-2.4,1c-0.5,0.9-1.4,1.2-2,0.4c-1.7-2.3-4.3-2.1-6.6-2.2
		c-10.9-0.3-21.8-1.2-32.8-1.8c-3.8-0.2-7.5-0.4-11.3-0.4c-4.5,0.1-9-0.6-13.6-0.4c-10.6,0.4-21.1,0.1-31.7,0.3
		c-1.8,0-3.6,0.7-5.2,0.3c-3.1-0.8-5.8,0.5-8.8,0.5c-3,0-6,0.3-9,0.5c-3.2,0.2-6.3,0.4-9.5,0.6c-2.4,0.1-4.7,0.7-7,0.8
		c-3.3,0.1-6.3,1.6-9.5,1.9c-2.7,0.3-3.2,1.3-2,3.6c-1.1-0.1-2.3-0.8-3.4-0.1c-2,1.3-4.4,1.7-6.4,3.1c-1.3,0.9-2.2,3.3-1.3,4.7
		c0.3,0.5,0.9,0.8,1.4,0.6c1.9-0.8,3.9-0.7,5.8-0.7c0.1,0.9-0.4,1.2-1.3,1.1c-0.6,0-0.9,0.4-0.9,0.9c0,0.5,0.3,0.8,0.8,0.9
		c1.3,0.4,2.8-0.6,3-1.9c0.7-0.1,1.1-0.5,1-1.3c0-0.4,0.1-1,0.5-0.8c1.7,0.6,2-1.1,2.9-1.6c0.6,0.7,0,1.1-0.3,1.6
		c-0.6,1.3,0.1,2.7,1.6,2.6c3-0.1,6,0.1,9-0.4c1.9-0.3,3.8,0,5.8-0.2c8.1-0.7,16.2-1.4,24.3-1.2c0.4,0,0.9-0.1,1.3,0
		c0.8,0.2,2.1-0.6,2.2,1c0.1,1.6-0.7,2.7-2.2,3c-1.5,0.3-3,0.3-4.5,0.3c-1.3,0-2.5-0.1-3.2-1.5c-0.2-0.5-0.8-1-1.4-0.8
		c-1.6,0.6-4.2-0.6-4.6,2.4c-0.1,0.4-0.4,0.6-0.9,0.6c-1.8-0.1-3.5,0.4-5.2,0.7c-0.3,0-0.8,0.2-1-0.3c-0.2-0.6,0.4-0.7,0.8-0.9
		c0.6-0.3,1.7-0.2,1.4-1.2c-0.3-1-1.4-1-2.1-0.7c-1.8,0.9-4,0.3-5.7,1.7c-0.4,0.3-0.9,0.4-1.2,0.1c-2-1.6-4.2-0.9-6.3-0.5
		c-1.2,0.3-2.5,0.8-3.7-0.4c-0.2-0.2-0.8-0.2-1.1-0.1c-3.9,1.4-7.9,1-11.9,1.5c-2.6,0.4-4.8,1.8-7.1,2.8c-3.4,1.3-7,2.4-10.7,2.6
		c0.8-0.8,1.9-0.9,3-1c3.1-0.4,5.9-2,8.9-3c1.1-0.4,0.8-1.2,0.6-2.1c-0.6-2.4-1.2-4.9-1.8-7.3c-0.4-1.5-0.1-2.4,1.6-3.2
		c3.9-1.7,8.1-3.1,11.7-5.5c1.2-0.8,1.8-1.9,2.7-2.9c0.7-0.8,1.3-1.1,2.2-0.2c1.1,1.3,2.6,1.3,3.3-0.1c1.3-2.6,3.5-1.9,5.5-1.9
		c1.3,0.1,2.5,0,3.7-0.4c5-1.7,10.1-3.5,15.1-5.3c1.4-0.5,2.9-0.6,4.3-1.4c1-0.6,1.5-1.1,0.6-2.1c-1.1-1.2-0.3-2,0.8-2.4
		c1.1-0.4,2.3-0.7,3.4-0.9c1-0.2,1.5,0.1,1.6,1.2c0.1,1.4,1,1.6,2.2,1.2c3.4-1.3,7-2,9.9-4.3c0.8-0.6,1.8-0.3,2.6-1
		c2.8-2.4,3-5.7,0.1-8.7c-2.1-2.2-4.6-3.9-7-5.7c-0.7-0.5-1.9-0.7-1.6-2c0.3-1.2,1.4-1.6,2.4-1.8c1.1-0.2,2.2-0.4,3.4-0.5
		c1.7-0.2,3-1,4-2.5c0.4,0.6,0.9,1,1.7,0.6c1.1-0.6,2.3-0.5,3.5-0.6c1.4,0,2.9,0.1,4.3-0.1c7.4-1,14.9-1.4,22.3-1.3
		c2.1,0,2.4-0.3,2.3-2.4c-0.1-3.8,0.1-7.6,0.5-11.4c1.1,1.2,0.9,2.6,0.9,4c0,0.4-0.2,1,0.4,1.1c0.6,0.1,0.6-0.5,0.7-0.9
		c0.7-2-0.1-3.8-0.3-5.7c-0.1-0.7-0.3-1.3,0.7-1.4c0.9-0.1,1.4,0.4,1.2,1.2c-0.4,2.2,1,4.1,0.8,6.3c-0.1,1.5,1.2,1.9,2.3,2.3
		c0.4,0.1,1-0.2,1.4,0.3c-1.7,0.6-3.4,0.5-5.2,0.2c-2.3-0.3-3,0.5-2.3,2.7c0.1,0.5,0.2,1,0.2,1.5c0,1.3,0.7,1.8,1.9,1.8
		c3.4,0,6.8,0.1,10.1,0.5c0.9,0.1,1.7-0.3,1.5-1.2c-0.3-2.1-0.1-4.3-1-6.5c-1.2,0.9-2.2,2.3-3.8,0.9c0.1-0.3,0.3-0.7,0.4-1
		c0.6,0.2,1.1-0.1,1.7-0.4c1.4,0,2.2-1.5,3.5-1.5c0,0.1,0.1,0.2,0.1,0.4c0.1,1,0.7,1.7,1.7,1.8c0.4,0,0.7-0.3,0.7-0.7
		c0-1.1-0.6-1.7-1.6-1.9c-0.1,0-0.1-0.1-0.2-0.1c0.2-0.8,0.9-0.9,1.5-0.8c0.8,0.2,0.9,0.9,1,1.6c0.4,2.7,0.4,2.7,3.2,2.9
		c1.1,0.1,2.2,0.3,3.4,0.4c0.7,0.1,1.2,0.5,1.6,1c1.3,1.9,1.5,4.2,1.8,6.4c0.1,0.7-0.6,1.1-1.2,0.7c-2.3-1.2-4.8-0.5-7.2-1
		c-4.1-0.9-8.1,0.3-12.2,0c-1.7-0.1-3.5,0.1-5.3-0.4c-1.9-0.6-3.2,0.9-4.8,1.4c-0.4,0.1-0.5,0.7-0.4,1.2c0.2,0.6,0.7,0.7,1.2,0.7
		c1.3,0,2.6,0,4,0c2.5,0.1,3.5,1.9,1.9,3.9c-1.6,2-3.3,3.9-6,4.4c-0.4,0.1-0.9,0.1-0.9,0.5c-0.1,2.4-3.1,3.5-2.6,6.2
		c0.3,1.5-1.3,1.6-2.4,1.6c-1.4-0.1-2.1,0.4-2.1,1.9c0.1,1.5,0.4,2.2,2,1.5c1.3-0.6,2.3,0.2,2.5,1.5c0.3,1.9,0.5,3.9-0.3,5.7
		c-0.7,1.6,0.2,2.4,1.6,2.6c1.6,0.3,3,0.7,3.3,2.5c0.1,0.7,0.6,0.9,1.3,0.5c2.7-1.6,5.4-0.5,8,0.3c2.7,0.8,5.3,1.2,8.1,1.2
		c3.6-0.1,7.2,0.2,10.7,0.7c3.7,0.5,7.4,0.9,11.1,1c7.5,0.1,15,1.1,22.6,1.4c3.7,0.1,7.4,0.5,11.1,0.9c4.9,0.6,9.7,1.6,14.5,2.1
		c4.6,0.5,8.3,3,12.4,4.8c1.3,0.6,1.3,1.8,1.1,2.9c-0.4,2.2-0.8,4.4-1.4,6.6c-0.4,1.8,0.2,2.7,1.9,3.2c1.2,0.3,2.4,0.9,3.1,2
		c0.5,0.7,1.2,0.9,2,0.9c4.8,0.3,9.4,1.6,13.9,3.2c1.1,0.4,1.4,1.2,1.3,2.2c-0.1,1.1-0.9,1.4-1.9,1.2c0.4-0.6,1.5-0.6,1.3-1.6
		c-0.2-1-1-1-1.7-1.2c-6.2-2.1-12.5-2.9-19-3.5c-5.9-0.6-11.8-0.7-17.6-1.7c-3.1-0.5-6.4-0.5-9.5-0.5c-1.7,0-3.1-0.9-4.8-0.9
		c-1.5,0-2.9,0.4-4.5,0.1c-6.4-0.9-12.9-1-19.4-1c-1.1,0-2.3,0-3.2-0.7c-0.2-0.2-0.6-0.3-0.9-0.3c-2.9,0.6-5.8,0.3-8.6,0.2
		c-2.1-0.1-4.3,0.9-6.3-0.6c-0.7-0.6-1.7,0.3-2.6,0.2c-3.7,0-7.3,0-11,0c-0.6,0-1.3-0.1-1.8-0.5c-1-0.7-1.8-1.9-3.2-0.4
		c-0.5,0.6-1.5-0.7-2.6-0.6c-2.6,0.2-5.2,0-7.7,0c-1.1,0-2.1,0-3.2-0.4c-0.3-0.1-0.8-0.4-1.1-0.2c-2.3,1.4-5,0.3-7.4,0.9
		c-2,0.4-3.9-0.4-6,0c-1.1,0.2-0.8-1.2-1.2-1.9c-2.1,2.6-4.9,1.8-7.6,1.8c-0.6,0-1.1,0-1.7,0.1c-1.9,0.4-3.6,0.2-5.5-0.2
		c-1.9-0.4-4-0.1-5.9,0.2c-1.2,0.2-1.8,0-1.8-1.3c0-0.1,0-0.3-0.1-0.4c-0.7-2.4-0.8-2.6,1.7-2.8c3.6-0.3,7.1-0.2,10.7-0.3
		c8.3-0.2,16.7-0.3,25-0.4c0.4,0,0.9,0.1,1.3,0.1c-0.6,1.8-0.2,2.1,1.6,2c2.8-0.1,5.6-0.6,8.4-0.1c1.4,0.2,1.7-0.3,1.2-1.8
		c1-0.3,2.1-0.7,3.2-0.3c-1.6,1-0.7,2,0,3c0.8,1.1,1.7,1.7,3,0.9c0.7-0.4,1.3-1.2,2.3-1.1c1.5,0.1,2.9-0.3,4.3-0.6
		c1.8-0.4,3.6-0.5,4.8,1.2c1.2,1.6,2.7,1.4,4.3,1c0.7-0.2,1.3-0.7,2.1-0.9c1.9-0.5,3.6-2.1,5.7-0.8c2.1,1.4,4.1,3.2,6.9,2.6
		c0.1,0,0.2,0.1,0.3,0.1c1.5,0.9,3.3,0.8,4.9,0.9c0.4,0,0.8,0.1,1-0.2c0.3-0.5-0.1-0.8-0.3-1.2c-0.2-0.5-1.2-0.7-0.7-1.3
		c0.5-0.7,1.3-0.1,1.9,0.1c0.4,0.2,0.8,0.4,1.2,0.6c1.3,0.9,2.5,0.9,4-0.1c1.7-1.2,3.7-1.9,5.8-0.5c1,0.7,2.4,0.5,3.4,1.5
		c0.5,0.5,1.3,0.3,1.8-0.1c1.9-1.6,3.9-1.1,6-0.6c1.8,0.5,3.5,2,5.6,0.3c0.5-0.4,1.4,0,0.8,1.1c-0.2,0.4-0.5,0.8-0.1,1.2
		c0.5,0.4,1,0,1.3-0.4c0.4-0.6,0.9-0.9,1.5-0.9c3.4,0.3,6.9,0.5,10.2,1.2c-0.1,0.6-1.5,0.1-1.1,1.1c0.3,0.7,1.1,1.2,1.8,0.9
		c1.2-0.4,2.3,0.1,3.5,0c0.8,0,2.1,0.7,2.5-0.8c0.2-0.6,1.4-0.6,1-1.5c-0.3-0.7-1-0.8-1.7-0.9c-0.4-0.1-0.9-0.2-0.9-0.7
		c0.7-0.3,1.5,0.2,2.1-0.4c-0.1-0.4-0.5-0.4-0.7-0.6c-1.2-1.2-3-1.3-4.2-2.6c-0.8-0.9-1.1-0.8-1.7,0.2c-0.7,1.1-0.7,1.8,0.5,2.4
		c-0.6,0.3-1.1,0.1-1.7,0c-3.3-0.6-6.5-1.2-9.8-1.4c-1.2,0-2.5,0.1-3.5-0.4c-2.3-1-4.7-0.5-7-1.1c-1.5-0.4-3.1-1-4.7-0.9
		c-3.2,0.3-6.5-1-9.7,0.5c-0.3,0.1-0.6,0.1-0.9,0.1c-3.7-0.4-7.4-0.4-11-0.2c-4.1,0.1-8.2-0.7-12.4-0.3
		C185.9,163,185.2,163.1,184.7,162.5z M240.7,159.1c0,0.7-0.1,1.4-0.1,2.1c0,0.7-0.4,1.7,0.5,2c0.8,0.3,1.3-0.6,1.8-1.2
		c0.3-0.4,0.5-0.9,1.2-0.7c0.5,0.2,0.7,0.6,0.9,1.2c0.1,0.5,0.1,1.6,0.8,0.9c1.5-1.6,2.6-1.4,3.9,0.1c0.1,0.1,0.4,0.1,0.5,0.1
		c1.1,0,2.2,0,3.1,0.9c0.5,0.5,1,0,1.2-0.7c0.2-0.6,0.3-1.2,0.4-1.8c0.2-1.3,0-2.3-1.7-2.2c-0.6,0-1-0.3-1.3-0.8
		c-0.8-1.1-3-1.3-4-0.4c-0.2,0.2-0.3,0.4-0.6,0.3c-0.3-0.2-0.3-0.5-0.2-0.8c0.4-1.2,0-2.2-1.3-2c-1.6,0.3-3.3,0.4-4.5,1.5
		c-0.1-1.3-0.1-1.3,1.2-1.9c0.3-0.2,0.8-0.2,0.8-0.7c0-0.5-0.5-0.7-0.9-0.8c-2.3-0.7-3.3-0.1-3.5,2.3c0,0.3-0.1,0.6-0.2,0.9
		c-0.2,0.9-0.6,1.8,0.3,2.4C239.8,160.6,239.9,159.1,240.7,159.1z M238,164.7c0.8,0,1.4-0.1,1.7-0.8c0.2-0.6,0.1-1.2-0.4-1.6
		c-0.5-0.4-1.1-0.2-1.5,0.3c-0.9,0.9-1.2,0.2-1.5-0.5c-0.4-0.9-1-1.6-1.9-0.4c-0.4,0.5-0.5,1.5-1.5,1.1c-0.9-0.4-1-1.2-0.9-2.1
		c0.1-0.7,0.1-1.6,0.5-2.2c1-1.3,0.8-2.6,0.6-4.1c-0.1-0.6-0.2-1.1-0.9-1.3c-0.5-0.1-0.9,0-1.2,0.4c-0.3,0.5-0.3,0.9,0.1,1.4
		c0.8,1,0.3,1.7-0.5,2.2c-1.3,0.7-1.3,1.7-0.7,2.8c0.4,0.8,0.9,1.5,1.2,2.3c0.5,1.7,1.7,2.2,3.3,2.2
		C235.7,164.4,236.9,164.3,238,164.7z M51.9,165.8c-0.4,0-0.7,0.1-0.7,0.5c-0.1,0.6,0.1,1.2,0.4,1.8c0.2,0.4,0.6,0.5,0.9,0.2
		c0.4-0.3,0.9-0.4,1.4-0.5c0.6-0.1,1.6,0.5,1.7-0.5c0-0.9-1-1-1.8-0.9C53,166.4,52.4,166,51.9,165.8z M235,157.7
		c0.1,0.5-0.1,1.4,0.7,1.6c0.8,0.2,0.7-0.8,1-1.3c0.1-0.1,0.1-0.2,0.2-0.3c0.3-0.8,0.7-1.5,0.2-2.3c-0.2-0.3-0.7-0.5-1-0.3
		c-0.7,0.5-0.9,1.3-1.1,2.1C235,157.3,235,157.4,235,157.7z M224.3,169.7c0.5-0.5,2,0.4,2.2-0.8c0.2-1-1.3-0.8-2-1.2
		c-0.1,0-0.1,0-0.2-0.1c-0.7-0.3-1.3-0.5-1.9,0.1c-0.3,0.3-0.4,0.6-0.2,1C222.6,169.6,223.4,169.6,224.3,169.7z M213.9,169.1
		c0.5-0.2,1.5,0.3,1.5-0.8c0-1-0.9-1.1-1.7-1c-0.8,0-1.9-0.1-1.9,0.9C211.8,169.3,213,168.9,213.9,169.1z M221.7,160.4
		c-0.2-0.6-0.7-0.8-1.3-0.7c-0.6,0.1-1.5,0.2-1.3,0.9c0.2,0.7,1.1,0.5,1.8,0.6C221.4,161.3,221.7,161,221.7,160.4z M190,167.4
		c-0.2-0.7-0.8-0.7-1.4-0.6c-0.4,0-0.9,0.1-0.8,0.5c0.2,0.8,0.9,0.9,1.6,0.9C189.8,168.1,190,167.9,190,167.4z M216.9,160.1
		c-0.1-0.3-0.2-0.7-0.7-0.6c-0.5,0.1-0.8,0.4-0.8,0.9c0,0.4,0.2,0.7,0.7,0.7C216.6,161,216.8,160.6,216.9,160.1z"/>
	<path class="st3" d="M195,218.1c-0.4,0.2-0.7,0.5-0.7,1c-0.2,2-0.5,4.1-0.8,6.1c-0.1,0.6,0.2,1.4-0.9,1.9c0-2.4-0.1-4.5,0-6.6
		c0.1-1.5-0.5-2.1-1.9-2c-1,0.1-2,0.1-3,0.1c-4.5-0.1-8.9,0.7-13.4,0.3c-1-0.1-1.7,0.9-2.9,0.5c-2.4-0.9-3.9,0.3-3.5,2.7
		c0.1,0.9,0,1.7-0.1,2.6c-0.2,1.5,0.2,2.2,1.8,1.6c0.3-1.6,0-3.2-0.2-4.8c-0.1-0.8,0-1.7,0.9-1.8c1.1-0.1,1.2,0.8,1.2,1.7
		c0,2.4-0.4,4.8,0,7.2c2-1.3,0.6,1,1.3,1.2c0.5-0.3,0.5-0.9,0.4-1.4c-0.5-2-0.3-4-0.3-6c0-2.8,0.2-2.9,3-2.9c4.3,0,8.7-0.1,13-0.2
		c1.8-0.1,2.1,0.1,1.9,1.9c-0.7,5.4-1.4,10.7-1.9,16.1c-0.7,6.7-1.8,13.3-2.5,20c-0.7,6.6-1.6,13.2-2.6,19.8c1.3-0.5,2.6-1,3.9-1.5
		c1.1-8.2,2-16.3,3.1-24.5c1.4-10.4,2.5-20.9,4.3-31.2C195.2,219.4,195.4,218.7,195,218.1z"/>
	<path class="st3" d="M177.8,321.9c-1.1,7.5-2.3,15-2.7,22.6c-0.1,2.2,0.1,4.3-0.2,6.5c-0.2,1.4-1.1,2.4-1.3,3.6
		c-0.5,4.4-1.9,8.7-1.9,13.2c0,0.9-0.1,1.9-0.2,2.8c-0.4,3.2-0.8,6.3-1.4,9.4c-0.4,2.2-0.1,4.4-0.4,6.6c-1.1,7.5-1.4,15-1.7,22.5
		c-0.2,6.8-0.5,13.7,0.4,20.5c0.1,0.7-0.5,1.8,0.6,2.1c1,0.2,1.5-0.7,2.1-1.3c0.5-0.5,0.4-1.2,0.4-1.8c0.1-5.3,0.1-10.6,0.2-15.9
		c0.2-9.1,0.8-18.1,1.7-27.1c0.7-7.3,1.3-14.6,2.4-21.8c1-6.3,2-12.6,2.8-18.9c1-8.1,2.1-16.1,3.1-24.2
		C180.5,321.2,179.2,321.6,177.8,321.9z"/>
	<path class="st5" d="M232.3,213.5c-0.1-0.9,1.5-1,0.9-1.8c-0.6-0.8-1.8-0.5-2.7-0.2c-3.3,0.9-6.5,0.7-9.8,0.3
		c-0.7-0.1-1.4,0.6-2.1,0.1c-0.1-0.5,0.2-0.6,0.5-0.7c0.4-0.2,0.8-0.5,0.6-1c-0.2-0.5-0.6-0.6-1.1-0.6c-0.9-0.2-2.3,0.6-2.7-0.5
		c-0.4-1.1,1.3-1.1,1.8-1.8c0.8-1.3,2.4-1.5,3.4-2.5c0.7-0.7,1.1-1.2,0.7-2.2c0.3-0.8,0.4-1.6,0-2.4c1.6-0.2,0.9-1.2,0.6-1.9
		c-0.3-0.7-0.8-1.7-1.7-1.3c-1.1,0.4-0.6,1.3-0.1,2c0.1,0.2,0.1,0.5,0.2,0.7c-1.2,0.7-0.4,1.7-0.3,2.6c-0.6,0.3-1,0.7-1.4,1.2
		c-2.2,2.3-4.8,3.8-7.9,4.5c-0.6,0.1-1.4,0.4-1.6-0.4c-0.2-0.7,0.4-1.3,1-1.5c3.1-1.2,3.8-3.9,4.3-6.7c0.2-0.9-0.1-1.4-0.9-1.5
		c-0.8-0.1-1.6-0.2-2.2-0.8c-0.4-0.3-1-0.5-1.3,0.1c-0.2,0.5,0.2,0.8,0.6,0.9c0.7,0.2,1.2,0.5,0.9,1.3c-0.5-0.2-1.1-0.6-1.6,0.1
		c-0.5,1-0.2,1.7,0.6,2.4c-2.1,1.4-4.1,2.8-6.2,4.1c-0.6,0.4-1.4,0.8-1.9,0.2c-0.5-0.7,0.4-1.1,0.8-1.5c2.5-2.7,2.3-5.9,1.5-9
		c-0.4-1.5,0-1.8,1.3-1.8c6.7-0.1,13.3,0.6,20,1c3.8,0.2,7.4,1.2,11.2,1.7c0.2,0,0.6,0,0.7,0.2c1.2,1.4,2.2,1.3,3.1-0.4
		c0.3,0.8-0.1,1.6-0.2,2.4c-0.1,1.1-0.1,2.2,1.1,2.7c0.2,0.1,0.4,0.2,0.4,0.4c0.5,1.6,1.2,2.1,2.8,0.9c0.9-0.7,1.7,0,2.5,1.7
		c1.6-1.1,2.7-0.9,3.4,0.6c0.4,0.8,0.4,1.5-0.6,2c-5.2,2.6-10.7,4.6-16.4,6C233.8,213.4,233.1,213.8,232.3,213.5z M230.2,202.8
		c0.7-0.1,1-0.6,0.8-1.2c-0.1-0.5-0.3-1.3-0.9-1.2c-0.8,0.1-1,0.9-1,1.6C229.2,202.5,229.6,202.8,230.2,202.8z"/>
	<path class="st6" d="M161.9,347c-0.1-3.5-0.9-7.2-0.1-10.5c0.6-2.2,0.3-3.9,0-5.9c-0.3-2.5-0.2-5-0.2-7.5c-2.3-0.1-4.6-0.2-6.9-0.5
		c0,0.9,0,1.7,0,2.6c0,3.3,0.1,6.7,0.2,10c0,0.8,0.2,1.8-1.2,1.5c0.1,3.9,1.1,7.7,1.8,11.5c0.6-2.5,0-5.1,0.2-7.7
		c0.1-1.5,0.6-2.3,2.2-2.4c1.5-0.1,2.1,0.5,2.2,1.9c0.1,2.9,0.1,5.8,0.1,8.7c0,1.4-2.1,2.4-4.3,2.1c-0.1,1.1,0,2.1,0.6,3.1
		c0.4-0.6,0.9-1.2,1.8-0.9c0.9,0.3,1.5,0.8,1.7,1.8c0.2,1.7,0,3.3,0.4,5c0.2,0.9-0.6,0.9-1.2,1c0.1,0.8,0.7,1.3,1.4,1.5
		c0.5-1.4,1.2-2.7,1.1-4.4c-0.2-2.8-0.8-5.7,1-8.3c0.3-0.5,0.1-0.8-0.2-1.2C162.3,347.9,162,347.6,161.9,347z M158.5,335.1
		c-1.3,0-2.2-0.4-2.2-1.8c0.2-3-0.1-5.9-0.1-8.8c0-1,0.5-1.5,1.5-1.5c1,0,2.2-0.2,2.3,1.2c0.2,1.7,0.2,3.4,0.2,5.1
		c0,1.3,0,2.5,0,3.8C160.4,334.4,159.9,335.1,158.5,335.1z"/>
	<path class="st6" d="M154.8,281.9c0.4,0,0.9,0,1.3,0c0.1,0,0.1,0,0.2,0c0-1.1,0-2.3,0-3.4c0-1.5,1.5-1.5,2.6-1.6
		c1.2,0,1.4,0.8,1.4,1.8c0,0.9,0,1.9,0,2.8c0.5-0.1,0.9-0.1,1.4-0.1c0.1-0.8,0.4-1.7,0.9-2.5c0.5-0.7,0-1.2-0.5-1.6
		c-0.7-0.7-1.1-1.5-0.6-2.4c0.8-1.2,0.4-2.3,0.4-3.6c-0.1-4.4-0.9-8.9,0.4-13.3c0.1-0.5,0.1-0.9-0.2-1.3c-0.5-0.9-0.5-1.8-0.4-2.8
		c0.2-3.8-0.1-7.7,0.2-11.5c0.2-2.7-0.6-5.5-0.3-8.2c0-0.3-0.1-0.5-0.5-0.5c-0.5,0.3-0.5,0.8-0.6,1.3c-0.3,3.7,0.9,7.4-0.4,11
		c0,0.1,0,0.3,0,0.4c0.6,3.6,0.2,7.2,0.4,10.7c0.1,2-0.6,2.5-2.6,2.4c-1.5-0.1-2.3-1-2-2.7c0.4-1.8,0.1-3.6,0.2-5.4
		c0.1-2,0.2-4,0.4-6c0.2-1.9-0.9-3.9-0.5-6c0.2-1.3,0-2.8,0-4.1c0-0.7,0-1.4-0.8-1.6c-0.5,0.6-0.3,1.3-0.3,1.9
		c-0.1,2.6,0.4,5.2,0.2,7.7c-0.3,5.4-0.3,10.9-0.3,16.3c0,6.2,0,12.4,0,18.6C154.8,279.5,154.8,280.7,154.8,281.9z M156.3,263.4
		c0.1-1.4,1.5-1.4,2.5-1.5c1.1-0.1,1.4,0.7,1.5,1.5c0.1,1.6,0,3.1,0,4.7h0.1c0,1.4,0,2.9,0,4.3c0,0.8-0.1,1.8-1.1,1.6
		c-1-0.2-2.7,0.4-2.8-1.4C156.2,269.5,156.2,266.4,156.3,263.4z"/>
	<path class="st3" d="M156.2,95.2c-0.4,3.8-0.6,7.6-0.5,11.4c0.1,2.1-0.2,2.4-2.3,2.4c-7.5-0.1-14.9,0.4-22.3,1.3
		c-1.4,0.2-2.9,0.1-4.3,0.1c-1.2,0-2.4-0.1-3.5,0.6c-0.8,0.5-1.3,0-1.7-0.6c-0.1-1.9,0.7-3.6,0.9-5.4c0.1-1.1,0.9-1.5,1.8-1.6
		c2.9-0.3,5-1.3,5.5-4.5c0.3-1.5,1.8-0.6,2.8-0.8c0.9-0.2,0.8,0.5,0.9,1c0.4,1.7,2.5,2.9,5.1,2.7c1.5-0.1,3-0.3,4.5,0
		c1,0.2,1.5-0.3,1.7-1.3c0.1-1.1,0.3-2.2,0.4-3.4c0.4-0.3,0.4-0.7,0.2-1.1c0-0.6,0-1.2,0-1.9c0-0.1,0-0.3,0-0.4
		c0-0.4,0.1-0.8,0.1-1.1c1.5-0.7,3.1-1.2,4.8-1.2c0.7,0.1,1.3-0.1,1.8-0.6c0.3,0,0.6,0,0.9-0.1c0.5,0.5,1.2,0.5,1.8,0.7
		c0,0.3,0.2,0.5,0.5,0.5C155.5,93,155.6,94.1,156.2,95.2z"/>
	<path class="st3" d="M172.7,346.6c0-5.2,0.4-10.4,0.3-15.6c0-2.7,0-5.5,0-8.2c-0.1,0-0.2,0-0.3,0c-0.4,0-0.8,0.1-1.1,0.1
		c0,2.5,0.1,5-0.1,7.5c-0.3,3.9,0.1,7.8-0.1,11.6c-0.2,2.7,0.4,5.4-0.1,8.2c-0.1,0.7,0,1.8,1,1.7c0.9,0,1-1.1,0.9-1.8
		C172.9,349,172.7,347.8,172.7,346.6z"/>
	<path class="st3" d="M171.5,279.5c0,0.1,0,0.2-0.1,0.3c0.5-0.1,1-0.1,1.5,0c0.1-3.1,0.1-6.2-0.1-9.3c-0.2-4.7,0.1-9.4,0-14.1
		c-0.2-7.8,0-15.6,0-23.4c0-0.7,0.3-1.5-0.2-2.2c-0.3,0-0.7,0-1,0c-0.6,1,0,2,0,3.1c-0.2,5.7-0.6,11.4-0.3,17.1
		c0.4,5.9-0.3,11.7,0.2,17.6c0.2,2,0.2,4-0.3,6C170.8,276.3,171.9,278,171.5,279.5z"/>
	<path class="st3" d="M204,215.7c-0.2-0.6-0.7-1-1.4-1c-1.3-0.1-2.8-0.8-3.8,0.9c0,0.5,0,1,0,1.4c0.4,0.2,0.5,0.5,0.5,0.9
		c0.2,0.2,0.4,0.4,0.6,0.6c0.7,0.2,0.7,0.7,0.5,1.3c-1,7-2.1,13.9-3.1,20.9c-1.7,11.3-3.4,22.6-5.1,33.9c0.2-0.2,0.4-0.4,0.7-0.5
		c0.3-0.1,0.7-0.3,1-0.4c2.2-15.2,4.5-30.4,7.1-45.5c-0.2-0.4-0.2-0.7,0.2-0.9c0.1-0.6,0.2-1.2,0.3-1.8c-0.3-0.4-0.3-0.7,0.2-0.9
		c0.1-0.5,0.1-0.9,0.2-1.4c-0.4-0.4-0.3-0.7,0.2-0.9c0.1-0.3,0.1-0.7,0.2-1c-0.4-0.4-0.3-0.6,0.2-0.9c0-0.2,0.1-0.4,0.1-0.7
		c-0.5-1.1,0.1-1.8,0.9-2.4C203.9,216.9,204.3,216.4,204,215.7z"/>
	<path class="st3" d="M165.8,102.3c1.6,1.4,2.6-0.1,3.8-0.9c0.9,2.1,0.7,4.4,1,6.5c0.1,0.9-0.6,1.3-1.5,1.2
		c-3.4-0.4-6.7-0.6-10.1-0.5c-1.2,0-1.9-0.6-1.9-1.8c0-0.5,0-1-0.2-1.5c-0.7-2.2,0-3,2.3-2.7c1.7,0.2,3.5,0.4,5.2-0.2
		C164.9,102.5,165.4,102.5,165.8,102.3z"/>
	<path class="st4" d="M153.7,20.5c1.2,0.2,1,1.1,0.7,1.9c-1,2.3-0.5,4.7-0.5,7c0,3.9,0.9,7.9-0.5,11.7c-0.3,0.9-0.4,1.9-0.4,2.8
		c-0.1,3.8,0,7.7-0.1,11.5c0,1.1,0.1,2,1.5,2.2c0.5,0.1,0.8,0.4,0.8,0.9c0,0.7-0.5,0.7-1,0.8c-0.4,0-0.7,0.1-1.1,0.3
		c-0.5,0.3-1.1,0.4-1.6,0c-0.6-0.5-0.4-1.1-0.1-1.7c0.5-0.9,0.5-1.8,0.2-2.7c-0.8-3.2-0.3-6.4-0.4-9.6c0-2.6,0-5.3,0.3-7.9
		c0.4-3.8,0.2-7.6,0.4-11.4c0.1-1.2,0.3-2.3-0.1-3.5C153.2,22.6,153.9,21.8,153.7,20.5z"/>
	<path class="st3" d="M185.3,319.6c0,0.1,0,0.2-0.1,0.3c-1.1,5.5-1.5,11.1-2.2,16.6c-0.1,0.8-0.4,1.7,0.4,2.6c0.2-0.8,0.4-1.4,0.6-2
		c1.3-6,2.2-12.1,3.1-18.2C186.5,319.1,185.9,319.3,185.3,319.6z"/>
	<path class="st5" d="M202.5,219.6c-0.5-1.1,0.1-1.8,0.9-2.4c0.6-0.4,1-0.8,0.7-1.5c-0.2-0.6-0.7-1-1.4-1c-1.3-0.1-2.8-0.8-3.8,0.9
		c-1.2-0.2-1.7-2.2-3.3-1c-0.3-1.5,0.8-1.2,1.6-1.3c3-0.2,6.1,0.3,9.1,0.2c4.1-0.2,7.6,2.3,11.7,1.8c0.1,0,0.3,0.3,0.5,0.5
		c-0.1,0.5-0.5,0.5-0.9,0.6c-3.8,0.5-7.7,1-11.2,2.8c-0.5,0.2-1,0.4-1.4,0C203.8,218.1,203.2,218.9,202.5,219.6z"/>
	<path class="st3" d="M155.7,348.2c0.6-2.5,0-5.1,0.2-7.7c0.1-1.5,0.6-2.3,2.2-2.4c1.5-0.1,2.1,0.5,2.2,1.9c0.1,2.9,0.1,5.8,0.1,8.7
		c0,1.4-2.1,2.4-4.3,2.1c0-0.2-0.1-0.5-0.1-0.7c0.4-0.4,0.3-0.6-0.1-0.9C155.8,348.9,155.7,348.5,155.7,348.2z"/>
	<path class="st4" d="M37.3,174.3c-1.5,0.9-3.2,1.2-4.8,1.5c-1.2,0.2-2,1-3.1,1.4c-0.5,0.2-0.7,0.7-0.6,1.3c0.1,0.8,0.8,1,1.4,1.3
		c3.4,1.6,7.2,1.8,10.8,2.5c4.6,0.9,9.3,1.6,14,2c2,0.2,3.8,1,5.7,1.3c1.5,0.2,1.8,1.7,1.8,3.2c-0.5-0.1-0.5-0.4-0.6-0.8
		c-0.3-1.4-1.1-2-2.7-2c-2,0-3.8-1.2-5.9-1.3c-5.8-0.3-11.5-1.8-17.2-2.5c-2.3-0.3-4.4-1.1-6.5-1.9c-1.1-0.4-1.5-1.3-1.6-2.4
		c-0.1-1.1,0.8-1.3,1.6-1.6C32.1,175.3,34.6,174.5,37.3,174.3z"/>
	<path class="st4" d="M150.2,61.3c1.1,0.9,0.5,1.7,0.5,2.5c0.3,7.3-0.2,14.6-0.8,21.9c0,0.2,0,0.4,0,0.6c-0.1,0.5,0.1,1.2-0.6,1.1
		c-0.6-0.1-0.3-0.7-0.3-1.1c0.1-5.6,0.4-11.2,0.9-16.8C150,66.8,150,64.2,150.2,61.3z"/>
	<path class="st6" d="M169.6,242.3c-1.6-0.5-1.8-1.4-1.7-3.1c0.3-2.9,0-5.8-0.1-8.8c-0.1-1.4,0.3-2.2,1.8-2.1
		c0.7,1.8-0.3,3.5-0.3,5.3C169.5,236.5,169.5,239.4,169.6,242.3z"/>
	<path class="st3" d="M156.7,353.9c0.4-0.6,0.9-1.2,1.8-0.9c0.9,0.3,1.5,0.8,1.7,1.8c0.2,1.7,0,3.3,0.4,5c0.2,0.9-0.6,0.9-1.2,1
		c-1.1-1.7-1.6-3.6-2.3-5.5c0,0,0.1-0.1,0.1-0.1c0,0-0.1,0-0.1,0C156.9,354.7,156.8,354.3,156.7,353.9z"/>
	<path class="st4" d="M169.3,347.8c-1.6-0.2-2.2-2.3-1-3.7c0.9-1,1.5-1.6-0.1-2.7c-0.9-0.6-0.7-3-0.2-3.2c1.6-0.7,0.8-2.4,1.8-3.2
		c0.4,0.8,0.3,1.8,0.2,2.6c-0.3,1.6-0.2,3-0.1,4.6C170,343.8,169.8,345.9,169.3,347.8z"/>
	<path class="st6" d="M146.1,224.6c-1.1-1.4-0.8-3.2-0.9-4.8c-0.1-2.2,0.2-4.4,0.3-6.6c0-0.5,0.2-1.1,0.8-1.1c0.6,0,0.8,0.6,0.8,1.1
		c0,1.6,0.3,3.1-0.2,4.7c-1.4,0.6-0.9,1.8-0.9,2.8C146.1,222,146.5,223.3,146.1,224.6z"/>
	<path class="st4" d="M168.5,360.3c0.4-1.8-1.1-3.6,0.2-5.4c0.1-0.1-0.1-0.6-0.2-0.8c-0.8-1.2-1.1-2.2,0.4-3.1
		c0.7-0.4,0.1-1.5,0.5-2.1c0.7,0.3,0.7,1,0.6,1.4c-0.8,2.6,0,5.2,0,7.8C169.9,359,169.8,360,168.5,360.3z"/>
	<path class="st4" d="M153,90.7c-0.3,0-0.6,0-0.9,0.1c-0.4-3.7-0.1-10.8,0.7-12.3C153.2,82.6,153,86.6,153,90.7z"/>
	<path class="st3" d="M153.7,20.5c0.1,1.4-0.5,2.1-1.9,2.2c-0.5-0.3-0.9-0.6-1.1-1.2c0.1-1.2,1.3-2,1.2-3.2c0.1-0.2,0.1-0.5,0.2-0.7
		c0.3,0,0.6,0,0.9,0C153.3,18.5,153.5,19.5,153.7,20.5z"/>
	<path class="st6" d="M169.6,280.2c-0.1-1.6-0.2-3.2,0.2-4.7c0-0.2-0.1-0.5-0.2-0.7c-0.2,0.1-0.5,0.1-0.5,0.2
		c-0.7,1.8-0.9,3.7-1,5.6C168.6,280.4,169.1,280.3,169.6,280.2z"/>
	<path class="st4" d="M169.5,333.5c-0.6-0.4-1.8-0.3-1.7-1.4c0-1.5-0.3-3,0.3-4.4c0.2-0.5,1-0.3,1.5-0.3
		C169.6,329.4,169.6,331.4,169.5,333.5z"/>
	<path class="st4" d="M169.6,323c-0.6,0-1.2,0.1-1.9,0.1c0,0.3,0.1,0.5,0.1,0.8c0.2,0.9-0.1,2.5,1.7,2.3
		C169.3,325.2,169.5,324.1,169.6,323z"/>
	<path class="st3" d="M167.9,100.9c-0.5,0.2-1,0.6-1.7,0.4c-0.6-1.5,0.3-3-0.3-4.6c-0.2-0.5,0.5-0.6,0.9-0.6
		c0.6-0.1,1.2,0.2,1.2,0.9c0.1,0.5-0.1,1.1-0.1,1.7c-0.5,0.2-0.6,0.5-0.1,0.8C167.9,99.9,167.9,100.4,167.9,100.9z"/>
	<path class="st4" d="M155.3,91.8c-0.3,0-0.5-0.1-0.5-0.5c0.6-0.8,0.4-1.7,0.4-2.5c0-0.6,0.3-1.1,1-1.2c0.8-0.1,0.8,0.6,0.8,1.2
		C156.8,90.1,157.2,91.6,155.3,91.8z"/>
	<path class="st6" d="M169.4,272.1c-1.1,0.1-1.6-0.5-1.5-1.4c0.1-1-0.3-2.4,1.4-2.6C169.6,269.4,169.4,270.7,169.4,272.1z"/>
	<path class="st3" d="M172.2,98.8c0.1,0,0.1,0.1,0.2,0.1c1,0.2,1.6,0.8,1.6,1.9c0,0.4-0.3,0.7-0.7,0.7c-1.1-0.1-1.6-0.8-1.7-1.8
		c0-0.1-0.1-0.2-0.1-0.4C171.7,99.2,172,99,172.2,98.8z"/>
	<path class="st6" d="M169.4,250.7c-1.8-0.7-1.4-2.3-1.2-3.7c0.1-0.7,0.7-0.6,1.2-0.4C169.4,248,169.4,249.3,169.4,250.7z"/>
	<path class="st7" d="M148.6,236.2c0.5,0.2,1,0.5,1.6,0.3c0.5-0.2,1,0,1.2,0.6c0.1,0.4,0.1,0.8-0.2,1c-0.5,0.4-0.8,0.1-1.1-0.2
		c-0.4-0.4-0.9-0.4-1.4-0.4C148.3,237,148.3,236.6,148.6,236.2z"/>
	<path class="st4" d="M150.3,91.4c-1.7,0-3.3,0.5-4.8,1.2c0,0-0.1-0.1-0.1-0.1C146.1,90.9,149.2,90.3,150.3,91.4z"/>
	<path class="st4" d="M265.7,428.7c-0.1,0.5-0.4,0.7-0.8,0.8c-0.3,0.1-0.6,0-0.6-0.4c0-0.5,0.3-0.7,0.8-0.8
		C265.4,428.3,265.7,428.3,265.7,428.7z"/>
	<path class="st4" d="M152.6,63.9c-0.7-0.1-1-0.7-1-1.3c0-0.5,0.2-0.9,0.7-0.9c0.7,0.1,1,0.6,1.1,1.3
		C153.4,63.5,153.1,63.8,152.6,63.9z"/>
	<path class="st4" d="M149.3,256.3c1.5,1.2-0.1,2.6,0.2,3.9C148.7,258.9,149.2,257.6,149.3,256.3z"/>
	<path class="st3" d="M172.6,230.9c-0.3,0-0.7,0-1,0c-0.2-0.7-0.2-1.5-0.1-2.3c2-1.3,0.6,1,1.3,1.2
		C172.8,230.2,172.7,230.6,172.6,230.9z"/>
	<path class="st4" d="M146.4,230.3c-1.1-1.2-0.9-2.6-0.2-3.9C146.9,227.7,146.7,229,146.4,230.3z"/>
	<path class="st4" d="M151.9,18.2c0.1,1.3-1.1,2-1.2,3.2c-0.6,0-0.8-0.4-0.6-0.8C150.7,19.8,150.7,18.5,151.9,18.2z"/>
	<path class="st4" d="M92.9,217.4c1.2-0.2,2.3-0.6,3.4,0.3C95.2,217.9,94,218,92.9,217.4z"/>
	<path class="st6" d="M169.2,265c-1.2-0.3-0.9-1.4-1-2.1c-0.1-0.6,0.5-0.7,1.1-0.6C169.6,263.2,169.5,264.1,169.2,265z"/>
	<path class="st6" d="M169.2,254.4c-0.8,0-1.1-0.5-1.1-1.2c0-0.7,0.3-1.2,1.1-1.1C169.5,252.9,169.5,253.7,169.2,254.4z"/>
	<path class="st4" d="M148.9,249.8c0.4,0.7,0.4,1.5,0.1,2.3C148.6,251.4,148.6,250.6,148.9,249.8z"/>
	<path class="st4" d="M97.4,217.8c1.1-0.1,1.3,0.3,1.1,1.8C98.2,219,97.8,218.4,97.4,217.8z"/>
	<path class="st4" d="M153,17.5c-0.3,0-0.6,0-0.9,0c-0.3-0.5-0.3-1.1,0.3-1.1C153.2,16.4,153.5,16.8,153,17.5z"/>
	<path class="st4" d="M153.5,333.7c0.7,0.4,0.7,1,0.3,1.6C153.3,334.8,153.3,334.3,153.5,333.7z"/>
	<path class="st4" d="M266.4,182.6c0.5-0.5,1-0.4,1.6-0.2C267.6,183,267,183,266.4,182.6z"/>
	<path class="st4" d="M219.9,215.5c0.5-0.8,1.1-0.6,1.7-0.2C221.1,216.1,220.5,216.1,219.9,215.5z"/>
	<path class="st4" d="M75.8,214.7c0.8-0.4,1.4-0.2,2,0.4C77,215.2,76.3,215.3,75.8,214.7z"/>
	<path class="st4" d="M263.3,183.1c0.6-0.2,1.1-0.6,1.7-0.3C264.5,183.3,264,183.4,263.3,183.1z"/>
	<path class="st4" d="M99.5,228.2c0.5,0.4,0.6,0.8,0.1,1.2C99.3,229.1,99.3,228.6,99.5,228.2z"/>
	<path class="st4" d="M101,237.7c0.7,0.3,0.9,0.7,0.2,1.2C100.7,238.5,100.7,238.1,101,237.7z"/>
	<path class="st4" d="M101.8,243.7c0.7,0.3,0.8,0.7,0.2,1.2C101.5,244.6,101.5,244.2,101.8,243.7z"/>
	<path class="st4" d="M199.9,218.4c0.7,0.2,0.7,0.7,0.5,1.3C199.8,219.5,199.9,218.9,199.9,218.4z"/>
	<path class="st4" d="M226,214.8c0.4-0.8,1-0.6,1.6-0.4C227.1,214.9,226.6,215.3,226,214.8z"/>
	<path class="st4" d="M82.3,215.9c0.5-0.4,0.9-0.3,1.2,0.2C83.1,216.3,82.7,216.3,82.3,215.9z"/>
	<path class="st4" d="M153.2,331.8c0.2,0.4,0.6,0.7,0.2,1.2C153,332.7,152.9,332.3,153.2,331.8z"/>
	<path class="st4" d="M98.7,220.7c0.5,0.2,0.6,0.4,0.2,0.8C98.6,221.3,98.5,221,98.7,220.7z"/>
	<path class="st4" d="M273.6,181.3c0-0.6,0.3-0.7,0.8-0.6C274.3,181.2,274.1,181.4,273.6,181.3z"/>
	<path class="st4" d="M167.9,99.4c-0.5-0.4-0.4-0.6,0.1-0.8C168.2,98.9,168.2,99.2,167.9,99.4z"/>
	<path class="st4" d="M155.8,349.2c0.4,0.2,0.5,0.5,0.1,0.9C155.6,349.8,155.6,349.5,155.8,349.2z"/>
	<path class="st4" d="M202.2,221.2c-0.4-0.4-0.3-0.6,0.2-0.9C202.6,220.6,202.5,220.9,202.2,221.2z"/>
	<path class="st4" d="M162.7,363.5c0.5-0.2,0.8,0,0.9,0.5C163.1,364.2,162.8,364,162.7,363.5z"/>
	<path class="st4" d="M201,228.1c-0.2-0.4-0.2-0.7,0.2-0.9C201.6,227.6,201.4,227.8,201,228.1z"/>
	<path class="st4" d="M198.9,217c0.4,0.2,0.5,0.5,0.5,0.9C198.8,217.8,198.5,217.6,198.9,217z"/>
	<path class="st4" d="M169.5,260.5c-0.3,0-0.6-0.2-0.5-0.5c0-0.2,0.3-0.3,0.5-0.4C169.7,259.9,169.7,260.2,169.5,260.5z"/>
	<path class="st4" d="M86.9,216.7c0.3-0.4,0.5-0.3,0.7,0.1C87.3,217.1,87.1,217,86.9,216.7z"/>
	<path class="st4" d="M84.6,216.3c0.3-0.4,0.5-0.3,0.7,0.1C85,216.7,84.8,216.7,84.6,216.3z"/>
	<path class="st4" d="M201.5,225.3c-0.3-0.4-0.3-0.7,0.2-0.9C201.8,224.8,201.8,225.1,201.5,225.3z"/>
	<path class="st4" d="M80.4,215.6c0.4-0.4,0.6-0.2,0.8,0.2C80.9,215.9,80.6,215.9,80.4,215.6z"/>
	<path class="st4" d="M224.1,215.1c0.2-0.5,0.6-0.5,0.9-0.2C224.8,215.5,224.5,215.6,224.1,215.1z"/>
	<path class="st4" d="M261.9,183.4c0.2-0.4,0.5-0.4,0.9-0.2C262.5,183.6,262.3,183.7,261.9,183.4z"/>
	<path class="st4" d="M259.6,183.7c0.3-0.3,0.6-0.3,0.9-0.1C260.3,184,260,184,259.6,183.7z"/>
	<path class="st4" d="M201.8,223.1c-0.4-0.4-0.3-0.7,0.2-0.9C202.2,222.5,202.2,222.8,201.8,223.1z"/>
	<path class="st4" d="M251.7,184.5c0.2-0.4,0.4-0.5,0.7-0.2C252.2,184.7,252,184.8,251.7,184.5z"/>
	<path class="st4" d="M250.2,184.9c0.2-0.4,0.5-0.4,0.9-0.2C250.8,185.1,250.5,185.3,250.2,184.9z"/>
	<path class="st4" d="M99.1,223.7c0.5,0.2,0.6,0.4,0.2,0.8C98.9,224.3,98.9,224,99.1,223.7z"/>
	<path class="st4" d="M145.3,96c0.2,0.4,0.3,0.8-0.2,1.1C145,96.7,145,96.3,145.3,96z"/>
	<path class="st4" d="M91,217.2c0.3-0.2,0.6-0.2,0.8,0.1C91.5,217.5,91.2,217.4,91,217.2z"/>
	<path class="st4" d="M164.6,363.8c-0.1-0.2,0-0.3,0.2-0.1C164.8,363.8,164.7,363.8,164.6,363.8z"/>
	<path class="st4" d="M74.4,214.3c0.1-0.2,0.2-0.2,0.3,0.1c0,0-0.2,0.1-0.2,0.1L74.4,214.3z"/>
	<path class="st4" d="M195,217.7c-0.1-0.1-0.2-0.2-0.2-0.3c0.1,0,0.2,0,0.3-0.1C195,217.5,195,217.6,195,217.7z"/>
	<path class="st4" d="M88.3,216.9c0.2-0.2,0.3-0.1,0.5,0C88.6,217.1,88.4,217,88.3,216.9z"/>
	<path class="st4" d="M145.4,93.7c0,0.1,0,0.3,0,0.4c0-0.1-0.1-0.2-0.1-0.3C145.2,93.8,145.3,93.8,145.4,93.7z"/>
	<path class="st4" d="M157,355.1c0,0,0.1,0,0.1,0c0,0-0.1,0.1-0.1,0.1C157.1,355.2,157,355.1,157,355.1z"/>
	<path class="st3" d="M136.8,320.6c-1.1-0.1-2.3-0.2-3.4-0.3c0,0.6-0.1,1.1-0.1,1.7c-0.2,2.9,0.1,5.8,0.1,8.7
		c-0.1,2.8,0.4,5.6-0.3,8.4c0.6,0,0.8-0.8,1.3-0.9c0.9,2.2,0.8,2.6-0.9,2.8c-0.1,1.4-0.2,2.9-0.2,4.3c0,2.6,0.4,5.3-0.2,7.8
		c-0.5,2.1,0.2,3.8,0.5,5.7c0.5-1.2,0.2-2.3,0-3.5c-0.1-0.6-0.1-1.4,0.7-1.5c0.7-0.1,1.2,0.7,1,1.3c-0.9,2.4,0.5,4.9-0.6,7.2
		c-0.2,0.5-0.2,1.1,0.2,1.6c0.3,0.3,0.7,0.4,1,0.2c0.6-0.3,0.6-0.9,0.6-1.5c0.1-3.3,0.2-6.6,0.2-9.9c0.2-9.9,0.1-19.9,0.1-29.8
		C136.8,322.1,136.8,321.3,136.8,320.6z M134.2,325.4c-0.6-0.1-0.7-0.7-0.7-1.2c0.1-0.5,0.2-0.9,0.8-0.8c0.6,0.1,0.7,0.7,0.7,1.2
		C134.9,325,134.8,325.5,134.2,325.4z M134.3,351.7c0-0.8-0.3-1.7,0.2-2.7C135.1,350.1,134.5,350.9,134.3,351.7z M134.4,345.2
		c-0.8,0-0.6-0.8-0.7-1.3c0-0.4,0-1,0.6-1c0.7,0.1,0.5,0.7,0.6,1.2C134.8,344.5,135,345.2,134.4,345.2z"/>
	<path class="st3" d="M133.4,221.9c-0.1,3.8-0.3,7.7-0.2,11.4c0.1,4-0.2,8,0.3,12c0.1,1.1-0.9,2-0.4,3.1c0.7,1.8,0.6,3.7,0.5,5.6
		c-0.1,2.7-0.2,5.4,0.2,8.1c1.6,1.1,1.6,1.5,0,2.3c-0.5,4.3-0.4,8.6,0,12.8c1.6,1.4,1.5,1.8,0,2.7c0,0.3,0,0.5,0,0.8
		c1,0.1,2.1,0.2,3.1,0.3c0-13.6,0-27.2,0-40.8c0-2.4-0.2-4.9-0.1-7.3c0.2-4.1-0.2-8.2-0.1-12.3c0-1.3-0.5-1.5-1.5-0.9
		c-0.6,0.4-1.1,0.2-1.5-0.2c-0.8-0.6-1.5-0.7-2.5-0.4c-0.9,0.3-1.8,0.3-2.6-0.1c-1.4-0.7-2.8-0.8-4.3-0.4c-2.7,0.6-5.5-0.1-8.3,0
		c-1,0-2,0-1.5,1.5c1.5-1.5,3.3-0.7,5-0.6c3.9,0.1,7.9,0.4,11.8,0.5C133.2,219.8,133.4,219.8,133.4,221.9z M134.2,232.1
		c0.6-0.1,0.9,0.4,1,0.9c0.1,0.5-0.2,0.8-0.7,0.9c-0.6,0-0.7-0.3-0.8-0.8C133.7,232.7,133.7,232.2,134.2,232.1z"/>
	<path class="st6" d="M181.2,174.7c5.3,0.9,10.7-0.3,16,0.4c2.4,0.3,4.8,0.3,7.1,0.3c4.1-0.1,8.1,0.7,12.2,0.5c4-0.2,8.1,0.5,12,0.8
		c3.8,0.4,7.7,0.9,11.5,1.4c3.7,0.4,7.2,1.2,10.7,2.2c0.8,0.2,1.4,0.7,1.2,1.6c-0.2,0.9-1.1,0.9-1.7,0.6c-3.2-1.1-6.4-1.6-9.7-2.1
		c-4.5-0.7-9-1.5-13.6-1.7c-9.5-0.5-18.9-1.1-28.4-1.6c-3.3-0.2-6.6-0.3-9.9-0.7c-2.9-0.3-5.9,0-8.8-0.1c-0.9,0-1.9-0.2-2.8-0.3
		c-0.4,0-0.8-0.2-0.8-0.7c0-0.6,0.4-0.7,0.9-0.8C178.4,174.7,179.8,174.7,181.2,174.7z"/>
	<path class="st4" d="M132.2,385.6c-0.1-0.4-0.2-0.8-0.3-1.2c1.7,0.8,1.4-0.8,1.5-1.4c0.1-1.6,0-3.2-0.1-4.8c-0.1-1,0.8-2.7-0.9-2.7
		c-1.5,0-0.5,1.7-0.8,2.6c-1.1-2.7-0.6-3.6,2.2-3.2c2.7,0.3,2.7,0.3,2.7,3c0,8.6,0.2,17.3-0.1,25.9c-0.2,6.6,0.1,13.3,0.1,19.9
		c0,0.8-0.1,1.6-1.1,1.6c-0.9,0-1.7-0.5-1.6-1.4c0.2-2.3-0.5-4.7,0.5-6.9c0.1-0.2,0.2-0.5,0.1-0.7c-1.4-4.8-0.2-9.7-0.7-14.6
		c-0.2-2.2-1.3-4.2-1.4-6.5c0-1.6-0.5-3.1,0-4.7c0.5,0.2,0.1,1.1,0.7,1.3c1.2-1.3-0.2-2.8,0.6-4.1c1.2-0.1,1.5-0.8,1.3-1.8
		c-0.1-0.6-0.2-1.3-0.8-1.3c-0.9-0.2-0.7,0.9-1,1.3C132.9,385.6,132.6,385.6,132.2,385.6z"/>
	<path class="st5" d="M187.8,200.5c-0.8,1.7-2.2,2.9-3.2,4.3c-0.2,0.3-0.6,0.8-1.1,0.4c-0.3-0.2-0.2-0.7,0-1.1c1.3-2.4,1.1-5,1-7.6
		c-0.1-2.3,0.4-3,2.7-2.7c4.8,0.6,9.5-0.3,14.2,0c1.1,0.1,2.1,0.1,1.9,1.6c-0.1,1.2-0.6,1.9-1.8,1.1c-0.9-0.6-1.9-0.4-2.8-0.2
		c-0.2,0.9,1,0.9,0.9,1.6c-1.1,0.5-1.4,1.4-0.9,2.5c0.4,0.9,1.1,0.4,1.7,0.1c0.2,0.3,0.2,0.7-0.1,0.8c-2.5,0.9-3.9,3.3-6.3,4.4
		c-0.5,0.2-1,0.9-1.5,0.3c-0.4-0.5,0.3-0.9,0.6-1.2c2-1.9,2.3-4.2,2.2-6.7c-0.1-1.9-1.1-2.4-2.8-1.7c-1.1,0.5-2.3,1.4-3.3-0.4
		c-0.3-0.6-1.5-0.6-1.9-0.1c-0.7,0.9,0.5,0.8,0.9,1.2c0.5,0.4,0.7,0.8,0.4,1.5c-0.5-0.1-1.1-0.9-1.6-0.1
		C186.7,199.3,187,200,187.8,200.5z"/>
	<path class="st4" d="M113.3,197.3c0.4-0.7,1.1-0.9,1.8-0.7c0.6,0.2,0.3,1,0.3,1.5c0.2,1.2,0.3,2.4,0.1,3.7
		c-0.2,0.9,0.6,1.6,1.2,2.2c2.5,2.4,5.2,4.5,8.5,5.7c0.6,0.2,1.3,0.5,1.9,0.8c0.5,0.3,1.2,0.7,0.9,1.4c-0.3,0.8-1.1,0.6-1.6,0.5
		c-1.8-0.5-3.4-1.5-5.1-2.4c-2.9-1.6-5.1-4-7.5-6.2c-1.1-1.1-2.5-2.2-2.8-4c0.3,0.1,0.6,0.2,0.9,0.2c1.2-0.1,2.1-0.8,2.4-1.9
		C114.7,197.3,113.9,197.4,113.3,197.3z"/>
	<path class="st4" d="M125.5,196.6c0.2-0.6,0.4-1.1,1.2-0.9c0.5,0.2,0.6,0.7,0.4,1.1c-2.1,6.7,2.5,9.9,6.9,13.1
		c0.7,0.5,2.1,0.7,1.6,1.7c-0.6,1.2-1.9,0.5-2.7,0.1c-2.1-1.1-3.4-3.1-5.1-4.7c-2-2-2.8-4.7-4.6-6.9c-0.4-0.5-0.6-1.3,0.3-1.7
		c0.1,0.7,0,1.7,0.9,1.8c1.1,0.1,1.2-1.1,1.5-1.9C126.3,197.7,126.8,196.9,125.5,196.6z"/>
	<path class="st4" d="M84.1,199.3c1.7,0,2.2,0.5,2.3,1.7c0.2,1.7-1.3,2-2.2,2.7c-0.8,0.7-1.3-0.2-1.9-0.7c-0.7-0.6-1.5-0.8-2.4-0.9
		c-0.4,0-0.7-0.2-0.8-0.7c0-0.4,0.2-0.6,0.5-0.7C81.2,200.2,82.9,199.7,84.1,199.3z"/>
	<path class="st4" d="M93.2,198.5c0.8,0,1.4-0.1,1.5,0.6c0.1,0.7,0.2,1.5-0.6,1.8c-0.9,0.3-1.3,0.7-1.2,1.6c0,0.2,0,0.4-0.2,0.5
		c-1.5,1.1-2-0.7-2.9-1.2c-0.8-0.4-1-1.4-0.2-1.9C90.7,199.2,92.1,198.9,93.2,198.5z"/>
	<path class="st4" d="M101.8,198.4c0.7-0.3,1.7-0.9,2.2-0.3c0.7,0.8,0.3,1.7-0.6,2.4c-0.6,0.5,0,1,0.3,1.4c0.3,0.3,0.6,0.7,0.3,1.1
		c-0.4,0.4-0.9,0.1-1.2-0.1c-1.2-0.7-2.4-1.4-3.4-2.3c-0.5-0.5-1.1-1.4,0.3-1.8c0.2,0.7,0,1.9,1.3,1.6
		C102.1,200.2,102.3,199.4,101.8,198.4z"/>
	<path class="st4" d="M174.4,175.2c-1.9,1.3-3.5,0.8-5,0.9c-1.7,0.2-3.3-0.5-5,0c-0.4,0.1-0.9,0-1-0.6c0-0.6,0.5-0.8,0.9-0.7
		C167.5,175.2,170.7,174.7,174.4,175.2z"/>
	<path class="st4" d="M176.2,199c-0.1,0.7-0.1,1.7-1.3,1.8c-1.2,0.1-1.2-0.9-1.3-1.7c0-0.1,0-0.2,0-0.4c0-0.8-0.9-1.9,0.5-2.3
		C175.1,196.1,176.2,197.6,176.2,199z"/>
	<path class="st4" d="M149.2,200.9c-0.6-1.8-1.3-3.2,0-4.5c0.3-0.3,0.6-0.5,1-0.4c0.5,0.2,0.6,0.7,0.5,1.1
		C150.4,198.3,150.1,199.5,149.2,200.9z"/>
	<path class="st6" d="M156,226.3c-0.1,1,0.2,2,0.4,3c0.1,0.5,0.2,1.1-0.5,1.2c-0.6,0.1-0.6-0.5-0.6-0.9c-0.1-1.5-0.3-3-0.3-4.5
		c0-0.5-0.1-1.2,0.6-1.1c0.6,0,0.5,0.6,0.5,1.1C156.1,225.5,156,225.9,156,226.3z"/>
	<path class="st4" d="M144.1,398.8c0-0.9,0.1-1.7,1-1.6c0.8,0.1,0.9,0.8,0.8,1.4c-0.1,0.7,0,1.8-0.8,1.8
		C144,400.5,144.3,399.3,144.1,398.8z"/>
	<path class="st4" d="M144.1,383.6c0.1-0.6-0.1-1.5,0.7-1.5c1.1-0.1,1,1,1.1,1.7c0.1,0.6-0.1,1.4-0.8,1.4
		C144.1,385.2,144.1,384.3,144.1,383.6z"/>
	<path class="st4" d="M161.3,197.8c0-0.8,0-1.6,0.7-1.5c1.1,0.1,1.3,1.1,1.2,2c-0.1,0.9-0.1,2.4-1,2.2
		C161,200.2,161.7,198.6,161.3,197.8z"/>
	<path class="st4" d="M245,419.7c0.6,0.1,0.7,0.5,0.7,0.9c0.1,0.4-0.1,0.9-0.6,0.9c-0.5,0-0.6-0.5-0.6-0.9
		C244.5,420.3,244.4,419.9,245,419.7z"/>
	<path class="st4" d="M187.4,160.3c0,0.8-0.5,1.2-1.1,1.1c-0.9-0.1-2.1-0.1-2.2-1.3c-0.1-1,1-0.9,1.7-1
		C186.7,159,187.2,159.6,187.4,160.3z"/>
	<path class="st4" d="M171.4,159.5c-0.6-0.1-1.5,0.1-1.5-0.7c0-0.9,0.9-1,1.5-1.1c0.7-0.1,1.4,0.3,1.4,1
		C172.8,159.6,172,159.4,171.4,159.5z"/>
	<path class="st4" d="M43.6,177.4c-0.1,0.7-0.5,0.9-1.1,0.9c-0.7,0-1.4-0.3-1.5-1.1c-0.1-0.6,0.5-0.7,1-0.8
		C42.8,176.5,43.4,176.6,43.6,177.4z"/>
	<path class="st4" d="M263.4,178.3c-0.2,0.7-0.6,1.2-1.4,1.1c-0.6-0.1-1.1-0.4-1.1-1.1c0.1-0.8,0.8-1,1.6-1
		C263.1,177.3,263.4,177.6,263.4,178.3z"/>
	<path class="st4" d="M114.7,223.3c0.8,1.8,0.9,3.6,0.7,5.5C114.6,227,114.4,225.2,114.7,223.3z"/>
	<path class="st4" d="M127.3,159.1c-0.1,0.7-0.3,1.2-1,1.2c-0.7,0-0.9-0.6-0.9-1.2c0-0.7,0.3-1.3,1.1-1.2
		C127.2,158,127.3,158.6,127.3,159.1z"/>
	<path class="st4" d="M132.9,364.7c0.3-0.9,0.4-1.7,0.1-2.7c-0.2-0.7-0.3-1.6,0.4-2.2c0.2,1.1,0.5,2.1,0.6,3.2
		C134.2,363.8,134.1,364.7,132.9,364.7z"/>
	<path class="st4" d="M108.4,231.3c-1.1-0.2-0.7-1.2-0.7-1.8c0-1,0.1-2.1,0.1-3.1C108.5,228,108.6,229.6,108.4,231.3z"/>
	<path class="st4" d="M120.1,329.8c-0.9-1.5-0.8-3.1-0.7-4.8C120.7,326.5,120.8,328.1,120.1,329.8z"/>
	<path class="st4" d="M107.7,225.7c-0.6-1.9-0.8-3.8-0.6-5.8C107.9,221.8,107.7,223.7,107.7,225.7z"/>
	<path class="st4" d="M258.5,179.1c-0.1,0.7-0.6,0.9-1.3,0.8c-0.5,0-0.9-0.2-0.9-0.8c0.1-0.8,0.7-0.8,1.3-0.8
		C258.1,178.4,258.5,178.5,258.5,179.1z"/>
	<path class="st4" d="M106.5,218.5c-0.9-0.1-1.4,0.4-1.7,1.2c-0.9-1-0.2-1.7,0.6-2.1C106.4,217.1,106.5,217.8,106.5,218.5z"/>
	<path class="st4" d="M130,363.6c0.4,0.4,1,0.6,1.1,1.3C129.7,365.1,129.7,365.1,130,363.6z"/>
	<path class="st4" d="M108.8,234c-0.5-0.5-0.5-1-0.3-1.6C109.3,232.8,109.3,233.3,108.8,234z"/>
	<path class="st4" d="M114.4,221.1c0.3,0.5,0.5,1,0.2,1.5C114.2,222.2,114.1,221.7,114.4,221.1z"/>
	<path class="st4" d="M130,361c0.5,0.5,0.4,1,0,1.5C129.6,362,129.6,361.5,130,361z"/>
	<path class="st4" d="M129.3,356.1c0.4,0.5,0.4,1,0.1,1.6C128.8,357.2,128.8,356.6,129.3,356.1z"/>
	<path class="st4" d="M120.8,333.1c-0.5-0.3-0.5-0.7-0.3-1.2C121.3,332.1,121.4,332.5,120.8,333.1z"/>
	<path class="st4" d="M105.1,221.1c0.4,0.3,0.4,0.7,0.3,1.2C104.6,222,104.5,221.6,105.1,221.1z"/>
	<path class="st4" d="M119.6,268c0.4,0.3,0.4,0.7,0.1,1.1C119.4,268.8,119.3,268.4,119.6,268z"/>
	<path class="st4" d="M211,157.8c-0.3,0.2-0.6,0.3-0.9,0.2c-0.1-0.3,0-0.5,0.3-0.5C210.6,157.3,210.9,157.4,211,157.8z"/>
	<path class="st4" d="M132.3,388.2c0.3,0.2,0.5,0.4,0.2,0.7C132,388.8,132,388.5,132.3,388.2z"/>
	<path class="st4" d="M121.2,334.6c-0.4-0.2-0.5-0.5-0.2-0.9C121.5,333.9,121.7,334.1,121.2,334.6z"/>
	<path class="st4" d="M120.4,331.2c-0.4-0.2-0.6-0.4-0.2-0.8C120.8,330.5,120.9,330.7,120.4,331.2z"/>
	<path class="st4" d="M133.4,359.4c-0.1,0-0.2-0.1-0.3-0.1c0.1,0,0.2-0.1,0.3-0.1l0.1,0.1L133.4,359.4z"/>
	<path class="st3" d="M238,164.7c-1.1-0.4-2.3-0.3-3.6-0.3c-1.6,0-2.8-0.5-3.3-2.2c-0.2-0.8-0.8-1.5-1.2-2.3
		c-0.6-1.1-0.6-2.1,0.7-2.8c0.8-0.4,1.3-1.2,0.5-2.2c-0.4-0.4-0.4-0.9-0.1-1.4c0.3-0.4,0.7-0.5,1.2-0.4c0.7,0.1,0.8,0.7,0.9,1.3
		c0.3,1.4,0.4,2.8-0.6,4.1c-0.4,0.5-0.4,1.4-0.5,2.2c-0.1,0.9,0,1.7,0.9,2.1c1,0.4,1.1-0.6,1.5-1.1c0.9-1.1,1.5-0.5,1.9,0.4
		c0.3,0.8,0.6,1.5,1.5,0.5c0.4-0.4,1-0.7,1.5-0.3c0.5,0.4,0.6,1,0.4,1.6C239.4,164.6,238.8,164.7,238,164.7z"/>
	<path class="st3" d="M241.2,157.6c-0.4,0.4-0.5,0.9-0.5,1.5c-0.8,0-0.9,1.5-1.8,0.9c-0.9-0.6-0.5-1.6-0.3-2.4
		c0.1-0.3,0.1-0.6,0.2-0.9c0.2-2.4,1.2-3.1,3.5-2.3c0.4,0.1,0.9,0.2,0.9,0.8c0,0.4-0.4,0.5-0.8,0.7
		C241.1,156.3,241.1,156.3,241.2,157.6z"/>
	<path class="st3" d="M247.9,166.7c-0.2,0-0.4-0.1-0.7-0.1c-1.2-0.6-1.2-1.3-0.5-2.4c0.6-1,0.9-1.2,1.7-0.2c1.1,1.2,3,1.4,4.2,2.6
		c0.2,0.2,0.6,0.2,0.7,0.6c-0.6,0.6-1.4,0.1-2.1,0.4c-0.8-0.2-1.6-0.4-2.5-0.6C248.5,166.4,248.3,166.2,247.9,166.7z"/>
	<path class="st3" d="M251.7,170.6c0.4,0,0.7,0,1.1,0c-0.4,1.5-1.6,0.7-2.5,0.8c-1.1,0-2.3-0.5-3.5,0c-0.8,0.3-1.5-0.2-1.8-0.9
		c-0.4-1,1-0.4,1.1-1.1c1.6,0,3.2,0.6,4.7,1C251,171,251.3,171.1,251.7,170.6z"/>
	<path class="st3" d="M51.9,165.8c0.6,0.3,1.2,0.6,1.9,0.6c0.8,0,1.8,0.1,1.8,0.9c0,1-1.1,0.4-1.7,0.5c-0.5,0.1-1,0.2-1.4,0.5
		c-0.4,0.3-0.7,0.2-0.9-0.2c-0.3-0.6-0.5-1.1-0.4-1.8C51.2,165.9,51.5,165.7,51.9,165.8z"/>
	<path class="st3" d="M58.9,163.7c0.9-0.2,1.1,0.6,1.7,1.1c-0.2,1.4-1.8,2.3-3,1.9c-0.5-0.1-0.8-0.4-0.8-0.9c0-0.6,0.3-1,0.9-0.9
		C58.4,164.8,58.9,164.6,58.9,163.7z"/>
	<path class="st3" d="M235,157.7c0-0.3,0-0.4,0-0.5c0.2-0.8,0.4-1.6,1.1-2.1c0.3-0.2,0.7-0.1,1,0.3c0.5,0.8,0.2,1.6-0.2,2.3
		c-0.1,0.1-0.1,0.2-0.2,0.3c-0.3,0.5-0.2,1.5-1,1.3C235,159.1,235.1,158.2,235,157.7z"/>
	<path class="st3" d="M221.8,200c-0.3-0.2-0.7-0.3-1-0.5c-0.1-0.2-0.1-0.5-0.2-0.7c-0.4-0.7-1-1.6,0.1-2c0.9-0.4,1.4,0.6,1.7,1.3
		C222.7,198.8,223.3,199.8,221.8,200z"/>
	<path class="st3" d="M159.1,281.8c0.4-0.1,0.8-0.1,1.3-0.2c0-0.9,0-1.9,0-2.8c0-1-0.2-1.8-1.4-1.8c-1.1,0-2.5,0-2.6,1.6
		c0,1.1,0,2.3,0,3.4c0.3,0,0.7,0,1,0C157.9,281.9,158.5,281.8,159.1,281.8z"/>
	<path class="st3" d="M160.3,268.1c0,1.4,0,2.9,0,4.3c0,0.8-0.1,1.8-1.1,1.6c-1-0.2-2.7,0.4-2.8-1.4c-0.1-3.1-0.2-6.1-0.1-9.2
		c0.1-1.4,1.5-1.4,2.5-1.5c1.1-0.1,1.4,0.7,1.5,1.5C160.3,265,160.3,266.6,160.3,268.1C160.3,268.1,160.3,268.1,160.3,268.1z"/>
	<path class="st3" d="M160.4,329.3c0,1.3,0,2.5,0,3.8c0,1.3-0.5,2-1.9,2c-1.3,0-2.2-0.4-2.2-1.8c0.2-3-0.1-5.9-0.1-8.8
		c0-1,0.5-1.5,1.5-1.5c1,0,2.2-0.2,2.3,1.2C160.3,325.9,160.3,327.6,160.4,329.3z"/>
	<path class="st3" d="M133,339.1c0.6,0,0.8-0.8,1.3-0.9c0.9,2.2,0.8,2.6-0.9,2.8C133,340.4,132.9,339.7,133,339.1z"/>
	<path class="st3" d="M133.7,277.2c1.6,1.4,1.5,1.8,0,2.7C133.2,279,132.9,278.1,133.7,277.2z"/>
	<path class="st3" d="M133.7,262.1c1.6,1.1,1.6,1.5,0,2.3C132.9,263.6,133.2,262.9,133.7,262.1z"/>
	<path class="st3" d="M134.9,344.1c-0.1,0.4,0.1,1.1-0.5,1.1c-0.8,0-0.6-0.8-0.7-1.3c0-0.4,0-1,0.6-1
		C135,343,134.8,343.7,134.9,344.1z"/>
	<path class="st3" d="M133.4,324.2c0.1-0.5,0.2-0.9,0.8-0.8c0.6,0.1,0.7,0.7,0.7,1.2c0,0.4-0.1,1-0.7,0.8
		C133.6,325.2,133.5,324.7,133.4,324.2z"/>
	<path class="st3" d="M134.5,234c-0.6,0-0.7-0.3-0.8-0.8c0-0.4,0-1,0.5-1c0.6-0.1,0.9,0.4,1,0.9C135.2,233.5,135,233.8,134.5,234z"
		/>
	<path class="st3" d="M134.5,349c0.6,1.1,0,1.9-0.2,2.7C134.3,350.8,134,350,134.5,349z"/>
	<path class="st4" d="M251.7,170.6c-0.4,0.5-0.7,0.4-0.9-0.2C251.2,170.1,251.5,170.2,251.7,170.6z"/>
	<path class="st4" d="M247.9,166.7c0.4-0.5,0.7-0.3,0.9,0.2C248.4,167.1,248.1,167.1,247.9,166.7z"/>
	<path class="st3" d="M133.8,387.5c-0.2-0.6-0.3-1.2-0.5-1.9c0.3-0.5,0-1.5,1-1.3c0.6,0.1,0.8,0.8,0.8,1.3
		C135.2,386.6,134.9,387.4,133.8,387.5z"/>
</g>
<path class="st8" d="M289.5,249.3"/>
<path class="st8" d="M456,448.7"/>
</svg>
