<?xml version="1.0" encoding="utf-8"?>
<!-- Generator: Adobe Illustrator 23.1.0, SVG Export Plug-In . SVG Version: 6.00 Build 0)  -->
<svg version="1.1" id="Layer_1" xmlns="http://www.w3.org/2000/svg" xmlns:xlink="http://www.w3.org/1999/xlink" x="0px" y="0px"
	 viewBox="0 0 300 300" style="enable-background:new 0 0 300 300;" xml:space="preserve">
<style type="text/css">
	.st0{fill:#DE7F66;stroke:#231F20;stroke-width:4;}
	.st1{fill:#FDD07C;}
	.st2{fill:none;stroke:#FDD07C;stroke-width:2;}
	.st3{clip-path:url(#SVGID_2_);fill:#244F6A;}
	.st4{clip-path:url(#SVGID_2_);fill:#7EC6D0;}
	.st5{clip-path:url(#SVGID_2_);fill:#FDD07C;}
	.st6{clip-path:url(#SVGID_2_);fill:#F6B250;}
	.st7{clip-path:url(#SVGID_2_);fill:#FFFFFF;}
	.st8{fill:none;stroke:#231F20;stroke-linecap:round;stroke-linejoin:round;}
</style>
<ellipse transform="matrix(0.1786 -0.9839 0.9839 0.1786 -23.4137 269.3495)" class="st0" cx="149.6" cy="148.7" rx="115.9" ry="115.9"/>
<path class="st1" d="M182.2,96.4c1,3.9,0.2,4.5,3,4.9c2.8,0.4,6.7,1.1,6.3,2.4c-0.4,1.3-0.8,1.3-3.4,3.4c-2.6,2-5,2.9-5.9,5.4
	c-0.9,2.4-3.2,5.7,4.7,8.9c2.6,1.1,6,2.4,9.6,3.7c0.7-1.3,1.1-1.9,1.2-2.1c0.2-0.3,0.6-0.7,2-0.4c1.4,0.3,2.1,0.4,2.7,0.8
	c0.7,0.3,1.8,0.3,1.3,1.3c-0.3,0.5-0.7,1.7-1,2.7c5,1.8,9.6,3.5,12.4,4.4c6,2.1,20.5,6.1,25.2,8.5c4.7,2.3,8.8,3.6,10.2,4.6
	c1.4,1,2.1,1,1,5.5c-1.1,4.6-2.1,8.3-2.1,8.3H144.2v-64L182.2,96.4z"/>
<ellipse transform="matrix(0.1786 -0.9839 0.9839 0.1786 -23.4137 269.3495)" class="st2" cx="149.6" cy="148.7" rx="115.9" ry="115.9"/>
<g>
	<defs>
		<rect id="SVGID_1_" x="-30.1" y="0.5" width="363.6" height="298.2"/>
	</defs>
	<clipPath id="SVGID_2_">
		<use xlink:href="#SVGID_1_"  style="overflow:visible;"/>
	</clipPath>
	<path class="st3" d="M246.7,170.7c-0.2,0.1-0.4,0.1-0.6,0.2c-0.3-0.2-0.6-0.2-0.9,0.2c-1.9,0.2-3.6,1.1-5.5,1.2
		c-0.8,0-0.9,0.6-0.9,1.1c-0.4,3.1-1.6,5.9-2.1,9c-0.8,1.6-1.8,1.8-3,0.4c-0.1-0.2-0.4-0.2-0.7-0.2c-3.6-0.5-7.1-1.4-10.8-1.7
		c-6.4-0.4-12.9-1.1-19.3-1c-1.3,0-1.6,0.2-1.3,1.7c0.8,3,0.9,6.1-1.5,8.7c-0.4,0.4-1.2,0.8-0.8,1.4c0.5,0.6,1.3,0.2,1.8-0.2
		c2-1.3,4-2.7,6-4c1.3-0.4,1.1-1.5,1-2.4c0.2-0.8-0.2-1.1-0.9-1.3c-0.5-0.1-0.9-0.3-0.6-0.9c0.3-0.6,0.9-0.5,1.2-0.1
		c0.6,0.6,1.3,0.8,2.1,0.8c0.8,0.1,1.1,0.6,0.9,1.4c-0.5,2.7-1.1,5.3-4.2,6.5c-0.5,0.2-1.1,0.7-0.9,1.4c0.3,0.8,1,0.5,1.6,0.4
		c3-0.7,5.5-2.1,7.6-4.3c0.4-0.4,0.8-0.9,1.4-1.1c0.5,0.1,0.9,0.2,1.4,0.3c0.4,0.9,0,1.4-0.6,2.1c-1,1-2.5,1.2-3.2,2.4
		c-0.5,0.7-2.1,0.6-1.7,1.7c0.4,1,1.7,0.3,2.6,0.5c0.4,0.1,0.9,0.2,1,0.6c0.2,0.5-0.2,0.8-0.6,1c-0.2,0.2-0.6,0.3-0.5,0.7
		c0.7,0.4,1.4-0.2,2.1-0.1c3.2,0.4,6.3,0.6,9.4-0.3c0.8-0.2,2-0.5,2.6,0.2c0.6,0.7-1,0.9-0.9,1.7c-1.5,0.3-3.1,0.6-4.6,1
		c-0.6-0.2-1.2-0.4-1.5,0.4c-0.3,0-0.6,0.1-0.9,0.1c-0.4-0.3-0.7-0.3-0.9,0.2c-0.8,0.1-1.6,0.1-2.4,0.2c-0.6-0.3-1.2-0.5-1.6,0.2
		c-0.5,0-0.9,0.1-1.4,0.1c-0.2-0.2-0.3-0.5-0.5-0.5c-3.9,0.5-7.3-2-11.3-1.8c-2.9,0.1-5.8-0.4-8.8-0.2c-0.8,0-1.9-0.2-1.5,1.2
		c-0.2,0.9-0.4,1.9-0.6,2.8c-0.1,0-0.2,0-0.3,0.1c0.1,0.1,0.2,0.2,0.2,0.3c0.1,0.1,0.1,0.2,0,0.3c-0.4,0.2-0.7,0.5-0.7,1
		c-0.2,2-0.5,3.9-0.7,5.9c-0.1,0.6,0.2,1.3-0.9,1.8c0-2.3-0.1-4.3,0-6.4c0.1-1.5-0.5-2-1.9-1.9c-1,0.1-1.9,0.1-2.9,0.1
		c-4.3-0.1-8.6,0.7-12.9,0.3c-1-0.1-1.6,0.9-2.8,0.5c-2.3-0.8-3.7,0.3-3.4,2.7c0.1,0.9,0,1.7-0.1,2.5c-0.2,1.4,0.2,2.1,1.8,1.5
		c0,0.6,0,1.2,0,1.8c-1.4,0-1.8,0.7-1.8,2.1c0.1,2.8,0.4,5.7,0.1,8.5c-0.1,1.6,0,2.5,1.6,3c-0.1,1.4,0.1,2.8-0.2,4.1
		c-0.5-0.2-1.1-0.2-1.1,0.4c-0.1,1.3-0.6,2.8,1.2,3.6c0,0.5-0.1,0.9-0.1,1.4c-0.8-0.1-1.1,0.4-1.1,1c0,0.7,0.2,1.2,1,1.2
		c0.4,1.6,0.4,3.3,0.3,5c-0.2,0.1-0.4,0.2-0.5,0.4c-0.1,0.3,0.1,0.5,0.5,0.5c0.2,0.6,0.1,1.2-0.2,1.8c-0.5-0.1-1.1-0.1-1,0.5
		c0.1,0.7-0.2,1.8,1,2c0.6,1,0.4,1.9,0.1,2.9c-1.7,0.2-1.2,1.5-1.3,2.5c-0.1,1,0.4,1.5,1.4,1.4c0.4,0.8,0.5,1.7,0.2,2.6
		c-0.2,0.1-0.4,0.1-0.5,0.2c-1,2.6-1.1,5.3-0.9,8c0,0.6,0.4,1,1.1,0.9c0,0.2,0,0.5,0.1,0.7c-1.5,1,0,1.6,0.4,2.3
		c0.2,1.1,0.1,2.2-0.4,3.2c-0.9,0.4-1.6,3.5-0.8,4.4c0.9,1,0.9,1.7,0.1,2.8c-1,1.3-0.4,2.8,1.1,3.4c0,0.8,0.1,1.7,0.1,2.5
		c-1.3,0.3-1.8,1.1-1.8,2.5c-0.1,3,0.5,6,0,9.1c-0.2,1.1,0.4,1.8,1.6,1.4c0.2,0.8,0.3,1.6,0.1,2.4c-2.3,0.4-1.9,2.2-1.6,3.7
		c0.2,0.9-0.1,2.4,1.6,2.3c0,0.3,0,0.7,0,1c-0.5,0-1.3-0.2-1.5,0.3c-0.5,1.4-0.2,2.8-0.3,4.3c0,1.1,1.1,0.9,1.7,1.3
		c0.1,0.5,0.1,0.9,0.2,1.4c-0.9,0.8-0.2,2.4-1.7,3.1c-0.5,0.2-0.7,2.5,0.2,3.1c1.5,1.1,1,1.6,0.1,2.6c-1.2,1.3-0.6,3.4,1,3.6
		c0.1,0.3,0.1,0.7,0.2,1c-0.5,0.6,0.1,1.6-0.5,2c-1.4,0.9-1.1,1.9-0.3,3c0.2,0.2,0.3,0.7,0.2,0.8c-1.3,1.7,0.1,3.5-0.2,5.2
		c-0.7,1.6-1.9,2.7-3.6,3.3c-0.2-0.2-0.2-0.1-0.2,0.1c-0.3,0.1-0.6,0.2-1,0.2c-0.1-0.5-0.4-0.6-0.9-0.5c-0.6-0.4-1.2-0.8-1.9-1.2
		c0.5-1.4,1.2-2.6,1.1-4.3c-0.2-2.7-0.8-5.5,0.9-8.1c0.3-0.4,0.1-0.8-0.2-1.1c-0.4-0.4-0.7-0.7-0.7-1.2c-0.1-3.4-0.9-7-0.1-10.1
		c0.5-2.1,0.3-3.7,0-5.7c-0.4-3-0.1-6.2-0.2-9.3c0-1.1,1-1.9,0.7-3c-1.2-3.6-1-7.5-0.5-11c0.4-2.7-0.1-5.1-0.1-7.6
		c0-2.4,0-4.7,0-7.1c0-0.6-0.2-1.3,0.3-1.7c0.8-0.7,0.4-1.4,0.2-2.3c-0.5-2.6-1.3-5.3,0.3-7.9c0.4-0.7,0-1.1-0.4-1.6
		c-0.7-0.6-1.1-1.5-0.6-2.3c0.7-1.2,0.4-2.3,0.3-3.5c-0.1-4.3-0.8-8.6,0.4-12.8c0.1-0.4,0-0.9-0.2-1.2c-0.5-0.8-0.4-1.7-0.4-2.7
		c0.2-3.7-0.1-7.4,0.2-11.1c0.2-2.6-0.5-5.3-0.3-7.9c0-0.3-0.1-0.5-0.4-0.5c-0.5,0.3-0.5,0.8-0.6,1.3c-0.3,3.5,0.9,7.1-0.4,10.6
		c0,0.1,0,0.2,0,0.4c0.6,3.4,0.2,6.9,0.4,10.4c0.1,2-0.5,2.4-2.6,2.3c-1.5-0.1-2.3-1-1.9-2.6c0.4-1.8,0.1-3.5,0.2-5.3
		c0.1-1.9,0.2-3.8,0.4-5.8c0.2-1.8-0.8-3.7-0.5-5.8c0.2-1.3,0-2.7,0-4c0-0.6,0-1.3-0.8-1.6c-0.5,0.6-0.3,1.2-0.3,1.8
		c-0.1,2.5,0.4,5,0.2,7.4c-0.3,5.3-0.3,10.5-0.3,15.8c0,6,0,12,0,18c0,5.6,0,11.3,0,16.9c0,9.5,0,18.9,0.1,28.4
		c0,3.2,0.1,6.4,0.2,9.7c0,0.8,0.2,1.7-1.2,1.5c0-0.5-0.1-0.9-0.1-1.4c0.4-0.6,0.4-1.1-0.3-1.6c0-0.2-0.1-0.4-0.1-0.6
		c0.4-0.5,0.1-0.8-0.2-1.2c-0.4-7.5-1.2-14.9-1.4-22.4c-0.2-7.3-0.7-14.6-1.1-21.8c-0.3-5.1-0.7-10.2-0.8-15.2
		c0-3.3-0.4-6.5-0.4-9.8c-0.3-1.2,1.3-2.6-0.2-3.8c-0.4-1.3-0.1-2.7-0.2-4c0.3-0.7,0.2-1.5-0.1-2.2c-0.1-4-0.2-8-0.3-12
		c0.5,0,0.9,0,1.3,0.4c0.3,0.3,0.7,0.6,1.1,0.2c0.3-0.3,0.3-0.6,0.2-1c-0.2-0.6-0.6-0.8-1.1-0.6c-0.6,0.2-1-0.1-1.6-0.3
		c-0.5-2.6-0.2-5.3-0.5-8c-0.4-3.2,0-6.5-1-9.6c0.5-1.5,0.1-3,0.2-4.5c0-0.5-0.2-1-0.8-1c-0.6,0-0.7,0.5-0.8,1
		c-0.1,2.1-0.5,4.2-0.3,6.3c0.1,1.5-0.2,3.2,0.8,4.6c0.1,0.6,0.1,1.1,0.2,1.7c-0.6,1.3-0.8,2.6,0.2,3.8c0.2,5.5,0.4,10.9,0.6,16.4
		c-1.3,0-1.7-0.6-1.6-1.8c0.4-4.1-0.1-8.2-0.2-12.3c-0.1-3.8-0.6-7.7-1.5-11.5c-0.3-1.4,0.3-2.8-0.5-4.1c-0.4-0.6-0.7-1.6-1.5-1.4
		c-0.7,0.2-0.4,1.2-0.4,1.8c-0.1,11.4,0.1,22.8,1,34.2c0.5,5.7,0.4,11.4,0.8,17.1c0.6,9,0.6,18.1,1.3,27.1c0.3,3.7,0.2,7.4,0.3,11.1
		c0.2,4,1,8.1-0.1,12.1c-0.1,0.4,0.1,1,0.2,1.4c0.5,1.4,0.7,2.8,0.6,4.3c0,1.8-0.1,3.5,0.2,5.3c0.2,1.1,0.2,2.1-0.6,3.1
		c-0.6,0.7-0.6,1.6,0,2.3c0.8,0.9,1,2,1,3c0.3,5,0.5,10,0.7,15.1c0.3,10.1,0.8,20.2,0.9,30.2c0.1,9.9,0.4,19.8,0.6,29.7
		c0,1.1,0.4,2.5-0.3,3.4c-1.6,1.9-0.9,4.2-1.1,6.3c-0.1,1-0.1,2.1-0.1,3.1c-6,0-11.9,0-17.9,0c0.6-1.8,0.5-3.6-0.1-5.4
		c-0.4-1.3-0.3-2.5,0.5-3.5c0.6-0.8,0.7-1.6,0.7-2.5c-0.1-7.9-1-15.7-1.2-23.6c0-2.2-0.3-4.4-0.4-6.5c-0.2-3.9-0.9-7.7-1.3-11.6
		c-0.6-6.6-1.7-13.2-2.5-19.8c-0.4-3.5-1.5-6.9-1.5-10.5c0-1.5,0.2-3.2-0.7-4.6c-0.2-2.4,0.2-4.8-0.4-7.2c0.5-0.4,0.3-0.7-0.2-0.8
		c0-0.2-0.1-0.4-0.1-0.6c0.5-0.5,0.5-0.9-0.3-1.2c0-0.2-0.1-0.4-0.1-0.6c0.5-0.4,0.4-0.6-0.2-0.7c0-0.2,0-0.4,0-0.6
		c0.6-1.7,0.5-3.2-0.7-4.6c0-0.2-0.1-0.4-0.1-0.7c0.9-1.6-0.2-3.6,0.9-5.8c0.7,4.9,1.4,9.4,2.1,13.8c0.4,2.3,0,4.6,0.9,6.8
		c0.3,0.6,0.4,1.5,1.1,1.4c0.8-0.1,0.5-1,0.5-1.5c0.1-3.7-0.5-7.3-0.9-10.9c-0.7-7.8-1.7-15.7-2.3-23.5c-0.1-1.7-1.1-3.2-0.7-5
		c0.3-1.1,0.1-2.3-0.1-3.4c-0.5-4-0.9-7.9-1.3-11.9c-0.4-4.1-0.7-8.2-1.2-12.3c-0.7-6.5-1.7-13-2.4-19.5c-0.7-6.6-1.8-13.2-2.6-19.8
		c-0.1-0.4,0-1-0.6-1c-0.6,0-0.8,0.6-0.8,1.1c0,0.4,0.1,0.8,0.2,1.2c0.4,2.6-0.9,4.7-1.9,7c-0.9-0.8-0.1-2.1-1.1-2.6
		c-0.1-0.5-0.1-0.9-0.2-1.4c0.5-0.6,0.5-1.1-0.2-1.5c0-0.3-0.1-0.7-0.1-1c0.1-1.6,0.1-3.2-0.6-4.8c0-0.2-0.1-0.5-0.1-0.7
		c0-1.9,0.2-3.8-0.6-5.6c-0.2-0.4-0.4-0.9-0.6-1.3c0-0.7-0.1-1.3-1-0.9c-0.8,0.4-1.5,1-0.6,2.1c0.1,0.5,0.1,0.9,0.2,1.4
		c-0.5,0.5-0.4,0.9,0.2,1.2c0,0.3,0.1,0.7,0.1,1c-0.3,0.3-0.5,0.8-0.8,0.9c-0.4,0.1-0.6-0.4-0.6-0.7c0-1.3-0.8-2.2-1.2-3.3
		c-0.3-0.7-0.1-1.6-1.2-1.4c-1,0.2-1.4,0.9-1.2,1.9c0.5,2.2,0.2,4.5,0.3,6.7c0,0.8-0.1,1.7,0.4,2.3c1.2,1.8,0.9,3.8,1,5.8
		c0,0.8,0.1,1.7,0.3,2.5c0.4,2.3,0.6,4.7,0.9,7c0.1,0.8-0.1,1.2-1,0.9c0-0.6-0.1-1.2-0.1-1.8c0.6-0.5,0.5-0.9-0.2-1.2
		c-0.2-1.6-0.4-3.1-0.6-4.7c0.7-0.5,0.5-0.9-0.2-1.2c-0.4-2.7-0.9-5.3-1.3-8c0.5-0.4,0.4-0.8-0.1-1.2c-0.1-1.2-0.2-2.4-0.3-3.6
		c0.4-0.4,0.3-0.6-0.2-0.8c-0.1-0.7-0.1-1.4-0.2-2.1c0.4-0.4,0.3-0.6-0.2-0.8c-0.1-0.3-0.1-0.7-0.2-1c0.3-1.5,0.1-1.8-1-1.8
		c-0.4,0-0.7,0-1.1-0.1c-1-0.8-2.2-0.5-3.3-0.3c-0.4,0-0.7-0.1-1.1-0.1c-0.2-0.3-0.5-0.3-0.8-0.1c-0.7-0.1-1.4-0.2-2.1-0.3
		c-0.1-0.2-0.3-0.2-0.4,0c-0.2,0-0.4,0-0.7-0.1c-0.2-0.3-0.4-0.4-0.7-0.1c-0.5-0.1-1-0.1-1.5-0.2c-0.2-0.4-0.4-0.5-0.7-0.1
		c-0.4-0.1-0.7-0.1-1.1-0.2c-0.3-0.5-0.7-0.6-1.1-0.2c-0.4-0.1-0.7-0.1-1.1-0.2c-0.2-0.4-0.4-0.6-0.8-0.2c-0.9-0.1-1.7-0.3-2.6-0.4
		c-0.6-0.5-1.2-0.7-1.9-0.3c-0.4-0.1-0.7-0.2-1.1-0.3c0-0.2-0.1-0.2-0.3-0.1c-6-1.4-11.8-3.1-17.4-5.8c-1.1-0.6-2.9-0.9-2.7-2.6
		c0.2-1.5,1.9-1.5,3-1.9c2.1-0.7,4.3-1.4,6.5-1.9c1.3-0.3,1.6-0.8,1.3-2.2c-0.8-3.5-1.5-7-2.2-10.5c0-1.4-0.3-2.8-1.7-3.1
		c-1.9-0.3-3.6-1.1-5.5-1.2c-4.5-0.4-9-1.1-13.5-1.9c-3.5-0.7-7.1-0.9-10.4-2.4c-0.6-0.3-1.2-0.5-1.4-1.3c-0.1-0.5,0.1-1,0.6-1.2
		c1-0.4,1.9-1.1,3-1.3c1.6-0.3,3.2-0.6,4.6-1.4c0.3-0.1,0.7-0.1,1-0.2c3.6-0.2,7-1.2,10.3-2.5c2.3-0.9,4.4-2.3,6.9-2.7
		c3.8-0.5,7.8-0.1,11.5-1.5c0.3-0.1,0.9-0.1,1,0.1c1.1,1.2,2.4,0.6,3.6,0.4c2.1-0.4,4.1-1.1,6.1,0.4c0.3,0.3,0.9,0.2,1.2-0.1
		c1.6-1.3,3.7-0.8,5.5-1.6c0.6-0.3,1.8-0.4,2,0.6c0.2,0.9-0.8,0.8-1.4,1.1c-0.3,0.2-0.9,0.3-0.8,0.8c0.1,0.4,0.6,0.3,0.9,0.3
		c1.7-0.2,3.3-0.7,5-0.6c0.4,0,0.8-0.2,0.8-0.6c0.4-2.9,2.9-1.7,4.5-2.3c0.5-0.2,1.1,0.2,1.4,0.7c0.6,1.3,1.7,1.5,3,1.5
		c1.5,0,2.9,0,4.3-0.3c1.4-0.3,2.2-1.3,2.1-2.9c-0.1-1.5-1.4-0.8-2.1-1c-0.4-0.1-0.8,0-1.3,0c-7.8-0.2-15.6,0.5-23.4,1.1
		c-1.9,0.2-3.8-0.1-5.6,0.2c-2.9,0.4-5.8,0.3-8.7,0.4c-1.4,0.1-2.2-1.2-1.5-2.5c0.2-0.5,0.9-0.9,0.3-1.6c0.1-2-0.5-3.7-2.2-4.8
		c-1.2-2.2-0.7-3.2,1.9-3.5c3.1-0.3,6-1.7,9.2-1.8c2.2-0.1,4.5-0.6,6.8-0.8c3.1-0.2,6.1-0.4,9.2-0.6c2.9-0.2,5.8-0.5,8.7-0.5
		c2.8,0,5.5-1.2,8.5-0.5c1.6,0.4,3.4-0.2,5.1-0.3c10.2-0.2,20.4,0.1,30.6-0.3c4.4-0.2,8.7,0.5,13.1,0.4c3.6-0.1,7.3,0.2,10.9,0.4
		c10.5,0.6,21.1,1.4,31.6,1.7c2.2,0.1,4.7-0.1,6.3,2.1c0.6,0.7,1.5,0.5,1.9-0.4c0.5-1,1.3-1.1,2.3-0.9c2,0.3,4.1,0.5,6.1,0.7
		c1.4,0.1,3-0.2,4.3,0.6c0.6,0.4,1.1,0.8,1.9,0.5c1.2-0.4,1.6,0.3,1.3,1.4c-0.2,0.7-0.5,1.4-0.3,2.1c0.7,2.2-0.9,4-0.7,6.1
		c-1-0.6-0.5-2-1.5-2.4c-2.1-0.9-4.2-1.8-6.6-0.8c-0.4,0.2-0.9,0.6-1.3,0c-0.3-0.4-0.3-1,0.1-1.4c0.8-0.9,0.9-2,1.3-3
		c0.2-0.5,0.3-1-0.2-1.3c-0.5-0.3-1-0.2-1.5,0.1c-1,0.6-0.9,1.6-1,2.6c0,1.3-0.3,2.5-1.7,2.9c-0.9,0.2-1.4,0.5-1.5,1.5
		c0,0.4-0.1,1-0.6,1c-0.5,0-0.4-0.6-0.7-1c0.2-1.1,0.6-2.2-0.6-3.1c-0.1-0.3-0.3-0.4-0.6-0.4c-0.2,0.1-0.3,0.3-0.3,0.5
		c-0.1,0.6-0.1,1.2-0.2,1.9c-0.7,0.6-2-0.2-2.4,1.1c-0.1,0.4,0,1-0.6,0.9c-0.5-0.1-0.6-0.6-0.7-1c-0.4-1.3-1.5-2.1-2.7-2
		c-1.1,0-1.5,1.2-1.8,2.2c-0.2,0.6-0.2,1.3-1.1,1.2c-0.9-0.1-0.6-0.9-0.6-1.5c0.1-1.2-0.2-1.9-1.6-1.4c-0.3,0.1-0.6,0-0.9,0
		c-1.3-0.1-2.3,0-1.8,1.8c0.1,0.5,0,0.9-0.5,0.9c-0.5,0-0.8-0.4-0.9-0.8c-0.1-0.3,0.1-0.6,0.1-0.9c0.1-1.2-0.3-1.6-1.4-0.9
		c-0.6,0.4-1.1,0.7-1.8,0.3c-1.3-0.8-1.9-0.2-1.7,1.1c0.1,1-0.2,1-1,1c-0.9,0-1.9-0.4-2.8,0.4c-6.7,0-13.3,0-20,0
		c-1.1-0.4-2.1,0-3.1,0.3c-3.6-0.1-7.2-0.1-10.8-0.2c-0.4,0-0.8-0.1-1.3-0.1c-8.1,0.1-16.1,0.3-24.2,0.4c-3.4,0.1-6.9,0-10.3,0.3
		c-2.4,0.2-2.4,0.4-1.6,2.7c0,0.1,0.1,0.2,0.1,0.4c-0.1,1.3,0.5,1.4,1.7,1.3c1.9-0.2,3.9-0.6,5.7-0.2c1.8,0.4,3.5,0.6,5.3,0.2
		c0.5-0.1,1.1-0.1,1.6-0.1c2.6,0,5.3,0.8,7.3-1.8c0.4,0.7,0.1,2.1,1.2,1.9c2-0.4,3.9,0.4,5.8,0c2.4-0.5,4.9,0.4,7.1-0.9
		c0.2-0.1,0.7,0.1,1,0.2c1,0.4,2,0.4,3,0.4c2.5,0,5,0.1,7.5,0c1-0.1,1.9,1.2,2.5,0.6c1.4-1.5,2.1-0.3,3.1,0.4
		c0.5,0.4,1.1,0.4,1.7,0.4c3.5,0,7,0,10.6,0c0.9,0,1.8-0.8,2.5-0.2c1.9,1.5,4.1,0.5,6.1,0.6c2.8,0.1,5.6,0.4,8.3-0.2
		c0.3-0.1,0.6,0.1,0.8,0.3c0.9,0.7,2,0.7,3.1,0.7c6.3-0.1,12.5,0.1,18.7,0.9c1.5,0.2,2.9-0.1,4.3-0.1c1.6,0,3,0.8,4.6,0.8
		c3.1,0,6.2,0,9.2,0.5c5.6,1,11.3,1,17,1.6c6.2,0.7,12.4,1.4,18.3,3.4c0.7,0.2,1.5,0.2,1.7,1.2c0.2,1-0.9,1-1.2,1.6
		c-0.3,0.1-0.7,0.2-1,0.4c-0.5-0.1-0.8,0-0.7,0.6c-1.8,0.3-3.5,1.1-5.3,1c-0.6-0.2-1.1-0.3-1.6,0.2c-0.4,0.1-0.9,0.2-1.3,0.2
		c-0.6-0.3-1.1,0.1-1.7,0.3c-0.2,0-0.4,0.1-0.5,0.1c-0.3-0.2-0.6-0.2-0.9,0.2c-0.4,0.1-0.9,0.1-1.3,0.2c-0.3-0.2-0.6-0.2-0.9,0.1
		c-2.3,0.2-4.6,0.4-7,0.7C247.1,170.2,246.9,170.3,246.7,170.7z M131.5,367.3c-0.2,0.3-0.2,0.6,0.2,0.7c0,0.4,0.1,0.9,0.1,1.3
		c-0.5,1.5-0.1,3,0,4.5c0.1,2.2,1.1,4.2,1.3,6.3c0.5,4.7-0.7,9.4,0.7,14.1c0.1,0.2,0,0.5-0.1,0.7c-1,2.2-0.4,4.4-0.5,6.7
		c-0.1,0.9,0.7,1.4,1.6,1.4c1,0,1.1-0.7,1.1-1.5c-0.1-6.4-0.4-12.8-0.1-19.2c0.3-8.3,0.1-16.6,0.1-25c0-2.6,0-2.6-2.6-2.9
		c-2.7-0.3-3.2,0.5-2.1,3.1c0.1,2,0.2,4.1,0.3,6.1c0.1,0.4,0.2,0.8,0.3,1.2C131.4,365.6,131.4,366.4,131.5,367.3z M102.1,184.1
		c-0.7-0.2-1.4-0.3-2,0.4c-1.3,0.4-0.8,1.3-0.3,1.8c1,0.9,2.1,1.5,3.3,2.2c0.3,0.2,0.8,0.5,1.2,0.1c0.4-0.4,0-0.8-0.3-1.1
		c-0.3-0.4-0.9-0.9-0.3-1.4c0.8-0.7,1.2-1.6,0.5-2.3C103.7,183.2,102.8,183.8,102.1,184.1z M123.1,184.2c-0.9,0.4-0.7,1.2-0.3,1.6
		c1.7,2.1,2.5,4.7,4.4,6.6c1.6,1.6,2.9,3.5,4.9,4.6c0.8,0.4,2,1.1,2.6-0.1c0.5-1-0.9-1.2-1.5-1.7c-4.3-3.1-8.7-6.2-6.7-12.6
		c0.1-0.4,0.1-0.9-0.4-1.1c-0.7-0.2-1,0.2-1.1,0.8C124.1,182.7,123.4,183.3,123.1,184.2z M113.2,183c-0.8,0.8-2.7,0.7-2.1,2.6
		c0.3,1.7,1.6,2.8,2.7,3.8c2.3,2.2,4.5,4.4,7.2,6c1.6,0.9,3.1,1.9,4.9,2.3c0.6,0.2,1.3,0.3,1.6-0.5c0.3-0.7-0.4-1.1-0.9-1.4
		c-0.6-0.4-1.2-0.6-1.8-0.8c-3.2-1.1-5.8-3.2-8.2-5.5c-0.6-0.6-1.3-1.3-1.2-2.2c0.3-1.2,0.1-2.4-0.1-3.6c-0.1-0.5,0.3-1.3-0.3-1.5
		C114.3,182.1,113.5,182.3,113.2,183z M196.4,183.7c0.1-0.7-1-0.7-0.8-1.6c0.9-0.2,1.8-0.3,2.7,0.2c1.2,0.7,1.6,0.1,1.8-1
		c0.2-1.4-0.8-1.5-1.8-1.6c-4.6-0.2-9.2,0.6-13.8,0c-2.2-0.3-2.7,0.4-2.6,2.6c0.1,2.5,0.2,5-1,7.3c-0.2,0.3-0.3,0.8,0,1
		c0.5,0.3,0.8-0.1,1-0.4c1-1.4,2.4-2.5,3.1-4.1c1-0.3,0.9-1.1,0.9-1.9c0.3-0.6,0.1-1-0.4-1.4c-0.4-0.3-1.5-0.3-0.9-1.1
		c0.4-0.5,1.5-0.4,1.8,0.1c1,1.7,2.1,0.8,3.2,0.4c1.6-0.7,2.5-0.1,2.7,1.7c0.2,2.4-0.2,4.7-2.1,6.5c-0.3,0.3-1,0.7-0.6,1.2
		c0.5,0.6,1-0.1,1.4-0.3c2.3-1.1,3.7-3.3,6.1-4.3c0.3-0.1,0.3-0.5,0.1-0.8C197.4,185.2,197.7,184.2,196.4,183.7z M121.3,269.9
		c-0.4,0.6-0.5,1.1,0.2,1.5c0.1,0.5,0.1,0.9,0.2,1.4c-0.1,0.9-1,1.8,0.2,2.6c0.1,0.7,0.1,1.5,0.2,2.2c-0.3,0-0.5,0.1-0.4,0.4
		c0.1,0.2,0.3,0.2,0.5,0.4c0,0.2,0,0.5,0.1,0.7c-0.3,0.1-0.3,0.2,0,0.4c0,3.4,0.9,6.6,1.1,9.9c0.6,8.6,2,17.1,2.8,25.7
		c0.7,7.1,1.6,14.2,2.4,21.3c-0.5,0.6-0.5,1.1,0.1,1.5c0.2,1.1,0.3,2.1,0.5,3.2c-0.4,0.5-0.4,1,0,1.5c0,0.4,0,0.7,0,1.1
		c-0.3,1.4-0.2,1.4,1,1.3c0.6-0.1,1.2-0.2,1.8-0.2c1.1,0,1.2-0.8,1.2-1.6c-0.1-1-0.4-2.1-0.6-3.1c0-0.1,0-0.3-0.1-0.4l0.1-0.1
		l-0.1-0.1c0-0.1,0-0.3,0.1-0.4c0.5-1.1,0.2-2.2,0-3.4c-0.1-0.6-0.1-1.4,0.6-1.5c0.7-0.1,1.2,0.7,1,1.2c-0.9,2.3,0.5,4.7-0.5,7
		c-0.2,0.5-0.2,1.1,0.2,1.5c0.3,0.3,0.6,0.4,1,0.2c0.6-0.3,0.6-0.8,0.6-1.4c0.1-3.2,0.2-6.4,0.2-9.6c0.2-9.6,0.1-19.2,0.1-28.8
		c0-10.3-0.1-20.6-0.1-30.9c0-16.3,0-32.6,0-48.9c0-2.4-0.2-4.7-0.1-7.1c0.2-4-0.2-7.9-0.1-11.9c0-1.3-0.5-1.4-1.4-0.8
		c-0.6,0.4-1.1,0.2-1.5-0.2c-0.7-0.6-1.5-0.7-2.4-0.4c-0.8,0.3-1.7,0.3-2.5-0.1c-1.4-0.7-2.7-0.8-4.2-0.4c-2.6,0.6-5.3-0.1-8,0
		c-1,0-1.9,0-1.5,1.4c0,0.4,0,0.7,0.1,1.1c-0.3,0.5-0.2,1,0.2,1.4c0,0.2,0,0.4,0.1,0.6c-0.2,1.8-0.1,3.6,0.7,5.3
		c1,12.7,2.7,25.3,4.1,37.9c-0.3,0.4-0.2,0.8,0.1,1.1c0.3,3,0.6,6.1,0.9,9.1c-0.4,0.4-0.4,0.8,0.1,1.2c0.1,0.5,0.1,0.9,0.2,1.4
		c-0.5,0.7-0.6,1.3,0.2,1.9c0.1,0.5,0.1,0.9,0.2,1.4c-0.5,0.5-0.4,0.8,0.2,1.1C121.2,268.9,121.3,269.4,121.3,269.9z M178.7,161.2
		c-1.3,0-2.7,0-4,0c-0.4,0-0.9,0.2-0.9,0.7c0,0.4,0.4,0.6,0.8,0.6c0.9,0.1,1.8,0.3,2.7,0.3c2.8,0,5.7-0.2,8.5,0.1
		c3.2,0.4,6.4,0.5,9.6,0.7c9.1,0.4,18.3,1,27.4,1.5c4.4,0.2,8.8,1,13.1,1.6c3.2,0.5,6.3,0.9,9.4,2c0.6,0.2,1.4,0.2,1.7-0.6
		c0.2-0.9-0.4-1.3-1.2-1.5c-3.4-1-6.8-1.8-10.4-2.2c-3.7-0.4-7.4-1-11.1-1.3c-3.8-0.4-7.7-1-11.6-0.8c-4,0.2-7.9-0.5-11.8-0.5
		c-2.3,0-4.6,0.1-6.9-0.3C189,160.9,183.8,162.1,178.7,161.2z M85,184.9c-1.1,0.4-2.7,0.9-4.3,1.5c-0.3,0.1-0.5,0.3-0.5,0.7
		c0.1,0.4,0.4,0.6,0.8,0.6c0.8,0.1,1.7,0.2,2.3,0.8c0.5,0.5,1,1.3,1.8,0.7c0.9-0.7,2.3-1,2.1-2.6C87.1,185.4,86.5,184.9,85,184.9z
		 M93.7,184.2c-1,0.4-2.4,0.7-3.5,1.4c-0.8,0.4-0.5,1.4,0.2,1.8c0.9,0.5,1.3,2.2,2.8,1.2c0.1-0.1,0.2-0.3,0.2-0.5
		c-0.1-0.9,0.3-1.3,1.2-1.5c0.8-0.2,0.7-1.1,0.6-1.7C95.1,184.1,94.5,184.2,93.7,184.2z M172.2,161.7c-3.6-0.4-6.7,0-9.7-0.5
		c-0.4-0.1-0.9,0.1-0.9,0.7c0,0.5,0.6,0.7,0.9,0.6c1.6-0.5,3.3,0.2,4.9,0C168.8,162.4,170.4,163,172.2,161.7z M136.4,186.4
		c0.1-0.2,0.3-0.4,0.3-0.6c0.2-0.8,0.3-1.7,0.5-2.5c0.1-0.4,0.1-0.8-0.3-0.9c-0.4-0.2-0.7,0.1-1,0.3
		C134.3,183.7,134.5,184.9,136.4,186.4z M173.9,184.7c0-1.3-1.1-2.8-2-2.5c-1.4,0.4-0.5,1.5-0.5,2.3c0,0.1,0,0.2,0,0.4
		c0.1,0.8,0.1,1.7,1.2,1.7C173.8,186.3,173.8,185.4,173.9,184.7z M147.8,186.4c0.9-1.3,1.2-2.5,1.5-3.6c0.1-0.4,0-0.9-0.5-1.1
		c-0.4-0.2-0.7,0.1-1,0.4C146.5,183.4,147.2,184.7,147.8,186.4z M154.4,211c0-0.4,0-0.8,0-1.3c0-0.4,0-1-0.5-1
		c-0.7,0-0.6,0.6-0.6,1.1c0.1,1.4,0.2,2.9,0.3,4.3c0,0.4,0,1,0.6,0.9c0.7-0.1,0.6-0.7,0.5-1.2C154.6,212.9,154.3,212,154.4,211z
		 M142.9,377.5c0.2,0.5-0.1,1.6,1,1.6c0.8,0,0.8-1.1,0.8-1.8c0-0.6-0.1-1.3-0.8-1.4C142.9,375.9,142.9,376.6,142.9,377.5z
		 M142.9,362.8c0,0.7,0,1.5,0.9,1.5c0.7,0,0.9-0.8,0.8-1.4c-0.1-0.7,0-1.7-1.1-1.6C142.8,361.4,143,362.3,142.9,362.8z M159.5,183.5
		c0.4,0.8-0.3,2.4,0.9,2.6c0.9,0.2,0.9-1.3,1-2.2c0.1-0.9-0.1-1.8-1.2-1.9C159.5,182,159.5,182.7,159.5,183.5z M240.3,397.7
		c-0.5,0.1-0.5,0.6-0.5,0.9c0,0.4,0.1,0.8,0.6,0.8c0.5,0,0.6-0.4,0.5-0.9C240.9,398.2,240.8,397.8,240.3,397.7z M184.7,147.3
		c-0.3-0.6-0.7-1.2-1.6-1.1c-0.7,0.1-1.7,0-1.7,1c0.1,1.1,1.3,1.1,2.2,1.2C184.3,148.4,184.7,148.1,184.7,147.3z M169.2,146.5
		c0.6-0.1,1.4,0.1,1.4-0.8c0-0.7-0.7-1-1.3-0.9c-0.6,0.1-1.5,0.2-1.5,1C167.8,146.6,168.7,146.5,169.2,146.5z M45.9,163.8
		c-0.2-0.8-0.9-0.9-1.5-0.9c-0.5,0-1.1,0.1-1,0.7c0.1,0.8,0.7,1,1.4,1C45.4,164.7,45.9,164.5,45.9,163.8z M258,164.7
		c0.1-0.7-0.3-1-0.9-0.9c-0.7,0-1.4,0.2-1.5,1c-0.1,0.6,0.4,1,1,1.1C257.4,165.8,257.8,165.3,258,164.7z M126.7,146.2
		c0-0.5-0.1-1.1-0.8-1.1c-0.8-0.1-1,0.5-1,1.1c0,0.6,0.2,1.1,0.9,1.1C126.4,147.3,126.6,146.8,126.7,146.2z M253.3,165.5
		c0-0.6-0.4-0.7-0.8-0.7c-0.6,0-1.2,0-1.2,0.8c0,0.5,0.4,0.7,0.8,0.8C252.7,166.3,253.1,166.1,253.3,165.5z"/>
	<path class="st3" d="M109,219.8c1,0.5,0.1,1.7,1.1,2.6c1-2.3,2.3-4.4,1.9-7c-0.1-0.4-0.2-0.8-0.2-1.2c0-0.5,0.2-1,0.8-1.1
		c0.6,0,0.5,0.6,0.6,1c0.8,6.6,1.9,13.2,2.6,19.8c0.7,6.5,1.6,13,2.4,19.5c0.5,4.1,0.8,8.2,1.2,12.3c0.4,4,0.8,8,1.3,11.9
		c0.1,1.2,0.3,2.3,0.1,3.4c-0.4,1.7,0.6,3.3,0.7,5c0.7,7.9,1.6,15.7,2.3,23.5c0.3,3.6,1,7.2,0.9,10.9c0,0.6,0.2,1.4-0.5,1.5
		c-0.8,0.1-0.9-0.8-1.1-1.4c-0.9-2.2-0.5-4.6-0.9-6.8c-0.8-4.4-1.4-8.9-2.1-13.8c-1.1,2.2,0,4.1-0.9,5.8c-1-1.4-0.3-2.9-0.5-4.4
		c-0.6-4.2-1-8.4-1.4-12.6c-0.3-3.4-1.6-6.6-1.4-10c0-0.4-0.1-0.8-0.5-0.8c-0.6,0-0.5,0.6-0.5,1c-0.1,1,0,1.9-0.1,2.9
		c-0.8,7.3-0.5,14.5,0.6,21.7c0.2,1,0.9,1.9,0.7,3.1c-0.4,3.4,0.1,6.8,0.1,10.1c0,1,0.3,2.5,2.2,2c0.8-0.2,1.6,0.6,1,1.6
		c-0.7,1.2-0.6,2.4-0.3,3.7c0.2,1,0.4,2-0.3,3c-0.3,0.5-0.4,1,0.1,1.5c0.3,0.3,0.8,0.4,1.2,0.3c0.7-0.2,0.6-0.8,0.7-1.3
		c0.3-1.5,0.1-3,0.7-4.5c0.9,1.4,0.7,3.1,0.7,4.6c0.1,3.6,1.1,7,1.5,10.5c0.8,6.6,1.9,13.2,2.5,19.8c0.4,3.9,1.1,7.7,1.3,11.6
		c0.1,2.2,0.4,4.4,0.4,6.5c0.2,7.9,1.1,15.7,1.2,23.6c0,0.9-0.1,1.7-0.7,2.5c-0.8,1-0.9,2.2-0.5,3.5c0.6,1.8,0.7,3.6,0.1,5.4
		c-1.8,0-3.6,0-5.5,0c-0.5-1.1-0.4-2.2-0.4-3.4c0.2-10.5-0.1-21.1-1-31.5c-0.6-7.4-1.4-14.7-2.5-22.1c-1.8-12-3-24.1-4.7-36.1
		c-1.3-9-2.4-18.1-3.6-27.1c-1.6-11.3-3.1-22.6-4.6-33.9c-1.1-8.6-2.1-17.2-3.2-25.8c0.9,0.3,1.1-0.1,1-0.9c-0.3-2.3-0.5-4.7-0.9-7
		c-0.1-0.8-0.2-1.7-0.3-2.5c-0.1-2,0.2-4-1-5.8c-0.4-0.6-0.3-1.5-0.4-2.3c-0.1-2.2,0.2-4.5-0.3-6.7c-0.2-1,0.2-1.7,1.2-1.9
		c1.1-0.2,0.9,0.7,1.2,1.4c0.4,1.1,1.2,2.1,1.2,3.3c0,0.3,0.3,0.8,0.6,0.7c0.3-0.1,0.5-0.6,0.8-0.9c0.5,1.9,0.8,3.8,0.9,5.7
		c0.4,5.4,1.3,10.8,1.6,16.3c0.3,4.9,1.1,9.7,1.4,14.6c0.3,4.3,0.7,8.6,1.1,12.8c0.6,5.1,1.6,10.1,1.4,15.2c0,0.8,0.1,1.6,0.7,2.4
		c0.6-0.5,0.7-1.1,0.8-1.7c0.1-3.2,0.2-6.3-0.2-9.5c-1.2-9.1-1.9-18.3-2.8-27.5c-0.2-2.7-0.6-5.4-1-8.1
		C109,225.6,108.5,222.7,109,219.8z M118.2,337.1c0.1,0.6,0,1.1,0.2,1.5c0.2,0.4,0.8,0.9,1.1,0.3c0.4-0.9,0.6-2,0.8-3
		c0.1-0.4-0.3-0.6-0.7-0.7c-0.5-0.1-0.9,0.2-1.1,0.5C118.3,336.2,118.3,336.7,118.2,337.1z M120.9,331.7c-0.1-0.6,0.1-1.5-0.9-1.4
		c-0.7,0.1-1,0.8-0.9,1.5c0,0.7,0.3,1.3,0.9,1.3C120.9,333.2,120.8,332.4,120.9,331.7z"/>
	<path class="st3" d="M145.7,410.7c0-1,0-2.1,0.1-3.1c0.2-2.1-0.5-4.3,1.1-6.3c0.7-0.9,0.3-2.2,0.3-3.4c-0.2-9.9-0.5-19.8-0.6-29.7
		c-0.1-10.1-0.6-20.2-0.9-30.2c-0.2-5-0.4-10-0.7-15.1c-0.1-1.1-0.2-2.2-1-3c-0.7-0.7-0.6-1.6,0-2.3c0.8-0.9,0.8-2,0.6-3.1
		c-0.3-1.7-0.3-3.5-0.2-5.3c0-1.5-0.1-2.9-0.6-4.3c-0.2-0.4-0.4-1-0.2-1.4c1.1-4,0.3-8.1,0.1-12.1c-0.2-3.7,0-7.4-0.3-11.1
		c-0.7-9-0.7-18.1-1.3-27.1c-0.4-5.7-0.3-11.4-0.8-17.1c-0.9-11.4-1.1-22.8-1-34.2c0-0.6-0.4-1.6,0.4-1.8c0.8-0.2,1.1,0.8,1.5,1.4
		c0.8,1.3,0.2,2.7,0.5,4.1c0.9,3.8,1.4,7.7,1.5,11.5c0.1,4.1,0.6,8.2,0.2,12.3c-0.1,1.2,0.3,1.9,1.6,1.8c0.4,0.4,0.3,1,0.4,1.5
		c0.8,17.4,1.6,34.8,2.4,52.3c0.6,12.7,1.3,25.4,1.9,38.1c0.2,5,0.3,9.9,0.5,14.9c1,24,1.6,48,1.4,72c0,0.2,0,0.5,0,0.7
		C150,410.7,147.8,410.7,145.7,410.7z"/>
	<path class="st4" d="M182.1,149.4c0.8-0.8,1.8-0.3,2.8-0.4c0.7,0,1.1,0,1-1c-0.2-1.3,0.4-1.9,1.7-1.1c0.7,0.4,1.3,0.1,1.8-0.3
		c1.1-0.7,1.6-0.3,1.4,0.9c0,0.3-0.1,0.6-0.1,0.9c0.1,0.4,0.4,0.8,0.9,0.8c0.6,0,0.7-0.5,0.5-0.9c-0.5-1.7,0.5-1.8,1.8-1.8
		c0.3,0,0.6,0.1,0.9,0c1.4-0.5,1.7,0.1,1.6,1.4c0,0.5-0.3,1.3,0.6,1.5c0.8,0.1,0.9-0.6,1.1-1.2c0.3-1,0.7-2.2,1.8-2.2
		c1.2-0.1,2.3,0.7,2.7,2c0.1,0.4,0.2,0.9,0.7,1c0.7,0.1,0.5-0.5,0.6-0.9c0.3-1.3,1.7-0.5,2.4-1.1c0.3,0.7,0.6,1.3,1.6,1.1
		c0.2,0.3,0.1,1,0.7,1c0.5,0,0.6-0.6,0.6-1c0.1-1,0.5-1.3,1.5-1.5c1.4-0.3,1.6-1.6,1.7-2.9c0-1,0-2,1-2.6c0.5-0.3,1-0.4,1.5-0.1
		c0.5,0.3,0.4,0.8,0.2,1.3c-0.4,1-0.5,2.1-1.3,3c-0.4,0.4-0.4,0.9-0.1,1.4c0.4,0.6,0.8,0.2,1.3,0c2.4-1,4.5-0.1,6.6,0.8
		c1,0.4,0.5,1.8,1.5,2.4c-0.2-2.1,1.4-4,0.7-6.1c-0.2-0.7,0.1-1.4,0.3-2.1c0.3-1.1-0.1-1.8-1.3-1.4c-0.9,0.3-1.3-0.1-1.9-0.5
		c-1.3-0.8-2.9-0.5-4.3-0.6c-2.1-0.1-4.1-0.3-6.1-0.7c-1-0.2-1.8-0.1-2.3,0.9c-0.5,0.9-1.4,1.1-1.9,0.4c-1.7-2.2-4.1-2-6.3-2.1
		c-10.6-0.3-21.1-1.1-31.6-1.7c-3.6-0.2-7.3-0.4-10.9-0.4c-4.4,0.1-8.7-0.6-13.1-0.4c-10.2,0.4-20.4,0.1-30.6,0.3
		c-1.7,0-3.5,0.7-5.1,0.3c-2.9-0.8-5.6,0.5-8.5,0.5c-2.9,0-5.8,0.3-8.7,0.5c-3.1,0.2-6.1,0.4-9.2,0.6c-2.3,0.1-4.6,0.7-6.8,0.8
		c-3.2,0.1-6.1,1.5-9.2,1.8c-2.6,0.3-3.1,1.3-1.9,3.5c-1.1-0.1-2.2-0.8-3.3-0.1c-1.9,1.2-4.2,1.7-6.2,3c-1.3,0.9-2.1,3.2-1.2,4.5
		c0.3,0.5,0.9,0.8,1.4,0.6c1.8-0.7,3.7-0.7,5.6-0.7c0.1,0.9-0.4,1.1-1.2,1.1c-0.6,0-0.9,0.4-0.9,0.9c0,0.5,0.3,0.7,0.8,0.9
		c1.2,0.4,2.7-0.5,2.9-1.9c0.7-0.1,1-0.5,1-1.2c0-0.4,0.1-0.9,0.5-0.8c1.6,0.6,1.9-1,2.8-1.6c0.6,0.6,0,1.1-0.3,1.6
		c-0.6,1.3,0.1,2.6,1.5,2.5c2.9-0.1,5.8,0.1,8.7-0.4c1.8-0.3,3.7,0,5.6-0.2c7.8-0.7,15.6-1.3,23.4-1.1c0.4,0,0.9-0.1,1.3,0
		c0.7,0.2,2-0.5,2.1,1c0.1,1.6-0.7,2.6-2.1,2.9c-1.4,0.3-2.9,0.3-4.3,0.3c-1.3,0-2.4-0.1-3-1.5c-0.2-0.5-0.8-0.9-1.4-0.7
		c-1.6,0.6-4.1-0.6-4.5,2.3c-0.1,0.4-0.4,0.6-0.8,0.6c-1.7-0.1-3.4,0.4-5,0.6c-0.3,0-0.8,0.2-0.9-0.3c-0.2-0.6,0.4-0.6,0.8-0.8
		c0.5-0.3,1.6-0.2,1.4-1.1c-0.2-1-1.4-0.9-2-0.6c-1.8,0.8-3.9,0.3-5.5,1.6c-0.3,0.3-0.9,0.4-1.2,0.1c-1.9-1.5-4-0.9-6.1-0.4
		c-1.2,0.2-2.5,0.8-3.6-0.4c-0.2-0.2-0.7-0.2-1-0.1c-3.7,1.4-7.7,0.9-11.5,1.5c-2.5,0.3-4.6,1.8-6.9,2.7c-3.3,1.3-6.7,2.3-10.3,2.5
		c0.8-0.8,1.9-0.9,2.8-1c3-0.4,5.7-1.9,8.6-2.9c1-0.4,0.8-1.2,0.6-2c-0.6-2.3-1.1-4.7-1.7-7.1c-0.4-1.5-0.1-2.3,1.6-3
		c3.8-1.7,7.8-3,11.3-5.3c1.1-0.7,1.8-1.8,2.6-2.8c0.7-0.7,1.3-1.1,2.1-0.2c1.1,1.2,2.5,1.2,3.2-0.1c1.3-2.5,3.4-1.9,5.3-1.8
		c1.3,0.1,2.4,0,3.6-0.4c4.9-1.7,9.7-3.4,14.5-5.1c1.4-0.5,2.8-0.6,4.1-1.4c1-0.6,1.4-1.1,0.5-2.1c-1-1.2-0.3-1.9,0.8-2.3
		c1.1-0.4,2.2-0.6,3.3-0.9c1-0.2,1.5,0.1,1.6,1.2c0.1,1.3,1,1.6,2.1,1.2c3.3-1.3,6.8-1.9,9.6-4.2c0.7-0.6,1.7-0.3,2.5-1
		c2.7-2.4,2.9-5.5,0.1-8.4c-2-2.1-4.5-3.7-6.8-5.5c-0.7-0.5-1.9-0.7-1.5-2c0.3-1.2,1.3-1.6,2.3-1.8c1.1-0.2,2.2-0.3,3.2-0.4
		c1.7-0.2,2.9-1,3.8-2.4c0.4,0.6,0.9,1,1.7,0.6c1.1-0.6,2.2-0.5,3.4-0.5c1.4,0,2.8,0.1,4.2-0.1c7.2-0.9,14.3-1.4,21.6-1.3
		c2.1,0,2.3-0.3,2.2-2.3c-0.1-3.7,0.1-7.4,0.5-11c1.1,1.1,0.8,2.6,0.9,3.9c0,0.4-0.2,1,0.4,1c0.5,0.1,0.5-0.5,0.7-0.9
		c0.7-1.9-0.1-3.7-0.3-5.5c-0.1-0.6-0.3-1.3,0.6-1.4c0.9-0.1,1.3,0.4,1.2,1.2c-0.4,2.1,0.9,4,0.7,6c-0.1,1.5,1.1,1.8,2.2,2.2
		c0.4,0.1,1-0.2,1.3,0.3c-1.6,0.6-3.3,0.5-5,0.2c-2.2-0.3-2.9,0.5-2.3,2.6c0.1,0.5,0.2,1,0.2,1.4c0,1.2,0.7,1.8,1.8,1.8
		c3.3,0,6.5,0.1,9.8,0.5c0.9,0.1,1.6-0.3,1.5-1.2c-0.3-2-0.1-4.2-1-6.2c-1.2,0.8-2.1,2.2-3.7,0.9c0.1-0.3,0.3-0.7,0.4-1
		c0.6,0.2,1.1-0.1,1.6-0.4c1.4,0,2.1-1.4,3.4-1.5c0,0.1,0.1,0.2,0.1,0.3c0.1,1,0.6,1.7,1.7,1.8c0.4,0,0.7-0.3,0.7-0.7
		c0-1.1-0.6-1.6-1.6-1.8c-0.1,0-0.1-0.1-0.2-0.1c0.2-0.7,0.8-0.9,1.4-0.7c0.8,0.2,0.9,0.9,1,1.6c0.4,2.6,0.4,2.6,3,2.8
		c1.1,0.1,2.2,0.2,3.3,0.3c0.7,0.1,1.2,0.4,1.5,0.9c1.3,1.9,1.5,4.1,1.7,6.2c0.1,0.6-0.6,1-1.2,0.7c-2.2-1.1-4.7-0.5-7-1
		c-3.9-0.8-7.8,0.3-11.8,0c-1.7-0.1-3.4,0.1-5.1-0.4c-1.8-0.5-3.1,0.9-4.7,1.3c-0.3,0.1-0.5,0.7-0.4,1.1c0.2,0.6,0.6,0.7,1.1,0.7
		c1.3,0,2.6,0,3.8,0c2.5,0.1,3.4,1.9,1.8,3.8c-1.5,1.9-3.2,3.8-5.8,4.2c-0.4,0.1-0.9,0.1-0.9,0.5c-0.1,2.3-3,3.4-2.5,6
		c0.2,1.4-1.2,1.6-2.4,1.5c-1.3-0.1-2.1,0.4-2,1.9c0.1,1.4,0.4,2.1,2,1.4c1.3-0.5,2.2,0.2,2.4,1.4c0.3,1.8,0.5,3.7-0.3,5.5
		c-0.7,1.6,0.2,2.3,1.6,2.5c1.5,0.3,2.9,0.6,3.2,2.5c0.1,0.7,0.6,0.8,1.2,0.5c2.6-1.5,5.2-0.5,7.7,0.2c2.6,0.8,5.1,1.2,7.8,1.1
		c3.4-0.1,6.9,0.2,10.3,0.6c3.6,0.5,7.1,0.9,10.7,0.9c7.3,0.1,14.5,1.1,21.8,1.3c3.6,0.1,7.1,0.5,10.7,0.9c4.7,0.5,9.3,1.5,14,2
		c4.4,0.5,8,2.9,11.9,4.6c1.3,0.6,1.3,1.7,1.1,2.8c-0.4,2.2-0.8,4.3-1.3,6.4c-0.4,1.7,0.2,2.6,1.9,3.1c1.2,0.3,2.3,0.8,3,1.9
		c0.4,0.7,1.2,0.9,1.9,0.9c4.6,0.3,9.1,1.5,13.4,3.1c1.1,0.4,1.4,1.1,1.3,2.1c-0.1,1.1-0.8,1.4-1.8,1.1c0.4-0.5,1.4-0.5,1.2-1.6
		c-0.2-0.9-1-1-1.7-1.2c-6-2-12.1-2.8-18.3-3.4c-5.7-0.6-11.4-0.6-17-1.6c-3-0.5-6.1-0.5-9.2-0.5c-1.6,0-3-0.9-4.6-0.8
		c-1.4,0-2.8,0.3-4.3,0.1c-6.2-0.8-12.4-1-18.7-0.9c-1.1,0-2.2,0-3.1-0.7c-0.2-0.2-0.6-0.3-0.8-0.3c-2.8,0.6-5.6,0.3-8.3,0.2
		c-2-0.1-4.1,0.9-6.1-0.6c-0.7-0.5-1.6,0.2-2.5,0.2c-3.5,0-7,0-10.6,0c-0.6,0-1.2-0.1-1.7-0.4c-1-0.7-1.7-1.9-3.1-0.4
		c-0.5,0.6-1.5-0.7-2.5-0.6c-2.5,0.2-5,0-7.5,0c-1,0-2.1,0-3-0.4c-0.3-0.1-0.8-0.3-1-0.2c-2.3,1.3-4.8,0.3-7.1,0.9
		c-1.9,0.4-3.8-0.4-5.8,0c-1.1,0.2-0.8-1.1-1.2-1.9c-2,2.5-4.7,1.8-7.3,1.8c-0.5,0-1.1,0-1.6,0.1c-1.8,0.3-3.5,0.2-5.3-0.2
		c-1.8-0.4-3.8,0-5.7,0.2c-1.2,0.2-1.8,0-1.7-1.3c0-0.1,0-0.2-0.1-0.4c-0.7-2.3-0.7-2.5,1.6-2.7c3.4-0.3,6.9-0.2,10.3-0.3
		c8.1-0.2,16.1-0.3,24.2-0.4c0.4,0,0.8,0.1,1.3,0.1c-0.5,1.8-0.2,2,1.6,2c2.7-0.1,5.4-0.5,8.1-0.1c1.4,0.2,1.7-0.3,1.1-1.7
		c1-0.3,2-0.7,3.1-0.3c-1.5,1-0.7,1.9,0,2.9c0.8,1.1,1.6,1.6,2.9,0.8c0.7-0.4,1.2-1.2,2.2-1.1c1.4,0.1,2.8-0.3,4.1-0.6
		c1.7-0.4,3.4-0.4,4.6,1.2c1.1,1.5,2.6,1.4,4.1,1c0.7-0.2,1.3-0.7,2-0.9c1.8-0.5,3.5-2.1,5.5-0.7c2,1.3,3.9,3.1,6.7,2.5
		c0.1,0,0.2,0.1,0.3,0.1c1.5,0.9,3.1,0.8,4.8,0.9c0.4,0,0.8,0.1,1-0.2c0.3-0.4-0.1-0.8-0.3-1.2c-0.2-0.4-1.2-0.7-0.7-1.3
		c0.5-0.6,1.2-0.1,1.8,0.1c0.4,0.2,0.8,0.4,1.1,0.6c1.3,0.9,2.4,0.9,3.8-0.1c1.7-1.1,3.5-1.8,5.6-0.5c1,0.6,2.3,0.5,3.3,1.4
		c0.5,0.5,1.2,0.3,1.7-0.1c1.8-1.5,3.8-1.1,5.8-0.6c1.7,0.4,3.4,2,5.4,0.3c0.5-0.4,1.4,0,0.8,1c-0.2,0.4-0.5,0.8-0.1,1.1
		c0.5,0.4,0.9,0,1.2-0.4c0.4-0.6,0.8-0.9,1.5-0.9c3.3,0.3,6.6,0.5,9.9,1.1c-0.1,0.6-1.5,0.1-1.1,1c0.3,0.7,1,1.2,1.8,0.9
		c1.2-0.4,2.2,0.1,3.3,0c0.8,0,2,0.7,2.4-0.7c0.2-0.6,1.3-0.6,1-1.5c-0.3-0.7-1-0.7-1.6-0.8c-0.4-0.1-0.8-0.1-0.9-0.7
		c0.6-0.3,1.5,0.2,2-0.4c-0.1-0.4-0.4-0.4-0.6-0.6c-1.1-1.2-2.9-1.3-4-2.5c-0.8-0.9-1.1-0.7-1.7,0.2c-0.7,1.1-0.7,1.7,0.5,2.3
		c-0.5,0.2-1.1,0.1-1.6,0c-3.2-0.5-6.3-1.2-9.5-1.3c-1.1,0-2.4,0.1-3.4-0.4c-2.2-0.9-4.5-0.5-6.8-1.1c-1.4-0.4-3-1-4.5-0.9
		c-3.1,0.3-6.3-1-9.3,0.5c-0.3,0.1-0.6,0.1-0.9,0.1c-3.5-0.4-7.1-0.4-10.7-0.2c-4,0.1-8-0.7-11.9-0.3
		C183.2,149.9,182.5,150,182.1,149.4z M236.1,146.1c0,0.7-0.1,1.3-0.1,2c0,0.7-0.3,1.7,0.5,2c0.8,0.3,1.2-0.5,1.7-1.1
		c0.3-0.4,0.5-0.9,1.1-0.7c0.5,0.2,0.7,0.6,0.8,1.1c0.1,0.4,0.1,1.5,0.7,0.9c1.4-1.5,2.5-1.4,3.7,0.1c0.1,0.1,0.3,0.1,0.5,0.1
		c1.1,0,2.1,0,3,0.9c0.5,0.5,1,0,1.1-0.6c0.2-0.6,0.3-1.2,0.4-1.8c0.2-1.3,0-2.2-1.6-2.2c-0.6,0-0.9-0.3-1.3-0.8
		c-0.8-1.1-2.9-1.2-3.8-0.3c-0.2,0.2-0.3,0.4-0.6,0.3c-0.3-0.2-0.2-0.5-0.1-0.8c0.4-1.2,0-2.1-1.3-1.9c-1.5,0.3-3.1,0.4-4.4,1.5
		c-0.1-1.2-0.1-1.3,1.2-1.8c0.3-0.1,0.8-0.2,0.8-0.6c0-0.5-0.5-0.6-0.9-0.8c-2.3-0.7-3.1-0.1-3.4,2.3c0,0.3-0.1,0.6-0.2,0.9
		c-0.2,0.8-0.6,1.8,0.3,2.4C235.3,147.6,235.4,146.1,236.1,146.1z M233.5,151.5c0.8,0,1.4-0.1,1.6-0.8c0.2-0.5,0.1-1.1-0.4-1.5
		c-0.5-0.4-1-0.1-1.5,0.3c-0.9,0.9-1.1,0.2-1.4-0.5c-0.4-0.9-0.9-1.5-1.8-0.4c-0.4,0.5-0.5,1.5-1.4,1c-0.8-0.4-1-1.2-0.9-2
		c0.1-0.7,0.1-1.6,0.5-2.1c1-1.3,0.8-2.5,0.6-3.9c-0.1-0.6-0.2-1.1-0.8-1.2c-0.4-0.1-0.9,0-1.1,0.4c-0.3,0.4-0.3,0.9,0.1,1.3
		c0.8,0.9,0.3,1.7-0.5,2.1c-1.3,0.7-1.2,1.6-0.7,2.7c0.4,0.8,0.9,1.5,1.1,2.3c0.5,1.7,1.6,2.1,3.2,2.1
		C231.3,151.2,232.5,151.1,233.5,151.5z M53.9,152.6c-0.4,0-0.6,0.1-0.7,0.5c-0.1,0.6,0.1,1.2,0.4,1.7c0.2,0.4,0.5,0.5,0.9,0.2
		c0.4-0.3,0.8-0.4,1.3-0.5c0.6-0.1,1.6,0.5,1.6-0.4c0-0.8-1-0.9-1.7-0.9C55,153.2,54.4,152.8,53.9,152.6z M230.7,144.8
		c0.1,0.5,0,1.4,0.7,1.5c0.8,0.2,0.7-0.8,1-1.3c0.1-0.1,0.1-0.2,0.1-0.3c0.3-0.7,0.7-1.5,0.1-2.2c-0.2-0.3-0.6-0.5-1-0.3
		c-0.7,0.5-0.9,1.3-1.1,2C230.7,144.4,230.7,144.5,230.7,144.8z M220.3,156.4c0.5-0.5,2,0.4,2.1-0.8c0.2-1-1.3-0.8-1.9-1.2
		c0,0-0.1,0-0.2-0.1c-0.6-0.3-1.3-0.4-1.8,0.1c-0.3,0.3-0.4,0.6-0.2,1C218.7,156.2,219.4,156.3,220.3,156.4z M210.2,155.8
		c0.5-0.2,1.5,0.3,1.4-0.8c0-0.9-0.9-1-1.6-1c-0.7,0-1.9-0.1-1.8,0.9C208.3,156,209.5,155.6,210.2,155.8z M217.8,147.4
		c-0.2-0.6-0.7-0.8-1.3-0.7c-0.6,0.1-1.4,0.2-1.3,0.9c0.2,0.6,1.1,0.5,1.7,0.6C217.5,148.3,217.8,147.9,217.8,147.4z M187.2,154.1
		c-0.2-0.7-0.8-0.6-1.4-0.6c-0.4,0-0.9,0.1-0.8,0.5c0.2,0.7,0.9,0.8,1.6,0.9C187,154.9,187.2,154.7,187.2,154.1z M213.1,147.1
		c-0.1-0.3-0.2-0.7-0.7-0.6c-0.5,0.1-0.8,0.4-0.8,0.9c0,0.4,0.2,0.7,0.7,0.7C212.9,148,213.1,147.6,213.1,147.1z"/>
	<path class="st3" d="M167.5,211.1c-1.6,0.6-2-0.1-1.8-1.5c0.1-0.8,0.3-1.6,0.1-2.5c-0.4-2.3,1.1-3.5,3.4-2.7
		c1.1,0.4,1.8-0.6,2.8-0.5c4.3,0.3,8.6-0.4,12.9-0.3c1,0,1.9-0.1,2.9-0.1c1.4-0.1,2,0.5,1.9,1.9c-0.1,2,0,4.1,0,6.4
		c1.1-0.5,0.8-1.3,0.9-1.8c0.3-2,0.5-3.9,0.7-5.9c0.1-0.5,0.3-0.8,0.7-1c0.3,0.6,0.2,1.3,0.1,2c-1.7,10-2.8,20.1-4.2,30.1
		c-1.6,11.8-2.8,23.6-4.7,35.4c-1.1,7.1-1.7,14.2-2.6,21.3c-1.4,11.2-2.9,22.4-4.4,33.6c-0.8,6.1-1.8,12.2-2.7,18.3
		c-1.1,7-1.6,14-2.3,21.1c-0.9,8.7-1.4,17.4-1.6,26.2c-0.1,5.1-0.1,10.2-0.2,15.3c0,0.6,0.1,1.3-0.4,1.7c-0.6,0.6-1.1,1.5-2.1,1.3
		c-1.1-0.3-0.5-1.3-0.6-2c-0.8-6.6-0.6-13.2-0.4-19.8c0.3-7.3,0.6-14.5,1.6-21.8c0.3-2.1,0-4.2,0.4-6.4c0.5-3,0.9-6.1,1.3-9.1
		c0.1-0.9,0.2-1.8,0.2-2.7c0-4.3,1.3-8.5,1.8-12.7c0.2-1.2,1.1-2.1,1.2-3.5c0.2-2.1,0.1-4.2,0.2-6.3c0.4-9.5,2.3-18.8,3.5-28.2
		c1.1-9.1,2.3-18.1,3.5-27.2c1.3-9.6,2.8-19.1,3.9-28.7c0.7-6.5,1.7-12.9,2.4-19.3c0.6-5.2,1.2-10.4,1.9-15.5
		c0.2-1.7-0.1-1.9-1.8-1.9c-4.2,0.2-8.4,0.2-12.6,0.2c-2.7,0-2.9,0.1-2.9,2.8c0,1.9-0.3,3.9,0.3,5.8c0.1,0.4,0.1,1-0.4,1.3
		c-0.6-0.1,0.7-2.4-1.3-1.1c-0.3-2.3,0-4.6,0-7c0-0.9-0.1-1.7-1.2-1.6c-0.9,0.1-1,0.9-0.8,1.7C167.6,208,167.8,209.5,167.5,211.1z"
		/>
	<path class="st5" d="M228.1,198.6c-0.1-0.8,1.5-1,0.9-1.7c-0.6-0.8-1.7-0.5-2.6-0.2c-3.1,0.8-6.3,0.6-9.4,0.3
		c-0.7-0.1-1.4,0.6-2.1,0.1c-0.1-0.4,0.2-0.5,0.5-0.7c0.4-0.2,0.8-0.5,0.6-1c-0.2-0.5-0.6-0.5-1-0.6c-0.9-0.2-2.3,0.5-2.6-0.5
		c-0.4-1.1,1.3-1,1.7-1.7c0.8-1.2,2.3-1.4,3.2-2.4c0.6-0.7,1.1-1.2,0.6-2.1c0.3-0.8,0.4-1.5,0-2.3c1.5-0.2,0.9-1.2,0.6-1.8
		c-0.3-0.7-0.7-1.6-1.7-1.3c-1,0.4-0.5,1.3-0.1,2c0.1,0.2,0.1,0.4,0.2,0.7c-1.1,0.7-0.4,1.7-0.3,2.5c-0.6,0.2-0.9,0.7-1.4,1.1
		c-2.1,2.2-4.7,3.6-7.6,4.3c-0.6,0.1-1.3,0.4-1.6-0.4c-0.2-0.7,0.4-1.2,0.9-1.4c3-1.1,3.7-3.7,4.2-6.5c0.2-0.8-0.1-1.3-0.9-1.4
		c-0.8-0.1-1.5-0.2-2.1-0.8c-0.3-0.3-0.9-0.5-1.2,0.1c-0.2,0.5,0.1,0.8,0.6,0.9c0.7,0.2,1.1,0.5,0.9,1.3c-0.5-0.2-1.1-0.6-1.5,0.1
		c-0.5,0.9-0.2,1.7,0.5,2.3c-2,1.3-4,2.7-6,4c-0.5,0.4-1.3,0.8-1.8,0.2c-0.5-0.6,0.4-1,0.8-1.4c2.4-2.6,2.3-5.7,1.5-8.7
		c-0.4-1.5,0-1.7,1.3-1.7c6.5-0.1,12.9,0.6,19.3,1c3.7,0.2,7.2,1.2,10.8,1.7c0.2,0,0.6,0,0.7,0.2c1.2,1.4,2.2,1.2,3-0.4
		c0.3,0.8-0.1,1.5-0.2,2.3c-0.1,1.1-0.1,2.1,1.1,2.6c0.2,0.1,0.3,0.2,0.4,0.4c0.5,1.6,1.1,2,2.7,0.9c0.9-0.6,1.7,0,2.5,1.6
		c1.5-1,2.6-0.8,3.3,0.6c0.4,0.8,0.4,1.4-0.5,1.9c-5.1,2.5-10.3,4.4-15.8,5.8C229.5,198.6,228.8,199,228.1,198.6z M226,188.4
		c0.7-0.1,0.9-0.6,0.8-1.2c-0.1-0.5-0.3-1.3-0.9-1.2c-0.8,0.1-1,0.9-0.9,1.6C225.1,188.1,225.5,188.3,226,188.4z"/>
	<path class="st6" d="M152.3,317.6c1.3,0.3,1.2-0.7,1.2-1.5c-0.1-3.2-0.2-6.4-0.2-9.7c0-9.5,0-18.9-0.1-28.4c0-5.6,0-11.3,0-16.9
		c0-6,0.1-12,0-18c0-5.3,0-10.5,0.3-15.8c0.1-2.4-0.3-4.9-0.2-7.4c0-0.6-0.2-1.2,0.3-1.8c0.8,0.3,0.8,0.9,0.8,1.6c0,1.3,0.2,2.7,0,4
		c-0.3,2,0.7,4,0.5,5.8c-0.2,1.9-0.3,3.8-0.4,5.8c-0.1,1.7,0.1,3.5-0.2,5.3c-0.3,1.7,0.4,2.6,1.9,2.6c2,0.1,2.6-0.3,2.6-2.3
		c-0.1-3.5,0.3-6.9-0.4-10.4c0-0.1-0.1-0.3,0-0.4c1.3-3.5,0.1-7.1,0.4-10.6c0-0.5,0.1-1,0.6-1.3c0.3,0,0.5,0.2,0.4,0.5
		c-0.3,2.7,0.4,5.3,0.3,7.9c-0.3,3.7,0,7.4-0.2,11.1c0,0.9-0.1,1.8,0.4,2.7c0.2,0.4,0.3,0.8,0.2,1.2c-1.2,4.2-0.5,8.6-0.4,12.8
		c0,1.2,0.4,2.3-0.3,3.5c-0.5,0.8-0.1,1.6,0.6,2.3c0.5,0.4,0.9,0.9,0.4,1.6c-1.7,2.6-0.8,5.2-0.3,7.9c0.2,0.9,0.6,1.5-0.2,2.3
		c-0.5,0.5-0.3,1.1-0.3,1.7c0,2.4,0,4.7,0,7.1c0,2.5,0.6,4.9,0.1,7.6c-0.5,3.5-0.8,7.4,0.5,11c0.4,1-0.7,1.9-0.7,3
		c0.1,3.1-0.2,6.2,0.2,9.3c0.3,2,0.5,3.5,0,5.7c-0.8,3.2,0,6.7,0.1,10.1c0,0.5,0.3,0.9,0.7,1.2c0.3,0.3,0.5,0.7,0.2,1.1
		c-1.7,2.5-1.1,5.4-0.9,8.1c0.1,1.7-0.6,2.9-1.1,4.3c-0.7-0.2-1.2-0.6-1.4-1.4c0.6,0,1.4-0.1,1.2-0.9c-0.4-1.6-0.2-3.2-0.4-4.8
		c-0.1-0.9-0.8-1.4-1.6-1.7c-0.9-0.3-1.3,0.2-1.7,0.8c-0.6-0.9-0.7-1.9-0.6-3c2.1,0.3,4.1-0.7,4.2-2c0-2.8,0-5.6-0.1-8.4
		c0-1.3-0.7-1.9-2.1-1.8c-1.6,0.1-2.1,0.9-2.2,2.3c-0.1,2.5,0.4,5-0.2,7.4C153.4,325,152.4,321.4,152.3,317.6z M158.6,281
		C158.6,281,158.6,281,158.6,281c-0.1-1.6,0-3.2-0.1-4.7c0-1.4-1-1.4-2.1-1.4c-1,0-1.8,0.3-1.8,1.5c0,2.9,0,5.8,0,8.7
		c0,1.4,0.8,1.6,2,1.6c1.3,0,1.9-0.4,1.9-1.8C158.6,283.7,158.6,282.3,158.6,281z M158.6,266.2C158.6,266.2,158.6,266.2,158.6,266.2
		c0-1.5,0-3,0-4.6c0-0.9-0.2-1.8-1.4-1.7c-1.1,0-2.5,0-2.5,1.5c-0.1,3.1-0.1,6.2,0.1,9.3c0.1,1.7,1.7,1,2.6,1.2
		c1,0.2,1.2-0.6,1.2-1.4C158.6,269.1,158.6,267.7,158.6,266.2z M154.7,295.1C154.7,295.1,154.7,295.1,154.7,295.1
		c0,1.6,0,3.2,0.1,4.7c0.1,1.4,1.1,1.5,2.2,1.5c1.1,0,1.6-0.4,1.6-1.5c0-2.9,0-5.8,0-8.7c0-1.5-1-1.7-2.2-1.7
		c-1.3,0-1.7,0.7-1.6,1.9C154.7,292.6,154.7,293.9,154.7,295.1z M158.6,251.4C158.5,251.4,158.5,251.4,158.6,251.4
		c-0.1-1.5,0-3-0.1-4.5c0-0.9-0.4-1.6-1.4-1.5c-1,0.1-2.3,0.1-2.4,1.5c-0.1,3-0.1,5.9,0,8.9c0.1,1.8,1.8,1.1,2.7,1.4
		c1,0.2,1.1-0.7,1.1-1.5C158.6,254.2,158.6,252.8,158.6,251.4z M158.6,310.5c-0.1-1.6-0.1-3.3-0.2-4.9c-0.1-1.4-1.3-1.2-2.2-1.2
		c-1,0-1.5,0.5-1.5,1.4c0,2.8,0.3,5.7,0.1,8.5c-0.1,1.3,0.9,1.7,2.1,1.7c1.3,0,1.8-0.7,1.8-1.9C158.6,312.9,158.6,311.7,158.6,310.5
		z"/>
	<path class="st3" d="M154.6,84.4c-0.4,3.7-0.6,7.3-0.5,11c0.1,2-0.2,2.3-2.2,2.3c-7.2-0.1-14.4,0.4-21.6,1.3
		c-1.4,0.2-2.8,0.1-4.2,0.1c-1.2,0-2.3-0.1-3.4,0.5c-0.8,0.4-1.2,0-1.7-0.6c-0.1-1.8,0.7-3.5,0.9-5.2c0.1-1,0.9-1.4,1.8-1.5
		c2.8-0.3,4.8-1.2,5.3-4.4c0.2-1.5,1.7-0.6,2.7-0.8c0.9-0.2,0.7,0.5,0.9,1c0.4,1.6,2.4,2.8,4.9,2.6c1.5-0.1,2.9-0.3,4.4,0
		c1,0.2,1.5-0.3,1.6-1.3c0.1-1.1,0.3-2.2,0.4-3.3c0.4-0.3,0.3-0.7,0.2-1.1c0-0.6,0-1.2,0-1.8c0-0.1,0-0.3,0-0.4
		c0-0.4,0.1-0.7,0.1-1.1c1.5-0.7,3-1.1,4.7-1.2c0.7,0.1,1.2-0.1,1.7-0.6c0.3,0,0.6,0,0.9-0.1c0.5,0.5,1.1,0.5,1.7,0.6
		c0,0.3,0.2,0.5,0.5,0.5C153.9,82.3,154,83.4,154.6,84.4z"/>
	<path class="st3" d="M169.4,301c0.1-1.7,0.2-3.6-0.2-5.2c-0.7-2.8,0.2-5.6-0.3-8.4c-0.3-1.4,0-3.2,0-4.9c0.2-3.2,0.9-6.4,0.1-9.7
		c-0.3-1.3,0-2.8,0.2-4c0.3-2.2-0.4-4.3,0.1-6.5c0.4-1.5-0.6-3.1-0.3-4.7c0.5-1.9,0.4-3.9,0.3-5.8c-0.5-5.7,0.2-11.3-0.2-17
		c-0.4-5.5,0.1-11,0.3-16.5c0-1-0.5-2,0-3c0.3,0,0.7,0,1,0c0.6,0.6,0.2,1.4,0.2,2.1c0,7.5-0.1,15,0,22.6c0.1,4.5-0.2,9.1,0,13.6
		c0.3,5.5-0.1,11,0,16.5c0.1,5.3-0.1,10.5-0.1,15.8c-0.6,0-1.1,0-1.1,0.8c0,0.7,0.3,1.1,1,1.2c0.6,1.8,0.3,3.7,0.3,5.6
		c0.1,6.2-0.1,12.3,0,18.5c0.1,5-0.2,10-0.3,15.1c0,1.2,0.2,2.3,0.4,3.4c0.1,0.7,0,1.7-0.9,1.7c-0.9,0-1.1-1-1-1.7
		c0.5-2.7-0.1-5.3,0.1-7.9c0.3-3.8-0.2-7.5,0.1-11.2c0.2-2.7,0.1-5.5,0.1-8.2c1.6,0,1-1.2,1-1.9C170.4,300.5,169.8,300.8,169.4,301z
		"/>
	<path class="st3" d="M196.8,203.4c-0.2-0.2-0.4-0.4-0.6-0.5c0.1-0.4,0-0.7-0.4-0.9c0-0.5,0-0.9,0-1.4c0.9-1.6,2.3-0.9,3.6-0.8
		c0.7,0,1.1,0.4,1.4,1c0.3,0.7-0.1,1.1-0.7,1.5c-0.8,0.6-1.3,1.2-0.8,2.3c0,0.2-0.1,0.4-0.1,0.6c-0.4,0.2-0.5,0.5-0.1,0.8
		c-0.1,0.3-0.1,0.7-0.2,1c-0.5,0.2-0.6,0.5-0.2,0.9c-0.1,0.4-0.1,0.9-0.2,1.3c-0.4,0.2-0.5,0.5-0.2,0.8c-0.1,0.6-0.2,1.2-0.3,1.8
		c-0.3,0.2-0.4,0.5-0.2,0.9c-2.6,15-4.8,30-7,45c-0.5,0.2-0.7,0.4-0.2,0.9c-0.7,4.4-1.5,8.8-2.2,13.2c-0.7-0.2-0.8-0.6-0.6-1.2
		c0.2-0.5,0.3-1.1-0.1-1.6c0.2-1.4,0.3-2.8,0.5-4.2c0.5-0.4,0.5-0.8,0.2-1.3c2-12.9,3.9-25.8,5.9-38.7c1-6.7,2-13.4,3-20.2
		C197.5,204.1,197.5,203.6,196.8,203.4z"/>
	<path class="st3" d="M163.9,91.3c1.5,1.3,2.5-0.1,3.7-0.9c0.9,2.1,0.7,4.2,1,6.2c0.1,0.8-0.6,1.3-1.5,1.2c-3.3-0.4-6.5-0.6-9.8-0.5
		c-1.2,0-1.8-0.5-1.8-1.8c0-0.5,0-1-0.2-1.4c-0.7-2.1,0-2.9,2.3-2.6c1.7,0.2,3.3,0.4,5-0.2C162.9,91.5,163.4,91.5,163.9,91.3z"/>
	<path class="st4" d="M152.2,12.3c1.2,0.2,1,1,0.7,1.8c-1,2.2-0.5,4.5-0.5,6.8c0,3.8,0.9,7.6-0.5,11.3c-0.3,0.8-0.4,1.8-0.4,2.7
		c-0.1,3.7,0,7.4-0.1,11.1c0,1,0.1,2,1.4,2.1c0.5,0.1,0.7,0.4,0.7,0.9c0,0.7-0.5,0.7-1,0.7c-0.4,0-0.7,0.1-1,0.3
		c-0.5,0.3-1,0.4-1.5,0c-0.6-0.5-0.4-1.1-0.1-1.6c0.4-0.9,0.4-1.7,0.2-2.6c-0.8-3-0.3-6.1-0.3-9.2c0-2.5,0-5.1,0.3-7.6
		c0.4-3.7,0.1-7.4,0.4-11.1c0.1-1.1,0.3-2.3-0.1-3.4C151.7,14.3,152.3,13.6,152.2,12.3z"/>
	<path class="st3" d="M187.7,269c0.4,0.5,0.2,1,0.1,1.6c-0.2,0.6,0,1.1,0.6,1.2c0.3,1.7-0.2,3.4-0.4,5c-1,7-2.2,13.9-3.2,20.9
		c-1,6.8-2,13.6-3.4,20.2c-0.1,0.6-0.3,1.1-0.6,1.9c-0.8-0.9-0.5-1.7-0.4-2.5c0.7-5.3,1.1-10.7,2.2-16c1.3-6.6,1.7-13.2,2.9-19.8
		c0.6-3.1,1.1-6.3,1.3-9.5C186.9,271,186.8,269.8,187.7,269z"/>
	<path class="st5" d="M199.2,204.6c-0.5-1,0.1-1.7,0.8-2.3c0.5-0.4,0.9-0.8,0.7-1.5c-0.2-0.6-0.7-1-1.4-1c-1.3-0.1-2.7-0.8-3.6,0.8
		c-1.1-0.1-1.6-2.1-3.2-1c-0.3-1.5,0.8-1.2,1.5-1.2c2.9-0.2,5.9,0.3,8.8,0.2c4-0.2,7.4,2.2,11.3,1.8c0.1,0,0.3,0.3,0.5,0.5
		c-0.1,0.5-0.5,0.5-0.8,0.5c-3.7,0.5-7.4,0.9-10.8,2.7c-0.4,0.2-1,0.4-1.4,0C200.6,203.1,199.9,203.8,199.2,204.6z"/>
	<path class="st3" d="M154.1,328.7c0.5-2.5,0-4.9,0.2-7.4c0.1-1.5,0.6-2.2,2.2-2.3c1.4-0.1,2.1,0.5,2.1,1.8c0.1,2.8,0.1,5.6,0.1,8.4
		c0,1.3-2,2.3-4.2,2c0-0.2-0.1-0.5-0.1-0.7c0.3-0.3,0.3-0.6-0.1-0.8C154.2,329.3,154.1,329,154.1,328.7z"/>
	<path class="st4" d="M39.8,160.8c-1.4,0.9-3.1,1.1-4.6,1.4c-1.1,0.2-2,1-3,1.3c-0.5,0.2-0.7,0.7-0.6,1.2c0.1,0.8,0.7,1,1.4,1.3
		c3.3,1.5,6.9,1.8,10.4,2.4c4.5,0.8,9,1.5,13.5,1.9c1.9,0.2,3.6,0.9,5.5,1.2c1.4,0.2,1.8,1.7,1.7,3.1c-0.4-0.1-0.5-0.4-0.6-0.8
		c-0.3-1.3-1-2-2.6-1.9c-1.9,0-3.7-1.1-5.7-1.2c-5.6-0.3-11.1-1.8-16.7-2.5c-2.2-0.3-4.2-1.1-6.3-1.8c-1-0.4-1.5-1.2-1.5-2.3
		c-0.1-1,0.8-1.3,1.5-1.6C34.8,161.7,37.2,161,39.8,160.8z"/>
	<path class="st4" d="M148.8,51.7c1.1,0.9,0.5,1.7,0.5,2.4c0.3,7.1-0.2,14.1-0.8,21.1c0,0.2,0,0.4,0,0.5c-0.1,0.4,0.1,1.2-0.6,1.1
		c-0.5-0.1-0.3-0.7-0.3-1.1c0.1-5.4,0.4-10.8,0.8-16.2C148.6,57,148.6,54.5,148.8,51.7z"/>
	<path class="st6" d="M167.5,226.4c-1.6-0.4-1.8-1.4-1.6-3c0.2-2.8,0-5.6-0.1-8.5c-0.1-1.3,0.3-2.1,1.8-2.1c0.7,1.8-0.3,3.4-0.3,5.1
		C167.4,220.9,167.5,223.7,167.5,226.4z"/>
	<path class="st6" d="M167.4,299.2c-1.3,0.4-1.8-0.3-1.6-1.4c0.5-3,0-6,0-9.1c0-1.4,0.5-2.2,1.8-2.5c0.5,1.2-0.3,2.2-0.2,3.4
		C167.8,292.8,167.3,296,167.4,299.2z"/>
	<path class="st3" d="M155,334.1c0.4-0.6,0.8-1.1,1.7-0.8c0.9,0.3,1.5,0.8,1.6,1.7c0.2,1.6,0,3.2,0.4,4.8c0.2,0.8-0.5,0.9-1.2,0.9
		c-1.1-1.6-1.6-3.5-2.2-5.3c0,0,0.1-0.1,0.1-0.1c0,0-0.1,0-0.1,0C155.3,335,155.2,334.6,155,334.1z"/>
	<path class="st4" d="M167.2,328.3c-1.5-0.2-2.1-2.3-1-3.6c0.9-1,1.5-1.6-0.1-2.6c-0.9-0.6-0.7-2.9-0.2-3.1c1.5-0.7,0.8-2.3,1.7-3.1
		c0.4,0.8,0.3,1.7,0.2,2.5c-0.3,1.5-0.2,2.9-0.1,4.5C167.9,324.5,167.7,326.5,167.2,328.3z"/>
	<path class="st6" d="M144.8,209.4c-1.1-1.4-0.7-3.1-0.8-4.6c-0.1-2.1,0.2-4.2,0.3-6.3c0-0.5,0.2-1,0.8-1c0.6,0,0.8,0.6,0.8,1
		c0,1.5,0.3,3-0.2,4.5c-1.4,0.6-0.9,1.8-0.9,2.7C144.8,206.9,145.2,208.1,144.8,209.4z"/>
	<path class="st4" d="M166.5,340.3c0.3-1.7-1-3.5,0.2-5.2c0.1-0.1-0.1-0.6-0.2-0.8c-0.8-1.1-1.1-2.1,0.3-3c0.7-0.4,0.1-1.4,0.5-2
		c0.6,0.3,0.7,0.9,0.5,1.4c-0.8,2.5,0,5,0,7.5C167.8,339.1,167.7,340.1,166.5,340.3z"/>
	<path class="st4" d="M151.5,80.1c-0.3,0-0.6,0-0.9,0.1c-0.4-3.6-0.1-10.4,0.7-11.8C151.7,72.2,151.5,76.2,151.5,80.1z"/>
	<path class="st3" d="M152.2,12.3c0.1,1.3-0.5,2-1.8,2.1c-0.5-0.3-0.9-0.6-1.1-1.2c0.1-1.2,1.3-1.9,1.1-3.1c0.1-0.2,0.1-0.5,0.2-0.7
		c0.3,0,0.6,0,0.8,0C151.7,10.4,152,11.4,152.2,12.3z"/>
	<path class="st6" d="M167.5,283.8c-1.5-0.7-2.1-2.1-1.1-3.4c0.8-1.1,0.8-1.8-0.1-2.8c-0.8-0.9-0.1-4,0.8-4.4
		c-0.1,2.7,1,5.4,0.2,8.2C167.2,282.1,167.4,283,167.5,283.8z"/>
	<path class="st6" d="M167.2,266.9c-0.7,0-1-0.3-1.1-0.9c-0.2-2.7-0.1-5.4,0.9-8c0-0.1,0.3-0.1,0.5-0.2c0.1,0.2,0.2,0.5,0.2,0.7
		C167,261.3,168,264.2,167.2,266.9z"/>
	<path class="st4" d="M167.4,314.4c-0.6-0.4-1.7-0.3-1.7-1.3c0-1.4-0.3-2.9,0.3-4.3c0.2-0.5,1-0.3,1.5-0.3
		C167.5,310.5,167.5,312.5,167.4,314.4z"/>
	<path class="st4" d="M167.5,307.5c-1.7,0.1-1.5-1.4-1.6-2.3c-0.3-1.5-0.6-3.2,1.6-3.7C168,303.6,167.1,305.5,167.5,307.5z"/>
	<path class="st3" d="M165.9,89.9c-0.5,0.2-1,0.5-1.6,0.4c-0.6-1.4,0.3-2.9-0.3-4.4c-0.2-0.4,0.5-0.6,0.9-0.6
		c0.6-0.1,1.1,0.2,1.2,0.8c0.1,0.5-0.1,1.1-0.1,1.6c-0.5,0.2-0.6,0.5-0.1,0.8C165.9,89,165.9,89.5,165.9,89.9z"/>
	<path class="st4" d="M153.7,81.2c-0.3,0-0.5-0.1-0.5-0.5c0.6-0.8,0.4-1.6,0.4-2.4c0-0.6,0.3-1.1,0.9-1.1c0.8-0.1,0.8,0.6,0.8,1.1
		C155.2,79.5,155.6,81,153.7,81.2z"/>
	<path class="st6" d="M167.3,255.2c-1,0.1-1.5-0.4-1.4-1.4c0.1-1-0.3-2.3,1.3-2.5C167.5,252.6,167.4,253.9,167.3,255.2z"/>
	<path class="st3" d="M170,88c0.1,0,0.1,0.1,0.2,0.1c1,0.2,1.6,0.8,1.6,1.8c0,0.4-0.3,0.7-0.7,0.7c-1-0.1-1.5-0.8-1.7-1.8
		c0-0.1-0.1-0.2-0.1-0.3C169.5,88.3,169.8,88.1,170,88z"/>
	<path class="st6" d="M167.3,234.6c-1.8-0.7-1.3-2.2-1.2-3.6c0.1-0.7,0.6-0.6,1.1-0.4C167.3,231.9,167.3,233.2,167.3,234.6z"/>
	<path class="st7" d="M147.2,220.5c0.5,0.1,1,0.5,1.6,0.3c0.5-0.2,1,0,1.1,0.6c0.1,0.4,0.1,0.7-0.2,1c-0.4,0.4-0.8,0.1-1.1-0.2
		c-0.4-0.4-0.9-0.4-1.3-0.4C147,221.4,147,221,147.2,220.5z"/>
	<path class="st4" d="M148.9,80.8c-1.6,0-3.2,0.5-4.7,1.2c0,0-0.1-0.1-0.1-0.1C144.8,80.3,147.8,79.7,148.9,80.8z"/>
	<path class="st3" d="M169.4,301c0.4-0.2,1-0.5,1,0.3c0,0.8,0.5,2-1,1.9C169.1,302.5,169.1,301.8,169.4,301z"/>
	<path class="st4" d="M260.3,406.4c-0.1,0.4-0.4,0.6-0.8,0.7c-0.3,0.1-0.6,0-0.6-0.4c0-0.5,0.3-0.7,0.7-0.7
		C260,406,260.2,406,260.3,406.4z"/>
	<path class="st4" d="M151.1,54.2c-0.7-0.1-0.9-0.7-1-1.3c0-0.5,0.2-0.9,0.7-0.9c0.7,0.1,1,0.6,1.1,1.3
		C151.9,53.9,151.6,54.2,151.1,54.2z"/>
	<path class="st3" d="M170.5,288c-0.7-0.1-1-0.5-1-1.2c0-0.7,0.5-0.8,1.1-0.8C170.9,286.7,170.9,287.3,170.5,288z"/>
	<path class="st4" d="M147.9,239.9c1.4,1.2-0.1,2.5,0.2,3.8C147.3,242.5,147.8,241.2,147.9,239.9z"/>
	<path class="st3" d="M170.4,215.5c-0.3,0-0.7,0-1,0c-0.2-0.7-0.2-1.4-0.1-2.2c1.9-1.3,0.6,1,1.3,1.1
		C170.6,214.8,170.5,215.1,170.4,215.5z"/>
	<path class="st4" d="M145.2,214.8c-1.1-1.2-0.8-2.5-0.2-3.8C145.6,212.3,145.4,213.6,145.2,214.8z"/>
	<path class="st4" d="M150.5,10.1c0.1,1.2-1.1,2-1.1,3.1c-0.6,0-0.8-0.4-0.5-0.8C149.3,11.7,149.2,10.4,150.5,10.1z"/>
	<path class="st4" d="M93.5,202.4c1.1-0.2,2.3-0.6,3.3,0.3C95.6,202.9,94.5,203,93.5,202.4z"/>
	<path class="st6" d="M167.1,248.4c-1.2-0.3-0.8-1.3-1-2c-0.1-0.6,0.5-0.7,1-0.5C167.5,246.7,167.4,247.5,167.1,248.4z"/>
	<path class="st6" d="M167.1,238.2c-0.8,0-1-0.5-1-1.2c0-0.7,0.3-1.2,1.1-1C167.4,236.7,167.4,237.4,167.1,238.2z"/>
	<path class="st6" d="M167.6,270c-0.4-0.7-1.9-1.3-0.4-2.3C167.7,268.4,167.8,269.2,167.6,270z"/>
	<path class="st4" d="M147.6,233.7c0.4,0.7,0.4,1.4,0.1,2.2C147.2,235.2,147.3,234.5,147.6,233.7z"/>
	<path class="st4" d="M97.9,202.8c1.1-0.1,1.3,0.3,1,1.8C98.5,203.9,98.2,203.4,97.9,202.8z"/>
	<path class="st4" d="M151.5,9.5c-0.3,0-0.6,0-0.8,0c-0.3-0.5-0.3-1,0.3-1.1C151.6,8.3,151.9,8.8,151.5,9.5z"/>
	<path class="st4" d="M152,314.7c0.7,0.4,0.7,0.9,0.3,1.6C151.8,315.8,151.8,315.3,152,314.7z"/>
	<path class="st4" d="M261,168.8c0.5-0.5,1-0.4,1.6-0.2C262.1,169.2,261.6,169.2,261,168.8z"/>
	<path class="st4" d="M216.1,200.6c0.5-0.7,1-0.6,1.6-0.2C217.2,201.1,216.7,201.2,216.1,200.6z"/>
	<path class="st4" d="M76.9,199.9c0.7-0.4,1.3-0.2,1.9,0.3C78.2,200.3,77.5,200.4,76.9,199.9z"/>
	<path class="st4" d="M258,169.3c0.5-0.2,1-0.6,1.7-0.3C259.2,169.5,258.6,169.6,258,169.3z"/>
	<path class="st4" d="M99.9,212.9c0.5,0.3,0.6,0.7,0.1,1.2C99.7,213.7,99.7,213.3,99.9,212.9z"/>
	<path class="st4" d="M101.3,222c0.7,0.3,0.8,0.7,0.2,1.2C101,222.8,101,222.4,101.3,222z"/>
	<path class="st4" d="M102,227.8c0.6,0.3,0.8,0.7,0.2,1.2C101.8,228.7,101.8,228.2,102,227.8z"/>
	<path class="st4" d="M196.8,203.4c0.7,0.2,0.7,0.7,0.5,1.3C196.6,204.4,196.8,203.9,196.8,203.4z"/>
	<path class="st4" d="M221.9,199.9c0.4-0.8,0.9-0.6,1.5-0.4C223,200,222.6,200.4,221.9,199.9z"/>
	<path class="st4" d="M83.3,201c0.5-0.4,0.8-0.3,1.1,0.2C84,201.4,83.6,201.4,83.3,201z"/>
	<path class="st4" d="M188.4,263.5c0.3,0.5,0.3,0.9-0.2,1.3C187.8,264.3,187.9,263.9,188.4,263.5z"/>
	<path class="st4" d="M151.7,312.9c0.2,0.4,0.6,0.7,0.2,1.2C151.5,313.7,151.4,313.3,151.7,312.9z"/>
	<path class="st4" d="M99.1,205.6c0.5,0.2,0.6,0.4,0.2,0.8C98.9,206.2,98.9,205.9,99.1,205.6z"/>
	<path class="st4" d="M267.9,167.6c0-0.6,0.3-0.7,0.7-0.6C268.6,167.5,268.4,167.7,267.9,167.6z"/>
	<path class="st4" d="M165.8,88.5c-0.4-0.3-0.4-0.6,0.1-0.8C166.2,88,166.1,88.3,165.8,88.5z"/>
	<path class="st4" d="M154.2,329.6c0.4,0.2,0.5,0.5,0.1,0.8C154,330.2,154,330,154.2,329.6z"/>
	<path class="st4" d="M199,206c-0.3-0.4-0.3-0.6,0.1-0.8C199.3,205.5,199.3,205.8,199,206z"/>
	<path class="st4" d="M160.9,343.5c0.5-0.2,0.7,0,0.9,0.5C161.2,344.2,161,344,160.9,343.5z"/>
	<path class="st4" d="M197.8,212.7c-0.2-0.4-0.1-0.6,0.2-0.9C198.4,212.2,198.2,212.5,197.8,212.7z"/>
	<path class="st4" d="M195.8,202c0.4,0.1,0.5,0.5,0.4,0.9C195.7,202.8,195.4,202.6,195.8,202z"/>
	<path class="st4" d="M167.4,244c-0.3,0-0.5-0.2-0.5-0.5c0-0.1,0.3-0.2,0.5-0.4C167.6,243.4,167.6,243.7,167.4,244z"/>
	<path class="st4" d="M87.6,201.7c0.3-0.3,0.5-0.3,0.7,0.1C88.1,202.1,87.8,202.1,87.6,201.7z"/>
	<path class="st4" d="M85.5,201.4c0.3-0.3,0.5-0.3,0.7,0.1C85.9,201.7,85.6,201.7,85.5,201.4z"/>
	<path class="st4" d="M190.6,258.6c-0.5-0.4-0.3-0.7,0.2-0.9C191,258.1,191,258.4,190.6,258.6z"/>
	<path class="st4" d="M198.3,210.1c-0.3-0.4-0.3-0.6,0.2-0.8C198.6,209.5,198.6,209.8,198.3,210.1z"/>
	<path class="st4" d="M81.4,200.6c0.4-0.4,0.6-0.2,0.8,0.2C81.9,201,81.6,200.9,81.4,200.6z"/>
	<path class="st4" d="M220.1,200.2c0.2-0.5,0.5-0.5,0.9-0.2C220.8,200.6,220.5,200.7,220.1,200.2z"/>
	<path class="st4" d="M256.6,169.6c0.2-0.4,0.5-0.4,0.9-0.2C257.2,169.8,257,169.9,256.6,169.6z"/>
	<path class="st4" d="M254.4,169.8c0.3-0.3,0.5-0.3,0.9-0.1C255,170.1,254.7,170.2,254.4,169.8z"/>
	<path class="st4" d="M198.6,207.9c-0.4-0.4-0.3-0.7,0.2-0.9C199,207.4,198.9,207.6,198.6,207.9z"/>
	<path class="st4" d="M246.7,170.7c0.2-0.4,0.4-0.5,0.7-0.2C247.3,170.9,247.1,171,246.7,170.7z"/>
	<path class="st4" d="M245.3,171c0.2-0.3,0.5-0.4,0.9-0.2C245.9,171.2,245.7,171.4,245.3,171z"/>
	<path class="st4" d="M99.4,208.5c0.5,0.2,0.6,0.4,0.2,0.8C99.3,209.1,99.2,208.8,99.4,208.5z"/>
	<path class="st4" d="M144.1,85.2c0.1,0.4,0.2,0.8-0.2,1.1C143.8,85.9,143.8,85.5,144.1,85.2z"/>
	<path class="st4" d="M91.6,202.2c0.3-0.2,0.6-0.2,0.8,0.1C92.1,202.5,91.8,202.5,91.6,202.2z"/>
	<path class="st4" d="M162.7,343.7c-0.1-0.2,0-0.3,0.2-0.1C162.8,343.7,162.8,343.7,162.7,343.7z"/>
	<path class="st4" d="M75.6,199.5c0.1-0.2,0.2-0.2,0.3,0.1c0,0-0.2,0.1-0.2,0.1L75.6,199.5z"/>
	<path class="st4" d="M192,202.7c-0.1-0.1-0.2-0.2-0.2-0.3c0.1,0,0.2,0,0.3-0.1C192,202.5,192,202.6,192,202.7z"/>
	<path class="st4" d="M89,201.9c0.2-0.2,0.3-0.1,0.4,0C89.3,202.1,89.2,202.1,89,201.9z"/>
	<path class="st4" d="M144.1,83c0,0.1,0,0.3,0,0.4c0-0.1-0.1-0.2-0.1-0.3C144,83.1,144.1,83,144.1,83z"/>
	<path class="st4" d="M155.4,335.4c0,0,0.1,0,0.1,0c0,0-0.1,0.1-0.1,0.1C155.4,335.5,155.4,335.4,155.4,335.4z"/>
	<path class="st3" d="M132.6,338.8c-0.3-1.8-0.9-3.4-0.5-5.5c0.6-2.4,0.1-5,0.2-7.6c0-1.4,0.1-2.8,0.2-4.1c1.7-0.2,1.8-0.5,0.9-2.7
		c-0.5,0.1-0.7,0.9-1.3,0.9c0.7-2.7,0.2-5.4,0.3-8.1c0.1-2.8-0.3-5.6-0.1-8.4c0.3-3.9,0.4-7.9-0.2-11.8c-0.3-1.6,0.6-3,0.6-4.6
		c-0.2-3.1-0.5-6.2,0.1-9.2c0.6-0.2,1.2-0.4,1.1-1.3c-0.1-0.9-0.8-1-1.4-1c0.1-4.2,0.2-8.4,0.3-12.6c1.5-0.8,1.5-1.2,0-2.6
		c-0.4-4.1-0.5-8.3,0-12.4c1.5-0.8,1.5-1.1,0-2.2c-0.3-2.6-0.2-5.2-0.2-7.8c0-1.8,0.2-3.6-0.5-5.4c-0.4-1.1,0.5-1.9,0.4-3
		c-0.5-3.8-0.1-7.7-0.3-11.6c-0.1-3.6,0.1-7.4,0.2-11.1c0.1-2-0.2-2-2.1-2c-3.8,0-7.6-0.4-11.4-0.4c-1.6,0-3.4-0.8-4.8,0.6
		c-0.5-1.5,0.5-1.4,1.5-1.4c2.7-0.1,5.3,0.6,8,0c1.5-0.4,2.8-0.3,4.2,0.4c0.8,0.4,1.7,0.4,2.5,0.1c0.9-0.3,1.7-0.2,2.4,0.4
		c0.4,0.4,0.9,0.6,1.5,0.2c0.9-0.6,1.4-0.4,1.4,0.8c0,3.9,0.3,7.9,0.1,11.9c-0.1,2.3,0.1,4.7,0.1,7.1c0,16.3,0,32.6,0,48.9
		c0,10.3,0.1,20.6,0.1,30.9c0,9.6,0.1,19.2-0.1,28.8c-0.1,3.2-0.1,6.4-0.2,9.6c0,0.6,0,1.1-0.6,1.4c-0.4,0.2-0.7,0.1-1-0.2
		c-0.4-0.5-0.4-1-0.2-1.5c1-2.3-0.3-4.7,0.5-7c0.2-0.5-0.3-1.3-1-1.2c-0.8,0.1-0.8,0.9-0.6,1.5C132.8,336.6,133.2,337.7,132.6,338.8
		z M134,324.7c-0.1-0.4,0.1-1.1-0.6-1.1c-0.5,0-0.6,0.5-0.5,1c0,0.5-0.1,1.3,0.7,1.3C134.1,325.8,133.9,325.1,134,324.7z
		 M132.6,305.5c0.1,0.5,0.2,1,0.7,1.1c0.6,0.1,0.7-0.4,0.7-0.8c0-0.5-0.1-1-0.6-1.1C132.8,304.6,132.7,305,132.6,305.5z
		 M133.6,218.4c0.5-0.1,0.7-0.5,0.7-0.9c-0.1-0.5-0.4-0.9-0.9-0.9c-0.5,0.1-0.5,0.6-0.5,1C132.9,218.1,133.1,218.4,133.6,218.4z
		 M133.6,329.4c-0.5,1-0.2,1.8-0.2,2.6C133.6,331.3,134.2,330.5,133.6,329.4z"/>
	<path class="st6" d="M178.7,161.2c5.1,0.8,10.3-0.3,15.4,0.4c2.3,0.3,4.6,0.3,6.9,0.3c3.9-0.1,7.8,0.7,11.8,0.5
		c3.9-0.2,7.8,0.4,11.6,0.8c3.7,0.4,7.4,0.9,11.1,1.3c3.6,0.4,7,1.1,10.4,2.2c0.8,0.2,1.4,0.7,1.2,1.5c-0.2,0.8-1.1,0.8-1.7,0.6
		c-3-1.1-6.2-1.5-9.4-2c-4.4-0.6-8.7-1.4-13.1-1.6c-9.1-0.5-18.3-1.1-27.4-1.5c-3.2-0.2-6.4-0.3-9.6-0.7c-2.8-0.3-5.7,0-8.5-0.1
		c-0.9,0-1.8-0.2-2.7-0.3c-0.4,0-0.8-0.2-0.8-0.6c0-0.5,0.4-0.7,0.9-0.7C176,161.2,177.3,161.2,178.7,161.2z"/>
	<path class="st4" d="M131.4,364.7c-0.1-0.4-0.2-0.8-0.3-1.2c1.6,0.8,1.4-0.8,1.4-1.4c0.1-1.5,0-3.1-0.1-4.7
		c-0.1-0.9,0.8-2.6-0.8-2.6c-1.4,0-0.5,1.7-0.8,2.5c-1.1-2.7-0.6-3.4,2.1-3.1c2.6,0.3,2.6,0.3,2.6,2.9c0,8.3,0.2,16.7-0.1,25
		c-0.2,6.4,0.1,12.8,0.1,19.2c0,0.8-0.1,1.5-1.1,1.5c-0.9,0-1.6-0.4-1.6-1.4c0.1-2.2-0.5-4.5,0.5-6.7c0.1-0.2,0.2-0.5,0.1-0.7
		c-1.4-4.6-0.2-9.4-0.7-14.1c-0.2-2.1-1.2-4.1-1.3-6.3c0-1.5-0.4-3,0-4.5c0.5,0.2,0.1,1,0.7,1.2c1.1-1.2-0.2-2.7,0.5-4
		c1.1-0.1,1.4-0.8,1.3-1.7c-0.1-0.5-0.2-1.2-0.8-1.3c-0.9-0.1-0.6,0.8-0.9,1.3C132.1,364.8,131.8,364.8,131.4,364.7z"/>
	<path class="st5" d="M185.1,186.1c-0.8,1.6-2.1,2.8-3.1,4.1c-0.2,0.3-0.6,0.8-1,0.4c-0.3-0.2-0.2-0.7,0-1c1.2-2.3,1-4.8,1-7.3
		c-0.1-2.2,0.4-2.9,2.6-2.6c4.6,0.6,9.2-0.3,13.8,0c1.1,0.1,2,0.1,1.8,1.6c-0.1,1.1-0.5,1.8-1.8,1c-0.9-0.5-1.8-0.4-2.7-0.2
		c-0.2,0.9,0.9,0.9,0.8,1.6c-1,0.5-1.3,1.4-0.9,2.4c0.4,0.9,1.1,0.3,1.7,0.1c0.2,0.3,0.2,0.7-0.1,0.8c-2.4,0.9-3.8,3.2-6.1,4.3
		c-0.5,0.2-0.9,0.9-1.4,0.3c-0.4-0.5,0.3-0.9,0.6-1.2c1.9-1.8,2.3-4.1,2.1-6.5c-0.1-1.8-1-2.3-2.7-1.7c-1.1,0.4-2.2,1.3-3.2-0.4
		c-0.3-0.6-1.4-0.6-1.8-0.1c-0.6,0.8,0.5,0.8,0.9,1.1c0.5,0.4,0.7,0.8,0.4,1.4c-0.5-0.1-1.1-0.9-1.5-0.1
		C184,184.9,184.3,185.7,185.1,186.1z"/>
	<path class="st4" d="M113.2,183c0.4-0.7,1.1-0.9,1.7-0.7c0.6,0.2,0.3,1,0.3,1.5c0.1,1.2,0.3,2.4,0.1,3.6c-0.2,0.9,0.6,1.6,1.2,2.2
		c2.4,2.3,5,4.4,8.2,5.5c0.6,0.2,1.3,0.4,1.8,0.8c0.5,0.3,1.2,0.7,0.9,1.4c-0.3,0.7-1,0.6-1.6,0.5c-1.8-0.5-3.3-1.5-4.9-2.3
		c-2.8-1.6-5-3.8-7.2-6c-1.1-1-2.4-2.1-2.7-3.8c0.3,0.1,0.6,0.2,0.9,0.2c1.2-0.1,2-0.8,2.4-1.9C114.6,183,113.7,183.1,113.2,183z"/>
	<path class="st4" d="M124.9,182.3c0.2-0.6,0.4-1.1,1.1-0.8c0.5,0.2,0.5,0.7,0.4,1.1c-2,6.4,2.4,9.5,6.7,12.6c0.6,0.5,2,0.7,1.5,1.7
		c-0.5,1.1-1.8,0.5-2.6,0.1c-2-1.1-3.3-3-4.9-4.6c-1.9-1.9-2.7-4.5-4.4-6.6c-0.4-0.5-0.6-1.3,0.3-1.6c0.1,0.7,0,1.7,0.9,1.7
		c1.1,0.1,1.2-1,1.5-1.8C125.7,183.4,126.2,182.6,124.9,182.3z"/>
	<path class="st4" d="M85,184.9c1.6,0,2.1,0.5,2.2,1.6c0.1,1.6-1.3,1.9-2.1,2.6c-0.8,0.7-1.3-0.2-1.8-0.7c-0.7-0.6-1.5-0.7-2.3-0.8
		c-0.4,0-0.7-0.2-0.8-0.6c0-0.4,0.2-0.6,0.5-0.7C82.2,185.8,83.8,185.3,85,184.9z"/>
	<path class="st4" d="M93.7,184.2c0.8,0,1.4-0.1,1.5,0.6c0.1,0.7,0.2,1.5-0.6,1.7c-0.9,0.2-1.2,0.6-1.2,1.5c0,0.2,0,0.4-0.2,0.5
		c-1.5,1-1.9-0.7-2.8-1.2c-0.7-0.4-1-1.3-0.2-1.8C91.4,184.9,92.7,184.6,93.7,184.2z"/>
	<path class="st4" d="M102.1,184.1c0.7-0.3,1.6-0.9,2.1-0.3c0.7,0.7,0.3,1.6-0.5,2.3c-0.6,0.5,0,1,0.3,1.4c0.3,0.3,0.6,0.7,0.3,1.1
		c-0.4,0.4-0.8,0.1-1.2-0.1c-1.1-0.7-2.3-1.3-3.3-2.2c-0.5-0.5-1.1-1.4,0.3-1.8c0.2,0.7,0,1.8,1.2,1.5
		C102.4,185.8,102.5,185,102.1,184.1z"/>
	<path class="st4" d="M172.2,161.7c-1.8,1.3-3.4,0.7-4.8,0.9c-1.6,0.2-3.2-0.5-4.9,0c-0.4,0.1-0.9,0-0.9-0.6c0-0.5,0.5-0.8,0.9-0.7
		C165.5,161.7,168.6,161.2,172.2,161.7z"/>
	<path class="st4" d="M173.9,184.7c-0.1,0.7-0.1,1.7-1.2,1.8c-1.1,0.1-1.1-0.9-1.2-1.7c0-0.1,0-0.2,0-0.4c0-0.8-0.9-1.9,0.5-2.3
		C172.8,181.9,173.9,183.3,173.9,184.7z"/>
	<path class="st4" d="M147.8,186.4c-0.6-1.7-1.2-3,0-4.3c0.3-0.3,0.6-0.5,1-0.4c0.5,0.2,0.6,0.6,0.5,1.1
		C149,184,148.7,185.1,147.8,186.4z"/>
	<path class="st6" d="M154.4,211c-0.1,1,0.2,1.9,0.4,2.9c0.1,0.5,0.2,1.1-0.5,1.2c-0.6,0.1-0.6-0.5-0.6-0.9
		c-0.1-1.4-0.3-2.9-0.3-4.3c0-0.4-0.1-1.1,0.6-1.1c0.5,0,0.5,0.6,0.5,1C154.4,210.2,154.4,210.6,154.4,211z"/>
	<path class="st4" d="M142.9,377.5c0-0.9,0.1-1.6,1-1.6c0.7,0.1,0.9,0.8,0.8,1.4c-0.1,0.7,0,1.7-0.8,1.8
		C142.8,379.1,143.1,378,142.9,377.5z"/>
	<path class="st4" d="M142.9,362.8c0.1-0.6-0.1-1.4,0.7-1.5c1-0.1,1,0.9,1.1,1.6c0.1,0.6-0.1,1.4-0.8,1.4
		C142.9,364.4,142.9,363.5,142.9,362.8z"/>
	<path class="st4" d="M159.5,183.5c0-0.7,0-1.5,0.7-1.4c1,0.1,1.2,1.1,1.2,1.9c-0.1,0.8-0.1,2.4-1,2.2
		C159.2,185.9,159.9,184.2,159.5,183.5z"/>
	<path class="st4" d="M240.3,397.7c0.5,0.1,0.6,0.5,0.7,0.9c0.1,0.4-0.1,0.8-0.5,0.9c-0.5,0-0.6-0.4-0.6-0.8
		C239.8,398.3,239.8,397.9,240.3,397.7z"/>
	<path class="st4" d="M184.7,147.3c0,0.8-0.5,1.2-1.1,1.1c-0.9-0.1-2-0.1-2.2-1.2c-0.1-1,1-0.9,1.7-1
		C184,146.1,184.5,146.6,184.7,147.3z"/>
	<path class="st4" d="M169.2,146.5c-0.6-0.1-1.4,0.1-1.4-0.7c0-0.8,0.8-0.9,1.5-1c0.7-0.1,1.3,0.3,1.3,0.9
		C170.6,146.6,169.8,146.5,169.2,146.5z"/>
	<path class="st4" d="M45.9,163.8c-0.1,0.7-0.5,0.9-1.1,0.9c-0.7,0-1.3-0.3-1.4-1c-0.1-0.6,0.5-0.7,1-0.7
		C45.1,162.9,45.7,163,45.9,163.8z"/>
	<path class="st4" d="M258,164.7c-0.2,0.6-0.6,1.1-1.4,1.1c-0.6-0.1-1.1-0.4-1-1.1c0.1-0.8,0.8-1,1.5-1
		C257.8,163.7,258.1,164,258,164.7z"/>
	<path class="st4" d="M114.5,208.1c0.7,1.7,0.9,3.5,0.7,5.3C114.4,211.7,114.2,209.9,114.5,208.1z"/>
	<path class="st4" d="M126.7,146.2c-0.1,0.7-0.3,1.2-1,1.1c-0.7,0-0.9-0.6-0.9-1.1c0-0.6,0.2-1.2,1-1.1
		C126.5,145.1,126.7,145.7,126.7,146.2z"/>
	<path class="st4" d="M132.1,344.6c0.3-0.8,0.4-1.7,0.1-2.6c-0.2-0.7-0.3-1.5,0.4-2.1c0.2,1,0.5,2.1,0.6,3.1
		C133.3,343.8,133.3,344.7,132.1,344.6z"/>
	<path class="st4" d="M108.5,215.8c-1.1-0.2-0.7-1.1-0.7-1.8c0-1,0.1-2,0.1-3C108.5,212.6,108.6,214.2,108.5,215.8z"/>
	<path class="st4" d="M119.8,310.9c-0.9-1.4-0.7-3-0.7-4.6C120.3,307.7,120.4,309.2,119.8,310.9z"/>
	<path class="st4" d="M107.8,210.4c-0.6-1.8-0.8-3.7-0.6-5.6C108,206.6,107.8,208.5,107.8,210.4z"/>
	<path class="st4" d="M253.3,165.5c-0.1,0.6-0.6,0.8-1.2,0.8c-0.4,0-0.9-0.2-0.8-0.8c0.1-0.7,0.7-0.8,1.2-0.8
		C252.9,164.7,253.3,164.9,253.3,165.5z"/>
	<path class="st4" d="M106.6,203.5c-0.9-0.1-1.3,0.4-1.6,1.2c-0.9-1-0.2-1.6,0.6-2.1C106.5,202.1,106.6,202.8,106.6,203.5z"/>
	<path class="st4" d="M129.3,343.6c0.4,0.4,1,0.6,1,1.3C129,345,129,345,129.3,343.6z"/>
	<path class="st4" d="M121.7,272.8c0.5,0.8,0.4,1.7,0.2,2.6C120.7,274.6,121.6,273.7,121.7,272.8z"/>
	<path class="st4" d="M120.6,264c0.5,0.6,0.4,1.2,0.2,1.9C120,265.3,120.1,264.7,120.6,264z"/>
	<path class="st4" d="M108.8,218.4c-0.5-0.4-0.5-1-0.2-1.5C109.3,217.3,109.3,217.8,108.8,218.4z"/>
	<path class="st4" d="M121.3,269.9c0.4,0.5,0.4,1,0.2,1.5C120.8,270.9,120.9,270.4,121.3,269.9z"/>
	<path class="st4" d="M114.2,206c0.3,0.5,0.5,0.9,0.2,1.4C114,207,114,206.5,114.2,206z"/>
	<path class="st4" d="M129.2,341c0.4,0.5,0.4,1,0,1.5C128.9,342,128.9,341.5,129.2,341z"/>
	<path class="st4" d="M128.6,336.3c0.4,0.5,0.3,1,0.1,1.5C128.2,337.3,128.1,336.8,128.6,336.3z"/>
	<path class="st4" d="M120.4,314.1c-0.5-0.3-0.5-0.7-0.3-1.2C120.9,313.1,121,313.5,120.4,314.1z"/>
	<path class="st4" d="M105.2,206c0.4,0.3,0.4,0.7,0.2,1.2C104.8,206.9,104.7,206.5,105.2,206z"/>
	<path class="st4" d="M119.3,251.3c0.4,0.3,0.4,0.7,0.1,1.1C119,252,118.9,251.7,119.3,251.3z"/>
	<path class="st4" d="M121,267.3c0.4,0.3,0.4,0.7,0.2,1.1C120.6,268.1,120.5,267.8,121,267.3z"/>
	<path class="st4" d="M120.2,261.5c0.4,0.3,0.4,0.7,0.1,1.2C119.8,262.3,119.8,261.9,120.2,261.5z"/>
	<path class="st4" d="M207.4,144.8c-0.3,0.2-0.6,0.3-0.9,0.2c-0.1-0.3,0-0.4,0.3-0.5C207.1,144.4,207.4,144.5,207.4,144.8z"/>
	<path class="st4" d="M131.5,367.3c0.3,0.2,0.5,0.4,0.2,0.7C131.2,367.9,131.3,367.6,131.5,367.3z"/>
	<path class="st4" d="M122.1,277.5c0.3,0.2,0.3,0.5,0.1,0.8c-0.2-0.1-0.5-0.2-0.5-0.4C121.6,277.7,121.9,277.6,122.1,277.5z"/>
	<path class="st4" d="M120.8,315.5c-0.4-0.2-0.4-0.5-0.2-0.8C121.1,314.8,121.3,315.1,120.8,315.5z"/>
	<path class="st4" d="M120,312.2c-0.4-0.2-0.5-0.4-0.2-0.7C120.4,311.6,120.5,311.8,120,312.2z"/>
	<path class="st4" d="M132.6,339.5c-0.1,0-0.2-0.1-0.3-0.1c0.1,0,0.2-0.1,0.3-0.1l0.1,0.1L132.6,339.5z"/>
	<path class="st4" d="M122.3,279c0,0.1,0,0.2,0,0.4C122,279.2,122,279.1,122.3,279z"/>
	<path class="st3" d="M233.5,151.5c-1-0.4-2.2-0.3-3.4-0.3c-1.5,0-2.7-0.5-3.2-2.1c-0.2-0.8-0.8-1.5-1.1-2.3c-0.5-1.1-0.6-2,0.7-2.7
		c0.8-0.4,1.3-1.2,0.5-2.1c-0.3-0.4-0.4-0.9-0.1-1.3c0.3-0.4,0.7-0.4,1.1-0.4c0.7,0.1,0.7,0.7,0.8,1.2c0.3,1.4,0.4,2.7-0.6,3.9
		c-0.4,0.5-0.4,1.4-0.5,2.1c-0.1,0.8,0,1.7,0.9,2c0.9,0.4,1-0.6,1.4-1c0.9-1.1,1.4-0.5,1.8,0.4c0.3,0.7,0.5,1.4,1.4,0.5
		c0.4-0.4,0.9-0.7,1.5-0.3c0.4,0.4,0.6,1,0.4,1.5C234.9,151.5,234.3,151.6,233.5,151.5z"/>
	<path class="st3" d="M236.6,144.7c-0.4,0.4-0.5,0.9-0.5,1.4c-0.7,0-0.8,1.5-1.7,0.9c-0.8-0.6-0.5-1.5-0.3-2.4
		c0.1-0.3,0.1-0.6,0.2-0.9c0.2-2.3,1.1-3,3.4-2.3c0.4,0.1,0.9,0.2,0.9,0.8c0,0.4-0.4,0.5-0.8,0.6
		C236.5,143.4,236.5,143.5,236.6,144.7z"/>
	<path class="st3" d="M243.1,153.5c-0.2,0-0.4-0.1-0.6-0.1c-1.1-0.6-1.1-1.2-0.5-2.3c0.6-1,0.9-1.1,1.7-0.2c1.1,1.2,2.9,1.3,4,2.5
		c0.2,0.2,0.6,0.2,0.6,0.6c-0.6,0.6-1.4,0.1-2,0.4c-0.8-0.2-1.6-0.4-2.4-0.6C243.7,153.2,243.5,153,243.1,153.5z"/>
	<path class="st3" d="M246.8,157.2c0.3,0,0.7,0,1,0c-0.4,1.4-1.6,0.7-2.4,0.7c-1.1,0-2.2-0.5-3.3,0c-0.7,0.3-1.5-0.2-1.8-0.9
		c-0.4-0.9,0.9-0.4,1.1-1c1.6,0,3.1,0.6,4.6,1C246.1,157.6,246.3,157.7,246.8,157.2z"/>
	<path class="st3" d="M53.9,152.6c0.6,0.3,1.1,0.6,1.8,0.6c0.7,0,1.7,0.1,1.7,0.9c0,0.9-1,0.4-1.6,0.4c-0.5,0.1-0.9,0.2-1.3,0.5
		c-0.4,0.3-0.7,0.2-0.9-0.2c-0.3-0.5-0.5-1.1-0.4-1.7C53.2,152.7,53.5,152.5,53.9,152.6z"/>
	<path class="st3" d="M60.6,150.5c0.9-0.2,1.1,0.6,1.6,1c-0.2,1.3-1.7,2.2-2.9,1.9c-0.4-0.1-0.7-0.4-0.8-0.9c0-0.6,0.3-0.9,0.9-0.9
		C60.2,151.7,60.7,151.4,60.6,150.5z"/>
	<path class="st3" d="M230.7,144.8c0-0.3,0-0.4,0-0.5c0.2-0.8,0.4-1.5,1.1-2c0.3-0.2,0.7-0.1,1,0.3c0.5,0.8,0.2,1.5-0.1,2.2
		c0,0.1-0.1,0.2-0.1,0.3c-0.3,0.5-0.2,1.4-1,1.3C230.6,146.2,230.7,145.3,230.7,144.8z"/>
	<path class="st3" d="M217.9,185.6c-0.3-0.2-0.7-0.3-1-0.5c-0.1-0.2-0.1-0.5-0.2-0.7c-0.4-0.7-0.9-1.5,0.1-2
		c0.9-0.4,1.4,0.6,1.7,1.3C218.7,184.5,219.4,185.5,217.9,185.6z"/>
	<path class="st3" d="M158.6,281c0,1.3,0,2.7,0,4c0,1.3-0.6,1.8-1.9,1.8c-1.2,0-2-0.2-2-1.6c0-2.9,0-5.8,0-8.7
		c0-1.2,0.8-1.5,1.8-1.5c1,0,2,0,2.1,1.4C158.6,277.8,158.5,279.4,158.6,281C158.6,281,158.6,281,158.6,281z"/>
	<path class="st3" d="M158.6,266.2c0,1.5,0,2.9,0,4.4c0,0.8-0.2,1.6-1.2,1.4c-0.9-0.2-2.5,0.5-2.6-1.2c-0.1-3.1-0.2-6.2-0.1-9.3
		c0-1.5,1.4-1.5,2.5-1.5c1.2,0,1.4,0.8,1.4,1.7C158.6,263.2,158.6,264.7,158.6,266.2C158.6,266.2,158.6,266.2,158.6,266.2z"/>
	<path class="st3" d="M154.7,295.1c0-1.3,0-2.5,0-3.8c0-1.1,0.3-1.8,1.6-1.9c1.3,0,2.2,0.2,2.2,1.7c0,2.9,0,5.8,0,8.7
		c0,1-0.5,1.5-1.6,1.5c-1.1,0-2.2-0.1-2.2-1.5C154.6,298.3,154.7,296.7,154.7,295.1C154.7,295.1,154.7,295.1,154.7,295.1z"/>
	<path class="st3" d="M158.6,251.4c0,1.4,0,2.8,0,4.2c0,0.8-0.1,1.7-1.1,1.5c-1-0.2-2.7,0.4-2.7-1.4c-0.1-3-0.2-5.9,0-8.9
		c0-1.4,1.4-1.3,2.4-1.5c1-0.1,1.4,0.6,1.4,1.5C158.5,248.4,158.5,249.9,158.6,251.4C158.5,251.4,158.5,251.4,158.6,251.4z"/>
	<path class="st3" d="M158.6,310.5c0,1.2,0,2.4,0,3.6c0,1.3-0.4,1.9-1.8,1.9c-1.2,0-2.2-0.4-2.1-1.7c0.2-2.9-0.1-5.7-0.1-8.5
		c0-1,0.5-1.4,1.5-1.4c1,0,2.1-0.2,2.2,1.2C158.5,307.2,158.5,308.8,158.6,310.5z"/>
	<path class="st3" d="M132.2,319.9c0.6,0,0.8-0.7,1.3-0.9c0.9,2.1,0.8,2.5-0.9,2.7C132.2,321.1,132.1,320.5,132.2,319.9z"/>
	<path class="st3" d="M132.5,275.3c0.7,0.1,1.3,0.2,1.4,1c0.1,0.9-0.5,1.1-1.1,1.3C132.4,276.9,132.2,276.2,132.5,275.3z"/>
	<path class="st3" d="M132.9,260.2c1.5,1.4,1.5,1.8,0,2.6C132.3,261.9,132.1,261,132.9,260.2z"/>
	<path class="st3" d="M132.9,245.6c1.5,1.1,1.5,1.4,0,2.2C132.1,247.1,132.4,246.3,132.9,245.6z"/>
	<path class="st3" d="M134,324.7c-0.1,0.4,0.1,1.1-0.4,1.1c-0.8,0-0.6-0.7-0.7-1.3c0-0.4,0-1,0.5-1
		C134.1,323.6,133.9,324.3,134,324.7z"/>
	<path class="st3" d="M132.6,305.5c0.1-0.5,0.2-0.9,0.7-0.8c0.6,0.1,0.6,0.7,0.6,1.1c0,0.4-0.1,0.9-0.7,0.8
		C132.8,306.5,132.7,306,132.6,305.5z"/>
	<path class="st3" d="M133.6,218.4c-0.5,0-0.7-0.3-0.8-0.8c0-0.4,0-0.9,0.5-1c0.6-0.1,0.9,0.3,0.9,0.9
		C134.3,217.9,134.1,218.3,133.6,218.4z"/>
	<path class="st3" d="M133.6,329.4c0.5,1.1,0,1.8-0.2,2.6C133.4,331.2,133.2,330.4,133.6,329.4z"/>
	<path class="st4" d="M246.8,157.2c-0.4,0.5-0.7,0.4-0.9-0.2C246.3,156.8,246.5,156.8,246.8,157.2z"/>
	<path class="st4" d="M243.1,153.5c0.4-0.5,0.7-0.3,0.8,0.2C243.6,153.9,243.3,153.9,243.1,153.5z"/>
	<path class="st3" d="M132.9,366.6c-0.2-0.6-0.3-1.2-0.5-1.8c0.3-0.4,0-1.4,0.9-1.3c0.6,0.1,0.7,0.8,0.8,1.3
		C134.3,365.8,134,366.5,132.9,366.6z"/>
</g>
<path class="st8" d="M283.3,233.2"/>
<path class="st8" d="M444,425.7"/>
</svg>
